<svg xmlns="http://www.w3.org/2000/svg" xmlns:xlink="http://www.w3.org/1999/xlink" viewBox="0 0 1112 1101.95"><defs><style>.cls-1{fill:url(#radial-gradient);}.cls-2{fill:url(#radial-gradient-2);}.cls-3{fill:none;}.cls-4{fill:#373241;}</style><radialGradient id="radial-gradient" cx="337.88" cy="508.43" r="59.79" gradientUnits="userSpaceOnUse"><stop offset="0" stop-color="#fff"/><stop offset="0.25" stop-color="#fffefd"/><stop offset="0.37" stop-color="#fdfcf5"/><stop offset="0.47" stop-color="#fbf8e8"/><stop offset="0.56" stop-color="#f9f3d5"/><stop offset="0.59" stop-color="#f7f0ca"/><stop offset="0.64" stop-color="#f6edc7" stop-opacity="0.98"/><stop offset="0.72" stop-color="#f3e6bf" stop-opacity="0.91"/><stop offset="0.81" stop-color="#eedab1" stop-opacity="0.8"/><stop offset="0.92" stop-color="#e7c99e" stop-opacity="0.64"/><stop offset="1" stop-color="#e1b98c" stop-opacity="0.5"/></radialGradient><radialGradient id="radial-gradient-2" cx="937.88" cy="340.02" r="59.79" xlink:href="#radial-gradient"/></defs><title>1p</title><g id="Layer_2" data-name="Layer 2"><g id="Layer_1-2" data-name="Layer 1"><path class="cls-1" d="M397.67,508.44a59.8,59.8,0,1,1-59.78-59.81A59.77,59.77,0,0,1,397.67,508.44Z"/><path class="cls-2" d="M997.68,340a59.8,59.8,0,1,1-59.79-59.79A59.8,59.8,0,0,1,997.68,340Z"/><path class="cls-3" d="M397.67,508.44a59.8,59.8,0,1,1-59.78-59.81A59.77,59.77,0,0,1,397.67,508.44Z"/><path class="cls-3" d="M997.68,340a59.8,59.8,0,1,1-59.79-59.79A59.8,59.8,0,0,1,997.68,340Z"/><path class="cls-3" d="M397.67,508.44a59.8,59.8,0,1,1-59.78-59.81A59.77,59.77,0,0,1,397.67,508.44Z"/><path class="cls-3" d="M997.68,340a59.8,59.8,0,1,1-59.79-59.79A59.8,59.8,0,0,1,997.68,340Z"/><path class="cls-4" d="M1111.8,652V0H0V1102H1111.8V652C1111.11,652.68,1112.49,651.38,1111.8,652ZM337.89,568.22a59.8,59.8,0,1,1,59.78-59.78A59.79,59.79,0,0,1,337.89,568.22Zm600-168.41A59.8,59.8,0,1,1,997.68,340,59.8,59.8,0,0,1,937.89,399.81Z"/></g></g></svg>