<svg xmlns="http://www.w3.org/2000/svg" xmlns:xlink="http://www.w3.org/1999/xlink" viewBox="0 0 1112 1101.95"><defs><style>.cls-1{fill:url(#radial-gradient);}.cls-2{fill:url(#radial-gradient-2);}.cls-3{fill:none;}.cls-4{fill:#373241;}.cls-5{fill:#8eb28b;}.cls-6{fill:#a66773;}</style><radialGradient id="radial-gradient" cx="111.97" cy="834.75" r="59.79" gradientUnits="userSpaceOnUse"><stop offset="0" stop-color="#fff"/><stop offset="0.25" stop-color="#fffefd"/><stop offset="0.37" stop-color="#fdfcf5"/><stop offset="0.47" stop-color="#fbf8e8"/><stop offset="0.56" stop-color="#f9f3d5"/><stop offset="0.59" stop-color="#f7f0ca"/><stop offset="0.64" stop-color="#f6edc7" stop-opacity="0.98"/><stop offset="0.72" stop-color="#f3e6bf" stop-opacity="0.91"/><stop offset="0.81" stop-color="#eedab1" stop-opacity="0.8"/><stop offset="0.92" stop-color="#e7c99e" stop-opacity="0.64"/><stop offset="1" stop-color="#e1b98c" stop-opacity="0.5"/></radialGradient><radialGradient id="radial-gradient-2" cx="696.16" cy="543.43" r="59.8" xlink:href="#radial-gradient"/></defs><title>2p</title><g id="Layer_2" data-name="Layer 2"><g id="Layer_1-2" data-name="Layer 1"><path class="cls-1" d="M171.76,834.74A59.8,59.8,0,1,1,112,775,59.8,59.8,0,0,1,171.76,834.74Z"/><path class="cls-2" d="M756,543.43a59.8,59.8,0,1,1-59.81-59.81A59.82,59.82,0,0,1,756,543.43Z"/><path class="cls-3" d="M171.76,834.74A59.8,59.8,0,1,1,112,775,59.8,59.8,0,0,1,171.76,834.74Z"/><path class="cls-3" d="M756,543.43a59.8,59.8,0,1,1-59.81-59.81A59.82,59.82,0,0,1,756,543.43Z"/><path class="cls-4" d="M0,0V1102H367.51l-.18-.2h0v0a2.28,2.28,0,0,1-.22-.22l-1.12-1.26c-.46-.49-.91-1-1.35-1.48-1.9-2.12-3.8-4.27-5.65-6.42q-3-3.48-5.93-7l-2.44-3c-.93-1.11-1.82-2.24-2.69-3.36s-1.72-2.17-2.57-3.27c-2.71-3.46-5.33-7-7.91-10.52-1.09-1.5-2.15-3-3.21-4.52-.48-.69-1-1.38-1.44-2.09a4.26,4.26,0,0,1-.34-.49c-1-1.42-1.95-2.85-2.89-4.3-.25-.35-.49-.71-.71-1.06-1.21-1.83-2.4-3.7-3.58-5.56-36.11-57.54-50.32-119.41-42.18-186.91,3.92-32.38,12.07-63.34,26.85-92.19A249.57,249.57,0,0,1,324.64,743q4.56-6.81,9.58-13.21c1.68-2.14,3.4-4.25,5.13-6.32a210.16,210.16,0,0,1,60.28-49.16c37.62-20.62,77.64-29.44,120.19-28.67,24.66.46,47.7,8.53,71.37,13.91s41.13,20.07,59.18,34.68c7.28,5.9,15,11.28,21.54,17.89a59,59,0,0,1,4.67,5.18c.49.62,1,1.24,1.45,1.88,10.46,14.11,23.54,27.34,29.91,43.19,12.22,30.42,26.41,60.58,30.25,93.79,1.66,14.42,2.53,28.93,3.76,43.39,1.14,72.26-26.53,133.76-69.6,189.55q-4.44,5.74-8.88,11.53l-1,1.28H1112V0ZM112,894.55a59.8,59.8,0,1,1,59.8-59.81A59.8,59.8,0,0,1,112,894.55ZM696.15,603.23A59.81,59.81,0,1,1,756,543.43,59.79,59.79,0,0,1,696.15,603.23Z"/><path class="cls-3" d="M171.76,834.74A59.8,59.8,0,1,1,112,775,59.8,59.8,0,0,1,171.76,834.74Z"/><path class="cls-3" d="M756,543.43a59.8,59.8,0,1,1-59.81-59.81A59.82,59.82,0,0,1,756,543.43Z"/><path class="cls-3" d="M171.76,834.74A59.8,59.8,0,1,1,112,775,59.8,59.8,0,0,1,171.76,834.74Z"/><path class="cls-3" d="M756,543.43a59.8,59.8,0,1,1-59.81-59.81A59.82,59.82,0,0,1,756,543.43Z"/><path class="cls-4" d="M662.48,1102h0l1-1.28Zm-295.39-.44a2.28,2.28,0,0,0,.22.22c-.45-.5-.91-1-1.34-1.48Z"/><path class="cls-5" d="M742,899.51c-1.23-14.46-2.1-29-3.77-43.4-3.83-33.2-18-63.37-30.24-93.78-6.38-15.86-19.46-29.09-29.91-43.19-.47-.64-1-1.26-1.45-1.89q-2.22-2.71-4.67-5.17c-6.56-6.61-14.26-12-21.54-17.88-18.06-14.61-35.46-29.28-59.18-34.68s-46.71-13.45-71.37-13.91c-42.56-.77-82.57,8.06-120.2,28.67a210.52,210.52,0,0,0-60.27,49.14c-1.73,2.07-3.45,4.19-5.13,6.33q-5,6.4-9.58,13.21A246.59,246.59,0,0,0,310,768c-14.78,28.85-22.94,59.8-26.85,92.18-8.14,67.51,6.06,129.38,42.18,186.91q1.77,2.81,3.58,5.57c.22.35.45.7.71,1.06.94,1.44,1.91,2.87,2.89,4.3.1.17.22.34.33.49.49.7,1,1.39,1.45,2.08,1.06,1.52,2.12,3,3.21,4.53q3.86,5.34,7.9,10.52c.86,1.09,1.7,2.19,2.58,3.26s1.76,2.26,2.69,3.36,1.63,2,2.43,3c1.94,2.36,3.9,4.69,5.94,7,1.85,2.16,3.75,4.31,5.65,6.43.44.5.89,1,1.34,1.48s.74.84,1.13,1.26l.22.22H372l286.95.29h3.56l0-.07,0,0c.32-.42.64-.84,1-1.27q4.44-5.77,8.87-11.54C715.49,1033.27,743.16,971.77,742,899.51ZM470.73,965.08c-11.25,22.66-20.8,45.91-22.16,71.63-.25,5,0,10.09,0,15.15v0c-.9,0-1.83.12-2.74.19v0c-1.9-2.25-3.85-4.41-5.88-6.47q-1-1-2-2c-.67-.67-1.36-1.33-2.06-2s-1.4-1.3-2.11-1.92c-1.41-1.26-2.85-2.47-4.32-3.66q-4.38-3.54-9-6.66c-15.46-10.39-32.91-17.4-51.25-22.62a101.61,101.61,0,0,1-13.64-4.89c-2.11-.94-4.15-1.93-6.13-3a83.37,83.37,0,0,1-8.38-5.15c-.87-.62-1.73-1.24-2.57-1.88a73.07,73.07,0,0,1-7.13-6.17c-14.07-13.82-22.12-32.55-25.8-55.1-2.14-13.14-3-26.21,1.54-39,.52-1.43,1.06-2.86,1.65-4.24s1.21-2.72,1.88-4h0c.69-1.3,1.42-2.56,2.19-3.75a30.89,30.89,0,0,1,4-5,28.17,28.17,0,0,1,2.36-2.13,24.56,24.56,0,0,1,5.56-3.35,26.94,26.94,0,0,1,5.62-1.71c13.35-2.57,25.57-.69,35.54,8.86a38,38,0,0,1,3.06,3.24c.49.58,1,1.11,1.51,1.65a65,65,0,0,0,7.18,6c1.33,1,2.69,2,4.07,3.09.69.54,1.4,1.11,2.1,1.69v0c1-8.11,1.68-15.12,2.66-22.11a94.17,94.17,0,0,1,2.45-13.18,42.68,42.68,0,0,1,9.79-17.72c.32-.34.65-.66,1-1,12.64-12.19,32-11.55,47.77,2.06,2.13,1.85,4.18,3.75,6.13,5.72C484,876.34,492.11,922,470.73,965.08Zm233.68-11.91a77.9,77.9,0,0,1-14,18.14A99.78,99.78,0,0,1,666,988.53c-14.42,7.38-29.45,13.77-43.22,22.21a99.24,99.24,0,0,0-18.65,14.71,91.1,91.1,0,0,0-14.49,19.08,1,1,0,0,1-.15.2,13.93,13.93,0,0,1-2.4,1.32v0c1.21-27.2-11-49.85-22.48-72.62-3.38-6.67-7.8-12.87-12.16-19-13.6-19.09-15.16-40.91-12.26-62.73,1.82-13.55,5.52-26.77,12.13-38.79.57-1,1.17-2.07,1.8-3.08a82.87,82.87,0,0,1,7.36-10.4c1.41-1.7,2.87-3.33,4.42-4.86,6.64-6.66,14.41-11.52,24.06-13.13a32.64,32.64,0,0,1,28.73,9.46,40.09,40.09,0,0,1,10.95,21.62c1.5,8.71,3.46,17.34,5.6,27.9,5-5.27,9.31-10.13,13.72-14.58,1.46-1.48,2.94-2.91,4.45-4.31,14.14-12.89,29.9-15.83,43.78-7.76a34.87,34.87,0,0,1,6.8,5.14c7,6.86,10.42,16.19,12.3,26.1C720.87,909.14,716,932.26,704.41,953.17Z"/><path class="cls-6" d="M704.34,953.26C695.78,968.73,682,980.38,666,988.6c-14.42,7.38-29.45,13.77-43.22,22.21a94.38,94.38,0,0,0-33.14,33.81c-.34.59-1.33.79-2.56,1.5,1.22-27.2-10.94-49.85-22.47-72.62-3.38-6.67-7.8-12.88-12.16-19-13.6-19.09-15.16-40.91-12.26-62.73,2.53-18.85,8.71-37.08,21.29-52.27,7.56-9.12,16.61-16,28.48-18,18.93-3.16,36.15,10.64,39.68,31.1,1.49,8.71,3.46,17.34,5.6,27.89,6.71-7,12.1-13.33,18.17-18.89,14.14-12.9,29.89-15.84,43.78-7.77,11.77,6.83,16.7,18.58,19.1,31.25C720.8,909.23,715.91,932.35,704.34,953.26Z"/><path class="cls-6" d="M470.66,965.16c-11.25,22.67-20.8,45.92-22.16,71.64-.25,5,0,10.09,0,15.15-.9,0-1.83.12-2.74.19-20.27-24.1-47.33-37-76.68-45.36-38.84-11-57.45-38.19-63.65-76.17-2.14-13.14-3-26.21,1.54-39,4.12-11.49,10.19-21.71,23.24-24.23,14.74-2.84,28.13-.25,38.6,12.12,3.85,4.54,9.23,7.8,14.86,12.43,1-8.11,1.68-15.12,2.66-22.11a94.17,94.17,0,0,1,2.45-13.18c8.71-29.63,36.91-35.31,58.55-16.66C482.78,870.54,493.42,919.28,470.66,965.16Z"/></g></g></svg>