<svg xmlns="http://www.w3.org/2000/svg" xmlns:xlink="http://www.w3.org/1999/xlink" viewBox="0 0 1120.66 1101.95"><defs><style>.cls-1{fill:url(#radial-gradient);}.cls-2{fill:url(#radial-gradient-2);}.cls-3{fill:none;}.cls-4{fill:#373241;}</style><radialGradient id="radial-gradient" cx="190.7" cy="308.42" r="59.8" gradientUnits="userSpaceOnUse"><stop offset="0" stop-color="#fff"/><stop offset="0.25" stop-color="#fffefd"/><stop offset="0.37" stop-color="#fdfcf5"/><stop offset="0.47" stop-color="#fbf8e8"/><stop offset="0.56" stop-color="#f9f3d5"/><stop offset="0.59" stop-color="#f7f0ca"/><stop offset="0.64" stop-color="#f6edc7" stop-opacity="0.98"/><stop offset="0.72" stop-color="#f3e6bf" stop-opacity="0.91"/><stop offset="0.81" stop-color="#eedab1" stop-opacity="0.8"/><stop offset="0.92" stop-color="#e7c99e" stop-opacity="0.64"/><stop offset="1" stop-color="#e1b98c" stop-opacity="0.5"/></radialGradient><radialGradient id="radial-gradient-2" cx="569.66" cy="676.85" r="59.8" xlink:href="#radial-gradient"/></defs><title>3p</title><g id="Layer_2" data-name="Layer 2"><g id="Layer_1-2" data-name="Layer 1"><path class="cls-1" d="M250.5,308.43a59.8,59.8,0,1,1-59.79-59.8A59.79,59.79,0,0,1,250.5,308.43Z"/><path class="cls-2" d="M629.46,676.85a59.8,59.8,0,1,1-59.81-59.8A59.83,59.83,0,0,1,629.46,676.85Z"/><path class="cls-3" d="M250.5,308.43a59.8,59.8,0,1,1-59.79-59.8A59.79,59.79,0,0,1,250.5,308.43Z"/><path class="cls-3" d="M629.46,676.85a59.8,59.8,0,1,1-59.81-59.8A59.83,59.83,0,0,1,629.46,676.85Z"/><path class="cls-3" d="M250.5,308.43a59.8,59.8,0,1,1-59.79-59.8A59.79,59.79,0,0,1,250.5,308.43Z"/><path class="cls-3" d="M629.46,676.85a59.8,59.8,0,1,1-59.81-59.8A59.83,59.83,0,0,1,629.46,676.85Z"/><path class="cls-4" d="M0,0V1102H1120.66V0ZM190.71,368.22a59.8,59.8,0,1,1,59.79-59.79A59.81,59.81,0,0,1,190.71,368.22ZM569.65,736.66a59.81,59.81,0,1,1,59.81-59.81A59.8,59.8,0,0,1,569.65,736.66Z"/></g></g></svg>