<svg xmlns="http://www.w3.org/2000/svg" xmlns:xlink="http://www.w3.org/1999/xlink" viewBox="0 0 1111.99 1120.85"><defs><style>.cls-1{fill:#373241;}.cls-2{fill:#1a1e23;}.cls-3{fill:#4c787a;}.cls-4{fill:#6f9495;}.cls-5{fill:#a1cdb1;}.cls-6{fill:url(#radial-gradient);}</style><radialGradient id="radial-gradient" cx="388.06" cy="88.51" r="59.79" gradientUnits="userSpaceOnUse"><stop offset="0" stop-color="#fff"/><stop offset="0.25" stop-color="#fffefd"/><stop offset="0.37" stop-color="#fdfcf5"/><stop offset="0.47" stop-color="#fbf8e8"/><stop offset="0.56" stop-color="#f9f3d5"/><stop offset="0.59" stop-color="#f7f0ca"/><stop offset="0.64" stop-color="#f6edc7" stop-opacity="0.98"/><stop offset="0.72" stop-color="#f3e6bf" stop-opacity="0.91"/><stop offset="0.81" stop-color="#eedab1" stop-opacity="0.8"/><stop offset="0.92" stop-color="#e7c99e" stop-opacity="0.64"/><stop offset="1" stop-color="#e1b98c" stop-opacity="0.5"/></radialGradient></defs><title>4p</title><g id="Layer_2" data-name="Layer 2"><g id="Layer_1-2" data-name="Layer 1"><path class="cls-1" d="M447.85,88.52a59.8,59.8,0,1,1-59.78-59.8A59.78,59.78,0,0,1,447.85,88.52Z"/><rect class="cls-2" x="0.01" width="0.19" height="1120.85"/><path class="cls-3" d="M1112,701.45V924.37c-494.66-83.46-826.72-267.1-877.88-442.75-1.21-4.17.17-8.83.52-13.23C440.72,575.49,748.52,658.34,1112,701.45Z"/><path class="cls-2" d="M758.81,1120.85H.19V957.14c15.34-.34,33.53,2.92,62.88,8.2,5.16-11.56,7.3-26.93,16.63-35.07,17.69-15.41,40.69-38.7,59.33-37.09,34.15,3,57.67-4,80.84-25.28,24.5-22.48,52.72-20.87,83.88-10.23,18.33,6.24,41.56,10.23,59.43,5.27,42.46-11.82,70.08,3.58,99.79,29.39,19.26,16.72,46.37,31,71.92,34.78,46.56,7,79,25.93,90.24,68.4,7,26.34,21.35,35.49,49,41.19C729.87,1048.16,759.73,1080.14,758.81,1120.85Z"/><path class="cls-2" d="M.18,957.14v163.71H0V957.14A.54.54,0,0,1,.18,957.14Z"/><path class="cls-4" d="M1112,158.39V701.45c-363.47-43.11-671.27-126-877.36-233.06,93-127.49,333.85-284.17,698.29-382,.81.67,1.63,1.31,2.47,2C969.1,114.5,1030.52,138.45,1112,158.39Z"/><path class="cls-5" d="M1112,45.28V158.39c-81.47-19.94-142.89-43.89-176.6-70.06-.84-.65-1.66-1.29-2.47-2,.19-.05.39-.12.57-.15.44-.14.88-.26,1.33-.37Q1019,63.3,1112,45.28Z"/><path class="cls-1" d="M932.92,86.37c.19-.05.39-.12.57-.15.44-.14.88-.26,1.33-.37Q1019,63.3,1112,45.28V0H.19V957.14c15.34-.34,33.53,2.92,62.88,8.2,5.16-11.56,7.3-26.93,16.63-35.07,17.69-15.41,40.69-38.7,59.33-37.09,34.15,3,57.67-4,80.84-25.28,24.5-22.48,52.72-20.87,83.88-10.23,18.33,6.24,41.56,10.23,59.43,5.27,42.46-11.82,70.08,3.58,99.79,29.39,19.26,16.72,46.37,31,71.92,34.78,46.56,7,79,25.93,90.24,68.4,7,26.34,21.35,35.49,49,41.19,55.73,11.46,85.59,43.44,84.67,84.15H1112V924.37c-494.66-83.46-826.72-267.1-877.88-442.75-1.21-4.17.17-8.83.52-13.23C327.59,340.9,568.48,184.22,932.92,86.37ZM388.07,28.72a59.8,59.8,0,1,1-59.81,59.8A59.78,59.78,0,0,1,388.07,28.72Z"/><path class="cls-6" d="M447.85,88.52a59.8,59.8,0,1,1-59.78-59.8A59.78,59.78,0,0,1,447.85,88.52Z"/></g></g></svg>