<svg xmlns="http://www.w3.org/2000/svg" viewBox="0 0 1112.01 1121.28"><defs><style>.cls-1{fill:#8eb28b;}.cls-2{fill:#373241;}.cls-3{fill:#4c787a;}.cls-4{fill:none;}.cls-5{fill:#f6f0c6;}.cls-6{fill:#1a1e24;}.cls-7{fill:#a1cdb1;}.cls-8{fill:#6f9495;}</style></defs><title>5p</title><g id="Layer_2" data-name="Layer 2"><g id="Layer_1-2" data-name="Layer 1"><path class="cls-1" d="M371.53,0l.2.22.22.22c2.07,2.23,4.19,4.47,6.34,6.67,6,6.24,12.16,12.36,18.41,18.38,1.76,1.71,3.55,3.43,5.35,5.13a461,461,0,0,0,50.23,41.83c2,1.43,4.05,2.82,6.11,4.2a268.74,268.74,0,0,0,42,22.66c17.52,7.59,35.51,4.63,52.68-4.07a206.37,206.37,0,0,0,20.05-11.61c20.78-13.57,39-30.37,56.18-48.24,1-1.09,2.08-2.18,3.11-3.29l2.53-2.78c2-2.13,3.85-4.3,5.74-6.5L642,21.25c.83-1,1.65-1.93,2.46-2.92s1.59-1.9,2.38-2.88c.66-.81,1.33-1.61,2-2.44,2.17-2.65,4.3-5.34,6.42-8,1.16-1.46,2.3-3,3.46-4.44,0,0,0,0,0,0s-.11.15,0,0ZM563.58,22.23c-7.65,13.41-16.15,26.17-30,34.14-2.61,1.52-5.58,2.37-8.47,3.57-4.22-1.23-8.54-1.75-12.16-3.63-12.61-6.58-23.08-15.74-30.48-28-1.53-2.53-1.26-6.12-1.83-9.23,3,.47,6.5.15,9,1.54,16,8.93,32.75,13.27,50.54,6.59,6.12-2.28,11.3-7,17.1-10.22,1.66-.94,4-.65,6.05-.94C563.47,18.16,564.44,20.71,563.58,22.23Z"/><path class="cls-2" d="M163.14,948.92,114.7,1121.28H0v-195Q78.91,939.38,163.14,948.92Z"/><path class="cls-2" d="M1112,936.29v185H998l-63.19-165Q1027.37,948.34,1112,936.29Z"/><path class="cls-3" d="M1112,705.18V936.29q-84.69,12-177.25,20Q764.17,970.84,565.89,971c-141.68,0-276.45-7.85-402.75-22.07Q79,939.43,0,926.28V702.93c177.31,20.66,367.7,31.89,565.89,31.89C756.73,734.82,940.35,724.41,1112,705.18Z"/><line class="cls-4" x1="163.27" y1="948.41" x2="163.14" y2="948.92"/><path class="cls-5" d="M998,1121.28H114.7l48.44-172.36C289.44,963.14,424.21,971,565.89,971q198.48,0,368.87-14.73Z"/><path class="cls-6" d="M563.59,22.23c-7.65,13.41-16.16,26.17-30,34.14-2.61,1.52-5.58,2.37-8.48,3.57-4.22-1.23-8.54-1.75-12.15-3.63-12.61-6.58-23.09-15.74-30.48-28-1.53-2.53-1.26-6.12-1.84-9.23,3,.47,6.51.15,9,1.54,16.05,8.93,32.75,13.27,50.54,6.59,6.11-2.28,11.29-7,17.09-10.22,1.67-.94,4-.65,6.06-.94C563.47,18.16,564.45,20.71,563.59,22.23Z"/><path class="cls-7" d="M458.39,76.65C407.81,97.28,370,148.27,362.17,210.24c-2.54-.15-5.08-.31-7.6-.48q-6.09-.4-12.11-.83c-2.12-.13-4.22-.28-6.32-.43-3.48-.24-7-.49-10.42-.76Q302,206,278.93,203.86q-8.35-.77-16.63-1.57l-8.29-.82q-12.36-1.25-24.5-2.57-5-.54-9.9-1.11c-4.74-.54-9.45-1.1-14.14-1.65l-7.92-1-7.85-1q-7.84-1-15.55-2l-7.7-1q-7.66-1-15.24-2.12l-8.54-1.25q-7-1-13.87-2.1-11.07-1.69-21.87-3.5c-2.4-.38-4.79-.79-7.16-1.19-.24,0-.47-.08-.71-.12l-6.4-1.11c-3.15-.53-6.28-1.09-9.39-1.64s-6.44-1.16-9.61-1.75c-1-.17-2-.36-2.93-.54l-5.88-1.11Q47.77,171.5,31.56,168c-2.71-.57-5.42-1.16-8.09-1.74l-.12,0-9.46-2.1C9.2,163.12,4.59,162,0,161H0V44H0C106.83,23.84,222,8.78,345.07.45h.23c2.2-.15,4.41-.31,6.63-.44H371.5l.23.22.22.22c2.07,2.23,4.19,4.47,6.34,6.67,6,6.24,12.16,12.36,18.41,18.38,1.76,1.71,3.55,3.43,5.35,5.13a461,461,0,0,0,50.23,41.83C454.28,73.88,456.33,75.27,458.39,76.65Z"/><path class="cls-7" d="M1112,37.09v118.4h0c-2,.62-4.07,1.23-6.14,1.85-1.81.54-3.63,1.08-5.48,1.6q-8.89,2.56-18.31,5l-5.44,1.43c-4.07,1-8.21,2.07-12.4,3.08-1.79.44-3.61.87-5.43,1.29-.92.24-1.86.46-2.79.66-1.76.42-3.54.84-5.34,1.24q-7.92,1.81-16.13,3.55-5.85,1.26-11.83,2.47l-6.24,1.25-6.29,1.22-6.19,1.18q-9.71,1.81-19.72,3.56c-4.4.76-8.86,1.52-13.35,2.26-2.5.42-5,.82-7.55,1.22l-6.08,1c-1.38.22-2.76.44-4.14.64-2.5.39-5,.78-7.55,1.15q-15.37,2.29-31.37,4.4l-6.64.86-4,.5L895.06,198c-1.78.22-3.57.44-5.35.64-1.46.19-2.92.35-4.39.52q-7.49.88-15.1,1.72l-4.77.52c-1.78.2-3.55.38-5.35.57l-5.21.54c-2.34.25-4.67.48-7,.72q-19.79,2-40.26,3.67-4,.34-8.07.65-12.13,1-24.5,1.83-6.74.48-13.55.93c-6.56.42-13.15.84-19.79,1.21l-7,.4q-9.18.51-18.48,1c-5.65.29-11.33.54-17.05.79s-11.65.49-17.52.71l-8.76.3q-8.75.3-17.6.55c-5.8-58-37.76-107-82.2-131.57,20.78-13.57,39-30.37,56.17-48.24,1-1.09,2.09-2.18,3.11-3.29.86-.93,1.7-1.85,2.54-2.78,2-2.13,3.85-4.3,5.74-6.5L642,21.25c.82-1,1.65-1.93,2.45-2.92s1.6-1.9,2.39-2.88c.66-.81,1.33-1.61,2-2.44q3.24-4,6.42-8c1.16-1.46,2.3-3,3.46-4.44,0,0,0,0,0,0L799.12.44h.26C911.53,7.75,1015.57,20.26,1112,37.07A.06.06,0,0,0,1112,37.09Z"/><path class="cls-2" d="M345.31.43C222.14,8.76,106.88,23.82,0,44V.43Z"/><path class="cls-2" d="M1112,.43V37.09C1015.53,20.26,911.4,7.73,799.12.43Z"/><path class="cls-1" d="M655.29,215.2c-2.27.07-4.54.14-6.83.19q-5.12.15-10.24.25c-5.46.14-10.94.24-16.44.34-3.68.07-7.36.12-11,.18h-.28l-11.2.14c-3.78,0-7.58.08-11.38.1q-38.28.27-77.64-.37l-12.09-.22-6.88-.15q-23-.51-45.66-1.33c-3-.1-6.07-.22-9.11-.34l-1.4-.05c-7.45-.28-14.84-.6-22.23-.95-1.79-.07-3.59-.17-5.39-.26q-9.17-.42-18.24-.92-12.24-.66-24.33-1.4l-2.73-.17c7.86-62,45.65-113,96.22-133.59a269.29,269.29,0,0,0,42,22.66c17.52,7.59,35.51,4.63,52.67-4.07a206.53,206.53,0,0,0,20.06-11.61C617.53,108.16,649.49,157.18,655.29,215.2Z"/><path class="cls-8" d="M1112,155.48v549.7c-171.66,19.23-355.28,29.64-546.12,29.64C367.7,734.82,177.31,723.59,0,702.93V161c4.58,1.08,9.2,2.16,13.89,3.21,3.13.71,6.29,1.4,9.47,2.11h.11c2.68.59,5.38,1.18,8.09,1.75q16.21,3.44,33.29,6.68l5.89,1.11c1,.18,2,.37,2.92.53,3.18.59,6.39,1.18,9.62,1.75s6.24,1.11,9.38,1.65l6.41,1.11.7.12,7.16,1.19q10.8,1.78,21.88,3.5c4.59.7,9.21,1.41,13.87,2.1l8.54,1.24q7.56,1.09,15.23,2.12,3.84.54,7.7,1c5.15.69,10.32,1.37,15.55,2,2.61.34,5.23.66,7.85,1l7.92,1q7,.86,14.14,1.64c3.3.39,6.59.76,9.91,1.11q12.12,1.34,24.49,2.58l8.29.82q8.28.81,16.63,1.56Q302,206,325.72,207.74c3.46.27,6.94.52,10.42.75,2.1.15,4.21.31,6.32.44q6,.44,12.11.82c2.52.17,5.06.34,7.6.49l2.72.17q12.09.74,24.33,1.4,9.07.49,18.24.92c1.8.08,3.6.19,5.4.25q11.07.54,22.23,1l1.39.05c3,.12,6.07.24,9.11.34q22.64.82,45.67,1.33l6.87.15,12.09.22q39.31.65,77.65.37c3.79,0,7.59-.06,11.38-.11s7.46-.08,11.19-.13h.29c3.68-.07,7.36-.12,11-.18,5.49-.11,11-.21,16.44-.34,3.41-.07,6.83-.15,10.24-.25,2.29,0,4.56-.12,6.82-.19q8.87-.25,17.61-.55l8.76-.31q8.8-.32,17.52-.7c5.7-.24,11.4-.51,17-.79q9.28-.45,18.48-1l7-.4c6.64-.37,13.23-.79,19.78-1.21,4.54-.31,9.07-.61,13.56-.93,8.23-.57,16.41-1.18,24.49-1.83q4-.3,8.07-.66,20.46-1.68,40.27-3.66c2.35-.24,4.69-.47,7-.73,1.73-.16,3.48-.35,5.21-.53s3.56-.37,5.35-.58c1.59-.16,3.17-.33,4.77-.52,5.06-.55,10.11-1.12,15.1-1.71l4.39-.52c1.78-.2,3.56-.42,5.34-.64l8.53-1.06,4-.51,6.65-.85q16-2.12,31.37-4.41,3.78-.55,7.55-1.14c1.38-.2,2.76-.42,4.13-.64l6.09-1q3.78-.6,7.55-1.23,6.74-1.11,13.35-2.25,10-1.74,19.72-3.56l6.19-1.18c2.1-.4,4.2-.82,6.29-1.23l6.23-1.24q6-1.22,11.84-2.47,8.19-1.74,16.12-3.55c1.8-.4,3.58-.82,5.35-1.24.92-.21,1.86-.42,2.79-.66,1.82-.42,3.63-.86,5.43-1.29,4.19-1,8.32-2.06,12.39-3.08L1082,164q9.4-2.48,18.31-5c1.85-.53,3.66-1.06,5.48-1.6Z"/><polyline class="cls-4" points="371.53 0 371.5 0 351.93 0"/></g></g></svg>