<svg xmlns="http://www.w3.org/2000/svg" viewBox="0 0 1120.86 1120.85"><defs><style>.cls-1{fill:#373241;}.cls-2{fill:#4c787a;}.cls-3{fill:#1a1e23;}.cls-4{fill:#6f9495;}.cls-5{fill:#a1cdb1;}</style></defs><title>6p</title><g id="Layer_2" data-name="Layer 2"><g id="Layer_1-2" data-name="Layer 1"><path class="cls-1" d="M119.07,62.49c.1,1.1.13,2.21.12,3.3C118.65,98.36,74.87,128,0,152.12V38.27q61.08,10.89,118.06,24l.37.08.1,0a.18.18,0,0,1,.09,0l.21,0,.24,0,.17.05A.68.68,0,0,1,119.07,62.49Z"/><path class="cls-2" d="M897.27,481.62C751.08,707.49,464.69,867,0,934.53V703.7c371.92-42.42,687-126.3,896.75-235.28C897.1,472.81,899.51,478.14,897.27,481.62Z"/><path class="cls-3" d="M1096.91,1120.85H421a136.85,136.85,0,0,0,8.34-23.44c17.35-64.78,76.77-80.32,132.12-83.46,36.92-2.08,58.77-13.94,79.27-47.66,41.38-68,113.67-75.17,174.63-26,12.75,10.27,34,15.73,49.79,13,94.43-16.43,147.38,16.72,180.11,113.94,5.2,15.41,16.75,32.58,29.76,40Q1086.61,1113.9,1096.91,1120.85Z"/><path class="cls-4" d="M896.75,468.42C687,577.4,371.92,661.28,0,703.7V152.12C74.87,128,118.65,98.36,119.19,65.79c0-1.09,0-2.2-.12-3.3a.68.68,0,0,0,.17,0l.13,0c2.27.52,4.52,1,6.78,1.58C505.51,152.59,750.16,310.94,896.75,468.42Z"/><path class="cls-1" d="M119.24,62.53a.68.68,0,0,1-.17,0,3.69,3.69,0,0,1-.45-.11l.21,0,.24,0Z"/><path class="cls-5" d="M119.07,62.49a3.69,3.69,0,0,1-.45-.11.18.18,0,0,0-.09,0l-.1,0-.37-.08Q61.09,49.19,0,38.27V152.12C74.87,128,118.65,98.36,119.19,65.79,119.2,64.7,119.17,63.59,119.07,62.49Z"/><path class="cls-1" d="M1120.86,0V1120.85h-23.95q-10.32-7-21.88-13.61c-13-7.46-24.56-24.63-29.76-40C1012.54,970,959.59,936.83,865.16,953.26c-15.77,2.75-37-2.71-49.79-13-61-49.16-133.25-42-174.63,26-20.5,33.72-42.35,45.58-79.27,47.66-55.35,3.14-114.77,18.68-132.12,83.46a136.85,136.85,0,0,1-8.34,23.44H0V934.53c464.69-67.54,751.08-227,897.27-452.91,2.24-3.48-.17-8.81-.52-13.2C750.16,310.94,505.51,152.59,126.15,64.14c-2.26-.55-4.51-1.06-6.78-1.58,0,0,0,0,0,0h-.1l-.17-.05-.24,0-.21,0a.18.18,0,0,0-.09,0l-.1,0-.37-.08Q61.09,49.19,0,38.27V0Z"/></g></g></svg>