<svg xmlns="http://www.w3.org/2000/svg" viewBox="0 0 1111.99 1120.86"><defs><style>.cls-1{fill:#373241;}.cls-2{fill:#f6f0c6;}.cls-3{fill:#1a1e23;}.cls-4{fill:#3b5e59;}.cls-5{fill:#c0cea4;}</style></defs><title>7p</title><g id="Layer_2" data-name="Layer 2"><g id="Layer_1-2" data-name="Layer 1"><path class="cls-1" d="M1112,0V433.57L1005.85,811.25C767,815.22,550.57,829,365.73,851.37c-11.47-117.2-23.87-232.66-31.32-348.4-4-61.68,17.55-69.35,76.24-36.21-17.95,76.08,13.17,115.3,98.24,125.32,13.59,1.6,30.45,3.63,39.24,11.7,33.41,30.72,66.92,17.27,98.93,1.92,29-13.89,52-33.49,43.07-70.33-2.11-8.77,3.6-20.8,9.2-29.35,29.86-45.78,33.43-79.75-14.16-101.79s-95.88-50.55-148-59.5c-56-9.62-83.24,15.69-103.78,72.58-73.73-22.31-93.3-43.75-105.89-128.43-2.71-18.24,9.82-38.47,15.33-57.77,16.2,9.8,36.17,16.66,48,29.91,62.34,69.89,114.21,75.84,195.9,22.18,10-6.54,29.65-7.64,41.28-3.2,78,29.81,153.22-20.29,141.85-98.4-3.93-27-15.74-54.28-30.09-78.18-11.29-18.8-13.64-31.19-1.28-50.46,11.83-18.46,18.39-36.35,20-53Z"/><path class="cls-2" d="M1112,433.57V810.14q-53.77.24-106.14,1.11Z"/><path class="cls-1" d="M250.23,503.58c-5.38,123-10.66,244-16,366.07C146.62,883.48,68.18,899.59.18,917.81V493.31a58.74,58.74,0,0,0,14.9,1.61c39.7-1.21,63.34,9.08,82.32,42.82,22.09,39.26,55.19,41.85,92.77,13.42C208.78,537.07,226.74,522.24,250.23,503.58Z"/><path class="cls-1" d="M242.51,213.52c-21,24-22.8,47.45-8.58,74.62,4.91,9.38,4.16,21.35,6,32.15l-16.84,7c-13.76-22.61-30.45-44.13-40.61-68.07C161.69,210.36,126,186.88,80.38,205.45,49.06,218.23,26.21,213,.18,200.38v-91.1q9.74-1,20.4-2.67c17.28-2.67,44,.72,53.8,11.42,37.36,40.72,80.16,57.83,137.13,48.23,10.77-1.81,28,6.83,35,15.67C251.57,188.39,248.88,206.23,242.51,213.52Z"/><rect class="cls-3" width="0.18" height="1120.86"/><path class="cls-4" d="M.18,948.53v172.33H0V948.55Z"/><path class="cls-3" d="M342.81,231.11c-5.51,19.3-18,39.53-15.33,57.77C340.07,373.56,359.64,395,433.37,417.31c20.54-56.89,47.76-82.2,103.78-72.58,52.14,8.95,100.56,37.53,148,59.5s44,56,14.16,101.79c-5.6,8.55-11.31,20.58-9.2,29.35,8.9,36.84-14.09,56.44-43.07,70.33-32,15.35-65.52,28.8-98.93-1.92-8.79-8.07-25.65-10.1-39.24-11.7-85.07-10-116.19-49.24-98.24-125.32C352,433.62,330.44,441.29,334.41,503c7.45,115.74,19.85,231.2,31.32,348.4v0q2.37,24.33,4.69,48.8c.17,1.7.32,3.42.49,5.12H232.69q.78-17.87,1.55-35.66c5.33-122.08,10.61-243,16-366.07-23.49,18.66-41.45,33.49-60.06,47.58C152.59,579.59,119.49,577,97.4,537.74c-19-33.74-42.62-44-82.32-42.82a58.74,58.74,0,0,1-14.9-1.61V200.38c26,12.64,48.88,17.85,80.2,5.07,45.58-18.57,81.31,4.91,102.07,53.79,10.16,23.94,26.85,45.46,40.61,68.07l16.84-7c-1.81-10.8-1.06-22.77-6-32.15-14.22-27.17-12.45-50.59,8.58-74.62,6.37-7.29,9.06-25.13,4-31.59-7-8.84-24.18-17.48-35-15.67-57,9.6-99.77-7.51-137.13-48.23-9.8-10.7-36.52-14.09-53.8-11.42Q9.92,108.28.18,109.28V0H758.41c-1.58,16.61-8.14,34.5-20,53-12.36,19.27-10,31.66,1.28,50.46,14.35,23.9,26.16,51.19,30.09,78.18C781.18,259.71,706,309.81,628,280c-11.63-4.44-31.32-3.34-41.28,3.2C505,336.86,453.12,330.91,390.78,261,379,247.77,359,240.91,342.81,231.11Z"/><path class="cls-3" d="M.18,0V109.28a.58.58,0,0,1-.18,0V0Z"/><path d="M.18,200.38V493.31a.45.45,0,0,1-.18-.05v-293A.61.61,0,0,1,.18,200.38Z"/><path class="cls-4" d="M1005.85,811.25l-12.39,44.14-74.6,265.47H.18v-203c68-18.22,146.44-34.33,234.06-48.16q-.77,17.8-1.55,35.66H370.91c-.17-1.7-.32-3.42-.49-5.12q-2.3-24.45-4.69-48.8v0C550.57,829,767,815.22,1005.85,811.25Z"/><path class="cls-5" d="M1112,810.14v310.72H918.86l74.6-265.47,12.39-44.14Q1058.23,810.38,1112,810.14Z"/><path class="cls-4" d="M.18,917.81v203H0v-203A.37.37,0,0,1,.18,917.81Z"/></g></g></svg>