<svg xmlns="http://www.w3.org/2000/svg" viewBox="0 0 1112 1120.86"><defs><style>.cls-1{fill:none;}.cls-2{fill:#373241;}.cls-3{fill:#f6f0c6;}.cls-4{fill:#fff;}.cls-5{fill:#cc857e;}.cls-6{fill:#373242;}.cls-7{fill:#c0cea4;}</style></defs><title>8p</title><g id="Layer_2" data-name="Layer 2"><g id="Layer_1-2" data-name="Layer 1"><path class="cls-1" d="M352.08,537.79c4-1,8-1.75,11.53-2.5-6-19.79-12-39.41-18.14-59.54-2.42.26-5.78.68-9.15.91C307,478.59,279.8,472.42,256,454.49c-22.28-16.82-32.69-45.3-23.17-72a44.93,44.93,0,0,1,20.56-24.76,8.15,8.15,0,0,0,3.11-3.11,355.44,355.44,0,0,0,23.72-63.45c.12-.46.19-.91.36-1.7-2.93.43-5.67,1-8.44,1.22-16,1.18-28.69-5.12-38.49-17.5a78.33,78.33,0,0,1-14-28.75c-2.17-8.17,1.16-12.54,9.23-14.59,6.57-1.67,12.89-4.47,19.16-7.15,13.15-5.61,26.67-8.57,41-6.92.55.06,1.14,0,2.35,0,0-5.72-.47-11.35.09-16.87,1.22-12.09,5.36-23.13,13.26-32.55a18.54,18.54,0,0,1,5.06-4.33c6.74-3.74,13.82-.76,16.6,7.14,4.94,14.09,13.87,25.59,23.4,36.75,1.41,1.67,2.67,2,4.81,1.47,23.69-5.53,47.21-5.15,70.48,2.37a5.74,5.74,0,0,1,1.66.6c4.58,3.5,8.44,1.4,12.38-1.34,11.73-8.17,23.13-16.65,32.6-27.56,7.29-8.41,16.37-7,21.06,3.08,3.62,7.78,4.21,16.19,3.45,24.6-.61,6.77-1.9,13.46-2.94,20.52,2.15.21,4.57.39,7,.64,15.48,1.58,29.19,7.89,42.28,15.94,6.19,3.82,12.71,7.16,19.25,10.36,5.87,2.87,8.36,8.67,5,14.32-8.07,13.6-18.34,25.07-32.76,32.3-12.68,6.36-25.75,6.93-39.18,2.82a9,9,0,0,0-4.3-.42c2.67,4.48,5.13,9.12,8.08,13.4,10.06,14.56,21.69,27.64,36.92,37,10.87,6.67,23.11,9.52,35.5,11.3,29.07,4.18,58.32,4.45,87.61,3.8,21.94-.49,43.88-1.63,65.8-1.45,22.75.19,45.1,3.58,66.36,12.29,28.84,11.8,48.8,32.11,60,61.33,2.66,6.95,7,13.32,11,19.68,9,14.32,19.28,27.74,32.8,38.16,5.55,4.29,11.85,7.63,18,11.18a4.8,4.8,0,0,0,4.18.12c10.66-6.86,21.81-5.53,33.09-2.25,6.78,2,13.48,4.17,20.29,6a22.92,22.92,0,0,0,6.68.37c5.09-.17,7.46,3.31,4.92,7.82a71,71,0,0,1-21.31,23.72c-11,7.68-22.92,10.17-35.92,6.66-6.47-1.77-12.44-4.44-16.69-10a4.91,4.91,0,0,0-2.24-1.63,106.7,106.7,0,0,1-46.48-29.95c-.32,3-.54,5.21-.81,7.45-2.15,17.79-4.64,35.53-6.42,53.36-2.06,20.63-1.89,41.23,4.17,61.39,6.11,20.38,18.93,35.62,36.53,47,7.78,5,16.19,9.14,24.41,13.48,4.47,2.35,5.92,6.17,6,10.78.17,11.08-3.56,21.06-9.26,30.33a70.44,70.44,0,0,1-8.37,10.46c-3.33,3.64-7.7,4.67-12.6,4-26.16-3.58-49.38-14.31-70.81-29.27-18.13-12.68-33.53-28.22-46.91-45.75-1.28-1.68-2.2-1.9-4.05-1.06-3.09,1.43-6.46,2.25-9.45,3.82a6.82,6.82,0,0,0-2.69,4c-1.85,6.68-5.33,11.94-12.29,13.82-3.19.88-6.69.73-11.06,1.13,1.17,7.15,2.13,14.48,3.61,21.71,3.55,17.48,9.4,34.29,15.87,50.87,2.64,6.78.74,13.52-5.73,18-11.2,7.75-23.47,13-37.07,14.85-7,1-12.38-1.35-16.53-7.13-14.59-20.36-24.6-42.86-31.59-66.78a282.82,282.82,0,0,1-11.22-76c-6.89.5-13.66,1-20.42,1.51a371.28,371.28,0,0,1-65.76-.57,283.59,283.59,0,0,1-63.57-13.15,5.66,5.66,0,0,0-3.93.24A450.47,450.47,0,0,0,418.86,692a376.35,376.35,0,0,0-57.45,55.32C356.72,753,352.58,759,348,764.7c-4.83,6-11.52,7.88-18.68,5.06C317,764.9,306.52,757.54,298.43,747c-4.24-5.54-4.66-11.61-1.68-17.66,18.29-37.22,41.64-70.88,71.57-99.75,6.25-6,12.93-11.6,19.27-18.06-11.92,2.54-23.89,4.78-35.73,7.67-33.39,8.15-65.22,20.28-94.77,38.05a15.39,15.39,0,0,1-18.68-1.94c-9.22-8.6-17.15-18.17-21.27-30.38-2.68-7.86-1.43-12.61,4.94-17.89a373.55,373.55,0,0,1,76.06-49.27A286.35,286.35,0,0,1,352.08,537.79Z"/><polygon class="cls-2" points="1112 0 1112 291.79 1000.28 0 1112 0"/><polygon class="cls-2" points="112.97 0 0 402.03 0 0 112.97 0"/><path class="cls-3" d="M1000.28,0H113L0,402V810.11c254.16-.91,530.7,8.86,819.39,30.48l5.33.41h0q146.72,2,287.24,6.59V291.79ZM981.9,524.38a71,71,0,0,1-21.31,23.72c-11,7.68-22.92,10.17-35.92,6.66-6.47-1.77-12.44-4.44-16.69-10a4.91,4.91,0,0,0-2.24-1.63,106.7,106.7,0,0,1-46.48-29.95c-.32,3-.54,5.21-.81,7.45-2.15,17.79-4.64,35.53-6.42,53.36-2.06,20.63-1.89,41.23,4.17,61.39,6.11,20.38,18.93,35.62,36.53,47,7.78,5,16.19,9.14,24.41,13.48,4.47,2.35,5.92,6.17,6,10.78.17,11.08-3.56,21.06-9.26,30.33a70.44,70.44,0,0,1-8.37,10.46c-3.33,3.64-7.7,4.67-12.6,4-26.16-3.58-49.38-14.31-70.81-29.27-18.13-12.68-33.53-28.22-46.91-45.75-1.28-1.68-2.2-1.9-4.05-1.06-3.09,1.43-6.46,2.25-9.45,3.82a6.82,6.82,0,0,0-2.69,4c-1.85,6.68-5.33,11.94-12.29,13.82-3.19.88-6.69.73-11.06,1.13,1.17,7.15,2.13,14.48,3.61,21.71,3.55,17.48,9.4,34.29,15.87,50.87,2.64,6.78.74,13.52-5.73,18-11.2,7.75-23.47,13-37.07,14.85-7,1-12.38-1.35-16.53-7.13-14.59-20.36-24.6-42.86-31.59-66.78a282.82,282.82,0,0,1-11.22-76c-6.89.5-13.66,1-20.42,1.51a371.28,371.28,0,0,1-65.76-.57,283.59,283.59,0,0,1-63.57-13.15,5.66,5.66,0,0,0-3.93.24A450.47,450.47,0,0,0,418.86,692a376.35,376.35,0,0,0-57.45,55.32C356.72,753,352.58,759,348,764.7c-4.83,6-11.52,7.88-18.68,5.06C317,764.9,306.52,757.54,298.43,747c-4.24-5.54-4.66-11.61-1.68-17.66,18.29-37.22,41.64-70.88,71.57-99.75,6.25-6,12.93-11.6,19.27-18.06-11.92,2.54-23.89,4.78-35.73,7.67-33.39,8.15-65.22,20.28-94.77,38.05a15.39,15.39,0,0,1-18.68-1.94c-9.22-8.6-17.15-18.17-21.27-30.38-2.68-7.86-1.43-12.61,4.94-17.89a373.55,373.55,0,0,1,76.06-49.27,286.35,286.35,0,0,1,53.94-19.93c4-1,8-1.75,11.53-2.5-6-19.79-12-39.41-18.14-59.54-2.42.26-5.78.68-9.15.91C307,478.59,279.8,472.42,256,454.49c-22.28-16.82-32.69-45.3-23.17-72a44.93,44.93,0,0,1,20.56-24.76,8.15,8.15,0,0,0,3.11-3.11,355.44,355.44,0,0,0,23.72-63.45c.12-.46.19-.91.36-1.7-2.93.43-5.67,1-8.44,1.22-16,1.18-28.69-5.12-38.49-17.5a78.33,78.33,0,0,1-14-28.75c-2.17-8.17,1.16-12.54,9.23-14.59,6.57-1.67,12.89-4.47,19.16-7.15,13.15-5.61,26.67-8.57,41-6.92.55.06,1.14,0,2.35,0,0-5.72-.47-11.35.09-16.87,1.22-12.09,5.36-23.13,13.26-32.55a18.54,18.54,0,0,1,5.06-4.33c6.74-3.74,13.82-.76,16.6,7.14,4.94,14.09,13.87,25.59,23.4,36.75,1.41,1.67,2.67,2,4.81,1.47,23.69-5.53,47.21-5.15,70.48,2.37a5.74,5.74,0,0,1,1.66.6c4.58,3.5,8.44,1.4,12.38-1.34,11.73-8.17,23.13-16.65,32.6-27.56,7.29-8.41,16.37-7,21.06,3.08,3.62,7.78,4.21,16.19,3.45,24.6-.61,6.77-1.9,13.46-2.94,20.52,2.15.21,4.57.39,7,.64,15.48,1.58,29.19,7.89,42.28,15.94,6.19,3.82,12.71,7.16,19.25,10.36,5.87,2.87,8.36,8.67,5,14.32-8.07,13.6-18.34,25.07-32.76,32.3-12.68,6.36-25.75,6.93-39.18,2.82a9,9,0,0,0-4.3-.42c2.67,4.48,5.13,9.12,8.08,13.4,10.06,14.56,21.69,27.64,36.92,37,10.87,6.67,23.11,9.52,35.5,11.3,29.07,4.18,58.32,4.45,87.61,3.8,21.94-.49,43.88-1.63,65.8-1.45,22.75.19,45.1,3.58,66.36,12.29,28.84,11.8,48.8,32.11,60,61.33,2.66,6.95,7,13.32,11,19.68,9,14.32,19.28,27.74,32.8,38.16,5.55,4.29,11.85,7.63,18,11.18a4.8,4.8,0,0,0,4.18.12c10.66-6.86,21.81-5.53,33.09-2.25,6.78,2,13.48,4.17,20.29,6a22.92,22.92,0,0,0,6.68.37C982.07,516.39,984.44,519.87,981.9,524.38Z"/><path d="M351.33,393.51a16,16,0,0,1-7.22-.51c-1.58-.55-3.49-2.47-3.7-4s1.12-3.85,2.5-4.83c2-1.42,4.63-1.95,7-2.87,4.7.49,8.18,2.63,8.46,5.61S355.64,392.93,351.33,393.51Z"/><path d="M298.18,388.05c-1.5,1.91-4,3-6.23,4.53-3.16-1.37-5.83-2.08-7.95-3.57-3.85-2.68-3.14-7,1.17-8.8,3.67-1.55,9.64-.38,12,2.83C298.12,384.35,298.89,387.15,298.18,388.05Z"/><path d="M352.92,741.77c-4.47,5.82-8.79,11.67-13.38,17.28-1.77,2.15-4.35,2.55-7.09,1.35-9.87-4.29-18.56-10.25-25.39-18.59-1.37-1.67-2.46-5-1.74-6.72,2.77-6.68,6.33-13,9.87-20C326.43,726.62,338.48,735.65,352.92,741.77Z"/><path d="M268.84,638.94c-5.88,3.36-11.39,6.52-16.9,9.64a5.61,5.61,0,0,1-7.14-1c-7.37-7.18-14.11-14.84-17.83-24.68-1.81-4.77-1.69-5.63,2.17-8.75,5.46-4.43,11-8.75,16.89-13.43A109.39,109.39,0,0,0,268.84,638.94Z"/><path class="cls-4" d="M399.69,599.43c-17.35,3.56-34.5,6.71-51.46,10.65a329.61,329.61,0,0,0-66,22.91c-2.7,1.28-4.29,1.06-6.33-1.15a96.7,96.7,0,0,1-20.4-34.4c-.79-2.29-.34-3.59,1.7-4.93,22.06-14.64,44.94-27.79,70-36.62,12.36-4.37,25.28-7.18,37.86-11,3.41-1,4.32.65,5.41,3a323.94,323.94,0,0,0,25.13,45c1.36,2.06,2.74,4.12,4.08,6.19C399.78,599.23,399.69,599.51,399.69,599.43Z"/><path class="cls-5" d="M408.23,407.73c-.53-8.24-2.67-16.28-8.4-22.43-15.45-16.61-40.62-21.5-61.49-12.16q-17.52,7.88-33.83-1.78a63.83,63.83,0,0,0-22.47-8c-10.44-1.72-20.26-.56-28.7,6.41-16.88,14-17.19,39.67-8.26,56.86,6.84,13.14,17.84,22.17,31,28.86,15.89,8.07,32.77,11.54,50,11.89,19.3-.3,37.44-4,54.18-12.95C398.77,444.5,409.65,429.65,408.23,407.73ZM284,389c-3.85-2.69-3.14-7,1.16-8.81,3.69-1.55,9.65-.37,12,2.84,1,1.29,1.71,4.1,1,5-1.5,1.92-4,3-6.24,4.54C288.79,391.2,286.12,390.5,284,389Zm35.13,71.8c-13.27,0-24-11.08-24-24.74s10.74-24.77,24-24.77,24,11.1,24,24.77S332.39,460.82,319.13,460.82Zm32.19-67.3a16,16,0,0,1-7.21-.52c-1.58-.55-3.48-2.47-3.7-4s1.13-3.85,2.51-4.83c2-1.43,4.62-1.95,7-2.87,4.71.49,8.19,2.64,8.46,5.61S355.64,392.93,351.32,393.52Z"/><path class="cls-6" d="M470.43,249.25c-9,10.19-25.79,8.46-34.16-3.09A35,35,0,0,1,430,229.48c-.34-2.69.24-5,3-6.14,10.4-4.45,19.45-11,28-18.26,6.17-5.25,11.82-11.11,17.72-16.68.92-.87,1.91-1.67,4-3.46,1.3,4.21,2.83,7.43,3.26,10.79C488.54,215.77,483.94,233.92,470.43,249.25Z"/><path class="cls-6" d="M345.37,219.91c-4,6.79-10.25,10.73-17.21,13.48-4.43,1.75-9.27,2.47-14,3.52-2.29.51-3.88-.46-5.34-2.41-6.86-9.2-8.71-19.69-8-30.76s3.91-21.55,11-30.45a35.32,35.32,0,0,1,3.78-3.47,32.34,32.34,0,0,1,2,3.67c5.8,15.8,15.7,28.91,27.07,41C346.48,216.44,346.67,217.7,345.37,219.91Z"/><path d="M390.71,342.69c-7.6,3.58-15.83-1.87-17-11.29-.12-.93-.1-1.89-.13-2.41.05-7.36,4.1-14,9.55-16.13a11.6,11.6,0,0,1,14.55,4.54C403.08,325.43,399.47,338.56,390.71,342.69Z"/><path d="M324.88,322a19.63,19.63,0,0,1-5.58,13.7c-5.65,5.78-14.33,4.54-18-2.65-3.78-7.35-2.2-16.89,4-22.34,3.11-2.75,6.83-4.27,11.08-2.8,5.16,1.78,7.35,5.94,8.34,10.93A25.55,25.55,0,0,1,324.88,322Z"/><path d="M343.16,436.07c0,13.68-10.76,24.76-24,24.76s-24-11.08-24-24.76,10.75-24.76,24-24.76S343.16,422.4,343.16,436.07Z"/><path d="M913.11,708.17a49.35,49.35,0,0,1-14.56,32.07,4.7,4.7,0,0,1-3.44,1.38c-7.83-1.42-15.61-3.08-24.37-4.86,12.49-11.87,19.74-25.52,24.28-40.8,5.76,2.91,11.16,5.49,16.37,8.42A4.75,4.75,0,0,1,913.11,708.17Z"/><path d="M743.21,780.66a75.4,75.4,0,0,1-28,12.25c-1.16.24-2.32.43-3.48.63-3.32.6-6-.2-7.9-3.22-3.09-4.84-6.38-9.56-10-15,16.86-2.65,31.68-8.14,46.33-15.8,2.07,5.48,4.34,10.63,5.82,16C746.37,776.94,744.69,779.64,743.21,780.66Z"/><path class="cls-4" d="M733.87,751.52C721.51,757.79,708.72,762.74,695,765c-6.25,1-6.33.94-9-4.85a252.64,252.64,0,0,1-20.57-71.7c-1.19-8.75-1.68-17.59-2.46-26.4a11.87,11.87,0,0,1,.27-2.23c3.4,1.75,6.58,3.21,9.53,5,.67.42.91,2.15.75,3.19-1,6.52-.34,12.63,5,17.14A18.05,18.05,0,0,0,695.77,689c1-.27,2-.6,3-.9,4.7,9.84,15.71,13.89,26.9,7.4.67,5.42.92,10.83,2.07,16,2.54,11.6,5.41,23.12,8.41,34.61C736.81,748.86,736.66,750.11,733.87,751.52Z"/><path class="cls-5" d="M767.32,666.74c-4.09,1.29-8,2.73-12.09,3.75-4.51,1.13-5.4,2-5.51,6.71a16.37,16.37,0,0,1-.35,3.5c-1.1,4.54-4.14,7.32-7.89,7.35s-6.29-2.47-7.61-7.14a5.56,5.56,0,0,1-.32-1.37c-.09-3.26-1.8-5.18-5-5.24s-4.46,2.08-5.26,5.09a17.63,17.63,0,0,1-3.85,7.64,6.53,6.53,0,0,1-11.05-3.69A26.89,26.89,0,0,1,709,675c.51-3-.29-5.18-3.1-6.31-3-1.21-4.94.34-6.39,2.84a43.34,43.34,0,0,1-2.88,4.83c-2.72,3.55-5.62,4.24-9.62,2.53-3.19-1.36-4.45-3.85-3.8-8.19a38.35,38.35,0,0,1,1.63-5.76c1.19-3.85.16-5.95-3.53-7.49a65.18,65.18,0,0,1-11.78-6.06,22.72,22.72,0,0,1,2.76-.69c24-3.07,47.44-8.66,70.63-15.47,5.18-1.52,5-1.55,7.64,3.06C755.9,647.57,761.43,656.75,767.32,666.74Z"/><path d="M715.57,623.82c-1.57-2.74-3.35-5.64-5.37-9.14A61.53,61.53,0,0,1,715.57,623.82Z"/><path d="M977,516.56a22.92,22.92,0,0,1-6.68-.37c-6.81-1.83-13.51-4-20.29-6-11.28-3.28-22.43-4.61-33.09,2.25a4.8,4.8,0,0,1-4.18-.12c-6.11-3.55-12.41-6.89-18-11.18C881.26,490.72,871,477.3,862,463c-4-6.36-8.37-12.73-11-19.68-11.16-29.22-31.12-49.53-60-61.33-21.26-8.71-43.61-12.1-66.36-12.29-21.92-.18-43.86,1-65.8,1.45-29.29.65-58.54.38-87.61-3.8-12.39-1.78-24.63-4.63-35.5-11.3-15.23-9.37-26.86-22.45-36.92-37-2.95-4.28-5.41-8.92-8.08-13.4a9,9,0,0,1,4.3.42c13.43,4.11,26.5,3.54,39.18-2.82,14.42-7.23,24.69-18.7,32.76-32.3,3.35-5.65.86-11.45-5-14.32-6.54-3.2-13.06-6.54-19.25-10.36-13.09-8.05-26.8-14.36-42.28-15.94-2.44-.25-4.86-.43-7-.64,1-7.06,2.33-13.75,2.94-20.52.76-8.41.17-16.82-3.45-24.6-4.69-10.11-13.77-11.49-21.06-3.08-9.47,10.91-20.87,19.39-32.6,27.56-3.94,2.74-7.8,4.84-12.38,1.34a5.74,5.74,0,0,0-1.66-.6c-23.27-7.52-46.79-7.9-70.48-2.37-2.14.5-3.4.2-4.81-1.47-9.53-11.16-18.46-22.66-23.4-36.75-2.78-7.9-9.86-10.88-16.6-7.14a18.54,18.54,0,0,0-5.06,4.33c-7.9,9.42-12,20.46-13.26,32.55-.56,5.52-.09,11.15-.09,16.87-1.21,0-1.8.06-2.35,0-14.36-1.65-27.88,1.31-41,6.92-6.27,2.68-12.59,5.48-19.16,7.15-8.07,2.05-11.4,6.42-9.23,14.59a78.33,78.33,0,0,0,14,28.75c9.8,12.38,22.5,18.68,38.49,17.5,2.77-.2,5.51-.79,8.44-1.22-.17.79-.24,1.24-.36,1.7a355.44,355.44,0,0,1-23.72,63.45,8.15,8.15,0,0,1-3.11,3.11,44.93,44.93,0,0,0-20.56,24.76c-9.52,26.7.89,55.18,23.17,72,23.77,17.93,51,24.1,80.29,22.17,3.37-.23,6.73-.65,9.15-.91,6.12,20.13,12.11,39.75,18.14,59.54-3.5.75-7.55,1.49-11.53,2.5a286.35,286.35,0,0,0-53.94,19.93A373.55,373.55,0,0,0,222.08,607c-6.37,5.28-7.62,10-4.94,17.89,4.12,12.21,12.05,21.78,21.27,30.38a15.39,15.39,0,0,0,18.68,1.94c29.55-17.77,61.38-29.9,94.77-38.05,11.84-2.89,23.81-5.13,35.73-7.67-6.34,6.46-13,12-19.27,18.06-29.93,28.87-53.28,62.53-71.57,99.75-3,6.05-2.56,12.12,1.68,17.66,8.09,10.59,18.61,17.95,30.9,22.81,7.16,2.82,13.85.94,18.68-5.06,4.57-5.7,8.71-11.74,13.4-17.35A376.35,376.35,0,0,1,418.86,692a450.47,450.47,0,0,1,80.45-50.4,5.66,5.66,0,0,1,3.93-.24,283.59,283.59,0,0,0,63.57,13.15,371.28,371.28,0,0,0,65.76.57c6.76-.55,13.53-1,20.42-1.51a282.82,282.82,0,0,0,11.22,76c7,23.92,17,46.42,31.59,66.78,4.15,5.78,9.57,8.08,16.53,7.13,13.6-1.85,25.87-7.1,37.07-14.85,6.47-4.47,8.37-11.21,5.73-18-6.47-16.58-12.32-33.39-15.87-50.87-1.48-7.23-2.44-14.56-3.61-21.71,4.37-.4,7.87-.25,11.06-1.13,7-1.88,10.44-7.14,12.29-13.82a6.82,6.82,0,0,1,2.69-4c3-1.57,6.36-2.39,9.45-3.82,1.85-.84,2.77-.62,4.05,1.06,13.38,17.53,28.78,33.07,46.91,45.75,21.43,15,44.65,25.69,70.81,29.27,4.9.67,9.27-.36,12.6-4A70.44,70.44,0,0,0,913.88,737c5.7-9.27,9.43-19.25,9.26-30.33-.08-4.61-1.53-8.43-6-10.78-8.22-4.34-16.63-8.44-24.41-13.48-17.6-11.34-30.42-26.58-36.53-47C850.14,615.25,850,594.65,852,574c1.78-17.83,4.27-35.57,6.42-53.36.27-2.24.49-4.49.81-7.45a106.7,106.7,0,0,0,46.48,29.95,4.91,4.91,0,0,1,2.24,1.63c4.25,5.53,10.22,8.2,16.69,10,13,3.51,24.94,1,35.92-6.66a71,71,0,0,0,21.31-23.72C984.44,519.87,982.07,516.39,977,516.56ZM433,223.34c10.4-4.45,19.45-11,28-18.26,6.17-5.24,11.82-11.11,17.72-16.68.92-.87,1.92-1.68,4-3.46,1.3,4.2,2.83,7.43,3.27,10.78,2.55,20.06-2,38.2-15.54,53.53-9,10.19-25.81,8.46-34.16-3.09A35.09,35.09,0,0,1,430,229.48C429.69,226.79,430.28,224.52,433,223.34Zm-132.17-19.6c.72-11.17,3.92-21.56,11-30.45a35.53,35.53,0,0,1,3.79-3.46,33.51,33.51,0,0,1,2,3.66c5.78,15.81,15.7,28.9,27.05,41,1.8,1.91,2,3.17.69,5.39-4,6.79-10.24,10.73-17.22,13.49-4.42,1.74-9.26,2.45-13.95,3.51-2.29.5-3.88-.45-5.35-2.4C302,225.29,300.14,214.8,300.85,203.74ZM326,467.38c-17.2-.35-34.08-3.82-50-11.89-13.15-6.69-24.15-15.72-31-28.86-8.93-17.19-8.62-42.89,8.26-56.86,8.44-7,18.26-8.13,28.7-6.41a63.83,63.83,0,0,1,22.47,8q16.31,9.66,33.83,1.78c20.87-9.34,46-4.45,61.49,12.16,5.73,6.15,7.87,14.19,8.4,22.43,1.42,21.92-9.46,36.77-28,46.7C363.48,463.41,345.34,467.08,326,467.38Zm-74.1,181.19a5.62,5.62,0,0,1-7.14-1c-7.37-7.2-14.11-14.85-17.83-24.68-1.81-4.78-1.69-5.64,2.17-8.76,5.47-4.42,11-8.76,16.88-13.44a109.64,109.64,0,0,0,22.82,38.22C263,642.3,257.46,645.46,251.94,648.57Zm96.29-38.48a329.06,329.06,0,0,0-66,22.9c-2.71,1.28-4.3,1.06-6.34-1.15a96.9,96.9,0,0,1-20.39-34.39c-.79-2.31-.35-3.6,1.7-5,22.06-14.63,44.94-27.77,70-36.62,12.37-4.37,25.28-7.18,37.86-11,3.41-1,4.32.64,5.41,3a326.64,326.64,0,0,0,25.12,45c1.38,2.05,2.74,4.1,4.1,6.19a.39.39,0,0,1,0,.35C382.34,603,365.19,606.14,348.23,610.09Zm-8.69,149c-1.77,2.15-4.34,2.54-7.1,1.35-9.85-4.29-18.54-10.24-25.39-18.58-1.36-1.68-2.45-5-1.73-6.73,2.78-6.67,6.32-13,9.87-20,11.25,11.57,23.29,20.6,37.73,26.72C348.45,747.6,344.13,753.43,339.54,759.05Zm400.63.49c2.07,5.48,4.34,10.64,5.82,16,.38,1.4-1.3,4.09-2.78,5.13a75.21,75.21,0,0,1-28,12.24c-1.16.24-2.32.42-3.48.62-3.31.61-6-.18-7.9-3.21-3.09-4.84-6.37-9.56-10-15C710.7,772.69,725.53,767.2,740.17,759.54Zm-4.07-13.42c.71,2.74.56,4-2.22,5.4C721.51,757.79,708.73,762.73,695,765c-6.25,1-6.34.94-9-4.84a252.89,252.89,0,0,1-20.57-71.71c-1.19-8.76-1.68-17.6-2.47-26.39a12.65,12.65,0,0,1,.27-2.24c3.41,1.75,6.59,3.21,9.55,5,.67.42.89,2.16.74,3.2-1,6.51-.34,12.63,5,17.13A18.06,18.06,0,0,0,695.77,689c1-.27,2-.61,3-.89,4.69,9.83,15.7,13.88,26.88,7.39.67,5.42.94,10.83,2.08,16.06C730.23,723.1,733.11,734.64,736.1,746.12Zm19.13-75.62c-4.5,1.12-5.39,2-5.51,6.71a16.27,16.27,0,0,1-.35,3.49c-1.1,4.54-4.14,7.32-7.89,7.35s-6.29-2.47-7.62-7.15a6.25,6.25,0,0,1-.31-1.36c-.09-3.26-1.8-5.18-5-5.24s-4.47,2.08-5.26,5.09a17.57,17.57,0,0,1-3.87,7.63,6.51,6.51,0,0,1-11-3.68A27.18,27.18,0,0,1,709,675c.52-3-.27-5.18-3.09-6.31-3-1.21-4.95.34-6.39,2.84a44.92,44.92,0,0,1-2.88,4.83c-2.72,3.55-5.63,4.23-9.62,2.52-3.19-1.36-4.45-3.83-3.8-8.19a37.13,37.13,0,0,1,1.64-5.75c1.19-3.85.15-5.95-3.54-7.48a65.89,65.89,0,0,1-11.78-6.07,24.74,24.74,0,0,1,2.76-.69c24-3.08,47.44-8.66,70.63-15.47,5.18-1.53,5-1.54,7.65,3.06,5.33,9.28,10.84,18.46,16.74,28.45C763.24,668,759.29,669.47,755.23,670.5ZM895,696c5.76,2.93,11.16,5.5,16.37,8.42a4.82,4.82,0,0,1,1.72,3.8,49.34,49.34,0,0,1-14.56,32.07,4.71,4.71,0,0,1-3.43,1.38c-7.84-1.42-15.62-3.08-24.38-4.86C883.23,724.89,890.48,711.23,895,696ZM881,686.07c5.11,3.73,5.43,3.73,3.58,9.66-3.87,12.43-9.73,23.71-19.67,32.54-3.55,3.14-6.79,3.48-11.1,1.34a191.36,191.36,0,0,1-48.7-34.2c-20-19.38-35.68-42-48.26-66.73-3.17-6.27-4.3-6.79-11.06-4.79-7.68,2.29-15.42,4.39-23.1,6.63-2.15.63-3.38.2-4.49-2-.81-1.58-1.66-3.13-2.59-4.73-1.58-2.74-3.34-5.64-5.38-9.14v0A95,95,0,0,0,701.43,604c-1.7-1.8-3.41-3.5-5.11-5.08.09-.09.15-.17.24-.27A96.14,96.14,0,0,0,676,582.82c-11.37-6.54-23.74-10.31-36.7-10.31-30.87,0-60.35,12.39-75.23,45.92-3.14,7-5.06,14.64-7.21,22.07-.62,2.17-1.14,2.89-3.48,2.54-16.22-2.45-32.25-5.7-47.71-11.3a11.33,11.33,0,0,0-9.47.47A462.24,462.24,0,0,0,415.77,682a392.33,392.33,0,0,0-53.7,49.6c-1.17,1.28-2.06,2.32-4.12,1.45a95.86,95.86,0,0,1-35.65-25.41c-1.34-1.54-1.36-2.6-.32-4.27,18.26-29.59,39.73-56.49,66.55-78.83,6.42-5.35,13.3-10.14,20.19-14.9,6.31-4.35,6.83-5.63,2.42-11.7a325.8,325.8,0,0,1-28.43-47.19C371.23,527.52,362.3,503.38,357,478c-.27-1.26-.39-2.54-.57-3.92,5.81-1.92,11.6-3.5,17.13-5.7,14.79-5.89,28.29-13.77,36.68-28,9.52-16.16,11.08-33.14,3.4-50.48-9.05-20.37-26.61-28.29-47.23-30.93-11.19-1.45-22.09.74-32.43,5.34-8.81,3.92-17.1,3-25.29-1.95-12.17-7.29-25.52-10.05-40.33-9.43a401.45,401.45,0,0,0,25.17-74.13c2.71,2.11,4.77,4,7.13,5.49,11.51,7.16,24.21,9.21,37.36,7.16a123.27,123.27,0,0,0,23.05-6.26c14.4-5.26,26.53-14,35.44-26.6,8.54-12.08,14.32-25.28,15.15-40.31a20.33,20.33,0,0,1,.4-2.1l10,2.79c-4.63,13.72-.19,25,8,34.88s19.15,14,32,11.12c3.25-.71,4.61-.24,5.54,3,2.7,9.51,6,18.86,8.42,28.43.87,3.49-.05,7.46-.32,11.21-1.9,25.57.49,50.44,13,73.41,9.78,17.95,24.39,30.29,44.65,34.56,12.69,2.69,25.3,1,37.33-4.25,13.65-6,24.34-15.52,32.81-27.59,1.82-2.57,3.69-3.28,6.73-3.19,12.74.31,25.49.33,38.23.45h6.63c-.27,3.41-.66,6.42-.74,9.45-.27,9.41-1.1,18.85-.51,28.21,1.18,18.33,7.11,34.79,22,46.77,8.39,6.78,18.2,10.14,29,10.81,15,.95,28.77-2.53,41-11.24,3.63-2.56,6.71-5.92,10.41-8.34,6.15-4.09,12.84-3.7,19.69-1.58,3.78,1.16,7.6,2.17,11.53,3.17,1.6.42,3.23.83,4.86,1.27.82.13,1.68.25,2.55.3s1.75.12,2.66.12a34.1,34.1,0,0,0,5-.37c1.6-.14,3.21-.56,4.76-.81,12.27-2.05,22.78-7.4,30.5-17.5a9.18,9.18,0,0,1,1.43-1.05c1.53,4.24,3.12,8.21,4.38,12.28a143.86,143.86,0,0,1,6.06,52.07c-1.1,16.56-3.47,33-5.35,49.53-2.76,24.07-4.82,48.15-.37,72.26C848.43,651.08,860.58,671.14,881,686.07Zm22.58-153.72c-5.88-3.11-12-5.86-17.55-9.37a82.52,82.52,0,0,1-24.5-23.13,12.84,12.84,0,0,1-1.92-5.8c-.52-5.85-.7-11.72-1.05-18.48,13.65,19,28.48,35.42,49.21,45.29C906.4,524.53,905.14,528,903.54,532.35Z"/><path d="M907.73,520.86c-1.33,3.66-2.6,7.14-4.19,11.49-5.89-3.11-12-5.86-17.55-9.37a82.07,82.07,0,0,1-24.5-23.14,12.67,12.67,0,0,1-1.91-5.8c-.52-5.84-.71-11.71-1.07-18.47C872.16,494.61,887,511,907.73,520.86Z"/><path class="cls-4" d="M881,686.07c-20.38-14.93-32.53-35-37.09-59.74-4.45-24.11-2.39-48.19.37-72.26,1.88-16.51,4.25-33,5.35-49.53a143.86,143.86,0,0,0-6.06-52.07c-1.26-4.07-2.85-8-4.38-12.28a9.18,9.18,0,0,0-1.43,1.05c-7.72,10.1-18.23,15.45-30.5,17.5-1.55.25-3.16.67-4.76.81a34.1,34.1,0,0,1-5,.37c-.91,0-1.8,0-2.66-.12s-1.73-.17-2.55-.3c-1.63-.44-3.26-.85-4.86-1.27-3.93-1-7.75-2-11.53-3.17-6.85-2.12-13.54-2.51-19.69,1.58-3.7,2.42-6.78,5.78-10.41,8.34-12.27,8.71-26.06,12.19-41,11.24-10.78-.67-20.59-4-29-10.81-14.87-12-20.8-28.44-22-46.77-.59-9.36.24-18.8.51-28.21.08-3,.47-6,.74-9.45h-6.63c-12.74-.12-25.49-.14-38.23-.45-3-.09-4.91.62-6.73,3.19-8.47,12.07-19.16,21.59-32.81,27.59-12,5.28-24.64,6.94-37.33,4.25C513.06,411.29,498.45,399,488.67,381c-12.51-23-14.9-47.84-13-73.41.27-3.75,1.19-7.72.32-11.21-2.41-9.57-5.72-18.92-8.42-28.43-.93-3.25-2.29-3.72-5.54-3-12.82,2.86-23.8-1.25-32-11.12s-12.6-21.16-8-34.88l-10-2.79a20.33,20.33,0,0,0-.4,2.1c-.83,15-6.61,28.23-15.15,40.31-8.91,12.65-21,21.34-35.44,26.6A123.27,123.27,0,0,1,338,291.42c-13.15,2.05-25.85,0-37.36-7.16-2.36-1.47-4.42-3.38-7.13-5.49a401.45,401.45,0,0,1-25.17,74.13c14.81-.62,28.16,2.14,40.33,9.43,8.19,4.91,16.48,5.87,25.29,1.95,10.34-4.6,21.24-6.79,32.43-5.34,20.62,2.64,38.18,10.56,47.23,30.93,7.68,17.34,6.12,34.32-3.4,50.48-8.39,14.22-21.89,22.1-36.68,28-5.53,2.2-11.32,3.78-17.13,5.7.18,1.38.3,2.66.57,3.92,5.31,25.42,14.24,49.56,25.72,72.8A325.8,325.8,0,0,0,411.14,598c4.41,6.07,3.89,7.35-2.42,11.7-6.89,4.76-13.77,9.55-20.19,14.9-26.82,22.34-48.29,49.24-66.55,78.83-1,1.67-1,2.73.32,4.27A95.86,95.86,0,0,0,358,733.06c2.06.87,2.95-.17,4.12-1.45a392.33,392.33,0,0,1,53.7-49.6,462.24,462.24,0,0,1,80.41-49.8,11.33,11.33,0,0,1,9.47-.47c15.46,5.6,31.49,8.85,47.71,11.3,2.34.35,2.86-.37,3.48-2.54,2.15-7.43,4.07-15,7.21-22.07,14.88-33.53,44.36-45.9,75.23-45.92,13,0,25.33,3.77,36.7,10.31a96.14,96.14,0,0,1,20.58,15.82c-.09.1-.15.18-.24.27,1.7,1.58,3.41,3.28,5.11,5.08a95,95,0,0,1,8.75,10.67v0a61.3,61.3,0,0,1,5.38,9.14c.93,1.6,1.78,3.15,2.59,4.73,1.11,2.17,2.34,2.6,4.49,2,7.68-2.24,15.42-4.34,23.1-6.63,6.76-2,7.89-1.48,11.06,4.79C769.39,653.45,785,676,805.07,695.41a191.36,191.36,0,0,0,48.7,34.2c4.31,2.14,7.55,1.8,11.1-1.34,9.94-8.83,15.8-20.11,19.67-32.54C886.39,689.8,886.07,689.8,881,686.07ZM319.29,335.72c-5.65,5.78-14.32,4.54-18-2.64-3.78-7.35-2.2-16.88,4-22.33,3.11-2.76,6.82-4.27,11.08-2.81,5.14,1.79,7.34,5.94,8.34,10.93a23.62,23.62,0,0,1,.21,3.16A19.5,19.5,0,0,1,319.29,335.72Zm71.42,7c-7.6,3.58-15.83-1.89-17-11.3-.12-.93-.1-1.88-.14-2.41.06-7.36,4.11-14,9.55-16.14,5.72-2.2,11.15-.5,14.55,4.56C403.09,325.43,399.47,338.56,390.71,342.7Z"/><path class="cls-7" d="M1112,847.59v273.27H0V810.11c254.16-.91,530.7,8.86,819.39,30.48l5.33.41h0Q971.48,843,1112,847.59Z"/></g></g></svg>