<svg xmlns="http://www.w3.org/2000/svg" viewBox="0 0 1120.86 1120.86"><defs><style>.cls-1{fill:#373241;}.cls-2{fill:#f6f0c6;}.cls-3{fill:#c0cea4;}.cls-4{fill:#3b5e59;}.cls-5{fill:#1a1e23;}.cls-6{fill:none;}</style></defs><title>9p</title><g id="Layer_2" data-name="Layer 2"><g id="Layer_1-2" data-name="Layer 1"><path class="cls-1" d="M525,546.47c-5.13,54,3.53,104.49-15.35,135.63C473,742.52,461.24,805.69,458.22,870.4q-121.56-8.11-251.41-14.26L0,316V0H417.83c-11,19.47-26.7,29.46-49.7,39-79.79,33.1-104,91.16-85.32,178.15,3.4,15.79-7.63,40.43-19.18,53.78-46.46,53.7-50.12,127-8.29,182.61,11.73,15.6,20.09,36.31,24.16,56.07,17.62,85.44,79.29,126.7,153.23,96.3C460.3,594.55,484.31,573.13,525,546.47Z"/><path class="cls-1" d="M1120.66,664.78V938.53c-159-24.06-347.5-44.62-558.19-60.66-11.71-60-12.49-121.66,31.43-169.49,77-83.8,172.41-136.29,280.82-171.24,4.71,11.77,7.62,17.6,9.45,23.82,26.52,90,63.76,114.26,148.93,99.5,16.48-2.86,34.26-1,50.93,2A152.44,152.44,0,0,0,1120.66,664.78Z"/><path class="cls-1" d="M1120.86,0V1120.86h-.2V11.77q-7.11-6-15-11.77Z"/><path class="cls-2" d="M206.81,856.14Q105.61,851.36,0,847.89V316Z"/><path class="cls-3" d="M308.16,1120.86H0v-273q105.51,3.45,206.81,8.25l13.77,36Z"/><path class="cls-4" d="M1120.66,938.53v182.33H308.16L220.58,892.09l-13.77-36q129.66,6.11,251.41,14.26c-.84,17.81-1,35.73-.86,53.74.25,31.54,1.5,63.35,1.92,95.29h152c-10.12-26.92-21.23-51.65-30.43-76.16A360.6,360.6,0,0,1,567,899q-2.44-10.5-4.56-21.1C773.16,893.91,961.71,914.47,1120.66,938.53Z"/><path class="cls-4" d="M1120.86,938.56v182.3h-.2V938.53A.64.64,0,0,1,1120.86,938.56Z"/><path d="M1120.66,11.77v653a.65.65,0,0,0,.2,0V11.94Z"/><path class="cls-5" d="M1105.65,0H417.83c-11,19.47-26.7,29.46-49.7,39-79.79,33.1-104,91.16-85.32,178.15,3.4,15.79-7.63,40.43-19.18,53.78-46.46,53.7-50.12,127-8.29,182.61,11.73,15.6,20.09,36.31,24.16,56.07,17.62,85.44,79.29,126.7,153.23,96.3,27.57-11.35,51.58-32.77,92.22-59.43-5.13,54,3.53,104.49-15.35,135.63C473,742.52,461.24,805.69,458.22,870.4c-.84,17.81-1,35.73-.86,53.74.25,31.54,1.5,63.35,1.92,95.29h152c-10.12-26.92-21.23-51.65-30.43-76.16A360.6,360.6,0,0,1,567,899q-2.44-10.5-4.56-21.1c-11.71-60-12.49-121.66,31.43-169.49,77-83.8,172.41-136.29,280.82-171.24,4.71,11.77,7.62,17.6,9.45,23.82,26.52,90,63.76,114.26,148.93,99.5,16.48-2.86,34.26-1,50.93,2a152.44,152.44,0,0,0,36.63,2.27v-653Q1113.55,5.74,1105.65,0ZM580.41,606.94C553.24,504.72,579,449.76,645.08,461.6,624.83,507.09,605.52,550.52,580.41,606.94Zm71.93-25.82L640,569.52l55.48-120.89,88.76,27.07Z"/><path class="cls-1" d="M784.22,475.7,652.34,581.12,640,569.52l55.48-120.89Z"/><path class="cls-1" d="M645.08,461.6c-20.25,45.49-39.56,88.92-64.67,145.34C553.24,504.72,579,449.76,645.08,461.6Z"/><path class="cls-6" d="M1120.86,1051.31v69.55h-.2v-69.6Z"/></g></g></svg>