<svg xmlns="http://www.w3.org/2000/svg" xmlns:xlink="http://www.w3.org/1999/xlink" viewBox="0 0 4470.79 2509.9"><defs><style>.cls-1,.cls-10,.cls-2,.cls-9{fill:none;stroke-miterlimit:10;}.cls-1,.cls-2{stroke:#000;}.cls-1,.cls-10{stroke-width:7.11px;}.cls-2{stroke-width:7.3px;}.cls-3{fill:#b8b194;}.cls-4{fill:#4b787a;}.cls-5{fill:#1a1e24;}.cls-6{fill:#7f7764;}.cls-7{fill:#585347;}.cls-8{fill:#6f9495;}.cls-9{stroke:#4b787a;stroke-width:2.02px;}.cls-10{stroke:#3b5f59;}.cls-11{fill:url(#radial-gradient);}</style><radialGradient id="radial-gradient" cx="4125.06" cy="1120.9" r="35.57" gradientUnits="userSpaceOnUse"><stop offset="0" stop-color="#585347"/><stop offset="1" stop-color="#7f7764"/></radialGradient></defs><title>Asset 31</title><g id="Layer_2" data-name="Layer 2"><g id="Layer_1-2" data-name="Layer 1"><polygon class="cls-1" points="145.07 971.7 144.86 972.84 144.86 971.63 145.07 971.7"/><polygon class="cls-1" points="145.07 971.7 144.86 972.84 144.86 971.63 145.07 971.7"/><polygon class="cls-2" points="145.07 971.7 144.86 972.84 144.86 971.63 145.07 971.7"/><rect class="cls-1" x="2733.35" y="427.85" width="963.11" height="712.51"/><polygon class="cls-3" points="4470.13 0 4260.44 82.65 3994.19 187.57 3988.86 190.27 3974.92 190.2 1758.42 182.59 1754.36 181.67 1747.25 180.1 1613.24 150.23 1320.11 84.93 985.09 10.31 939.78 0.21 989.92 0.21 4469.06 0 4470.13 0"/><polygon class="cls-4" points="4470.13 0 4470.13 1924.65 3962.9 1664.38 3955.71 1662.11 3955.43 1662.11 3954.43 1661.68 3158.48 1658.41 3102.07 1658.19 2961.45 1657.63 2848.14 1657.2 2847 1657.2 1891.22 1653.29 1887.16 1655.21 1319.68 1922.44 982.67 2081.14 981.03 2081.92 518.54 2081.92 518.26 2081.35 495.64 2093.3 0.07 2355.06 0 2355.13 0 0 961.76 0.07 962.33 0.21 987.86 0.21 1613.24 150.23 1744.19 181.67 1754.36 181.67 3973.42 187.64 3973.57 187.57 3974.92 186.93 3975.56 186.65 4470.13 0"/><rect class="cls-1" x="2733.35" y="427.85" width="963.11" height="712.51"/><path class="cls-5" d="M2733.33,427.85v712.51h963.11V427.85Z"/><polygon class="cls-6" points="4470.17 1924 4470.17 2509.9 0.04 2509.9 0.04 2354.48 518.3 2080.7 518.58 2081.27 981.07 2081.27 1887.2 1654.56 1891.26 1652.64 3975.34 1662.15 3975.34 1662.15 4470.17 1924"/><polygon class="cls-7" points="2848.17 1618.43 2848.17 1924.23 1314.17 1922.46 1314.09 1314.6 1520.29 1312.91 1519.6 1618.43 2848.17 1618.43"/><polygon class="cls-7" points="2972.56 1340.21 2974.91 1626 2848.07 1924.16 2846.84 1617.93 2972.56 1340.21 2972.56 1340.21 2972.56 1340.21 2972.56 1340.21"/><polygon class="cls-7" points="1939.8 1125.48 1514.14 1316.02 1514.15 1315.9 1314.24 1314.64 1514.15 1227.01 1741.91 1125.16 1939.8 1125.48"/><polygon class="cls-7" points="1519.68 1307.76 1939.47 1125.47 1943.8 1125.49 1942.78 1341.51 1942.78 1341.51 1548.39 1618.43 1519.6 1618.43 1519.68 1307.76 1519.68 1307.76"/><polygon class="cls-7" points="2848.17 1618.43 2848.17 1618.43 1548.21 1618.53 1942.62 1341.27 2972.56 1340.21 2848.17 1618.43"/><rect class="cls-8" x="3153.66" y="412.42" width="114.09" height="0.14"/><path class="cls-8" d="M2725.58,412.56v733.5h975V412.56Zm900.3,662.86H3267.74V490.94h358.14Zm-472.24,0H2800.2V490.94h353.44Z"/><line class="cls-9" x1="3210.37" y1="412.06" x2="3210.37" y2="1147.79"/><path class="cls-4" d="M2768.89,524l39.75.09,94.92.23,114.78.26,99.66.24c16.07,0,32.17.36,48.24.11h.69c19.78,0,38.72-17.42,37.81-37.81s-16.61-37.75-37.81-37.8l-39.75-.09-94.92-.23-114.77-.26-99.66-.24c-16.08,0-32.18-.36-48.25-.11h-.69c-19.78-.05-38.72,17.42-37.8,37.81s16.61,37.75,37.8,37.8Z"/><path class="cls-4" d="M3255.52,524l39.75.09,94.92.23,114.77.26,99.66.24c16.07,0,32.17.36,48.25.11h.69c19.77,0,38.72-17.42,37.8-37.81s-16.61-37.75-37.8-37.8l-39.75-.09-94.92-.23-114.78-.26-99.66-.24c-16.07,0-32.17-.36-48.24-.11h-.69c-19.78-.05-38.72,17.42-37.81,37.81s16.61,37.75,37.81,37.8Z"/><line class="cls-10" x1="3974.89" y1="186.05" x2="3974.86" y2="1662.21"/><line class="cls-10" x1="1745.12" y1="180.57" x2="1743.54" y2="1125.08"/><polyline class="cls-10" points="985.08 0.6 985.08 0.6 985.08 0.43 985.09 5.62 985.09 10.31 983.45 1414.79 983.45 1414.86 983.45 1416.21 983.45 1433.42 983.45 1433.49 983.45 1435.27 983.45 1435.84 982.67 2080.57 982.67 2081.14"/><line class="cls-10" x1="516.77" y1="0.16" x2="515.95" y2="2075.6"/><polygon class="cls-7" points="4470.79 199.77 4470.72 349.07 4470.22 1706.53 4470.15 1924.04 4072.1 1713.92 4071.18 286.97 4470.79 199.77"/><circle class="cls-11" cx="4125.06" cy="1120.9" r="35.57"/><polygon class="cls-7" points="985.42 1414.99 0.01 1999.66 0.07 1590.08 513.36 1377.18 985.42 1414.99"/><rect class="cls-7" x="493.41" y="1678.55" width="44.53" height="414.72"/><rect class="cls-7" x="839.64" y="1482.71" width="44.53" height="630.43"/><rect class="cls-7" x="799.45" y="1414.79" width="185.14" height="20.52"/><rect class="cls-7" x="117.13" y="1637.32" width="920.01" height="24.25" transform="translate(-732.25 492.17) rotate(-29.24)"/></g></g></svg>