<svg xmlns="http://www.w3.org/2000/svg" xmlns:xlink="http://www.w3.org/1999/xlink" viewBox="0 0 3344.89 3344"><defs><style>.cls-1{fill:none;}.cls-2{fill:#373241;}.cls-3{fill:#f6f0c6;}.cls-4{fill:#fff;}.cls-5{fill:#cc857e;}.cls-6{fill:#373242;}.cls-7{fill:#c0cea4;}.cls-8{fill:#1a1e23;}.cls-9{fill:#3b5e59;}.cls-10{fill:#8eb28b;}.cls-11{fill:#4c787a;}.cls-12{fill:#1a1e24;}.cls-13{fill:#a1cdb1;}.cls-14{fill:#6f9495;}.cls-15{fill:url(#radial-gradient);}.cls-16{fill:url(#radial-gradient-2);}.cls-17{fill:#a66773;}.cls-18{fill:url(#radial-gradient-3);}.cls-19{fill:url(#radial-gradient-4);}.cls-20{fill:url(#radial-gradient-5);}.cls-21{fill:url(#radial-gradient-6);}.cls-22{fill:url(#radial-gradient-7);}</style><radialGradient id="radial-gradient" cx="1224.01" cy="835.08" r="59.79" gradientUnits="userSpaceOnUse"><stop offset="0" stop-color="#fff"/><stop offset="0.25" stop-color="#fffefd"/><stop offset="0.37" stop-color="#fdfcf5"/><stop offset="0.47" stop-color="#fbf8e8"/><stop offset="0.56" stop-color="#f9f3d5"/><stop offset="0.59" stop-color="#f7f0ca"/><stop offset="0.64" stop-color="#f6edc7" stop-opacity="0.98"/><stop offset="0.72" stop-color="#f3e6bf" stop-opacity="0.91"/><stop offset="0.81" stop-color="#eedab1" stop-opacity="0.8"/><stop offset="0.92" stop-color="#e7c99e" stop-opacity="0.64"/><stop offset="1" stop-color="#e1b98c" stop-opacity="0.5"/></radialGradient><radialGradient id="radial-gradient-2" cx="1808.21" cy="543.75" r="59.8" xlink:href="#radial-gradient"/><radialGradient id="radial-gradient-3" cx="2414.74" cy="308.42" r="59.8" xlink:href="#radial-gradient"/><radialGradient id="radial-gradient-4" cx="2793.7" cy="676.85" r="59.8" xlink:href="#radial-gradient"/><radialGradient id="radial-gradient-5" cx="388.1" cy="1190.77" r="59.79" xlink:href="#radial-gradient"/><radialGradient id="radial-gradient-6" cx="338.12" cy="508.73" r="59.79" xlink:href="#radial-gradient"/><radialGradient id="radial-gradient-7" cx="938.12" cy="340.32" r="59.79" xlink:href="#radial-gradient"/></defs><title>fp</title><g id="Layer_2" data-name="Layer 2"><g id="Layer_1-2" data-name="Layer 1"><path class="cls-1" d="M1464,2760.93c4-1,8-1.75,11.53-2.51-6-19.78-12-39.41-18.14-59.53-2.42.25-5.79.67-9.15.91-29.34,1.93-56.52-4.24-80.3-22.18-22.27-16.81-32.68-45.29-23.16-72a45,45,0,0,1,20.56-24.77,8.08,8.08,0,0,0,3.11-3.11,356.21,356.21,0,0,0,23.72-63.45c.12-.45.19-.91.35-1.7-2.92.44-5.66,1-8.44,1.23-16,1.18-28.68-5.13-38.48-17.5a78.35,78.35,0,0,1-14-28.75c-2.16-8.17,1.16-12.54,9.23-14.6,6.58-1.66,12.9-4.47,19.17-7.14,13.15-5.62,26.67-8.58,41-6.93.56.07,1.15,0,2.36,0,0-5.71-.47-11.35.08-16.86,1.23-12.09,5.37-23.14,13.27-32.55a18.61,18.61,0,0,1,5.06-4.34c6.74-3.73,13.82-.76,16.59,7.15,5,14.09,13.87,25.59,23.41,36.75,1.41,1.66,2.67,2,4.81,1.46,23.68-5.53,47.21-5.14,70.47,2.37a5.71,5.71,0,0,1,1.67.61c4.57,3.5,8.44,1.39,12.37-1.35,11.74-8.17,23.14-16.64,32.6-27.55,7.3-8.41,16.38-7,21.07,3.07,3.61,7.79,4.2,16.19,3.45,24.6-.61,6.78-1.9,13.47-3,20.53,2.16.2,4.58.39,7,.64,15.48,1.58,29.18,7.88,42.28,15.94,6.19,3.81,12.71,7.16,19.25,10.35,5.87,2.88,8.36,8.68,5,14.33-8.07,13.6-18.34,25.07-32.77,32.3-12.67,6.35-25.74,6.92-39.17,2.82a8.9,8.9,0,0,0-4.31-.42c2.68,4.47,5.13,9.11,8.09,13.4,10.06,14.56,21.69,27.64,36.92,37,10.86,6.67,23.1,9.51,35.49,11.29,29.07,4.19,58.33,4.46,87.62,3.8,21.94-.48,43.88-1.63,65.8-1.44,22.75.18,45.09,3.58,66.36,12.29,28.84,11.8,48.79,32.11,60,61.33,2.65,6.94,7,13.32,11,19.67,9,14.33,19.28,27.74,32.8,38.17,5.55,4.28,11.85,7.63,18,11.18a4.86,4.86,0,0,0,4.19.12c10.66-6.86,21.81-5.54,33.09-2.26,6.77,2,13.48,4.17,20.29,6a22.24,22.24,0,0,0,6.68.37c5.09-.16,7.46,3.32,4.92,7.82a71.3,71.3,0,0,1-21.32,23.73c-11,7.68-22.91,10.17-35.91,6.65-6.47-1.76-12.44-4.44-16.69-10a5,5,0,0,0-2.24-1.63,106.62,106.62,0,0,1-46.49-29.94c-.32,3-.54,5.21-.8,7.45-2.16,17.78-4.64,35.52-6.43,53.36-2,20.63-1.88,41.23,4.17,61.38,6.12,20.38,18.93,35.63,36.54,47,7.78,5.05,16.19,9.15,24.41,13.49,4.47,2.35,5.92,6.17,6,10.77.17,11.08-3.56,21.07-9.26,30.33a70,70,0,0,1-8.38,10.46c-3.32,3.65-7.7,4.68-12.59,4-26.16-3.58-49.38-14.3-70.81-29.27-18.13-12.67-33.53-28.21-46.91-45.75-1.28-1.68-2.2-1.9-4-1.05-3.1,1.42-6.46,2.25-9.45,3.81a6.81,6.81,0,0,0-2.69,4c-1.85,6.67-5.33,11.94-12.29,13.82-3.2.87-6.69.72-11.07,1.13,1.18,7.14,2.14,14.47,3.62,21.7,3.55,17.49,9.4,34.3,15.87,50.88,2.64,6.77.74,13.51-5.73,18a84.63,84.63,0,0,1-37.08,14.84c-7,1-12.37-1.34-16.52-7.13-14.6-20.36-24.6-42.85-31.59-66.78a282.69,282.69,0,0,1-11.22-76c-6.89.5-13.67,1-20.43,1.51a372.13,372.13,0,0,1-65.75-.57,284.7,284.7,0,0,1-63.57-13.15,5.66,5.66,0,0,0-3.93.24,450.11,450.11,0,0,0-80.45,50.4,376.28,376.28,0,0,0-57.45,55.31c-4.69,5.62-8.83,11.66-13.4,17.36-4.83,6-11.52,7.88-18.68,5.06-12.29-4.86-22.82-12.23-30.9-22.82-4.24-5.53-4.66-11.6-1.69-17.65,18.3-37.23,41.65-70.89,71.58-99.75,6.25-6,12.93-11.6,19.26-18.06-11.92,2.54-23.89,4.77-35.72,7.67-33.39,8.15-65.22,20.27-94.78,38a15.39,15.39,0,0,1-18.68-1.93c-9.21-8.61-17.15-18.17-21.26-30.38-2.68-7.87-1.43-12.61,4.94-17.89a374,374,0,0,1,76.06-49.28A286.32,286.32,0,0,1,1464,2760.93Z"/><polygon class="cls-2" points="2223.93 2223.14 2223.93 2514.92 2112.21 2223.14 2223.93 2223.14"/><polygon class="cls-2" points="1224.89 2223.14 1111.93 2625.16 1111.93 2223.14 1224.89 2223.14"/><path class="cls-3" d="M2112.21,2223.14H1224.89l-113,402v408.08c254.16-.91,530.7,8.86,819.39,30.48l5.33.4h0q146.73,2,287.25,6.59v-555.8Zm-18.38,524.37a71.3,71.3,0,0,1-21.32,23.73c-11,7.68-22.91,10.17-35.91,6.65-6.47-1.76-12.44-4.44-16.69-10a5,5,0,0,0-2.24-1.63,106.62,106.62,0,0,1-46.49-29.94c-.32,3-.54,5.21-.8,7.45-2.16,17.78-4.64,35.52-6.43,53.36-2,20.63-1.88,41.23,4.17,61.38,6.12,20.38,18.93,35.63,36.54,47,7.78,5.05,16.19,9.15,24.41,13.49,4.47,2.35,5.92,6.17,6,10.77.17,11.08-3.56,21.07-9.26,30.33a70,70,0,0,1-8.38,10.46c-3.32,3.65-7.7,4.68-12.59,4-26.16-3.58-49.38-14.3-70.81-29.27-18.13-12.67-33.53-28.21-46.91-45.75-1.28-1.68-2.2-1.9-4-1.05-3.1,1.42-6.46,2.25-9.45,3.81a6.81,6.81,0,0,0-2.69,4c-1.85,6.67-5.33,11.94-12.29,13.82-3.2.87-6.69.72-11.07,1.13,1.18,7.14,2.14,14.47,3.62,21.7,3.55,17.49,9.4,34.3,15.87,50.88,2.64,6.77.74,13.51-5.73,18a84.63,84.63,0,0,1-37.08,14.84c-7,1-12.37-1.34-16.52-7.13-14.6-20.36-24.6-42.85-31.59-66.78a282.69,282.69,0,0,1-11.22-76c-6.89.5-13.67,1-20.43,1.51a372.13,372.13,0,0,1-65.75-.57,284.7,284.7,0,0,1-63.57-13.15,5.66,5.66,0,0,0-3.93.24,450.11,450.11,0,0,0-80.45,50.4,376.28,376.28,0,0,0-57.45,55.31c-4.69,5.62-8.83,11.66-13.4,17.36-4.83,6-11.52,7.88-18.68,5.06-12.29-4.86-22.82-12.23-30.9-22.82-4.24-5.53-4.66-11.6-1.69-17.65,18.3-37.23,41.65-70.89,71.58-99.75,6.25-6,12.93-11.6,19.26-18.06-11.92,2.54-23.89,4.77-35.72,7.67-33.39,8.15-65.22,20.27-94.78,38a15.39,15.39,0,0,1-18.68-1.93c-9.21-8.61-17.15-18.17-21.26-30.38-2.68-7.87-1.43-12.61,4.94-17.89a374,374,0,0,1,76.06-49.28,286.32,286.32,0,0,1,53.94-19.92c4-1,8-1.75,11.53-2.51-6-19.78-12-39.41-18.14-59.53-2.42.25-5.79.67-9.15.91-29.34,1.93-56.52-4.24-80.3-22.18-22.27-16.81-32.68-45.29-23.16-72a45,45,0,0,1,20.56-24.77,8.08,8.08,0,0,0,3.11-3.11,356.21,356.21,0,0,0,23.72-63.45c.12-.45.19-.91.35-1.7-2.92.44-5.66,1-8.44,1.23-16,1.18-28.68-5.13-38.48-17.5a78.35,78.35,0,0,1-14-28.75c-2.16-8.17,1.16-12.54,9.23-14.6,6.58-1.66,12.9-4.47,19.17-7.14,13.15-5.62,26.67-8.58,41-6.93.56.07,1.15,0,2.36,0,0-5.71-.47-11.35.08-16.86,1.23-12.09,5.37-23.14,13.27-32.55a18.61,18.61,0,0,1,5.06-4.34c6.74-3.73,13.82-.76,16.59,7.15,5,14.09,13.87,25.59,23.41,36.75,1.41,1.66,2.67,2,4.81,1.46,23.68-5.53,47.21-5.14,70.47,2.37a5.71,5.71,0,0,1,1.67.61c4.57,3.5,8.44,1.39,12.37-1.35,11.74-8.17,23.14-16.64,32.6-27.55,7.3-8.41,16.38-7,21.07,3.07,3.61,7.79,4.2,16.19,3.45,24.6-.61,6.78-1.9,13.47-3,20.53,2.16.2,4.58.39,7,.64,15.48,1.58,29.18,7.88,42.28,15.94,6.19,3.81,12.71,7.16,19.25,10.35,5.87,2.88,8.36,8.68,5,14.33-8.07,13.6-18.34,25.07-32.77,32.3-12.67,6.35-25.74,6.92-39.17,2.82a8.9,8.9,0,0,0-4.31-.42c2.68,4.47,5.13,9.11,8.09,13.4,10.06,14.56,21.69,27.64,36.92,37,10.86,6.67,23.1,9.51,35.49,11.29,29.07,4.19,58.33,4.46,87.62,3.8,21.94-.48,43.88-1.63,65.8-1.44,22.75.18,45.09,3.58,66.36,12.29,28.84,11.8,48.79,32.11,60,61.33,2.65,6.94,7,13.32,11,19.67,9,14.33,19.28,27.74,32.8,38.17,5.55,4.28,11.85,7.63,18,11.18a4.86,4.86,0,0,0,4.19.12c10.66-6.86,21.81-5.54,33.09-2.26,6.77,2,13.48,4.17,20.29,6a22.24,22.24,0,0,0,6.68.37C2094,2739.53,2096.37,2743,2093.83,2747.51Z"/><path d="M1463.26,2616.65a16,16,0,0,1-7.23-.52c-1.58-.55-3.48-2.47-3.69-4s1.12-3.85,2.5-4.83c2-1.43,4.63-2,7-2.87,4.7.49,8.18,2.63,8.45,5.6S1467.56,2616.07,1463.26,2616.65Z"/><path d="M1410.11,2611.18c-1.5,1.92-4,3-6.24,4.54-3.15-1.38-5.82-2.09-7.94-3.57-3.85-2.69-3.14-7,1.17-8.8,3.67-1.55,9.64-.38,12,2.83C1410.05,2607.49,1410.82,2610.28,1410.11,2611.18Z"/><path d="M1464.85,2964.91c-4.48,5.82-8.79,11.66-13.39,17.28-1.76,2.15-4.34,2.54-7.09,1.35-9.86-4.29-18.55-10.25-25.38-18.59-1.38-1.67-2.47-5-1.74-6.73,2.77-6.67,6.33-13,9.87-20C1438.36,2949.76,1450.41,2958.78,1464.85,2964.91Z"/><path d="M1380.77,2862.08c-5.89,3.36-11.39,6.52-16.9,9.63a5.61,5.61,0,0,1-7.14-1c-7.37-7.18-14.11-14.85-17.83-24.68-1.82-4.77-1.7-5.63,2.16-8.75,5.47-4.43,11-8.76,16.9-13.43A109.39,109.39,0,0,0,1380.77,2862.08Z"/><path class="cls-4" d="M1511.62,2822.57c-17.35,3.56-34.5,6.7-51.46,10.65a329,329,0,0,0-66,22.91c-2.7,1.27-4.3,1-6.33-1.16a96.6,96.6,0,0,1-20.4-34.39c-.79-2.29-.34-3.59,1.7-4.94,22.06-14.63,44.94-27.78,70-36.61,12.36-4.37,25.28-7.19,37.85-11,3.42-1,4.32.65,5.41,3a326.59,326.59,0,0,0,25.13,45c1.37,2.05,2.75,4.11,4.09,6.19C1511.71,2822.37,1511.62,2822.65,1511.62,2822.57Z"/><path class="cls-5" d="M1520.16,2630.86c-.54-8.23-2.67-16.27-8.41-22.42-15.45-16.61-40.62-21.51-61.48-12.16q-17.54,7.88-33.83-1.78a63.68,63.68,0,0,0-22.48-8c-10.44-1.72-20.26-.56-28.7,6.4-16.88,14-17.18,39.68-8.25,56.86,6.84,13.15,17.84,22.18,31,28.87,15.89,8.07,32.77,11.53,50,11.89,19.3-.31,37.44-4,54.19-12.95C1510.69,2667.63,1521.57,2652.79,1520.16,2630.86Zm-124.23-18.71c-3.85-2.69-3.14-7,1.16-8.81,3.68-1.54,9.65-.37,12,2.84,1,1.3,1.72,4.11,1,5-1.49,1.91-4,3-6.23,4.54C1400.72,2614.34,1398.05,2613.63,1395.93,2612.15Zm35.12,71.81c-13.26,0-24-11.08-24-24.75s10.75-24.76,24-24.76,24,11.09,24,24.76S1444.32,2684,1431.05,2684Zm32.2-67.3a16,16,0,0,1-7.21-.52c-1.58-.56-3.48-2.47-3.7-4s1.12-3.85,2.5-4.83c2-1.43,4.63-1.95,7-2.88,4.71.49,8.19,2.64,8.46,5.62S1467.57,2616.07,1463.25,2616.66Z"/><path class="cls-6" d="M1582.36,2472.39c-9,10.19-25.79,8.45-34.16-3.1a35.14,35.14,0,0,1-6.25-16.68c-.33-2.68.25-5,3-6.13,10.41-4.45,19.46-11,28-18.27,6.18-5.24,11.83-11.1,17.73-16.67.92-.87,1.91-1.67,4-3.47,1.3,4.22,2.82,7.43,3.25,10.79C1600.47,2438.91,1595.87,2457.06,1582.36,2472.39Z"/><path class="cls-6" d="M1457.3,2443c-4,6.8-10.25,10.74-17.21,13.49-4.43,1.75-9.27,2.46-14,3.51-2.29.52-3.88-.45-5.34-2.41-6.87-9.2-8.71-19.69-8-30.76s3.92-21.54,11-30.45a35.37,35.37,0,0,1,3.78-3.46,32.36,32.36,0,0,1,2,3.66c5.79,15.81,15.7,28.91,27.06,41C1458.41,2439.57,1458.6,2440.83,1457.3,2443Z"/><path d="M1502.64,2565.82c-7.6,3.59-15.83-1.87-17-11.29-.12-.92-.09-1.88-.12-2.4,0-7.36,4.1-14,9.54-16.14,5.71-2.2,11.15-.51,14.55,4.55C1515,2548.56,1511.4,2561.69,1502.64,2565.82Z"/><path d="M1436.81,2545.16a19.61,19.61,0,0,1-5.58,13.7c-5.65,5.78-14.33,4.54-18-2.65-3.78-7.34-2.2-16.88,4-22.33,3.11-2.75,6.83-4.27,11.08-2.8,5.16,1.78,7.34,5.94,8.34,10.92A25.69,25.69,0,0,1,1436.81,2545.16Z"/><path d="M1455.08,2659.2c0,13.68-10.76,24.77-24,24.77s-24-11.09-24-24.77,10.75-24.75,24-24.75S1455.08,2645.53,1455.08,2659.2Z"/><path d="M2025,2931.31a49.33,49.33,0,0,1-14.55,32.07,4.67,4.67,0,0,1-3.44,1.37c-7.83-1.41-15.61-3.07-24.37-4.85,12.49-11.88,19.73-25.53,24.28-40.8,5.75,2.91,11.16,5.49,16.36,8.42A4.72,4.72,0,0,1,2025,2931.31Z"/><path d="M1855.14,3003.8a75.44,75.44,0,0,1-28,12.25c-1.15.24-2.31.42-3.47.63-3.32.6-6-.2-7.9-3.23-3.1-4.83-6.38-9.55-10-15,16.86-2.65,31.68-8.13,46.33-15.79,2.07,5.48,4.34,10.63,5.81,16C1858.3,3000.07,1856.62,3002.77,1855.14,3003.8Z"/><path class="cls-4" d="M1845.8,2974.65c-12.36,6.28-25.15,11.22-38.86,13.49-6.25,1-6.33.93-9-4.85a253,253,0,0,1-20.58-71.71c-1.19-8.75-1.67-17.59-2.45-26.39a11.78,11.78,0,0,1,.27-2.23c3.4,1.75,6.58,3.21,9.53,5,.67.41.91,2.15.75,3.19-1,6.52-.34,12.63,5,17.14a18.09,18.09,0,0,0,17.24,3.77c1-.27,2-.6,3-.9,4.7,9.84,15.71,13.89,26.89,7.4.68,5.41.93,10.83,2.08,16.05,2.53,11.59,5.41,23.12,8.41,34.61C1848.74,2972,1848.59,2973.24,1845.8,2974.65Z"/><path class="cls-5" d="M1879.25,2889.87c-4.09,1.29-8,2.74-12.09,3.76-4.51,1.13-5.4,2-5.51,6.7a16.3,16.3,0,0,1-.35,3.5c-1.11,4.55-4.14,7.33-7.89,7.35s-6.3-2.47-7.62-7.14a5.36,5.36,0,0,1-.31-1.36c-.09-3.27-1.8-5.18-5-5.24s-4.46,2.07-5.26,5.08a17.54,17.54,0,0,1-3.86,7.64,6.52,6.52,0,0,1-11-3.69c-.4-2.69.13-5.6.6-8.35.52-3-.28-5.17-3.09-6.31-3-1.21-4.95.35-6.39,2.84a43.47,43.47,0,0,1-2.88,4.84c-2.72,3.55-5.63,4.24-9.62,2.52-3.19-1.36-4.45-3.84-3.8-8.19a39.06,39.06,0,0,1,1.62-5.75c1.2-3.85.17-6-3.52-7.49a66.15,66.15,0,0,1-11.78-6.06,23.1,23.1,0,0,1,2.75-.7c24-3.06,47.45-8.65,70.63-15.46,5.19-1.52,5-1.55,7.65,3.06C1867.83,2870.71,1873.35,2879.89,1879.25,2889.87Z"/><path d="M1827.5,2847c-1.57-2.74-3.35-5.65-5.38-9.14A60.8,60.8,0,0,1,1827.5,2847Z"/><path d="M2088.91,2739.69a22.24,22.24,0,0,1-6.68-.37c-6.81-1.83-13.52-4-20.29-6-11.28-3.28-22.43-4.6-33.09,2.26a4.86,4.86,0,0,1-4.19-.12c-6.1-3.55-12.4-6.9-18-11.18-13.52-10.43-23.76-23.84-32.8-38.17-4-6.35-8.38-12.73-11-19.67-11.17-29.22-31.12-49.53-60-61.33-21.27-8.71-43.61-12.11-66.36-12.29-21.92-.19-43.86,1-65.8,1.44-29.29.66-58.55.39-87.62-3.8-12.39-1.78-24.63-4.62-35.49-11.29-15.23-9.37-26.86-22.45-36.92-37-3-4.29-5.41-8.93-8.09-13.4a8.9,8.9,0,0,1,4.31.42c13.43,4.1,26.5,3.53,39.17-2.82,14.43-7.23,24.7-18.7,32.77-32.3,3.35-5.65.86-11.45-5-14.33-6.54-3.19-13.06-6.54-19.25-10.35-13.1-8.06-26.8-14.36-42.28-15.94-2.44-.25-4.86-.44-7-.64,1.05-7.06,2.34-13.75,3-20.53.75-8.41.16-16.81-3.45-24.6-4.69-10.1-13.77-11.48-21.07-3.07-9.46,10.91-20.86,19.38-32.6,27.55-3.93,2.74-7.8,4.85-12.37,1.35a5.71,5.71,0,0,0-1.67-.61c-23.26-7.51-46.79-7.9-70.47-2.37-2.14.51-3.4.2-4.81-1.46-9.54-11.16-18.46-22.66-23.41-36.75-2.77-7.91-9.85-10.88-16.59-7.15a18.61,18.61,0,0,0-5.06,4.34c-7.9,9.41-12,20.46-13.27,32.55-.55,5.51-.08,11.15-.08,16.86-1.21,0-1.8.07-2.36,0-14.35-1.65-27.87,1.31-41,6.93-6.27,2.67-12.59,5.48-19.17,7.14-8.07,2.06-11.39,6.43-9.23,14.6a78.35,78.35,0,0,0,14,28.75c9.8,12.37,22.5,18.68,38.48,17.5,2.78-.2,5.52-.79,8.44-1.23-.16.79-.23,1.25-.35,1.7a356.21,356.21,0,0,1-23.72,63.45,8.08,8.08,0,0,1-3.11,3.11,45,45,0,0,0-20.56,24.77c-9.52,26.7.89,55.18,23.16,72,23.78,17.94,51,24.11,80.3,22.18,3.36-.24,6.73-.66,9.15-.91,6.12,20.12,12.1,39.75,18.14,59.53-3.5.76-7.55,1.5-11.53,2.51a286.32,286.32,0,0,0-53.94,19.92,374,374,0,0,0-76.06,49.28c-6.37,5.28-7.62,10-4.94,17.89,4.11,12.21,12,21.77,21.26,30.38a15.39,15.39,0,0,0,18.68,1.93c29.56-17.77,61.39-29.89,94.78-38,11.83-2.9,23.8-5.13,35.72-7.67-6.33,6.46-13,12-19.26,18.06-29.93,28.86-53.28,62.52-71.58,99.75-3,6.05-2.55,12.12,1.69,17.65,8.08,10.59,18.61,18,30.9,22.82,7.16,2.82,13.85.94,18.68-5.06,4.57-5.7,8.71-11.74,13.4-17.36a376.28,376.28,0,0,1,57.45-55.31,450.11,450.11,0,0,1,80.45-50.4,5.66,5.66,0,0,1,3.93-.24,284.7,284.7,0,0,0,63.57,13.15,372.13,372.13,0,0,0,65.75.57c6.76-.56,13.54-1,20.43-1.51a282.69,282.69,0,0,0,11.22,76c7,23.93,17,46.42,31.59,66.78,4.15,5.79,9.56,8.09,16.52,7.13a84.63,84.63,0,0,0,37.08-14.84c6.47-4.48,8.37-11.22,5.73-18-6.47-16.58-12.32-33.39-15.87-50.88-1.48-7.23-2.44-14.56-3.62-21.7,4.38-.41,7.87-.26,11.07-1.13,7-1.88,10.44-7.15,12.29-13.82a6.81,6.81,0,0,1,2.69-4c3-1.56,6.35-2.39,9.45-3.81,1.85-.85,2.77-.63,4,1.05,13.38,17.54,28.78,33.08,46.91,45.75,21.43,15,44.65,25.69,70.81,29.27,4.89.68,9.27-.35,12.59-4a70,70,0,0,0,8.38-10.46c5.7-9.26,9.43-19.25,9.26-30.33-.08-4.6-1.53-8.42-6-10.77-8.22-4.34-16.63-8.44-24.41-13.49-17.61-11.33-30.42-26.58-36.54-47-6-20.15-6.22-40.75-4.17-61.38,1.79-17.84,4.27-35.58,6.43-53.36.26-2.24.48-4.49.8-7.45a106.62,106.62,0,0,0,46.49,29.94,5,5,0,0,1,2.24,1.63c4.25,5.53,10.22,8.21,16.69,10,13,3.52,24.93,1,35.91-6.65a71.3,71.3,0,0,0,21.32-23.73C2096.37,2743,2094,2739.53,2088.91,2739.69Zm-544-293.21c10.41-4.46,19.46-11,28-18.26,6.17-5.25,11.82-11.11,17.72-16.68.92-.87,1.91-1.68,4-3.46,1.3,4.2,2.83,7.43,3.26,10.77,2.56,20.06-2,38.2-15.53,53.54-9,10.19-25.81,8.45-34.17-3.1a35.1,35.1,0,0,1-6.25-16.68C1541.61,2449.92,1542.2,2447.65,1544.94,2446.48Zm-132.16-19.61c.72-11.16,3.91-21.55,11-30.44a36.57,36.57,0,0,1,3.79-3.47,34.31,34.31,0,0,1,2,3.67c5.78,15.8,15.7,28.9,27,41,1.8,1.92,2,3.18.69,5.4-4,6.79-10.24,10.72-17.22,13.48-4.42,1.75-9.26,2.46-13.95,3.52-2.29.5-3.89-.46-5.35-2.41C1413.92,2448.43,1412.07,2437.94,1412.78,2426.87ZM1438,2690.52c-17.2-.36-34.08-3.82-50-11.89-13.14-6.69-24.14-15.72-31-28.87-8.93-17.18-8.63-42.89,8.25-56.86,8.44-7,18.26-8.12,28.7-6.4a63.68,63.68,0,0,1,22.48,8q16.29,9.66,33.83,1.78c20.86-9.35,46-4.45,61.48,12.16,5.74,6.15,7.87,14.19,8.41,22.42,1.41,21.93-9.47,36.77-28,46.71C1475.4,2686.55,1457.26,2690.21,1438,2690.52Zm-74.09,181.19a5.62,5.62,0,0,1-7.15-1c-7.36-7.19-14.1-14.84-17.82-24.68-1.81-4.77-1.7-5.63,2.17-8.76,5.46-4.42,11-8.76,16.88-13.43a109.58,109.58,0,0,0,22.82,38.22C1374.88,2865.44,1369.38,2868.6,1363.87,2871.71Zm96.29-38.49a329.68,329.68,0,0,0-66,22.9c-2.71,1.28-4.31,1.06-6.34-1.14a96.71,96.71,0,0,1-20.39-34.4c-.79-2.3-.36-3.6,1.69-4.94,22.06-14.63,44.94-27.78,70-36.62,12.38-4.37,25.29-7.18,37.87-11,3.41-1,4.32.64,5.41,3a327.12,327.12,0,0,0,25.12,45c1.38,2.06,2.74,4.11,4.1,6.19a.45.45,0,0,1,0,.36C1494.27,2826.13,1477.12,2829.27,1460.16,2833.22Zm-8.7,149c-1.76,2.15-4.33,2.53-7.09,1.34-9.85-4.29-18.55-10.24-25.39-18.58-1.36-1.68-2.45-5-1.73-6.72,2.77-6.68,6.32-13,9.87-20,11.25,11.56,23.28,20.59,37.73,26.71C1460.37,2970.74,1456.05,2976.57,1451.46,2982.19Zm400.64.48c2.06,5.48,4.33,10.65,5.81,16,.39,1.4-1.29,4.09-2.77,5.13a75.54,75.54,0,0,1-28,12.24c-1.16.23-2.32.42-3.48.62-3.31.6-6-.19-7.9-3.21-3.1-4.84-6.37-9.57-10-15C1822.62,2995.82,1837.45,2990.34,1852.1,2982.67Zm-4.07-13.41c.7,2.74.55,4-2.22,5.39-12.38,6.28-25.15,11.22-38.87,13.49-6.26,1-6.34.94-9-4.84a253.19,253.19,0,0,1-20.56-71.71c-1.19-8.76-1.68-17.6-2.47-26.4a12.56,12.56,0,0,1,.27-2.23c3.41,1.75,6.59,3.21,9.55,5,.67.42.89,2.15.74,3.2-1,6.5-.34,12.62,5,17.13a18,18,0,0,0,17.23,3.76c1-.27,2-.6,3-.89,4.69,9.84,15.71,13.89,26.89,7.4.67,5.41.94,10.83,2.08,16.06C1842.16,2946.24,1845,2957.77,1848,2969.26Zm19.13-75.63c-4.5,1.13-5.4,2-5.51,6.71a16.44,16.44,0,0,1-.36,3.5c-1.09,4.54-4.13,7.31-7.88,7.35s-6.29-2.48-7.62-7.15a6.55,6.55,0,0,1-.32-1.36c-.08-3.26-1.8-5.18-5-5.25s-4.48,2.09-5.27,5.1a17.55,17.55,0,0,1-3.86,7.63,6.51,6.51,0,0,1-11-3.68c-.41-2.71.12-5.6.59-8.36.52-3-.27-5.18-3.1-6.3-3-1.21-4.94.33-6.39,2.84a44.05,44.05,0,0,1-2.87,4.82c-2.73,3.55-5.63,4.24-9.62,2.53-3.19-1.37-4.45-3.84-3.8-8.19a38.23,38.23,0,0,1,1.63-5.75c1.2-3.85.15-6-3.53-7.48a67.23,67.23,0,0,1-11.78-6.07,23,23,0,0,1,2.75-.69c24-3.08,47.45-8.66,70.63-15.47,5.18-1.53,5-1.55,7.65,3.06,5.33,9.28,10.85,18.46,16.75,28.45C1875.16,2891.16,1871.21,2892.61,1867.16,2893.63Zm139.78,25.46c5.77,2.92,11.17,5.5,16.38,8.42a4.8,4.8,0,0,1,1.71,3.8,49.25,49.25,0,0,1-14.56,32.06,4.6,4.6,0,0,1-3.43,1.38c-7.83-1.41-15.61-3.08-24.37-4.86C1995.16,2948,2002.4,2934.37,2006.94,2919.09Zm-14-9.89c5.11,3.73,5.43,3.73,3.58,9.67-3.87,12.42-9.74,23.71-19.67,32.53-3.55,3.15-6.79,3.48-11.1,1.35a191.66,191.66,0,0,1-48.71-34.2c-20-19.39-35.67-42-48.25-66.73-3.18-6.27-4.3-6.79-11.06-4.79-7.68,2.28-15.42,4.39-23.1,6.62-2.15.64-3.38.2-4.49-2-.81-1.58-1.67-3.12-2.59-4.72-1.58-2.74-3.35-5.65-5.38-9.15h0a96.92,96.92,0,0,0-8.74-10.68c-1.7-1.8-3.41-3.5-5.11-5.08a2.15,2.15,0,0,0,.23-.27,96.4,96.4,0,0,0-20.57-15.82c-11.37-6.54-23.74-10.3-36.71-10.3-30.87,0-60.34,12.39-75.22,45.91-3.14,7.05-5.06,14.65-7.21,22.08-.62,2.17-1.14,2.89-3.48,2.54-16.23-2.46-32.25-5.7-47.72-11.3a11.31,11.31,0,0,0-9.46.47,462.09,462.09,0,0,0-80.42,49.8,393.5,393.5,0,0,0-53.7,49.6c-1.16,1.28-2,2.32-4.12,1.44a95.88,95.88,0,0,1-35.64-25.4c-1.34-1.55-1.36-2.61-.32-4.27,18.26-29.59,39.73-56.49,66.55-78.84,6.42-5.34,13.29-10.13,20.19-14.89,6.3-4.36,6.82-5.64,2.42-11.7a324.12,324.12,0,0,1-28.43-47.2c-11.48-23.23-20.41-47.38-25.73-72.8-.26-1.26-.38-2.54-.57-3.92,5.82-1.91,11.6-3.49,17.14-5.69,14.79-5.89,28.29-13.77,36.68-28,9.52-16.16,11.08-33.14,3.4-50.47-9-20.38-26.62-28.3-47.23-30.94-11.2-1.44-22.09.74-32.43,5.35-8.81,3.92-17.1,3-25.29-2-12.17-7.3-25.52-10-40.33-9.43a401.7,401.7,0,0,0,25.17-74.13,89.56,89.56,0,0,0,7.13,5.48c11.51,7.16,24.21,9.21,37.35,7.16a122.07,122.07,0,0,0,23-6.25c14.41-5.26,26.53-14,35.45-26.6,8.54-12.09,14.32-25.29,15.14-40.32,0-.45.17-.9.41-2.1l10,2.79c-4.62,13.72-.18,25,8,34.89s19.15,14,32,11.11c3.25-.7,4.61-.23,5.53,3,2.71,9.52,6,18.87,8.43,28.43.87,3.5-.05,7.47-.32,11.22-1.9,25.57.48,50.44,13,73.4,9.79,18,24.4,30.3,44.66,34.57,12.69,2.69,25.3,1,37.32-4.25,13.65-6,24.35-15.52,32.82-27.59,1.82-2.58,3.68-3.28,6.73-3.2,12.74.32,25.48.34,38.23.46H1767c-.27,3.41-.65,6.42-.74,9.44-.27,9.42-1.09,18.85-.5,28.22,1.18,18.32,7.11,34.78,22,46.77,8.39,6.78,18.21,10.14,29,10.81,15,.94,28.77-2.54,41-11.25,3.63-2.55,6.71-5.92,10.41-8.34,6.15-4.08,12.84-3.7,19.68-1.58,3.79,1.16,7.6,2.17,11.54,3.18,1.59.42,3.23.82,4.86,1.26a23.09,23.09,0,0,0,2.55.3,25.66,25.66,0,0,0,2.66.12,32.85,32.85,0,0,0,5-.37c1.6-.13,3.21-.55,4.76-.81,12.27-2,22.78-7.39,30.49-17.5a11,11,0,0,1,1.43-1c1.53,4.24,3.13,8.21,4.39,12.27a143.63,143.63,0,0,1,6,52.07c-1.09,16.56-3.46,33-5.34,49.53-2.76,24.08-4.83,48.16-.37,72.27C1960.35,2874.21,1972.51,2894.27,1992.89,2909.2Zm22.58-153.72c-5.89-3.11-12-5.85-17.56-9.36a82.4,82.4,0,0,1-24.49-23.14,12.8,12.8,0,0,1-1.92-5.8c-.52-5.85-.7-11.72-1.06-18.48,13.65,19,28.48,35.43,49.21,45.3C2018.33,2747.66,2017.06,2751.13,2015.47,2755.48Z"/><path d="M2019.66,2744c-1.33,3.66-2.6,7.13-4.19,11.48-5.89-3.11-12-5.86-17.56-9.36a82.28,82.28,0,0,1-24.49-23.14,12.71,12.71,0,0,1-1.91-5.8c-.53-5.85-.71-11.71-1.07-18.47C1984.09,2717.74,1998.93,2734.13,2019.66,2744Z"/><path class="cls-4" d="M1992.89,2909.2c-20.38-14.93-32.54-35-37.09-59.73-4.46-24.11-2.39-48.19.37-72.27,1.88-16.51,4.25-33,5.34-49.53a143.63,143.63,0,0,0-6-52.07c-1.26-4.06-2.86-8-4.39-12.27a11,11,0,0,0-1.43,1c-7.71,10.11-18.22,15.45-30.49,17.5-1.55.26-3.16.68-4.76.81a32.85,32.85,0,0,1-5,.37,25.66,25.66,0,0,1-2.66-.12,23.09,23.09,0,0,1-2.55-.3c-1.63-.44-3.27-.84-4.86-1.26-3.94-1-7.75-2-11.54-3.18-6.84-2.12-13.53-2.5-19.68,1.58-3.7,2.42-6.78,5.79-10.41,8.34-12.27,8.71-26.06,12.19-41,11.25-10.78-.67-20.6-4-29-10.81-14.86-12-20.79-28.45-22-46.77-.59-9.37.23-18.8.5-28.22.09-3,.47-6,.74-9.44h-6.62c-12.75-.12-25.49-.14-38.23-.46-3-.08-4.91.62-6.73,3.2-8.47,12.07-19.17,21.58-32.82,27.59-12,5.28-24.63,6.94-37.32,4.25-20.26-4.27-34.87-16.61-44.66-34.57-12.51-23-14.89-47.83-13-73.4.27-3.75,1.19-7.72.32-11.22-2.41-9.56-5.72-18.91-8.43-28.43-.92-3.24-2.28-3.71-5.53-3-12.83,2.86-23.81-1.24-32-11.11s-12.59-21.17-8-34.89l-10-2.79c-.24,1.2-.37,1.65-.41,2.1-.82,15-6.6,28.23-15.14,40.32-8.92,12.64-21,21.34-35.45,26.6a122.07,122.07,0,0,1-23,6.25c-13.14,2-25.84,0-37.35-7.16a89.56,89.56,0,0,1-7.13-5.48,401.7,401.7,0,0,1-25.17,74.13c14.81-.62,28.16,2.13,40.33,9.43,8.19,4.91,16.48,5.87,25.29,2,10.34-4.61,21.23-6.79,32.43-5.35,20.61,2.64,38.18,10.56,47.23,30.94,7.68,17.33,6.12,34.31-3.4,50.47-8.39,14.23-21.89,22.11-36.68,28-5.54,2.2-11.32,3.78-17.14,5.69.19,1.38.31,2.66.57,3.92,5.32,25.42,14.25,49.57,25.73,72.8a324.12,324.12,0,0,0,28.43,47.2c4.4,6.06,3.88,7.34-2.42,11.7-6.9,4.76-13.77,9.55-20.19,14.89-26.82,22.35-48.29,49.25-66.55,78.84-1,1.66-1,2.72.32,4.27a95.88,95.88,0,0,0,35.64,25.4c2.07.88,3-.16,4.12-1.44a393.5,393.5,0,0,1,53.7-49.6,462.09,462.09,0,0,1,80.42-49.8,11.31,11.31,0,0,1,9.46-.47c15.47,5.6,31.49,8.84,47.72,11.3,2.34.35,2.86-.37,3.48-2.54,2.15-7.43,4.07-15,7.21-22.08,14.88-33.52,44.35-45.9,75.22-45.91,13,0,25.34,3.76,36.71,10.3a96.4,96.4,0,0,1,20.57,15.82,2.15,2.15,0,0,1-.23.27c1.7,1.58,3.41,3.28,5.11,5.08a96.92,96.92,0,0,1,8.74,10.68h0a62.23,62.23,0,0,1,5.38,9.15c.92,1.6,1.78,3.14,2.59,4.72,1.11,2.17,2.34,2.61,4.49,2,7.68-2.23,15.42-4.34,23.1-6.62,6.76-2,7.88-1.48,11.06,4.79,12.58,24.76,28.21,47.34,48.25,66.73a191.66,191.66,0,0,0,48.71,34.2c4.31,2.13,7.55,1.8,11.1-1.35,9.93-8.82,15.8-20.11,19.67-32.53C1998.32,2912.93,1998,2912.93,1992.89,2909.2Zm-561.67-350.34c-5.65,5.78-14.32,4.53-18-2.64a18.81,18.81,0,0,1,4-22.33c3.12-2.76,6.83-4.27,11.08-2.81,5.15,1.78,7.35,5.94,8.34,10.93a23.51,23.51,0,0,1,.22,3.16A19.52,19.52,0,0,1,1431.22,2558.86Zm71.42,7c-7.6,3.58-15.84-1.88-17-11.3-.12-.92-.1-1.88-.14-2.4,0-7.36,4.1-14,9.55-16.14,5.72-2.2,11.15-.5,14.55,4.56C1515,2548.57,1511.4,2561.7,1502.64,2565.83Z"/><path class="cls-7" d="M2223.93,3070.72V3344h-1112V3033.25c254.16-.91,530.7,8.86,819.39,30.48l5.33.4h0Q2083.41,3066.17,2223.93,3070.72Z"/><path class="cls-2" d="M1112,2223.12v433.57l-106.14,377.68c-238.83,4-455.28,17.72-640.12,40.12-11.47-117.2-23.87-232.66-31.32-348.4-4-61.68,17.55-69.35,76.24-36.21-17.95,76.08,13.17,115.3,98.24,125.32,13.59,1.6,30.45,3.63,39.24,11.7,33.41,30.72,66.92,17.27,98.93,1.92,29-13.89,52-33.49,43.07-70.33-2.11-8.77,3.6-20.8,9.2-29.35,29.86-45.78,33.43-79.75-14.16-101.79s-95.88-50.55-148-59.5c-56-9.62-83.24,15.69-103.78,72.58-73.73-22.31-93.3-43.75-105.89-128.43-2.71-18.24,9.82-38.47,15.33-57.77,16.2,9.8,36.17,16.66,48,29.91C453.12,2554,505,2560,586.68,2506.32c10-6.54,29.65-7.64,41.28-3.2,78,29.81,153.22-20.29,141.85-98.4-3.93-27-15.74-54.28-30.09-78.18-11.29-18.8-13.64-31.19-1.28-50.46,11.83-18.46,18.39-36.35,20-53Z"/><path class="cls-3" d="M1112,2656.69v376.57q-53.77.24-106.14,1.11Z"/><path class="cls-2" d="M250.23,2726.7c-5.38,123-10.66,244-16,366.07C146.62,3106.6,68.18,3122.71.18,3140.93v-424.5a58.74,58.74,0,0,0,14.9,1.61c39.7-1.21,63.34,9.08,82.32,42.82,22.09,39.26,55.19,41.85,92.77,13.42C208.78,2760.19,226.74,2745.36,250.23,2726.7Z"/><path class="cls-2" d="M242.51,2436.64c-21,24-22.8,47.45-8.58,74.62,4.91,9.38,4.16,21.35,6,32.14-5.61,2.34-11.23,4.7-16.84,7-13.76-22.61-30.45-44.13-40.61-68.07C161.69,2433.48,126,2410,80.38,2428.57c-31.32,12.78-54.17,7.57-80.2-5.07v-91.1q9.74-1,20.4-2.67c17.28-2.67,44,.72,53.8,11.42,37.36,40.72,80.16,57.83,137.13,48.23,10.77-1.81,28,6.83,35,15.67C251.57,2411.51,248.88,2429.35,242.51,2436.64Z"/><rect class="cls-8" y="2223.12" width="0.18" height="1120.86"/><path class="cls-9" d="M.18,3171.65V3344H0V3171.67Z"/><path class="cls-8" d="M342.81,2454.23c-5.51,19.3-18,39.53-15.33,57.77,12.59,84.68,32.16,106.12,105.89,128.43,20.54-56.89,47.76-82.2,103.78-72.58,52.14,9,100.56,37.53,148,59.5s44,56,14.16,101.79c-5.6,8.55-11.31,20.58-9.2,29.35,8.9,36.84-14.09,56.44-43.07,70.33-32,15.35-65.52,28.8-98.93-1.92-8.79-8.07-25.65-10.1-39.24-11.7-85.07-10-116.19-49.24-98.24-125.32-58.69-33.14-80.21-25.47-76.24,36.21,7.45,115.74,19.85,231.2,31.32,348.4v0q2.37,24.33,4.69,48.8c.17,1.7.32,3.42.49,5.12H232.69q.78-17.86,1.55-35.66c5.33-122.08,10.61-243,16-366.07-23.49,18.66-41.45,33.49-60.06,47.58-37.58,28.43-70.68,25.84-92.77-13.42-19-33.74-42.62-44-82.32-42.82a58.74,58.74,0,0,1-14.9-1.61V2423.5c26,12.64,48.88,17.85,80.2,5.07,45.58-18.58,81.31,4.91,102.07,53.79,10.16,23.94,26.85,45.46,40.61,68.07,5.61-2.33,11.23-4.69,16.84-7-1.81-10.79-1.06-22.76-6-32.14-14.22-27.17-12.45-50.59,8.58-74.62,6.37-7.29,9.06-25.13,4-31.59-7-8.84-24.18-17.48-35-15.67-57,9.6-99.77-7.51-137.13-48.23-9.8-10.7-36.52-14.09-53.8-11.42Q9.92,2331.4.18,2332.4V2223.12H758.41c-1.58,16.61-8.14,34.5-20,53-12.36,19.27-10,31.66,1.28,50.46,14.35,23.9,26.16,51.19,30.09,78.18,11.37,78.11-63.8,128.21-141.85,98.4-11.63-4.44-31.32-3.34-41.28,3.2C505,2560,453.12,2554,390.78,2484.14,379,2470.89,359,2464,342.81,2454.23Z"/><path class="cls-8" d="M.18,2223.12V2332.4a.58.58,0,0,1-.18,0v-109.3Z"/><path d="M.18,2423.5v292.93a.45.45,0,0,1-.18,0v-293A.61.61,0,0,1,.18,2423.5Z"/><path class="cls-9" d="M1005.85,3034.37l-12.39,44.14L918.86,3344H.18V3140.93c68-18.22,146.44-34.33,234.06-48.16q-.77,17.8-1.55,35.66H370.91c-.17-1.7-.32-3.42-.49-5.12q-2.3-24.45-4.69-48.8v0C550.57,3052.09,767,3038.34,1005.85,3034.37Z"/><path class="cls-7" d="M1112,3033.26V3344H918.86l74.6-265.47,12.39-44.14Q1058.23,3033.5,1112,3033.26Z"/><path class="cls-9" d="M.18,3140.93V3344H0V3141A.37.37,0,0,1,.18,3140.93Z"/><path class="cls-2" d="M2748.81,2769.29c-5.12,54,3.54,104.49-15.35,135.63-36.63,60.42-48.35,123.59-51.38,188.3q-121.54-8.11-251.4-14.26l-206.81-540.19V2222.82H2641.7c-11,19.47-26.7,29.45-49.7,39-79.79,33.1-104,91.16-85.32,178.15,3.39,15.78-7.64,40.43-19.19,53.78-46.45,53.7-50.12,127-8.29,182.61,11.74,15.6,20.09,36.31,24.16,56.07,17.62,85.44,79.29,126.7,153.24,96.3C2684.17,2817.37,2708.18,2796,2748.81,2769.29Z"/><path class="cls-2" d="M3344.53,2887.6v273.75c-159-24.06-347.51-44.63-558.19-60.66-11.72-60-12.49-121.66,31.42-169.5,77-83.79,172.42-136.28,280.83-171.23,4.71,11.76,7.62,17.6,9.45,23.82,26.51,90,63.75,114.26,148.93,99.5,16.47-2.86,34.26-1,50.92,2A152.52,152.52,0,0,0,3344.53,2887.6Z"/><path class="cls-2" d="M3344.73,2222.82V3343.68h-.2V2234.59q-7.11-6-15-11.77Z"/><path class="cls-3" d="M2430.68,3079q-101.2-4.78-206.81-8.25V2538.77Z"/><path class="cls-7" d="M2532,3343.68H2223.87v-273q105.51,3.45,206.81,8.25l13.77,35.95Z"/><path class="cls-9" d="M3344.53,3161.35v182.33H2532l-87.58-228.77L2430.68,3079q129.66,6.11,251.4,14.26c-.84,17.8-1,35.73-.85,53.73.25,31.55,1.49,63.36,1.91,95.3h152c-10.12-26.92-21.24-51.65-30.43-76.16a358.89,358.89,0,0,1-13.82-44.3q-2.45-10.5-4.56-21.1C2997,3116.72,3185.58,3137.29,3344.53,3161.35Z"/><path class="cls-9" d="M3344.73,3161.38v182.3h-.2V3161.35A.69.69,0,0,1,3344.73,3161.38Z"/><path d="M3344.53,2234.59v653a.68.68,0,0,0,.2,0V2234.76Z"/><path class="cls-8" d="M3329.51,2222.82H2641.7c-11,19.47-26.7,29.45-49.7,39-79.79,33.1-104,91.16-85.32,178.15,3.39,15.78-7.64,40.43-19.19,53.78-46.45,53.7-50.12,127-8.29,182.61,11.74,15.6,20.09,36.31,24.16,56.07,17.62,85.44,79.29,126.7,153.24,96.3,27.57-11.35,51.58-32.77,92.21-59.43-5.12,54,3.54,104.49-15.35,135.63-36.63,60.42-48.35,123.59-51.38,188.3-.84,17.8-1,35.73-.85,53.73.25,31.55,1.49,63.36,1.91,95.3h152c-10.12-26.92-21.24-51.65-30.43-76.16a358.89,358.89,0,0,1-13.82-44.3q-2.45-10.5-4.56-21.1c-11.72-60-12.49-121.66,31.42-169.5,77-83.79,172.42-136.28,280.83-171.23,4.71,11.76,7.62,17.6,9.45,23.82,26.51,90,63.75,114.26,148.93,99.5,16.47-2.86,34.26-1,50.92,2a152.52,152.52,0,0,0,36.64,2.27v-653Q3337.42,2228.56,3329.51,2222.82Zm-525.23,606.94c-27.17-102.22-1.4-157.18,64.66-145.34Zm71.93-25.82-12.36-11.6c18.73-40.82,37.47-81.66,55.48-120.89l88.76,27.07Z"/><path class="cls-2" d="M3008.09,2698.52l-131.88,105.42-12.36-11.6c18.73-40.82,37.47-81.66,55.48-120.89Z"/><path class="cls-2" d="M2868.94,2684.42l-64.66,145.34C2777.11,2727.54,2802.88,2672.58,2868.94,2684.42Z"/><path class="cls-1" d="M3344.73,3274.13v69.55h-.2v-69.6Z"/><path class="cls-10" d="M1483.57,1101.84c.07.06.14.15.2.21l.22.22c2.07,2.24,4.19,4.48,6.34,6.68,6,6.24,12.16,12.36,18.41,18.37q2.65,2.58,5.35,5.13a458.73,458.73,0,0,0,50.23,41.83c2,1.43,4.06,2.83,6.11,4.21a269.58,269.58,0,0,0,42,22.66c17.52,7.58,35.51,4.62,52.68-4.07a204.41,204.41,0,0,0,20-11.62c20.79-13.56,39-30.36,56.18-48.23,1-1.1,2.08-2.19,3.11-3.3l2.54-2.77c2-2.14,3.85-4.31,5.73-6.51l1.34-1.56c.83-1,1.65-1.94,2.46-2.93s1.6-1.9,2.39-2.87l2-2.44c2.17-2.66,4.3-5.35,6.42-8,1.16-1.47,2.31-3,3.47-4.44,0,0,0,0,0,0s-.12.15,0,0Zm192.06,22.22c-7.65,13.42-16.16,26.18-30,34.15-2.61,1.51-5.58,2.37-8.47,3.56-4.22-1.22-8.54-1.74-12.16-3.63-12.61-6.57-23.08-15.73-30.48-28-1.53-2.52-1.26-6.12-1.83-9.23,3,.47,6.5.15,9,1.55,16.06,8.93,32.75,13.26,50.54,6.59,6.12-2.29,11.3-7,17.1-10.22,1.66-.94,4-.66,6.05-.94C1675.51,1120,1676.48,1122.55,1675.63,1124.06Z"/><path class="cls-2" d="M1275.18,2050.75l-48.44,172.37H1112v-195Q1191,2041.22,1275.18,2050.75Z"/><path class="cls-2" d="M2224.05,2038.12v185H2110l-63.18-165Q2139.4,2050.18,2224.05,2038.12Z"/><path class="cls-11" d="M2224.05,1807v231.1q-84.69,12-177.24,20-170.61,14.58-368.88,14.73c-141.68,0-276.45-7.86-402.75-22.08q-84.15-9.48-163.14-22.63V1804.76c177.31,20.67,367.7,31.9,565.89,31.9C1868.77,1836.66,2052.39,1826.25,2224.05,1807Z"/><line class="cls-1" x1="1275.31" y1="2050.25" x2="1275.18" y2="2050.75"/><path class="cls-3" d="M2110,2223.12H1226.74l48.44-172.37c126.3,14.22,261.07,22.08,402.75,22.08q198.48,0,368.88-14.73Z"/><path class="cls-12" d="M1675.63,1124.06c-7.65,13.42-16.15,26.18-30,34.15-2.61,1.51-5.58,2.37-8.47,3.56-4.22-1.22-8.55-1.74-12.16-3.63-12.61-6.57-23.08-15.73-30.48-28-1.53-2.52-1.26-6.12-1.83-9.23,3,.47,6.5.15,9,1.55,16,8.93,32.75,13.26,50.54,6.59,6.12-2.29,11.29-7,17.09-10.22,1.67-.94,4-.66,6.06-.94C1675.52,1120,1676.49,1122.55,1675.63,1124.06Z"/><path class="cls-13" d="M1570.43,1178.49c-50.58,20.63-88.37,71.62-96.22,133.59-2.54-.15-5.08-.32-7.6-.49-4-.27-8.09-.53-12.11-.82-2.12-.13-4.22-.29-6.32-.44-3.48-.23-7-.49-10.42-.75q-23.73-1.77-46.79-3.89-8.35-.75-16.63-1.56c-2.78-.27-5.53-.54-8.29-.83q-12.36-1.23-24.5-2.57c-3.31-.35-6.6-.72-9.9-1.11l-14.14-1.64-7.92-1c-2.62-.32-5.24-.64-7.85-1q-7.85-1-15.55-2c-2.57-.33-5.15-.69-7.7-1q-7.66-1-15.23-2.12l-8.55-1.24c-4.65-.69-9.28-1.4-13.87-2.1q-11.07-1.69-21.87-3.5l-7.16-1.19c-.24,0-.47-.09-.71-.12l-6.4-1.11c-3.15-.54-6.27-1.09-9.38-1.65s-6.44-1.16-9.62-1.75c-1-.16-2-.35-2.93-.53l-5.88-1.11q-17.07-3.24-33.29-6.68c-2.71-.57-5.42-1.16-8.09-1.75h-.12c-3.17-.71-6.33-1.4-9.46-2.11-4.69-1.06-9.3-2.13-13.87-3.21h0v-117h0c106.81-20.17,222-35.24,345-43.56l.23,0c2.21-.15,4.41-.3,6.63-.43h19.57l.23.21.22.22c2.07,2.24,4.19,4.48,6.34,6.68,6,6.24,12.16,12.36,18.41,18.37q2.65,2.58,5.35,5.13a458.73,458.73,0,0,0,50.23,41.83C1566.32,1175.71,1568.38,1177.11,1570.43,1178.49Z"/><path class="cls-13" d="M2224.05,1138.93v118.39l-.05,0c-2,.62-4.07,1.23-6.14,1.85-1.81.54-3.63,1.07-5.48,1.59q-8.9,2.58-18.31,5l-5.44,1.43c-4.07,1-8.21,2.07-12.39,3.07-1.8.44-3.62.88-5.43,1.3-.93.23-1.87.45-2.8.65q-2.64.65-5.34,1.25-7.92,1.82-16.13,3.55-5.85,1.26-11.83,2.47l-6.24,1.24c-2.08.41-4.19.83-6.29,1.23l-6.18,1.18q-9.72,1.82-19.73,3.56c-4.4.76-8.86,1.51-13.35,2.25-2.5.42-5,.83-7.54,1.23l-6.09,1c-1.38.22-2.76.44-4.14.64q-3.75.59-7.55,1.14-15.37,2.3-31.37,4.41l-6.64.85-4,.51-8.52,1.06-5.35.64-4.39.52c-5,.59-10,1.16-15.09,1.71-1.6.19-3.18.36-4.78.52-1.78.21-3.55.39-5.35.58s-3.48.37-5.21.53c-2.33.26-4.67.49-7,.73q-19.79,2-40.26,3.66-4,.36-8.07.66-12.13,1-24.5,1.83-6.73.48-13.55.92c-6.56.42-13.15.85-19.79,1.22l-7,.4q-9.18.49-18.48,1-8.48.42-17,.79-8.73.38-17.52.7l-8.76.31q-8.75.3-17.6.55c-5.8-58-37.76-107-82.2-131.58,20.78-13.56,39-30.36,56.17-48.23,1-1.1,2.09-2.19,3.11-3.3.86-.92,1.7-1.85,2.54-2.77,2-2.14,3.85-4.31,5.74-6.51l1.34-1.56c.83-1,1.65-1.94,2.46-2.93s1.59-1.9,2.38-2.87c.66-.81,1.33-1.62,2-2.44,2.17-2.66,4.3-5.35,6.42-8,1.16-1.47,2.3-3,3.46-4.44h0l140.42-.09.26,0c112.16,7.3,216.19,19.81,312.58,36.62A.06.06,0,0,0,2224.05,1138.93Z"/><path class="cls-2" d="M1457.35,1102.27c-123.17,8.32-238.43,23.39-345.31,43.58v-43.58Z"/><path class="cls-2" d="M2224.05,1102.27v36.65c-96.47-16.83-200.61-29.35-312.89-36.65Z"/><path class="cls-10" d="M1767.33,1317c-2.27.07-4.54.14-6.83.19q-5.12.15-10.23.25c-5.47.13-11,.23-16.45.33l-11,.19h-.29c-3.73,0-7.46.1-11.2.13s-7.58.09-11.38.1q-38.28.29-77.64-.37-6.06-.09-12.09-.21l-6.88-.16q-23-.49-45.66-1.32c-3-.1-6.07-.22-9.11-.34l-1.4,0c-7.45-.29-14.84-.61-22.22-1-1.8-.07-3.6-.17-5.4-.25q-9.15-.43-18.24-.93-12.24-.65-24.33-1.39l-2.72-.17c7.85-62,45.64-113,96.22-133.59a269.58,269.58,0,0,0,42,22.66c17.52,7.58,35.51,4.62,52.67-4.07a203.41,203.41,0,0,0,20.06-11.62C1729.57,1210,1761.53,1259,1767.33,1317Z"/><path class="cls-14" d="M2224.05,1257.32V1807c-171.66,19.23-355.28,29.64-546.12,29.64-198.19,0-388.58-11.23-565.89-31.9v-542c4.58,1.08,9.2,2.15,13.89,3.21,3.13.71,6.29,1.4,9.47,2.1l.12,0c2.67.59,5.38,1.18,8.08,1.75q16.22,3.42,33.29,6.67l5.89,1.11c1,.19,2,.37,2.92.54,3.18.59,6.39,1.18,9.62,1.75s6.24,1.11,9.38,1.65l6.41,1.11.7.11q3.56.62,7.16,1.2c7.2,1.19,14.5,2.37,21.88,3.49q6.89,1.07,13.87,2.11l8.54,1.24q7.56,1.08,15.23,2.12l7.7,1q7.72,1,15.55,2l7.86,1,7.91,1c4.68.57,9.4,1.13,14.14,1.65,3.3.39,6.59.76,9.91,1.11q12.12,1.33,24.49,2.57c2.76.29,5.52.56,8.29.83q8.28.8,16.63,1.56,23.05,2.11,46.79,3.88c3.46.27,6.94.52,10.42.76l6.33.44,12.1.82c2.52.17,5.06.34,7.6.49l2.72.17q12.09.72,24.33,1.39,9.09.51,18.24.93c1.8.08,3.6.18,5.4.25q11.07.53,22.23,1l1.39,0c3,.12,6.07.23,9.12.33q22.62.84,45.66,1.33l6.88.15c4,.09,8,.15,12.08.22q39.33.66,77.65.37c3.8,0,7.6,0,11.38-.1s7.46-.08,11.2-.13h.28l11-.19c5.5-.1,11-.2,16.44-.33,3.41-.07,6.83-.16,10.24-.26,2.29,0,4.56-.11,6.83-.18q8.85-.26,17.6-.56l8.76-.3q8.8-.33,17.52-.71c5.7-.23,11.4-.5,17-.79,6.18-.3,12.35-.62,18.47-1l7-.41c6.64-.37,13.23-.79,19.79-1.21q6.81-.45,13.55-.92,12.36-.86,24.49-1.84,4-.3,8.07-.65,20.46-1.7,40.27-3.67,3.52-.35,7-.72c1.73-.17,3.48-.35,5.21-.54s3.56-.37,5.35-.57l4.77-.52c5.06-.56,10.11-1.13,15.1-1.72,1.46-.16,2.93-.33,4.39-.52,1.78-.2,3.56-.42,5.34-.64l8.53-1,4-.51,6.64-.86q16-2.12,31.37-4.4c2.52-.37,5-.76,7.55-1.14l4.14-.64,6.08-1c2.52-.41,5.05-.81,7.55-1.23,4.49-.74,8.94-1.5,13.35-2.25q10-1.74,19.72-3.57c2.07-.38,4.14-.79,6.19-1.17l6.29-1.23,6.23-1.24q6-1.21,11.84-2.48,8.19-1.74,16.12-3.54,2.7-.62,5.35-1.25c.93-.2,1.87-.42,2.79-.65,1.82-.42,3.63-.86,5.43-1.3,4.19-1,8.32-2,12.39-3.07l5.45-1.43q9.41-2.47,18.31-5c1.85-.52,3.66-1.06,5.48-1.6Z"/><polyline class="cls-1" points="1483.57 1101.84 1483.54 1101.84 1463.97 1101.84"/><path class="cls-15" d="M1283.81,835.07a59.8,59.8,0,1,1-59.8-59.79A59.8,59.8,0,0,1,1283.81,835.07Z"/><path class="cls-16" d="M1868,543.75A59.8,59.8,0,1,1,1808.2,484,59.83,59.83,0,0,1,1868,543.75Z"/><path class="cls-1" d="M1283.81,835.07a59.8,59.8,0,1,1-59.8-59.79A59.8,59.8,0,0,1,1283.81,835.07Z"/><path class="cls-1" d="M1868,543.75A59.8,59.8,0,1,1,1808.2,484,59.83,59.83,0,0,1,1868,543.75Z"/><path class="cls-2" d="M1112.05.33v1102h367.51l-.18-.2h0v0c-.08-.09-.15-.14-.22-.22l-1.12-1.26c-.46-.49-.91-1-1.35-1.48-1.9-2.12-3.8-4.27-5.65-6.42q-3-3.48-5.93-7l-2.44-3c-.93-1.11-1.82-2.24-2.69-3.37s-1.72-2.16-2.57-3.26c-2.71-3.46-5.33-7-7.91-10.52-1.09-1.5-2.15-3-3.21-4.52-.49-.69-1-1.38-1.44-2.09a4.26,4.26,0,0,1-.34-.49c-1-1.43-2-2.85-2.89-4.3-.25-.35-.49-.71-.71-1.06-1.21-1.83-2.4-3.7-3.58-5.56C1401.2,990,1387,928.13,1395.13,860.63c3.92-32.39,12.07-63.34,26.85-92.19a249.57,249.57,0,0,1,14.71-25.07q4.56-6.81,9.58-13.21c1.68-2.14,3.4-4.26,5.13-6.32a210.11,210.11,0,0,1,60.27-49.16c37.63-20.62,77.65-29.44,120.2-28.67,24.66.45,47.7,8.52,71.37,13.9s41.12,20.08,59.18,34.69c7.28,5.9,15,11.28,21.54,17.89a57.6,57.6,0,0,1,4.67,5.18c.49.62,1,1.24,1.45,1.88,10.46,14.11,23.54,27.34,29.91,43.19,12.22,30.42,26.41,60.58,30.25,93.78,1.66,14.43,2.53,28.94,3.76,43.4,1.14,72.26-26.53,133.76-69.6,189.55q-4.44,5.74-8.88,11.53l-1,1.28h449.51V.33Zm112,894.54a59.8,59.8,0,1,1,59.8-59.8A59.79,59.79,0,0,1,1224,894.87ZM1808.2,603.56A59.81,59.81,0,1,1,1868,543.75,59.8,59.8,0,0,1,1808.2,603.56Z"/><path class="cls-1" d="M1283.81,835.07a59.8,59.8,0,1,1-59.8-59.79A59.8,59.8,0,0,1,1283.81,835.07Z"/><path class="cls-1" d="M1868,543.75A59.8,59.8,0,1,1,1808.2,484,59.83,59.83,0,0,1,1868,543.75Z"/><path class="cls-1" d="M1283.81,835.07a59.8,59.8,0,1,1-59.8-59.79A59.8,59.8,0,0,1,1283.81,835.07Z"/><path class="cls-1" d="M1868,543.75A59.8,59.8,0,1,1,1808.2,484,59.83,59.83,0,0,1,1868,543.75Z"/><path class="cls-2" d="M1774.53,1102.28h0l1-1.28Zm-295.39-.44c.07.08.14.13.22.22-.45-.51-.91-1-1.34-1.48Z"/><path class="cls-10" d="M1854.07,899.83c-1.23-14.45-2.1-29-3.77-43.39-3.83-33.21-18-63.37-30.24-93.78-6.38-15.86-19.46-29.09-29.91-43.19-.47-.64-1-1.27-1.45-1.89-1.48-1.81-3-3.53-4.67-5.18-6.56-6.6-14.26-12-21.54-17.87-18.06-14.61-35.46-29.29-59.18-34.68s-46.71-13.45-71.37-13.91c-42.56-.77-82.57,8.06-120.2,28.67a210.52,210.52,0,0,0-60.27,49.14c-1.73,2.07-3.45,4.19-5.13,6.32q-5,6.42-9.58,13.22a246.59,246.59,0,0,0-14.71,25.07c-14.78,28.85-22.94,59.8-26.85,92.18-8.14,67.51,6.06,129.38,42.18,186.91q1.77,2.8,3.58,5.57c.22.35.45.7.71,1.06.94,1.44,1.91,2.87,2.89,4.3.1.17.22.34.33.49.49.7,1,1.39,1.45,2.08,1.06,1.51,2.12,3,3.21,4.52q3.85,5.35,7.9,10.53c.86,1.09,1.7,2.19,2.58,3.26s1.76,2.25,2.69,3.36,1.63,2,2.43,3c1.94,2.36,3.9,4.69,5.94,7,1.85,2.16,3.75,4.31,5.65,6.43.43.5.89,1,1.34,1.48s.74.84,1.13,1.26l.22.22h4.6l287,.29h3.56l0-.07,0,0c.32-.42.64-.84,1-1.27q4.44-5.78,8.87-11.54C1827.54,1033.6,1855.21,972.1,1854.07,899.83ZM1582.78,965.4c-11.25,22.67-20.8,45.92-22.16,71.64-.26,5,0,10.09,0,15.15v0l-2.74.18h0c-1.9-2.26-3.85-4.41-5.88-6.48-.67-.69-1.35-1.36-2-2s-1.36-1.33-2.06-2-1.4-1.3-2.11-1.92c-1.41-1.26-2.85-2.47-4.32-3.67q-4.38-3.52-9-6.65c-15.45-10.39-32.9-17.41-51.24-22.62a103,103,0,0,1-13.64-4.89c-2.11-.94-4.15-1.93-6.13-3A83.37,83.37,0,0,1,1453,994c-.87-.62-1.73-1.24-2.57-1.88a73.07,73.07,0,0,1-7.13-6.17c-14.07-13.82-22.12-32.55-25.8-55.1-2.14-13.14-3-26.21,1.54-39,.52-1.43,1.06-2.86,1.65-4.24s1.21-2.72,1.88-4h0c.69-1.3,1.42-2.56,2.19-3.75a30.89,30.89,0,0,1,4-5,28.17,28.17,0,0,1,2.36-2.13,24.56,24.56,0,0,1,5.56-3.35,26.35,26.35,0,0,1,5.62-1.71c13.35-2.57,25.57-.69,35.54,8.86a38,38,0,0,1,3.06,3.24c.49.57,1,1.11,1.51,1.65a65,65,0,0,0,7.18,6c1.33,1,2.69,2,4.07,3.09.69.54,1.4,1.11,2.1,1.68h0c1-8.11,1.68-15.12,2.66-22.11a94.17,94.17,0,0,1,2.45-13.18,42.68,42.68,0,0,1,9.79-17.72c.32-.34.65-.66,1-1,12.64-12.18,32-11.55,47.77,2.07,2.13,1.85,4.18,3.75,6.13,5.72C1596.06,876.67,1604.16,922.3,1582.78,965.4Zm233.68-11.9a77.9,77.9,0,0,1-14,18.14,100,100,0,0,1-24.42,17.22c-14.42,7.38-29.45,13.77-43.22,22.21a99.24,99.24,0,0,0-18.65,14.71,91.1,91.1,0,0,0-14.49,19.08,1,1,0,0,1-.15.2,13.19,13.19,0,0,1-2.41,1.31h0c1.22-27.21-10.94-49.85-22.47-72.62-3.38-6.67-7.8-12.88-12.16-19-13.6-19.08-15.16-40.9-12.26-62.72,1.82-13.55,5.52-26.77,12.13-38.79.57-1,1.17-2.07,1.79-3.08a84.1,84.1,0,0,1,7.37-10.41c1.41-1.69,2.87-3.32,4.42-4.85,6.64-6.66,14.41-11.52,24.06-13.13a32.64,32.64,0,0,1,28.73,9.46,40.09,40.09,0,0,1,11,21.62c1.49,8.71,3.46,17.34,5.6,27.89,5-5.26,9.31-10.12,13.72-14.57,1.46-1.48,2.94-2.91,4.45-4.31,14.14-12.89,29.9-15.83,43.78-7.76a34.48,34.48,0,0,1,6.8,5.14c7,6.86,10.42,16.19,12.3,26.09C1832.92,909.47,1828,932.59,1816.46,953.5Z"/><path class="cls-17" d="M1816.39,953.59c-8.56,15.47-22.31,27.12-38.39,35.34-14.42,7.38-29.45,13.77-43.22,22.21a94.38,94.38,0,0,0-33.14,33.81c-.34.59-1.33.79-2.56,1.5,1.22-27.21-10.94-49.85-22.47-72.62-3.38-6.67-7.81-12.88-12.16-19-13.6-19.08-15.16-40.9-12.26-62.72,2.53-18.85,8.71-37.08,21.29-52.28,7.56-9.11,16.61-16,28.48-18,18.93-3.16,36.15,10.64,39.68,31.1,1.49,8.71,3.46,17.34,5.6,27.89,6.71-7,12.1-13.33,18.17-18.89,14.14-12.9,29.89-15.84,43.78-7.77,11.77,6.82,16.7,18.58,19.1,31.25C1832.85,909.56,1828,932.67,1816.39,953.59Z"/><path class="cls-17" d="M1582.71,965.49c-11.25,22.67-20.8,45.92-22.16,71.64-.26,5,0,10.09,0,15.15-.9,0-1.83.12-2.74.19-20.27-24.1-47.33-37-76.68-45.36-38.84-11.05-57.45-38.19-63.65-76.17-2.14-13.14-3-26.21,1.54-39,4.12-11.49,10.19-21.71,23.24-24.23,14.74-2.84,28.13-.25,38.6,12.12,3.85,4.54,9.23,7.8,14.86,12.43,1-8.11,1.68-15.12,2.66-22.11a94.17,94.17,0,0,1,2.45-13.18c8.71-29.63,36.91-35.31,58.55-16.67C1594.83,870.87,1605.47,919.61,1582.71,965.49Z"/><path class="cls-2" d="M2343.1,1164.46c.1,1.1.13,2.21.12,3.3-.54,32.56-44.32,62.17-119.19,86.33V1140.24q61.08,10.89,118.06,24l.37.08.1,0a.13.13,0,0,1,.08,0l.22.05.24,0,.17,0A.68.68,0,0,1,2343.1,1164.46Z"/><path class="cls-11" d="M3121.3,1583.59C2975.11,1809.45,2688.72,1969,2224,2036.5V1805.67c371.92-42.42,687-126.3,896.75-235.28C3121.13,1574.78,3123.53,1580.11,3121.3,1583.59Z"/><path class="cls-8" d="M3320.93,2222.82H2645a137.71,137.71,0,0,0,8.34-23.44c17.35-64.78,76.77-80.32,132.11-83.46,36.93-2.08,58.78-13.94,79.28-47.66,41.37-68.05,113.67-75.17,174.63-26,12.75,10.27,34,15.73,49.79,13,94.43-16.43,147.38,16.72,180.11,113.94,5.2,15.41,16.75,32.58,29.76,40Q3310.64,2215.87,3320.93,2222.82Z"/><path class="cls-14" d="M3120.78,1570.39C2911,1679.37,2596,1763.25,2224,1805.67V1254.09c74.87-24.16,118.65-53.77,119.19-86.33,0-1.09,0-2.2-.12-3.3a.68.68,0,0,0,.17,0l.13,0c2.27.52,4.52,1,6.78,1.58C2729.54,1254.56,2974.19,1412.91,3120.78,1570.39Z"/><path class="cls-2" d="M2343.27,1164.5a.68.68,0,0,1-.17,0,4.35,4.35,0,0,1-.46-.11l.22.05.24,0Z"/><path class="cls-13" d="M2343.1,1164.46a4.35,4.35,0,0,1-.46-.11.13.13,0,0,0-.08,0l-.1,0-.37-.08q-57-13.07-118.06-24v113.85c74.87-24.16,118.65-53.77,119.19-86.33C2343.23,1166.67,2343.2,1165.56,2343.1,1164.46Z"/><path class="cls-2" d="M3344.89,1102V2222.82h-24q-10.3-7-21.87-13.61c-13-7.46-24.56-24.63-29.76-40-32.73-97.22-85.68-130.37-180.11-113.94-15.77,2.75-37-2.71-49.79-13-61-49.16-133.26-42-174.63,26-20.5,33.72-42.35,45.58-79.28,47.66-55.34,3.14-114.76,18.68-132.11,83.46a137.71,137.71,0,0,1-8.34,23.44H2224V2036.5c464.69-67.54,751.08-227,897.27-452.91,2.23-3.48-.17-8.81-.52-13.2-146.59-157.48-391.24-315.83-770.6-404.28-2.26-.55-4.51-1.06-6.78-1.58,0,0,0,0,0,0h-.1l-.17,0-.24,0-.22-.05a.13.13,0,0,0-.08,0l-.1,0-.37-.08q-57-13.07-118.06-24V1102Z"/><path class="cls-18" d="M2474.53,308.43a59.8,59.8,0,1,1-59.78-59.8A59.78,59.78,0,0,1,2474.53,308.43Z"/><path class="cls-19" d="M2853.5,676.85a59.8,59.8,0,1,1-59.81-59.8A59.83,59.83,0,0,1,2853.5,676.85Z"/><path class="cls-1" d="M2474.53,308.43a59.8,59.8,0,1,1-59.78-59.8A59.78,59.78,0,0,1,2474.53,308.43Z"/><path class="cls-1" d="M2853.5,676.85a59.8,59.8,0,1,1-59.81-59.8A59.83,59.83,0,0,1,2853.5,676.85Z"/><path class="cls-1" d="M2474.53,308.43a59.8,59.8,0,1,1-59.78-59.8A59.78,59.78,0,0,1,2474.53,308.43Z"/><path class="cls-1" d="M2853.5,676.85a59.8,59.8,0,1,1-59.81-59.8A59.83,59.83,0,0,1,2853.5,676.85Z"/><path class="cls-2" d="M2224,0V1102H3344.7V0Zm190.71,368.22a59.8,59.8,0,1,1,59.78-59.79A59.81,59.81,0,0,1,2414.75,368.22Zm378.94,368.44a59.81,59.81,0,1,1,59.81-59.81A59.8,59.8,0,0,1,2793.69,736.66Z"/><path class="cls-2" d="M447.9,1190.78A59.8,59.8,0,1,1,388.11,1131,59.78,59.78,0,0,1,447.9,1190.78Z"/><rect class="cls-8" x="0.05" y="1102.26" width="0.19" height="1120.85"/><path class="cls-11" d="M1112,1803.71v222.92c-494.67-83.46-826.72-267.11-877.89-442.75-1.21-4.17.17-8.83.52-13.23C440.77,1677.75,748.56,1760.6,1112,1803.71Z"/><path class="cls-8" d="M758.85,2223.1H.24V2059.4c15.33-.34,33.52,2.92,62.88,8.2,5.16-11.57,7.29-26.93,16.62-35.07,17.69-15.42,40.69-38.7,59.34-37.09,34.14,3,57.67-4,80.83-25.29,24.5-22.47,52.73-20.86,83.88-10.22,18.33,6.24,41.56,10.22,59.44,5.26,42.45-11.81,70.07,3.59,99.78,29.39,19.27,16.73,46.37,31,71.93,34.79,46.55,7,78.95,25.92,90.23,68.39,7,26.35,21.35,35.5,49,41.2C729.91,2150.42,759.77,2182.4,758.85,2223.1Z"/><path class="cls-8" d="M.23,2059.4v163.71H0V2059.4A.61.61,0,0,1,.23,2059.4Z"/><path class="cls-14" d="M1112,1260.65v543.06c-363.48-43.11-671.27-126-877.37-233.06,93-127.49,333.86-284.17,698.29-382,.81.67,1.63,1.31,2.48,2C969.15,1216.75,1030.56,1240.71,1112,1260.65Z"/><path class="cls-13" d="M1112,1147.53v113.12c-81.48-19.94-142.89-43.9-176.6-70.06-.85-.65-1.67-1.29-2.48-2,.19-.05.39-.12.58-.16l1.32-.37Q1019.1,1165.55,1112,1147.53Z"/><path class="cls-2" d="M933,1188.63c.19-.05.39-.12.58-.16l1.32-.37q84.24-22.55,177.18-40.57v-45.27H.24V2059.4c15.33-.34,33.52,2.92,62.88,8.2,5.16-11.57,7.29-26.93,16.62-35.07,17.69-15.42,40.69-38.7,59.34-37.09,34.14,3,57.67-4,80.83-25.29,24.5-22.47,52.73-20.86,83.88-10.22,18.33,6.24,41.56,10.22,59.44,5.26,42.45-11.81,70.07,3.59,99.78,29.39,19.27,16.73,46.37,31,71.93,34.79,46.55,7,78.95,25.92,90.23,68.39,7,26.35,21.35,35.5,49,41.2,55.73,11.46,85.59,43.44,84.67,84.14H1112V2026.63c-494.67-83.46-826.72-267.11-877.89-442.75-1.21-4.17.17-8.83.52-13.23C327.63,1443.16,568.53,1286.48,933,1188.63ZM388.11,1131a59.8,59.8,0,1,1-59.8,59.81A59.8,59.8,0,0,1,388.11,1131Z"/><path class="cls-20" d="M447.9,1190.78A59.8,59.8,0,1,1,388.11,1131,59.78,59.78,0,0,1,447.9,1190.78Z"/><path class="cls-21" d="M397.92,508.74a59.8,59.8,0,1,1-59.79-59.8A59.79,59.79,0,0,1,397.92,508.74Z"/><path class="cls-22" d="M997.92,340.31a59.8,59.8,0,1,1-59.79-59.79A59.8,59.8,0,0,1,997.92,340.31Z"/><path class="cls-1" d="M397.92,508.74a59.8,59.8,0,1,1-59.79-59.8A59.79,59.79,0,0,1,397.92,508.74Z"/><path class="cls-1" d="M997.92,340.31a59.8,59.8,0,1,1-59.79-59.79A59.8,59.8,0,0,1,997.92,340.31Z"/><path class="cls-1" d="M397.92,508.74a59.8,59.8,0,1,1-59.79-59.8A59.79,59.79,0,0,1,397.92,508.74Z"/><path class="cls-1" d="M997.92,340.31a59.8,59.8,0,1,1-59.79-59.79A59.8,59.8,0,0,1,997.92,340.31Z"/><path class="cls-2" d="M1112.05,652.34V.3H.24v1102H1112.05V652.34C1111.36,653,1112.73,651.68,1112.05,652.34ZM338.13,568.53a59.8,59.8,0,1,1,59.79-59.79A59.79,59.79,0,0,1,338.13,568.53Zm600-168.42a59.8,59.8,0,1,1,59.79-59.8A59.8,59.8,0,0,1,938.13,400.11Z"/></g></g></svg>