<svg xmlns="http://www.w3.org/2000/svg" xmlns:xlink="http://www.w3.org/1999/xlink" viewBox="0 0 4247.37 4247.37"><defs><style>.cls-1{fill:#724d5b;}.cls-2{fill:none;}.cls-3{fill:#373241;}.cls-4{fill:#f6f0c6;}.cls-5{fill:#fff;}.cls-6{fill:#cc857e;}.cls-7{fill:#373242;}.cls-8{fill:#c0cea4;}.cls-9{fill:#1a1e23;}.cls-10{fill:#3b5e59;}.cls-11{fill:#8eb28b;}.cls-12{fill:#4c787a;}.cls-13{fill:#1a1e24;}.cls-14{fill:#a1cdb1;}.cls-15{fill:#6f9495;}.cls-16{fill:url(#radial-gradient);}.cls-17{fill:url(#radial-gradient-2);}.cls-18{fill:#a66773;}.cls-19{fill:url(#radial-gradient-3);}.cls-20{fill:url(#radial-gradient-4);}.cls-21{fill:url(#radial-gradient-5);}.cls-22{fill:url(#radial-gradient-6);}.cls-23{fill:url(#radial-gradient-7);}</style><radialGradient id="radial-gradient" cx="1675.25" cy="1286.76" r="59.79" gradientUnits="userSpaceOnUse"><stop offset="0" stop-color="#fff"/><stop offset="0.25" stop-color="#fffefd"/><stop offset="0.37" stop-color="#fdfcf5"/><stop offset="0.47" stop-color="#fbf8e8"/><stop offset="0.56" stop-color="#f9f3d5"/><stop offset="0.59" stop-color="#f7f0ca"/><stop offset="0.64" stop-color="#f6edc7" stop-opacity="0.98"/><stop offset="0.72" stop-color="#f3e6bf" stop-opacity="0.91"/><stop offset="0.81" stop-color="#eedab1" stop-opacity="0.8"/><stop offset="0.92" stop-color="#e7c99e" stop-opacity="0.64"/><stop offset="1" stop-color="#e1b98c" stop-opacity="0.5"/></radialGradient><radialGradient id="radial-gradient-2" cx="2259.45" cy="995.44" r="59.8" xlink:href="#radial-gradient"/><radialGradient id="radial-gradient-3" cx="2865.98" cy="760.11" r="59.8" xlink:href="#radial-gradient"/><radialGradient id="radial-gradient-4" cx="3244.94" cy="1128.54" r="59.8" xlink:href="#radial-gradient"/><radialGradient id="radial-gradient-5" cx="839.34" cy="1642.45" r="59.79" xlink:href="#radial-gradient"/><radialGradient id="radial-gradient-6" cx="789.36" cy="960.42" r="59.79" xlink:href="#radial-gradient"/><radialGradient id="radial-gradient-7" cx="1389.36" cy="792" r="59.79" xlink:href="#radial-gradient"/></defs><title>fpb</title><g id="Layer_2" data-name="Layer 2"><g id="Layer_1-2" data-name="Layer 1"><rect class="cls-1" width="4247.37" height="4247.37" rx="509.68"/><path class="cls-2" d="M1915.24,3212.61c4-1,8-1.75,11.54-2.5-6-19.79-12-39.41-18.14-59.54-2.43.26-5.79.68-9.15.91-29.34,1.94-56.53-4.24-80.3-22.17-22.28-16.82-32.68-45.3-23.17-72a44.93,44.93,0,0,1,20.56-24.76,8.25,8.25,0,0,0,3.12-3.11,356.21,356.21,0,0,0,23.72-63.45c.12-.46.18-.91.35-1.7-2.92.43-5.66,1-8.44,1.22-16,1.18-28.68-5.12-38.48-17.5a78.35,78.35,0,0,1-14-28.75c-2.17-8.17,1.16-12.54,9.23-14.59,6.58-1.67,12.9-4.47,19.17-7.15,13.15-5.61,26.66-8.57,41-6.92.56.06,1.15,0,2.36,0,0-5.72-.47-11.35.08-16.87,1.23-12.09,5.36-23.13,13.27-32.55a18.57,18.57,0,0,1,5.06-4.33c6.74-3.74,13.82-.76,16.59,7.14,4.94,14.09,13.87,25.59,23.4,36.75,1.42,1.67,2.68,2,4.81,1.47,23.69-5.53,47.21-5.15,70.48,2.37a5.92,5.92,0,0,1,1.67.6c4.57,3.5,8.44,1.4,12.37-1.34,11.74-8.17,23.14-16.65,32.6-27.56,7.3-8.4,16.38-7,21.07,3.08,3.61,7.78,4.2,16.19,3.44,24.6-.6,6.77-1.9,13.46-2.94,20.52,2.15.21,4.57.39,7,.64,15.49,1.58,29.19,7.89,42.29,15.94,6.18,3.82,12.71,7.16,19.25,10.36,5.87,2.87,8.35,8.67,5,14.32-8.07,13.6-18.34,25.07-32.77,32.3-12.68,6.36-25.74,6.93-39.17,2.82a9,9,0,0,0-4.31-.42c2.67,4.48,5.13,9.12,8.09,13.4,10.05,14.56,21.69,27.64,36.92,37,10.86,6.67,23.1,9.52,35.49,11.3,29.07,4.18,58.33,4.45,87.61,3.8,21.94-.49,43.88-1.63,65.81-1.45,22.75.19,45.09,3.58,66.36,12.29,28.83,11.8,48.79,32.11,60,61.33,2.66,7,7,13.32,11,19.68,9.05,14.32,19.29,27.74,32.81,38.16,5.54,4.29,11.85,7.63,18,11.18a4.82,4.82,0,0,0,4.19.12c10.66-6.86,21.8-5.53,33.09-2.25,6.77,2,13.48,4.17,20.29,6a22.85,22.85,0,0,0,6.67.37c5.1-.17,7.47,3.31,4.93,7.82a71.17,71.17,0,0,1-21.32,23.72c-11,7.68-22.92,10.17-35.91,6.66-6.47-1.77-12.44-4.44-16.7-10a4.83,4.83,0,0,0-2.23-1.63,106.73,106.73,0,0,1-46.49-29.95c-.32,3-.54,5.21-.81,7.45-2.15,17.79-4.64,35.53-6.42,53.36-2.05,20.63-1.88,41.23,4.17,61.39,6.12,20.38,18.93,35.63,36.53,47,7.79,5,16.19,9.14,24.42,13.48,4.47,2.35,5.91,6.17,6,10.78.17,11.08-3.57,21.06-9.27,30.33a70.44,70.44,0,0,1-8.37,10.46c-3.33,3.64-7.7,4.67-12.59,4-26.16-3.58-49.38-14.31-70.82-29.27-18.12-12.68-33.52-28.22-46.9-45.75-1.28-1.68-2.21-1.9-4.06-1.06-3.09,1.43-6.45,2.25-9.45,3.82a6.82,6.82,0,0,0-2.69,4c-1.84,6.68-5.33,11.94-12.29,13.82-3.19.88-6.69.73-11.06,1.13,1.18,7.15,2.14,14.48,3.62,21.71,3.54,17.48,9.39,34.29,15.87,50.87,2.64,6.78.74,13.52-5.74,18a84.6,84.6,0,0,1-37.07,14.85c-7,1-12.37-1.35-16.52-7.13-14.6-20.36-24.6-42.86-31.6-66.78a282.41,282.41,0,0,1-11.21-76c-6.89.5-13.67,1-20.43,1.51a371.17,371.17,0,0,1-65.75-.57,283.47,283.47,0,0,1-63.57-13.15,5.69,5.69,0,0,0-3.94.24,450.47,450.47,0,0,0-80.45,50.4,377.27,377.27,0,0,0-57.45,55.32c-4.69,5.61-8.82,11.65-13.4,17.35-4.82,6-11.51,7.88-18.67,5.06-12.3-4.86-22.82-12.22-30.91-22.81-4.23-5.54-4.65-11.61-1.68-17.66,18.29-37.22,41.65-70.88,71.57-99.75,6.26-6,12.93-11.6,19.27-18.06-11.92,2.54-23.89,4.78-35.73,7.67-33.39,8.15-65.21,20.28-94.77,38.05a15.39,15.39,0,0,1-18.68-1.94c-9.21-8.6-17.15-18.17-21.27-30.38-2.67-7.86-1.43-12.61,5-17.88a373.59,373.59,0,0,1,76.06-49.28A286,286,0,0,1,1915.24,3212.61Z"/><polygon class="cls-3" points="2675.17 2674.82 2675.17 2966.61 2563.45 2674.82 2675.17 2674.82"/><polygon class="cls-3" points="1676.13 2674.82 1563.16 3076.85 1563.16 2674.82 1676.13 2674.82"/><path class="cls-4" d="M2563.45,2674.82H1676.13l-113,402v408.08c254.16-.91,530.7,8.86,819.4,30.48l5.33.41h0q146.73,2,287.25,6.59v-555.8Zm-18.38,524.38a71.17,71.17,0,0,1-21.32,23.72c-11,7.68-22.92,10.17-35.91,6.66-6.47-1.77-12.44-4.44-16.7-10a4.83,4.83,0,0,0-2.23-1.63,106.73,106.73,0,0,1-46.49-29.95c-.32,3-.54,5.21-.81,7.45-2.15,17.79-4.64,35.53-6.42,53.36-2.05,20.63-1.88,41.23,4.17,61.39,6.12,20.38,18.93,35.63,36.53,47,7.79,5,16.19,9.14,24.42,13.48,4.47,2.35,5.91,6.17,6,10.78.17,11.08-3.57,21.06-9.27,30.33a70.44,70.44,0,0,1-8.37,10.46c-3.33,3.64-7.7,4.67-12.59,4-26.16-3.58-49.38-14.31-70.82-29.27-18.12-12.68-33.52-28.22-46.9-45.75-1.28-1.68-2.21-1.9-4.06-1.06-3.09,1.43-6.45,2.25-9.45,3.82a6.82,6.82,0,0,0-2.69,4c-1.84,6.68-5.33,11.94-12.29,13.82-3.19.88-6.69.73-11.06,1.13,1.18,7.15,2.14,14.48,3.62,21.71,3.54,17.48,9.39,34.29,15.87,50.87,2.64,6.78.74,13.52-5.74,18a84.6,84.6,0,0,1-37.07,14.85c-7,1-12.37-1.35-16.52-7.13-14.6-20.36-24.6-42.86-31.6-66.78a282.41,282.41,0,0,1-11.21-76c-6.89.5-13.67,1-20.43,1.51a371.17,371.17,0,0,1-65.75-.57,283.47,283.47,0,0,1-63.57-13.15,5.69,5.69,0,0,0-3.94.24,450.47,450.47,0,0,0-80.45,50.4,377.27,377.27,0,0,0-57.45,55.32c-4.69,5.61-8.82,11.65-13.4,17.35-4.82,6-11.51,7.88-18.67,5.06-12.3-4.86-22.82-12.22-30.91-22.81-4.23-5.54-4.65-11.61-1.68-17.66,18.29-37.22,41.65-70.88,71.57-99.75,6.26-6,12.93-11.6,19.27-18.06-11.92,2.54-23.89,4.78-35.73,7.67-33.39,8.15-65.21,20.28-94.77,38.05a15.39,15.39,0,0,1-18.68-1.94c-9.21-8.6-17.15-18.17-21.27-30.38-2.67-7.86-1.43-12.61,5-17.88a373.59,373.59,0,0,1,76.06-49.28,286,286,0,0,1,53.93-19.93c4-1,8-1.75,11.54-2.5-6-19.79-12-39.41-18.14-59.54-2.43.26-5.79.68-9.15.91-29.34,1.94-56.53-4.24-80.3-22.17-22.28-16.82-32.68-45.3-23.17-72a44.93,44.93,0,0,1,20.56-24.76,8.25,8.25,0,0,0,3.12-3.11,356.21,356.21,0,0,0,23.72-63.45c.12-.46.18-.91.35-1.7-2.92.43-5.66,1-8.44,1.22-16,1.18-28.68-5.12-38.48-17.5a78.35,78.35,0,0,1-14-28.75c-2.17-8.17,1.16-12.54,9.23-14.59,6.58-1.67,12.9-4.47,19.17-7.15,13.15-5.61,26.66-8.57,41-6.92.56.06,1.15,0,2.36,0,0-5.72-.47-11.35.08-16.87,1.23-12.09,5.36-23.13,13.27-32.55a18.57,18.57,0,0,1,5.06-4.33c6.74-3.74,13.82-.76,16.59,7.14,4.94,14.09,13.87,25.59,23.4,36.75,1.42,1.67,2.68,2,4.81,1.47,23.69-5.53,47.21-5.15,70.48,2.37a5.92,5.92,0,0,1,1.67.6c4.57,3.5,8.44,1.4,12.37-1.34,11.74-8.17,23.14-16.65,32.6-27.56,7.3-8.4,16.38-7,21.07,3.08,3.61,7.78,4.2,16.19,3.44,24.6-.6,6.77-1.9,13.46-2.94,20.52,2.15.21,4.57.39,7,.64,15.49,1.58,29.19,7.89,42.29,15.94,6.18,3.82,12.71,7.16,19.25,10.36,5.87,2.87,8.35,8.67,5,14.32-8.07,13.6-18.34,25.07-32.77,32.3-12.68,6.36-25.74,6.93-39.17,2.82a9,9,0,0,0-4.31-.42c2.67,4.48,5.13,9.12,8.09,13.4,10.05,14.56,21.69,27.64,36.92,37,10.86,6.67,23.1,9.52,35.49,11.3,29.07,4.18,58.33,4.45,87.61,3.8,21.94-.49,43.88-1.63,65.81-1.45,22.75.19,45.09,3.58,66.36,12.29,28.83,11.8,48.79,32.11,60,61.33,2.66,7,7,13.32,11,19.68,9.05,14.32,19.29,27.74,32.81,38.16,5.54,4.29,11.85,7.63,18,11.18a4.82,4.82,0,0,0,4.19.12c10.66-6.86,21.8-5.53,33.09-2.25,6.77,2,13.48,4.17,20.29,6a22.85,22.85,0,0,0,6.67.37C2545.24,3191.21,2547.61,3194.69,2545.07,3199.2Z"/><path d="M1914.49,3068.34a16.1,16.1,0,0,1-7.22-.52c-1.58-.55-3.49-2.47-3.69-4s1.12-3.85,2.49-4.83c2-1.42,4.63-1.95,7-2.87,4.71.49,8.18,2.63,8.46,5.61S1918.8,3067.75,1914.49,3068.34Z"/><path d="M1861.34,3062.87c-1.5,1.91-4,3-6.23,4.53-3.16-1.37-5.82-2.08-7.95-3.57-3.84-2.68-3.13-7,1.17-8.8,3.68-1.55,9.64-.38,12,2.83C1861.29,3059.17,1862.05,3062,1861.34,3062.87Z"/><path d="M1916.09,3416.59c-4.48,5.82-8.79,11.67-13.39,17.28-1.76,2.15-4.34,2.55-7.09,1.35-9.87-4.29-18.56-10.25-25.38-18.59-1.38-1.67-2.47-5-1.75-6.72,2.77-6.68,6.34-13,9.88-20C1889.6,3401.44,1901.65,3410.47,1916.09,3416.59Z"/><path d="M1832,3313.76c-5.89,3.36-11.39,6.52-16.9,9.64a5.6,5.6,0,0,1-7.14-1c-7.38-7.18-14.11-14.84-17.84-24.68-1.81-4.77-1.69-5.63,2.17-8.75,5.47-4.43,11-8.75,16.89-13.43A109.57,109.57,0,0,0,1832,3313.76Z"/><path class="cls-5" d="M1962.86,3274.26c-17.36,3.55-34.5,6.7-51.46,10.64a329.39,329.39,0,0,0-66,22.91c-2.71,1.28-4.3,1.06-6.33-1.15a96.56,96.56,0,0,1-20.4-34.4c-.79-2.29-.34-3.59,1.7-4.93,22-14.64,44.94-27.79,70-36.62,12.37-4.37,25.29-7.18,37.86-11,3.41-1,4.32.65,5.41,3a326,326,0,0,0,25.13,45c1.37,2.06,2.74,4.12,4.09,6.19C1963,3274.05,1962.86,3274.33,1962.86,3274.26Z"/><path class="cls-6" d="M1971.4,3082.55c-.54-8.24-2.68-16.28-8.41-22.43-15.45-16.61-40.62-21.5-61.48-12.16q-17.54,7.88-33.83-1.78a63.88,63.88,0,0,0-22.48-8c-10.44-1.72-20.26-.56-28.7,6.41-16.88,14-17.18,39.67-8.25,56.86,6.84,13.14,17.83,22.17,31,28.86,15.89,8.07,32.77,11.54,50,11.89,19.3-.3,37.44-4,54.19-12.94C1961.93,3119.32,1972.81,3104.47,1971.4,3082.55Zm-124.23-18.71c-3.85-2.69-3.15-7,1.16-8.81,3.68-1.55,9.65-.37,12,2.84,1,1.29,1.72,4.1,1,5-1.5,1.92-4,3-6.24,4.54C1852,3066,1849.29,3065.32,1847.17,3063.84Zm35.12,71.8c-13.27,0-24-11.08-24-24.74s10.74-24.77,24-24.77,24,11.1,24,24.77S1895.55,3135.64,1882.29,3135.64Zm32.2-67.3a16.1,16.1,0,0,1-7.22-.52c-1.58-.55-3.48-2.47-3.7-4s1.13-3.85,2.51-4.83c2-1.42,4.62-1.95,7-2.87,4.7.49,8.18,2.64,8.45,5.61S1918.81,3067.75,1914.49,3068.34Z"/><path class="cls-7" d="M2033.6,2924.07c-9,10.19-25.8,8.46-34.16-3.09a35.14,35.14,0,0,1-6.25-16.68c-.33-2.69.25-5,3-6.14,10.41-4.45,19.46-11,28-18.26,6.18-5.25,11.82-11.11,17.72-16.68.92-.87,1.92-1.67,4-3.46,1.31,4.21,2.83,7.43,3.26,10.79C2051.7,2890.59,2047.11,2908.74,2033.6,2924.07Z"/><path class="cls-7" d="M1908.54,2894.73c-4,6.79-10.25,10.73-17.21,13.48-4.43,1.75-9.28,2.47-14,3.52-2.29.51-3.89-.46-5.34-2.41-6.87-9.2-8.72-19.69-8-30.76s3.92-21.55,11-30.45a35.56,35.56,0,0,1,3.79-3.47,32.34,32.34,0,0,1,2,3.67c5.79,15.81,15.7,28.91,27.06,41C1909.65,2891.26,1909.83,2892.52,1908.54,2894.73Z"/><path d="M1953.87,3017.51c-7.6,3.58-15.83-1.87-17-11.29-.12-.93-.1-1.89-.13-2.41,0-7.36,4.11-14,9.55-16.13a11.6,11.6,0,0,1,14.55,4.54C1966.25,3000.25,1962.64,3013.38,1953.87,3017.51Z"/><path d="M1888.05,2996.85a19.67,19.67,0,0,1-5.58,13.7c-5.66,5.78-14.33,4.54-18-2.65-3.78-7.35-2.2-16.89,4-22.34,3.11-2.75,6.83-4.27,11.08-2.8,5.15,1.78,7.34,5.94,8.33,10.93A23.75,23.75,0,0,1,1888.05,2996.85Z"/><path d="M1906.32,3110.89c0,13.68-10.76,24.76-24,24.76s-24-11.08-24-24.76,10.75-24.76,24-24.76S1906.32,3097.22,1906.32,3110.89Z"/><path d="M2476.27,3383a49.29,49.29,0,0,1-14.55,32.07,4.74,4.74,0,0,1-3.45,1.38c-7.82-1.42-15.61-3.08-24.36-4.86,12.49-11.87,19.73-25.52,24.28-40.8,5.75,2.91,11.15,5.49,16.36,8.42A4.72,4.72,0,0,1,2476.27,3383Z"/><path d="M2306.37,3455.48a75.4,75.4,0,0,1-28,12.25c-1.15.24-2.31.43-3.48.63-3.31.6-6-.2-7.89-3.22-3.1-4.84-6.39-9.56-10-15,16.85-2.65,31.68-8.14,46.33-15.8,2.06,5.49,4.34,10.63,5.81,16C2309.53,3451.76,2307.85,3454.46,2306.37,3455.48Z"/><path class="cls-5" d="M2297,3426.34c-12.37,6.27-25.15,11.22-38.86,13.48-6.25,1-6.34.94-9-4.85a252.65,252.65,0,0,1-20.58-71.7c-1.19-8.75-1.68-17.59-2.46-26.4a12.77,12.77,0,0,1,.27-2.23c3.4,1.75,6.58,3.21,9.54,5,.67.42.9,2.15.75,3.19-1,6.52-.34,12.63,5,17.14a18.05,18.05,0,0,0,17.23,3.77c1-.27,2-.6,3-.9,4.69,9.84,15.71,13.89,26.89,7.4.67,5.42.93,10.83,2.08,16,2.53,11.6,5.41,23.12,8.4,34.61C2300,3423.68,2299.82,3424.93,2297,3426.34Z"/><path class="cls-6" d="M2330.48,3341.56c-4.08,1.29-8,2.73-12.09,3.75-4.5,1.13-5.39,2-5.51,6.71a16.36,16.36,0,0,1-.34,3.5c-1.11,4.54-4.15,7.32-7.89,7.35s-6.3-2.47-7.62-7.14a5.56,5.56,0,0,1-.32-1.37c-.08-3.26-1.8-5.18-5-5.24s-4.46,2.08-5.27,5.09a17.63,17.63,0,0,1-3.85,7.64,6.52,6.52,0,0,1-11-3.69,27.19,27.19,0,0,1,.6-8.35c.52-3-.28-5.18-3.09-6.31-3-1.21-4.95.34-6.39,2.84a41.94,41.94,0,0,1-2.89,4.83c-2.71,3.55-5.62,4.24-9.61,2.53-3.19-1.36-4.45-3.85-3.81-8.19a39.57,39.57,0,0,1,1.63-5.76c1.2-3.85.16-5.95-3.53-7.49a64.78,64.78,0,0,1-11.77-6.06,22.57,22.57,0,0,1,2.75-.69c24-3.07,47.45-8.66,70.63-15.47,5.19-1.52,5-1.55,7.64,3.06C2319.07,3322.39,2324.59,3331.57,2330.48,3341.56Z"/><path d="M2278.74,3298.64c-1.58-2.74-3.35-5.64-5.38-9.14A61.66,61.66,0,0,1,2278.74,3298.64Z"/><path d="M2540.14,3191.38a22.85,22.85,0,0,1-6.67-.37c-6.81-1.83-13.52-4-20.29-6-11.29-3.28-22.43-4.61-33.09,2.25a4.82,4.82,0,0,1-4.19-.12c-6.1-3.55-12.41-6.89-18-11.18-13.52-10.42-23.76-23.84-32.81-38.16-4-6.36-8.37-12.73-11-19.68-11.16-29.22-31.12-49.53-60-61.33-21.27-8.71-43.61-12.1-66.36-12.29-21.93-.18-43.87,1-65.81,1.45-29.28.65-58.54.38-87.61-3.8-12.39-1.78-24.63-4.63-35.49-11.3-15.23-9.37-26.87-22.45-36.92-37-3-4.28-5.42-8.92-8.09-13.4a9,9,0,0,1,4.31.42c13.43,4.11,26.49,3.54,39.17-2.82,14.43-7.23,24.7-18.7,32.77-32.3,3.34-5.65.86-11.45-5-14.32-6.54-3.2-13.07-6.54-19.25-10.36-13.1-8-26.8-14.36-42.29-15.94-2.44-.25-4.86-.43-7-.64,1-7.06,2.34-13.75,2.94-20.52.76-8.41.17-16.82-3.44-24.6-4.69-10.11-13.77-11.48-21.07-3.08-9.46,10.91-20.86,19.39-32.6,27.56-3.93,2.74-7.8,4.84-12.37,1.34a5.92,5.92,0,0,0-1.67-.6c-23.27-7.52-46.79-7.9-70.48-2.37-2.13.5-3.39.2-4.81-1.47-9.53-11.16-18.46-22.66-23.4-36.75-2.77-7.9-9.85-10.88-16.59-7.14a18.57,18.57,0,0,0-5.06,4.33c-7.91,9.42-12,20.46-13.27,32.55-.55,5.52-.08,11.15-.08,16.87-1.21,0-1.8.06-2.36,0-14.36-1.65-27.87,1.31-41,6.92-6.27,2.68-12.59,5.48-19.17,7.15-8.07,2-11.4,6.42-9.23,14.59a78.35,78.35,0,0,0,14,28.75c9.8,12.38,22.49,18.68,38.48,17.5,2.78-.2,5.52-.79,8.44-1.22-.17.79-.23,1.24-.35,1.7a356.21,356.21,0,0,1-23.72,63.45,8.25,8.25,0,0,1-3.12,3.11,44.93,44.93,0,0,0-20.56,24.76c-9.51,26.7.89,55.18,23.17,72,23.77,17.93,51,24.11,80.3,22.17,3.36-.23,6.72-.65,9.15-.91,6.12,20.13,12.1,39.75,18.14,59.54-3.5.75-7.55,1.49-11.54,2.5a286,286,0,0,0-53.93,19.93,373.59,373.59,0,0,0-76.06,49.28c-6.38,5.27-7.62,10-5,17.88,4.12,12.21,12.06,21.78,21.27,30.38a15.39,15.39,0,0,0,18.68,1.94c29.56-17.77,61.38-29.9,94.77-38.05,11.84-2.89,23.81-5.13,35.73-7.67-6.34,6.46-13,12-19.27,18.06-29.92,28.87-53.28,62.53-71.57,99.75-3,6-2.55,12.12,1.68,17.66,8.09,10.59,18.61,17.95,30.91,22.81,7.16,2.82,13.85.94,18.67-5.06,4.58-5.7,8.71-11.74,13.4-17.35a377.27,377.27,0,0,1,57.45-55.32,450.47,450.47,0,0,1,80.45-50.4,5.69,5.69,0,0,1,3.94-.24,283.47,283.47,0,0,0,63.57,13.15,371.17,371.17,0,0,0,65.75.57c6.76-.55,13.54-1,20.43-1.51a282.41,282.41,0,0,0,11.21,76c7,23.92,17,46.42,31.6,66.78,4.15,5.78,9.56,8.09,16.52,7.13a84.6,84.6,0,0,0,37.07-14.85c6.48-4.47,8.38-11.21,5.74-18-6.48-16.58-12.33-33.39-15.87-50.87-1.48-7.23-2.44-14.56-3.62-21.71,4.37-.4,7.87-.25,11.06-1.13,7-1.88,10.45-7.14,12.29-13.82a6.82,6.82,0,0,1,2.69-4c3-1.57,6.36-2.39,9.45-3.82,1.85-.84,2.78-.62,4.06,1.06,13.38,17.53,28.78,33.07,46.9,45.75,21.44,15,44.66,25.69,70.82,29.27,4.89.67,9.26-.36,12.59-4a70.44,70.44,0,0,0,8.37-10.46c5.7-9.27,9.44-19.25,9.27-30.33-.09-4.61-1.53-8.43-6-10.78-8.23-4.34-16.63-8.44-24.42-13.48-17.6-11.33-30.41-26.58-36.53-47-6.05-20.16-6.22-40.76-4.17-61.39,1.78-17.83,4.27-35.57,6.42-53.36.27-2.24.49-4.49.81-7.45a106.73,106.73,0,0,0,46.49,29.95,4.83,4.83,0,0,1,2.23,1.63c4.26,5.53,10.23,8.2,16.7,10,13,3.51,24.93,1,35.91-6.66a71.17,71.17,0,0,0,21.32-23.72C2547.61,3194.69,2545.24,3191.21,2540.14,3191.38Zm-544-293.22c10.41-4.45,19.45-11,28-18.26,6.17-5.24,11.82-11.11,17.72-16.67.93-.88,1.92-1.69,4-3.47,1.29,4.2,2.82,7.43,3.26,10.78,2.56,20.06-2,38.2-15.53,53.53-9,10.19-25.81,8.46-34.17-3.09a35.18,35.18,0,0,1-6.25-16.68C1992.85,2901.61,1993.44,2899.34,1996.18,2898.16ZM1864,2878.56c.73-11.17,3.92-21.56,11-30.45a35.3,35.3,0,0,1,3.78-3.46,31.86,31.86,0,0,1,2,3.66c5.79,15.81,15.71,28.9,27.06,41,1.79,1.91,2,3.17.68,5.39-4,6.79-10.23,10.73-17.21,13.49-4.42,1.74-9.27,2.45-14,3.51-2.28.5-3.88-.45-5.34-2.4C1865.16,2900.11,1863.31,2889.62,1864,2878.56Zm25.19,263.64c-17.2-.35-34.08-3.82-50-11.89-13.15-6.69-24.14-15.72-31-28.86-8.93-17.19-8.63-42.89,8.25-56.86,8.44-7,18.26-8.13,28.7-6.41a63.88,63.88,0,0,1,22.48,8q16.29,9.66,33.83,1.78c20.86-9.34,46-4.45,61.48,12.16,5.73,6.15,7.87,14.19,8.41,22.43,1.41,21.92-9.47,36.77-28,46.71C1926.64,3138.23,1908.5,3141.9,1889.2,3142.2Zm-74.09,181.19a5.62,5.62,0,0,1-7.15-1c-7.36-7.2-14.11-14.85-17.82-24.68-1.82-4.78-1.7-5.64,2.17-8.76,5.46-4.42,11-8.76,16.88-13.44a109.61,109.61,0,0,0,22.81,38.22C1826.12,3317.12,1820.62,3320.28,1815.11,3323.39Zm96.28-38.48a329.19,329.19,0,0,0-66,22.9c-2.71,1.28-4.31,1.06-6.34-1.15a96.92,96.92,0,0,1-20.4-34.39c-.79-2.31-.35-3.6,1.7-4.95,22.06-14.62,44.94-27.77,70-36.62,12.37-4.37,25.29-7.18,37.86-11,3.42-1,4.32.64,5.42,3a326.58,326.58,0,0,0,25.11,45c1.38,2.05,2.75,4.1,4.11,6.19a.47.47,0,0,1,0,.35C1945.51,3277.81,1928.36,3281,1911.39,3284.91Zm-8.69,149c-1.76,2.15-4.34,2.54-7.09,1.35-9.86-4.29-18.55-10.24-25.39-18.58-1.36-1.68-2.46-5-1.73-6.73,2.77-6.67,6.32-13,9.87-20,11.24,11.57,23.28,20.6,37.72,26.72C1911.61,3422.42,1907.29,3428.26,1902.7,3433.87Zm400.63.49c2.07,5.48,4.34,10.64,5.82,16,.39,1.4-1.29,4.09-2.77,5.13a75.21,75.21,0,0,1-28,12.24c-1.16.24-2.32.42-3.48.62-3.31.61-6-.18-7.9-3.21-3.1-4.84-6.38-9.56-10-15C2273.86,3447.51,2288.69,3442,2303.33,3434.36Zm-4.06-13.42c.7,2.74.55,4-2.22,5.4-12.38,6.27-25.16,11.21-38.88,13.48-6.25,1-6.33.94-9-4.84a253.19,253.19,0,0,1-20.56-71.71c-1.2-8.76-1.68-17.6-2.47-26.39a12.65,12.65,0,0,1,.27-2.24c3.41,1.75,6.59,3.21,9.55,5,.67.43.89,2.16.73,3.2-1,6.51-.33,12.63,5,17.13a18,18,0,0,0,17.23,3.77c1-.27,2-.61,3-.89,4.69,9.83,15.7,13.88,26.88,7.39.68,5.42.95,10.83,2.09,16.06C2293.4,3397.92,2296.27,3409.46,2299.27,3420.94Zm19.13-75.62c-4.51,1.12-5.4,2-5.52,6.71a15.66,15.66,0,0,1-.35,3.49c-1.09,4.54-4.14,7.32-7.88,7.35s-6.29-2.47-7.62-7.15a6.26,6.26,0,0,1-.32-1.36c-.08-3.26-1.8-5.18-5-5.24s-4.47,2.08-5.26,5.09a17.46,17.46,0,0,1-3.87,7.63,6.51,6.51,0,0,1-11-3.68,27.18,27.18,0,0,1,.59-8.35c.52-3-.27-5.18-3.09-6.31-3-1.21-4.94.34-6.39,2.84a43.27,43.27,0,0,1-2.87,4.83c-2.73,3.55-5.64,4.23-9.62,2.52-3.2-1.36-4.46-3.83-3.8-8.19a36,36,0,0,1,1.63-5.75c1.19-3.85.15-5.95-3.53-7.48a66,66,0,0,1-11.79-6.07,25.89,25.89,0,0,1,2.76-.69c24-3.08,47.45-8.66,70.63-15.47,5.18-1.53,5-1.54,7.65,3.06,5.33,9.28,10.85,18.46,16.75,28.45C2326.4,3342.85,2322.45,3344.29,2318.4,3345.32Zm139.78,25.45c5.77,2.93,11.16,5.5,16.38,8.43a4.78,4.78,0,0,1,1.71,3.79,49.34,49.34,0,0,1-14.56,32.07,4.7,4.7,0,0,1-3.43,1.38c-7.83-1.42-15.62-3.08-24.38-4.86C2446.39,3399.71,2453.64,3386.05,2458.18,3370.77Zm-14.06-9.88c5.12,3.73,5.44,3.73,3.59,9.66-3.87,12.43-9.74,23.71-19.68,32.54-3.54,3.14-6.79,3.48-11.09,1.34a191.41,191.41,0,0,1-48.71-34.2c-20-19.38-35.67-42-48.25-66.73-3.18-6.27-4.31-6.79-11.06-4.79-7.69,2.29-15.42,4.39-23.1,6.63-2.16.64-3.38.2-4.49-2-.81-1.58-1.67-3.13-2.59-4.73-1.58-2.74-3.35-5.64-5.38-9.14l0,0a95.94,95.94,0,0,0-8.74-10.67c-1.7-1.8-3.42-3.5-5.11-5.08l.23-.27a95.89,95.89,0,0,0-20.58-15.82c-11.36-6.54-23.74-10.31-36.7-10.31-30.87,0-60.34,12.39-75.22,45.92-3.14,7-5.06,14.64-7.21,22.07-.63,2.17-1.15,2.89-3.48,2.54-16.23-2.45-32.25-5.7-47.72-11.3a11.31,11.31,0,0,0-9.46.47,462.69,462.69,0,0,0-80.42,49.8,393.5,393.5,0,0,0-53.7,49.6c-1.16,1.28-2,2.32-4.12,1.45a95.82,95.82,0,0,1-35.64-25.41c-1.35-1.54-1.36-2.6-.32-4.27,18.26-29.59,39.73-56.49,66.54-78.83,6.43-5.35,13.3-10.14,20.2-14.9,6.3-4.35,6.82-5.63,2.42-11.7a324,324,0,0,1-28.43-47.19c-11.49-23.24-20.42-47.38-25.73-72.8-.27-1.26-.38-2.54-.57-3.92,5.82-1.92,11.6-3.5,17.13-5.7,14.8-5.89,28.3-13.77,36.69-28,9.51-16.16,11.08-33.14,3.39-50.48-9-20.37-26.61-28.29-47.22-30.93-11.2-1.45-22.09.74-32.43,5.34-8.81,3.92-17.1,3-25.29-1.95-12.17-7.29-25.52-10.05-40.34-9.43a400,400,0,0,0,25.17-74.13c2.71,2.11,4.78,4,7.13,5.49,11.52,7.16,24.21,9.21,37.36,7.16a122.85,122.85,0,0,0,23-6.26c14.41-5.26,26.53-13.95,35.44-26.59,8.54-12.09,14.33-25.29,15.15-40.32,0-.46.17-.91.4-2.1l10,2.79c-4.62,13.72-.18,25,8,34.88s19.15,14,32,11.12c3.24-.71,4.61-.24,5.53,3,2.71,9.51,6,18.86,8.42,28.43.88,3.49-.05,7.46-.32,11.21-1.9,25.57.49,50.44,13,73.41,9.79,17.95,24.4,30.29,44.66,34.56,12.69,2.69,25.3,1,37.32-4.25,13.65-6,24.34-15.52,32.82-27.59,1.81-2.57,3.68-3.28,6.72-3.19,12.75.32,25.49.33,38.24.45h6.62c-.27,3.41-.66,6.42-.74,9.45-.27,9.41-1.09,18.85-.5,28.21,1.17,18.33,7.11,34.79,22,46.77,8.39,6.78,18.21,10.14,29,10.81,15,.95,28.76-2.53,41-11.24,3.63-2.56,6.7-5.92,10.4-8.34,6.16-4.09,12.85-3.7,19.69-1.58,3.78,1.16,7.6,2.17,11.54,3.17,1.59.43,3.22.83,4.85,1.27.83.13,1.69.25,2.56.3s1.75.12,2.66.12a34.21,34.21,0,0,0,5-.37c1.59-.14,3.21-.56,4.75-.81,12.28-2,22.79-7.4,30.5-17.5a9.18,9.18,0,0,1,1.43-1c1.53,4.24,3.13,8.21,4.39,12.28a143.63,143.63,0,0,1,6.05,52.07c-1.09,16.56-3.46,33-5.34,49.53-2.76,24.07-4.83,48.15-.37,72.26C2411.59,3325.9,2423.75,3346,2444.12,3360.89Zm22.58-153.72c-5.88-3.11-12-5.85-17.55-9.37a82.49,82.49,0,0,1-24.49-23.13,12.72,12.72,0,0,1-1.92-5.8c-.52-5.85-.71-11.72-1.06-18.48,13.65,19,28.48,35.42,49.21,45.29C2469.56,3199.35,2468.3,3202.81,2466.7,3207.17Z"/><path d="M2470.9,3195.68c-1.34,3.66-2.6,7.14-4.19,11.49-5.89-3.11-12-5.86-17.56-9.37a82.15,82.15,0,0,1-24.49-23.14,12.55,12.55,0,0,1-1.91-5.8c-.53-5.84-.71-11.71-1.07-18.47C2435.33,3169.43,2450.16,3185.81,2470.9,3195.68Z"/><path class="cls-5" d="M2444.12,3360.89c-20.37-14.93-32.53-35-37.08-59.74-4.46-24.11-2.39-48.19.37-72.26,1.88-16.51,4.25-33,5.34-49.53a143.63,143.63,0,0,0-6.05-52.07c-1.26-4.07-2.86-8-4.39-12.28a9.18,9.18,0,0,0-1.43,1c-7.71,10.1-18.22,15.45-30.5,17.5-1.54.25-3.16.67-4.75.81a34.21,34.21,0,0,1-5,.37c-.91,0-1.8,0-2.66-.12s-1.73-.17-2.56-.3c-1.63-.44-3.26-.84-4.85-1.27-3.94-1-7.76-2-11.54-3.17-6.84-2.12-13.53-2.51-19.69,1.58-3.7,2.42-6.77,5.78-10.4,8.34-12.28,8.71-26.06,12.19-41,11.24-10.78-.67-20.6-4-29-10.81-14.86-12-20.8-28.44-22-46.77-.59-9.36.23-18.8.5-28.21.08-3,.47-6,.74-9.45h-6.62c-12.75-.12-25.49-.13-38.24-.45-3-.09-4.91.62-6.72,3.19-8.48,12.07-19.17,21.59-32.82,27.59-12,5.28-24.63,6.94-37.32,4.25-20.26-4.27-34.87-16.61-44.66-34.56-12.51-23-14.9-47.84-13-73.41.27-3.75,1.2-7.72.32-11.21-2.4-9.57-5.71-18.92-8.42-28.43-.92-3.25-2.29-3.72-5.53-3-12.83,2.86-23.81-1.25-32-11.12s-12.59-21.16-8-34.88l-10-2.79c-.23,1.19-.37,1.64-.4,2.1-.82,15-6.61,28.23-15.15,40.32-8.91,12.64-21,21.33-35.44,26.59a122.85,122.85,0,0,1-23,6.26c-13.15,2.05-25.84,0-37.36-7.16-2.35-1.47-4.42-3.38-7.13-5.49a400,400,0,0,1-25.17,74.13c14.82-.62,28.17,2.14,40.34,9.43,8.19,4.91,16.48,5.87,25.29,1.95,10.34-4.6,21.23-6.79,32.43-5.34,20.61,2.64,38.18,10.56,47.22,30.93,7.69,17.34,6.12,34.32-3.39,50.48-8.39,14.22-21.89,22.1-36.69,28-5.53,2.2-11.31,3.78-17.13,5.7.19,1.38.3,2.66.57,3.92,5.31,25.42,14.24,49.56,25.73,72.8a324,324,0,0,0,28.43,47.19c4.4,6.07,3.88,7.35-2.42,11.7-6.9,4.76-13.77,9.55-20.2,14.9-26.81,22.34-48.28,49.24-66.54,78.83-1,1.67-1,2.73.32,4.27a95.82,95.82,0,0,0,35.64,25.41c2.07.87,3-.17,4.12-1.45a393.5,393.5,0,0,1,53.7-49.6,462.69,462.69,0,0,1,80.42-49.8,11.31,11.31,0,0,1,9.46-.47c15.47,5.6,31.49,8.85,47.72,11.3,2.33.35,2.85-.37,3.48-2.54,2.15-7.43,4.07-15,7.21-22.07,14.88-33.53,44.35-45.9,75.22-45.92,13,0,25.34,3.77,36.7,10.31a95.89,95.89,0,0,1,20.58,15.82l-.23.27c1.69,1.58,3.41,3.28,5.11,5.08a95.94,95.94,0,0,1,8.74,10.67l0,0a62.17,62.17,0,0,1,5.38,9.14c.92,1.6,1.78,3.15,2.59,4.73,1.11,2.17,2.33,2.61,4.49,2,7.68-2.24,15.41-4.34,23.1-6.63,6.75-2,7.88-1.48,11.06,4.79,12.58,24.77,28.21,47.35,48.25,66.73a191.41,191.41,0,0,0,48.71,34.2c4.3,2.14,7.55,1.8,11.09-1.34,9.94-8.83,15.81-20.11,19.68-32.54C2449.56,3364.62,2449.24,3364.62,2444.12,3360.89Zm-561.66-350.35c-5.65,5.78-14.33,4.54-18-2.64-3.78-7.35-2.2-16.88,4-22.33,3.11-2.75,6.83-4.27,11.08-2.81,5.15,1.79,7.35,5.94,8.34,10.93a25.41,25.41,0,0,1,.22,3.16A19.5,19.5,0,0,1,1882.46,3010.54Zm71.42,7c-7.6,3.58-15.84-1.89-17-11.3-.11-.93-.1-1.88-.13-2.41,0-7.36,4.1-14,9.55-16.14,5.72-2.2,11.15-.5,14.54,4.56C1966.25,3000.25,1962.64,3013.38,1953.88,3017.52Z"/><path class="cls-8" d="M2675.17,3522.41v273.27h-1112V3484.93c254.16-.91,530.7,8.86,819.4,30.48l5.33.41h0Q2534.65,3517.86,2675.17,3522.41Z"/><path class="cls-3" d="M1563.22,2674.8v433.57l-106.14,377.69c-238.82,4-455.27,17.72-640.11,40.11-11.47-117.2-23.88-232.65-31.33-348.39-4-61.69,17.56-69.36,76.25-36.22-17.95,76.08,13.17,115.31,98.24,125.33,13.58,1.59,30.45,3.63,39.24,11.7,33.41,30.71,66.92,17.26,98.93,1.91,29-13.88,52-33.49,43.07-70.32-2.12-8.78,3.6-20.8,9.2-29.36,29.86-45.78,33.42-79.74-14.16-101.78s-95.88-50.56-148-59.5c-56-9.62-83.24,15.68-103.78,72.58-73.73-22.31-93.3-43.75-105.89-128.44-2.71-18.24,9.82-38.47,15.33-57.77,16.19,9.81,36.17,16.67,48,29.91,62.34,69.89,114.21,75.85,195.9,22.18,10-6.54,29.64-7.63,41.28-3.19,78,29.8,153.21-20.3,141.85-98.41-3.94-27-15.74-54.27-30.1-78.18-11.28-18.8-13.63-31.19-1.28-50.46,11.84-18.46,18.4-36.34,20-53Z"/><path class="cls-4" d="M1563.22,3108.37V3485q-53.76.23-106.14,1.11Z"/><path class="cls-3" d="M701.46,3178.38c-5.38,123-10.66,244-16,366.07-87.61,13.84-166.06,29.94-234,48.17V3168.11a57.85,57.85,0,0,0,14.9,1.61c39.69-1.21,63.33,9.08,82.31,42.83,22.1,39.25,55.2,41.84,92.78,13.41C660,3211.87,678,3197.05,701.46,3178.38Z"/><path class="cls-3" d="M693.75,2888.33c-21,24-22.8,47.44-8.58,74.61,4.91,9.38,4.15,21.36,6,32.15l-16.85,7c-13.75-22.62-30.44-44.14-40.6-68.08-20.76-48.87-56.49-72.36-102.07-53.78-31.32,12.78-54.17,7.56-80.2-5.08v-91.09q9.74-1,20.4-2.68c17.28-2.67,44,.73,53.8,11.42,37.36,40.72,80.16,57.84,137.12,48.24,10.78-1.82,28,6.82,35,15.67C702.81,2863.19,700.12,2881,693.75,2888.33Z"/><rect class="cls-9" x="451.24" y="2674.8" width="0.18" height="1120.86"/><path class="cls-10" d="M451.42,3623.34v172.33h-.18V3623.35Z"/><path class="cls-9" d="M794.05,2905.91c-5.51,19.3-18,39.53-15.33,57.77,12.59,84.69,32.16,106.13,105.89,128.44,20.54-56.9,47.76-82.2,103.78-72.58,52.14,8.94,100.56,37.52,148,59.5s44,56,14.16,101.78c-5.6,8.56-11.32,20.58-9.2,29.36,8.9,36.83-14.09,56.44-43.07,70.32-32,15.35-65.52,28.8-98.93-1.91-8.79-8.07-25.66-10.11-39.24-11.7-85.07-10-116.19-49.25-98.24-125.33-58.69-33.14-80.21-25.47-76.25,36.22C793.09,3293.52,805.5,3409,817,3526.17v0q2.37,24.34,4.69,48.81c.17,1.7.32,3.41.49,5.11H683.93q.78-17.85,1.54-35.66c5.33-122.08,10.61-243,16-366.07C678,3197.05,660,3211.87,641.41,3226c-37.58,28.43-70.68,25.84-92.78-13.41-19-33.75-42.62-44-82.31-42.83a57.85,57.85,0,0,1-14.9-1.61V2875.18c26,12.64,48.88,17.86,80.2,5.08,45.58-18.58,81.31,4.91,102.07,53.78,10.16,23.94,26.85,45.46,40.6,68.08l16.85-7c-1.82-10.79-1.06-22.77-6-32.15-14.22-27.17-12.46-50.59,8.58-74.61,6.37-7.3,9.06-25.14,4-31.59-7-8.85-24.18-17.49-35-15.67-57,9.6-99.76-7.52-137.12-48.24-9.8-10.69-36.52-14.09-53.8-11.42q-10.68,1.66-20.4,2.68V2674.8h758.23c-1.58,16.62-8.14,34.5-20,53-12.35,19.27-10,31.66,1.28,50.46,14.36,23.91,26.16,51.2,30.1,78.18,11.36,78.11-63.81,128.21-141.85,98.41-11.64-4.44-31.32-3.35-41.28,3.19-81.69,53.67-133.56,47.71-195.9-22.18C830.22,2922.58,810.24,2915.72,794.05,2905.91Z"/><path class="cls-9" d="M451.42,2674.8v109.29h-.18V2674.8Z"/><path d="M451.42,2875.18v292.93a.37.37,0,0,1-.18-.05v-293A.91.91,0,0,1,451.42,2875.18Z"/><path class="cls-10" d="M1457.08,3486.06l-12.39,44.13-74.6,265.48H451.42V3592.62c68-18.23,146.44-34.33,234.05-48.17q-.75,17.81-1.54,35.66H822.15c-.17-1.7-.32-3.41-.49-5.11q-2.29-24.47-4.69-48.81v0C1001.81,3503.78,1218.26,3490,1457.08,3486.06Z"/><path class="cls-8" d="M1563.22,3485v310.72H1370.09l74.6-265.48,12.39-44.13Q1509.46,3485.18,1563.22,3485Z"/><path class="cls-10" d="M451.42,3592.62v203.05h-.18v-203A.35.35,0,0,1,451.42,3592.62Z"/><path class="cls-3" d="M3200.05,3221c-5.13,54,3.53,104.49-15.35,135.63-36.63,60.43-48.35,123.59-51.38,188.3q-121.56-8.12-251.4-14.25l-206.82-540.2V2674.5h417.84c-11.05,19.47-26.7,29.46-49.7,39-79.8,33.11-104,91.16-85.33,178.15,3.4,15.79-7.63,40.44-19.18,53.79-46.45,53.7-50.12,127-8.29,182.6,11.74,15.6,20.09,36.32,24.16,56.07,17.62,85.44,79.29,126.7,153.23,96.3C3135.41,3269.06,3159.42,3247.64,3200.05,3221Z"/><path class="cls-3" d="M3795.77,3339.28V3613c-158.95-24.06-347.51-44.62-558.19-60.66-11.72-60-12.49-121.66,31.42-169.49,76.95-83.8,172.42-136.29,280.83-171.24,4.7,11.77,7.61,17.6,9.45,23.82,26.51,90,63.75,114.26,148.92,99.5,16.48-2.86,34.27-1,50.93,2.05A152,152,0,0,0,3795.77,3339.28Z"/><path class="cls-3" d="M3796,2674.5V3795.37h-.2V2686.27c-4.75-4-9.74-7.93-15-11.77Z"/><path class="cls-4" d="M2881.92,3530.65q-101.21-4.8-206.82-8.26V2990.45Z"/><path class="cls-8" d="M2983.27,3795.37H2675.1v-273q105.53,3.46,206.82,8.26l13.77,35.94Z"/><path class="cls-10" d="M3795.77,3613v182.34h-812.5l-87.58-228.78-13.77-35.94q129.64,6.1,251.4,14.25c-.84,17.81-1,35.73-.86,53.74.26,31.54,1.5,63.35,1.92,95.29h152c-10.13-26.91-21.24-51.65-30.43-76.16a360.12,360.12,0,0,1-13.83-44.3c-1.63-7-3.16-14-4.55-21.1C3448.26,3568.41,3636.82,3589,3795.77,3613Z"/><path class="cls-10" d="M3796,3613.06v182.31h-.2V3613Z"/><path d="M3795.77,2686.27v653h.2V2686.44Z"/><path class="cls-9" d="M3780.75,2674.5H3092.94c-11.05,19.47-26.7,29.46-49.7,39-79.8,33.11-104,91.16-85.33,178.15,3.4,15.79-7.63,40.44-19.18,53.79-46.45,53.7-50.12,127-8.29,182.6,11.74,15.6,20.09,36.32,24.16,56.07,17.62,85.44,79.29,126.7,153.23,96.3,27.58-11.34,51.59-32.76,92.22-59.43-5.13,54,3.53,104.49-15.35,135.63-36.63,60.43-48.35,123.59-51.38,188.3-.84,17.81-1,35.73-.86,53.74.26,31.54,1.5,63.35,1.92,95.29h152c-10.13-26.91-21.24-51.65-30.43-76.16a360.12,360.12,0,0,1-13.83-44.3c-1.63-7-3.16-14-4.55-21.1-11.72-60-12.49-121.66,31.42-169.49,76.95-83.8,172.42-136.29,280.83-171.24,4.7,11.77,7.61,17.6,9.45,23.82,26.51,90,63.75,114.26,148.92,99.5,16.48-2.86,34.27-1,50.93,2.05a152,152,0,0,0,36.64,2.27v-653C3791,2682.25,3786,2678.34,3780.75,2674.5Zm-525.23,606.95c-27.17-102.23-1.4-157.19,64.66-145.35Zm71.92-25.83-12.35-11.6c18.73-40.82,37.47-81.66,55.48-120.88,29.17,8.89,53.72,16.37,88.75,27.07Z"/><path class="cls-3" d="M3459.32,3150.21l-131.88,105.41-12.35-11.6c18.73-40.82,37.47-81.66,55.48-120.88C3399.74,3132,3424.29,3139.51,3459.32,3150.21Z"/><path class="cls-3" d="M3320.18,3136.1l-64.66,145.35C3228.35,3179.22,3254.12,3124.26,3320.18,3136.1Z"/><path class="cls-2" d="M3796,3725.81v69.56h-.2v-69.61Z"/><path class="cls-11" d="M1934.81,1553.52l.2.22.22.22c2.07,2.23,4.19,4.47,6.34,6.67q9,9.36,18.41,18.38c1.76,1.71,3.55,3.43,5.34,5.13a462.06,462.06,0,0,0,50.24,41.83c2,1.43,4,2.82,6.1,4.2a269.29,269.29,0,0,0,42,22.66c17.52,7.59,35.51,4.63,52.67-4.06a208.69,208.69,0,0,0,20.06-11.62c20.78-13.57,39-30.37,56.17-48.24,1-1.09,2.09-2.18,3.11-3.29.86-.93,1.7-1.85,2.54-2.78,2-2.13,3.85-4.3,5.74-6.5l1.34-1.57c.82-1,1.65-1.93,2.46-2.92s1.59-1.9,2.38-2.88c.66-.81,1.33-1.61,2-2.44,2.17-2.65,4.3-5.34,6.42-8,1.16-1.46,2.3-3,3.46-4.44,0,0,0,0,0,0h0Zm192.05,22.23c-7.65,13.41-16.15,26.17-30,34.14-2.61,1.52-5.58,2.37-8.48,3.57-4.22-1.23-8.54-1.75-12.15-3.63-12.61-6.58-23.09-15.74-30.48-28-1.53-2.52-1.26-6.12-1.84-9.23,3,.47,6.51.15,9,1.54,16,8.93,32.75,13.27,50.54,6.59,6.12-2.28,11.29-7,17.09-10.22,1.67-.94,4-.65,6.06-.94C2126.74,1571.68,2127.72,1574.23,2126.86,1575.75Z"/><path class="cls-3" d="M1726.42,2502.44,1678,2674.8h-114.7v-195Q1642.2,2492.89,1726.42,2502.44Z"/><path class="cls-3" d="M2675.28,2489.81v185H2561.23l-63.19-165Q2590.65,2501.86,2675.28,2489.81Z"/><path class="cls-12" d="M2675.28,2258.7v231.11q-84.68,12-177.24,20-170.61,14.58-368.87,14.73c-141.68,0-276.45-7.85-402.75-22.07q-84.17-9.49-163.14-22.63V2256.45c177.31,20.66,367.7,31.89,565.89,31.89C2320,2288.34,2503.63,2277.93,2675.28,2258.7Z"/><line class="cls-2" x1="1726.55" y1="2501.93" x2="1726.42" y2="2502.44"/><path class="cls-4" d="M2561.23,2674.8H1678l48.44-172.36c126.3,14.22,261.07,22.07,402.75,22.07q198.48,0,368.87-14.73Z"/><path class="cls-13" d="M2126.87,1575.75c-7.65,13.41-16.16,26.17-30,34.14-2.61,1.52-5.59,2.37-8.48,3.57-4.22-1.23-8.54-1.75-12.15-3.63-12.61-6.58-23.09-15.74-30.48-28-1.53-2.52-1.27-6.12-1.84-9.23,3,.47,6.51.15,9,1.54,16.06,8.93,32.76,13.27,50.54,6.59,6.12-2.28,11.3-7,17.1-10.22,1.67-.94,4-.65,6.06-.94C2126.75,1571.68,2127.73,1574.23,2126.87,1575.75Z"/><path class="cls-14" d="M2021.66,1630.17c-50.57,20.63-88.36,71.62-96.22,133.6l-7.6-.49q-6.08-.4-12.1-.83c-2.12-.13-4.22-.28-6.32-.43q-5.22-.36-10.43-.76-23.73-1.77-46.79-3.88-8.34-.77-16.62-1.57l-8.29-.82q-12.36-1.23-24.5-2.57-5-.54-9.9-1.11c-4.74-.54-9.45-1.1-14.14-1.65l-7.92-1-7.85-1q-7.85-1-15.55-2l-7.7-1c-5.12-.69-10.19-1.4-15.24-2.12l-8.54-1.25q-7-1-13.87-2.1-11.07-1.68-21.87-3.5c-2.41-.38-4.79-.79-7.16-1.19-.24,0-.47-.08-.71-.12l-6.41-1.11c-3.14-.53-6.27-1.09-9.38-1.64s-6.44-1.16-9.61-1.75c-1-.17-2-.36-2.93-.54l-5.88-1.11q-17.09-3.23-33.29-6.68c-2.71-.57-5.42-1.16-8.09-1.74l-.12,0-9.46-2.1c-4.69-1.06-9.3-2.14-13.87-3.21h0v-117h0c106.81-20.18,222-35.24,345-43.57h.23c2.2-.15,4.41-.31,6.63-.44h19.57l.23.22.22.22c2.07,2.23,4.19,4.47,6.34,6.67q9,9.36,18.41,18.38c1.76,1.71,3.55,3.43,5.34,5.13a462.06,462.06,0,0,0,50.24,41.83C2017.56,1627.4,2019.61,1628.79,2021.66,1630.17Z"/><path class="cls-14" d="M2675.29,1590.61V1709h-.05c-2,.62-4.07,1.23-6.14,1.85-1.81.54-3.63,1.08-5.48,1.6q-8.89,2.57-18.31,5l-5.45,1.43c-4.06,1-8.2,2.07-12.39,3.08q-2.7.66-5.43,1.29c-.92.24-1.86.46-2.79.66-1.76.42-3.55.84-5.34,1.24q-7.92,1.82-16.13,3.55-5.85,1.26-11.83,2.47l-6.24,1.25-6.29,1.22-6.19,1.18q-9.7,1.81-19.72,3.57c-4.4.75-8.86,1.51-13.35,2.25-2.5.42-5,.82-7.55,1.23l-6.08,1c-1.38.22-2.76.44-4.14.64-2.5.39-5,.78-7.55,1.15q-15.37,2.3-31.37,4.4l-6.64.86-4,.5-8.52,1.06c-1.79.22-3.57.44-5.35.64-1.46.19-2.93.35-4.39.52-5,.59-10,1.16-15.1,1.72l-4.77.52c-1.78.2-3.55.38-5.35.57l-5.21.54c-2.34.25-4.67.49-7,.72q-19.8,2-40.26,3.67-4,.34-8.07.65-12.14,1-24.5,1.83-6.73.48-13.55.93c-6.56.42-13.15.84-19.79,1.21l-7,.4c-6.11.34-12.29.66-18.47,1-5.65.29-11.33.54-17.05.79s-11.65.49-17.52.71l-8.76.3q-8.74.3-17.6.56c-5.8-58-37.76-107-82.2-131.58,20.78-13.57,39-30.37,56.17-48.24,1-1.09,2.09-2.18,3.11-3.29.86-.93,1.7-1.85,2.54-2.78,1.95-2.13,3.85-4.3,5.73-6.5.46-.53.89-1,1.35-1.57.82-1,1.65-1.93,2.45-2.92s1.6-1.9,2.39-2.88c.66-.81,1.33-1.61,2-2.44q3.26-4,6.43-8c1.16-1.46,2.3-3,3.46-4.44,0,0,0,0,0,0l140.43-.08h.25c112.16,7.3,216.2,19.81,312.59,36.62A.06.06,0,0,0,2675.29,1590.61Z"/><path class="cls-3" d="M1908.58,1554c-123.17,8.33-238.42,23.39-345.3,43.58V1554Z"/><path class="cls-3" d="M2675.28,1554v36.66c-96.47-16.83-200.61-29.36-312.88-36.66Z"/><path class="cls-11" d="M2218.57,1768.73c-2.27.06-4.54.13-6.83.18q-5.11.15-10.24.25c-5.46.14-10.94.24-16.44.34-3.68.07-7.36.12-11,.18h-.28l-11.2.14c-3.78,0-7.58.08-11.38.1q-38.28.27-77.64-.37l-12.09-.22-6.88-.15q-23-.51-45.66-1.33c-3.05-.1-6.07-.22-9.11-.34l-1.4,0q-11.17-.42-22.23-1c-1.8-.07-3.6-.17-5.39-.26q-9.16-.42-18.25-.92-12.23-.66-24.32-1.4l-2.73-.16c7.85-62,45.65-113,96.22-133.6a269.29,269.29,0,0,0,42,22.66c17.52,7.59,35.51,4.63,52.67-4.06a208.69,208.69,0,0,0,20.06-11.62C2180.81,1661.68,2212.77,1710.7,2218.57,1768.73Z"/><path class="cls-15" d="M2675.28,1709v549.7c-171.65,19.23-355.27,29.64-546.11,29.64-198.19,0-388.58-11.23-565.89-31.89v-542c4.58,1.08,9.2,2.16,13.89,3.22l9.46,2.1h.12c2.68.59,5.38,1.18,8.09,1.75q16.22,3.43,33.29,6.68l5.88,1.11c1,.18,2,.37,2.93.53,3.18.59,6.39,1.18,9.62,1.75s6.23,1.11,9.38,1.65l6.4,1.11c.24,0,.47.08.71.12l7.16,1.19q10.8,1.8,21.88,3.5c4.59.7,9.21,1.41,13.87,2.1l8.54,1.24q7.56,1.1,15.23,2.12c2.55.36,5.13.71,7.7,1,5.14.68,10.32,1.36,15.55,2,2.61.34,5.23.66,7.85,1l7.92,1q7,.85,14.14,1.64c3.3.39,6.59.76,9.9,1.11q12.14,1.33,24.5,2.58l8.29.82q8.26.81,16.63,1.56,23,2.13,46.79,3.89c3.46.27,6.94.52,10.42.75,2.1.16,4.2.31,6.32.44q6,.43,12.11.82c2.52.17,5.06.34,7.6.49l2.72.17q12.09.73,24.33,1.4,9.07.5,18.24.92c1.8.08,3.6.19,5.4.25q11.07.54,22.23,1l1.39,0c3,.12,6.07.24,9.11.34q22.62.83,45.67,1.33l6.87.15,12.09.22q39.32.65,77.64.37,5.7,0,11.39-.1l11.19-.14h.29c3.68-.07,7.36-.12,11-.18,5.49-.11,11-.21,16.44-.34q5.11-.11,10.24-.25c2.28-.05,4.55-.12,6.82-.19q8.85-.26,17.61-.55l8.76-.31q8.79-.31,17.52-.7c5.69-.24,11.39-.51,17-.79q9.28-.45,18.48-1l7-.4c6.65-.37,13.24-.79,19.79-1.21,4.54-.31,9.07-.61,13.55-.93q12.36-.86,24.5-1.83,4-.3,8.07-.66,20.46-1.68,40.27-3.66c2.35-.24,4.69-.47,7-.73,1.73-.16,3.48-.35,5.21-.53l5.34-.57c1.6-.17,3.18-.34,4.78-.53q7.59-.83,15.1-1.71l4.38-.52c1.79-.2,3.57-.42,5.35-.64l8.53-1.06,4-.5,6.64-.86q16-2.11,31.38-4.41,3.78-.56,7.55-1.14c1.37-.2,2.75-.42,4.13-.64l6.09-1c2.52-.4,5-.8,7.55-1.22q6.74-1.11,13.35-2.26,10-1.74,19.72-3.56l6.19-1.18c2.1-.4,4.2-.82,6.28-1.23l6.24-1.24q6-1.21,11.84-2.47,8.19-1.74,16.12-3.55c1.8-.4,3.58-.82,5.35-1.24.92-.21,1.86-.42,2.79-.66,1.81-.42,3.63-.86,5.43-1.29,4.19-1,8.32-2.06,12.39-3.08l5.45-1.43q9.41-2.48,18.31-5c1.85-.52,3.66-1.06,5.48-1.6Z"/><polyline class="cls-2" points="1934.81 1553.52 1934.78 1553.52 1915.2 1553.52"/><path class="cls-16" d="M1735.05,1286.75a59.8,59.8,0,1,1-59.81-59.78A59.81,59.81,0,0,1,1735.05,1286.75Z"/><path class="cls-17" d="M2319.24,995.44a59.8,59.8,0,1,1-59.8-59.8A59.81,59.81,0,0,1,2319.24,995.44Z"/><path class="cls-2" d="M1735.05,1286.75a59.8,59.8,0,1,1-59.81-59.78A59.81,59.81,0,0,1,1735.05,1286.75Z"/><path class="cls-2" d="M2319.24,995.44a59.8,59.8,0,1,1-59.8-59.8A59.81,59.81,0,0,1,2319.24,995.44Z"/><path class="cls-3" d="M1563.29,452V1554H1930.8l-.19-.2h0v0a1.52,1.52,0,0,1-.22-.22c-.39-.42-.76-.84-1.13-1.26s-.91-1-1.34-1.48c-1.9-2.11-3.8-4.27-5.65-6.42-2-2.32-4-4.66-5.94-7-.8-1-1.63-2-2.43-3s-1.82-2.23-2.69-3.36-1.72-2.17-2.58-3.26c-2.7-3.47-5.33-7-7.9-10.53-1.09-1.49-2.15-3-3.21-4.52-.49-.69-1-1.38-1.45-2.08-.11-.16-.23-.32-.33-.49-1-1.43-2-2.86-2.89-4.31-.26-.35-.49-.7-.71-1.06-1.21-1.83-2.4-3.69-3.58-5.56-36.12-57.53-50.32-119.41-42.18-186.91,3.91-32.38,12.07-63.33,26.85-92.18a246.59,246.59,0,0,1,14.71-25.07q4.56-6.81,9.58-13.22c1.68-2.13,3.4-4.25,5.13-6.32a210.28,210.28,0,0,1,60.27-49.16c37.63-20.61,77.64-29.44,120.2-28.67,24.66.46,47.7,8.53,71.37,13.91s41.12,20.07,59.18,34.68c7.28,5.9,15,11.29,21.54,17.89a60.64,60.64,0,0,1,4.67,5.18c.49.62,1,1.25,1.45,1.88,10.45,14.11,23.53,27.34,29.91,43.2,12.22,30.41,26.41,60.57,30.24,93.78,1.67,14.42,2.54,28.93,3.77,43.39,1.14,72.26-26.53,133.77-69.61,189.55q-4.44,5.74-8.87,11.53l-1,1.28h449.51V452Zm112,894.55a59.8,59.8,0,1,1,59.81-59.81A59.79,59.79,0,0,1,1675.24,1346.56Zm584.2-291.32a59.8,59.8,0,1,1,59.8-59.8A59.8,59.8,0,0,1,2259.44,1055.24Z"/><path class="cls-2" d="M1735.05,1286.75a59.8,59.8,0,1,1-59.81-59.78A59.81,59.81,0,0,1,1735.05,1286.75Z"/><path class="cls-2" d="M2319.24,995.44a59.8,59.8,0,1,1-59.8-59.8A59.81,59.81,0,0,1,2319.24,995.44Z"/><path class="cls-2" d="M1735.05,1286.75a59.8,59.8,0,1,1-59.81-59.78A59.81,59.81,0,0,1,1735.05,1286.75Z"/><path class="cls-2" d="M2319.24,995.44a59.8,59.8,0,1,1-59.8-59.8A59.81,59.81,0,0,1,2319.24,995.44Z"/><path class="cls-3" d="M2225.76,1554h0l1-1.28C2226.42,1553.12,2226.1,1553.54,2225.76,1554Zm-295.38-.44a1.52,1.52,0,0,0,.22.22l-1.35-1.48C1929.62,1552.68,1930,1553.1,1930.38,1553.52Z"/><path class="cls-11" d="M2305.31,1351.52c-1.23-14.46-2.11-29-3.77-43.4-3.83-33.2-18-63.36-30.25-93.78-6.37-15.85-19.45-29.08-29.91-43.19-.47-.64-1-1.26-1.44-1.88-1.48-1.82-3.05-3.53-4.68-5.18-6.55-6.61-14.25-12-21.53-17.87-18.06-14.61-35.46-29.29-59.18-34.69s-46.71-13.45-71.38-13.9c-42.55-.78-82.56,8-120.19,28.66a210.38,210.38,0,0,0-60.27,49.15q-2.61,3.11-5.13,6.32-5,6.4-9.59,13.21a249.57,249.57,0,0,0-14.71,25.07c-14.78,28.85-22.93,59.81-26.85,92.19-8.13,67.5,6.07,129.37,42.19,186.91,1.17,1.86,2.37,3.73,3.58,5.56.22.35.45.71.7,1.06.94,1.45,1.92,2.87,2.9,4.3a4.2,4.2,0,0,0,.33.49c.49.71,1,1.4,1.45,2.09,1.06,1.51,2.12,3,3.21,4.52,2.57,3.56,5.19,7.06,7.9,10.52.86,1.1,1.7,2.19,2.57,3.27s1.77,2.25,2.69,3.36l2.44,3c1.93,2.35,3.9,4.69,5.94,7,1.85,2.15,3.74,4.3,5.65,6.42.43.5.89,1,1.34,1.48s.74.84,1.13,1.26a2.13,2.13,0,0,0,.21.22v0h4.61l286.95.28h3.56s0,0,0-.07h0l1-1.28q4.44-5.77,8.88-11.53C2278.78,1485.28,2306.45,1423.78,2305.31,1351.52ZM2034,1417.09c-11.24,22.66-20.79,45.91-22.16,71.64-.25,5,0,10.09,0,15.15h0c-.91,0-1.83.12-2.74.19v0c-1.9-2.25-3.85-4.4-5.88-6.47l-2-2c-.67-.67-1.36-1.32-2.07-2s-1.39-1.29-2.1-1.92c-1.41-1.26-2.86-2.47-4.32-3.66-2.92-2.36-5.93-4.57-9-6.66-15.45-10.39-32.9-17.4-51.24-22.61a101.62,101.62,0,0,1-13.64-4.9c-2.12-.94-4.15-1.93-6.14-3a83.15,83.15,0,0,1-8.37-5.14c-.87-.62-1.73-1.25-2.57-1.89a73.07,73.07,0,0,1-7.13-6.17c-14.07-13.82-22.12-32.55-25.81-55.09-2.13-13.15-3-26.21,1.55-39,.52-1.43,1.06-2.86,1.65-4.23s1.21-2.73,1.88-4v0c.69-1.29,1.41-2.56,2.19-3.75a29.77,29.77,0,0,1,4-5,24.42,24.42,0,0,1,5-4,23.87,23.87,0,0,1,2.94-1.51,26.76,26.76,0,0,1,5.62-1.72c13.34-2.57,25.57-.69,35.54,8.86a36.68,36.68,0,0,1,3.06,3.25c.49.57,1,1.11,1.51,1.64a64.13,64.13,0,0,0,7.18,6c1.33,1,2.69,2,4.07,3.1.69.54,1.39,1.11,2.1,1.68v0c1-8.1,1.68-15.11,2.66-22.11a94.17,94.17,0,0,1,2.45-13.18,42.68,42.68,0,0,1,9.79-17.72c.32-.34.65-.65,1-1,12.64-12.19,32-11.55,47.76,2.07q3.21,2.77,6.14,5.71C2047.3,1328.35,2055.4,1374,2034,1417.09Zm233.69-11.91a77.72,77.72,0,0,1-14,18.15,99.76,99.76,0,0,1-24.41,17.21c-14.42,7.38-29.45,13.77-43.22,22.21a98.92,98.92,0,0,0-18.65,14.71,90.82,90.82,0,0,0-14.49,19.09l-.15.2a13.84,13.84,0,0,1-2.41,1.31v0c1.21-27.2-10.94-49.85-22.48-72.61-3.38-6.68-7.8-12.88-12.15-19-13.6-19.08-15.17-40.91-12.26-62.73,1.82-13.55,5.52-26.77,12.12-38.79.57-1,1.18-2.06,1.8-3.07a83.05,83.05,0,0,1,7.37-10.41c1.41-1.7,2.87-3.33,4.42-4.86,6.64-6.66,14.41-11.52,24.06-13.13a32.64,32.64,0,0,1,28.73,9.46,40.12,40.12,0,0,1,10.95,21.63c1.49,8.71,3.46,17.33,5.59,27.89,5-5.26,9.32-10.12,13.72-14.58,1.47-1.48,2.95-2.91,4.46-4.3,14.14-12.9,29.89-15.84,43.78-7.77a34.84,34.84,0,0,1,6.79,5.15c7,6.85,10.43,16.19,12.31,26.09C2284.16,1361.15,2279.26,1384.27,2267.7,1405.18Z"/><path class="cls-18" d="M2267.63,1405.27c-8.56,15.47-22.32,27.12-38.39,35.34-14.42,7.39-29.45,13.77-43.22,22.21a94.33,94.33,0,0,0-33.14,33.82c-.34.58-1.33.79-2.56,1.49,1.21-27.2-10.94-49.85-22.48-72.61-3.38-6.68-7.8-12.88-12.15-19-13.6-19.08-15.17-40.91-12.26-62.73,2.52-18.85,8.71-37.07,21.29-52.27,7.56-9.11,16.61-16,28.48-18,18.93-3.16,36.14,10.64,39.68,31.11,1.49,8.7,3.46,17.33,5.59,27.89,6.71-7,12.11-13.33,18.18-18.9,14.14-12.9,29.89-15.84,43.78-7.77,11.77,6.83,16.69,18.58,19.1,31.26C2284.09,1361.24,2279.19,1384.36,2267.63,1405.27Z"/><path class="cls-18" d="M2033.94,1417.18c-11.24,22.66-20.79,45.91-22.16,71.64-.25,5,0,10.08,0,15.15-.91,0-1.83.11-2.74.18-20.28-24.09-47.33-37-76.68-45.36-38.84-11-57.45-38.18-63.66-76.16-2.13-13.15-3-26.21,1.55-39,4.12-11.48,10.19-21.7,23.24-24.23,14.74-2.84,28.12-.25,38.6,12.13,3.85,4.54,9.23,7.8,14.86,12.42,1-8.1,1.68-15.11,2.66-22.11a94.17,94.17,0,0,1,2.45-13.18c8.71-29.62,36.91-35.31,58.54-16.66C2046.07,1322.55,2056.71,1371.3,2033.94,1417.18Z"/><path class="cls-3" d="M2794.34,1616.15a30.14,30.14,0,0,1,.11,3.29c-.53,32.57-44.32,62.18-119.18,86.34V1591.92q61.08,10.89,118.06,24c.11,0,.25,0,.37.09h.1a.15.15,0,0,1,.08,0l.22,0,.24.05.16,0Z"/><path class="cls-12" d="M3572.54,2035.28c-146.19,225.86-432.58,385.36-897.27,452.9V2257.36c371.91-42.42,687-126.3,896.74-235.28C3572.37,2026.47,3574.77,2031.79,3572.54,2035.28Z"/><path class="cls-9" d="M3772.17,2674.5H3096.28a137.71,137.71,0,0,0,8.34-23.44c17.35-64.78,76.76-80.31,132.11-83.46,36.92-2.08,58.78-13.93,79.27-47.66,41.38-68,113.68-75.17,174.64-26,12.74,10.27,34,15.74,49.78,13,94.44-16.43,147.38,16.73,180.12,113.94,5.19,15.42,16.75,32.58,29.76,40.05Q3761.87,2667.56,3772.17,2674.5Z"/><path class="cls-15" d="M3572,2022.08c-209.75,109-524.83,192.86-896.74,235.28V1705.78c74.86-24.16,118.65-53.77,119.18-86.34a30.14,30.14,0,0,0-.11-3.29l.16,0,.14,0c2.27.53,4.52,1,6.77,1.59C3180.78,1706.25,3425.42,1864.59,3572,2022.08Z"/><path class="cls-3" d="M2794.5,1616.18l-.16,0c-.16,0-.31-.07-.46-.12l.22,0,.24.05Z"/><path class="cls-14" d="M2794.34,1616.15c-.16,0-.31-.07-.46-.12a.15.15,0,0,0-.08,0h-.1c-.12,0-.26,0-.37-.09q-57-13.07-118.06-24v113.86c74.86-24.16,118.65-53.77,119.18-86.34A30.14,30.14,0,0,0,2794.34,1616.15Z"/><path class="cls-3" d="M3796.13,1553.65V2674.5h-24q-10.32-7-21.87-13.6c-13-7.47-24.57-24.63-29.76-40.05-32.74-97.21-85.68-130.37-180.12-113.94-15.77,2.76-37-2.71-49.78-13-61-49.16-133.26-42-174.64,26-20.49,33.73-42.35,45.58-79.27,47.66-55.35,3.15-114.76,18.68-132.11,83.46a137.71,137.71,0,0,1-8.34,23.44h-421V2488.18c464.69-67.54,751.08-227,897.27-452.9,2.23-3.49-.17-8.81-.53-13.2-146.59-157.49-391.23-315.83-770.6-404.28-2.25-.56-4.5-1.06-6.77-1.59h0a.2.2,0,0,1-.1,0l-.16,0-.24-.05-.22,0a.15.15,0,0,0-.08,0h-.1c-.12,0-.26,0-.37-.09q-57-13.07-118.06-24v-38.27Z"/><path class="cls-19" d="M2925.77,760.12A59.8,59.8,0,1,1,2866,700.31,59.78,59.78,0,0,1,2925.77,760.12Z"/><path class="cls-20" d="M3304.73,1128.54a59.8,59.8,0,1,1-59.8-59.81A59.81,59.81,0,0,1,3304.73,1128.54Z"/><path class="cls-2" d="M2925.77,760.12A59.8,59.8,0,1,1,2866,700.31,59.78,59.78,0,0,1,2925.77,760.12Z"/><path class="cls-2" d="M3304.73,1128.54a59.8,59.8,0,1,1-59.8-59.81A59.81,59.81,0,0,1,3304.73,1128.54Z"/><path class="cls-2" d="M2925.77,760.12A59.8,59.8,0,1,1,2866,700.31,59.78,59.78,0,0,1,2925.77,760.12Z"/><path class="cls-2" d="M3304.73,1128.54a59.8,59.8,0,1,1-59.8-59.81A59.81,59.81,0,0,1,3304.73,1128.54Z"/><path class="cls-3" d="M2675.28,451.68v1102H3795.94V451.68ZM2866,819.9a59.8,59.8,0,1,1,59.78-59.78A59.79,59.79,0,0,1,2866,819.9Zm378.94,368.44a59.81,59.81,0,1,1,59.8-59.8A59.8,59.8,0,0,1,3244.93,1188.34Z"/><path class="cls-3" d="M899.13,1642.46a59.8,59.8,0,1,1-59.78-59.8A59.78,59.78,0,0,1,899.13,1642.46Z"/><rect class="cls-9" x="451.29" y="1553.94" width="0.19" height="1120.85"/><path class="cls-12" d="M1563.27,2255.39v222.92c-494.66-83.46-826.72-267.1-877.88-442.75-1.21-4.17.17-8.82.52-13.23C892,2129.43,1199.8,2212.28,1563.27,2255.39Z"/><path class="cls-9" d="M1210.09,2674.79H451.47V2511.08c15.34-.33,33.53,2.93,62.88,8.21,5.17-11.57,7.3-26.94,16.63-35.08,17.69-15.41,40.69-38.7,59.33-37.08,34.15,3,57.67-4,80.84-25.29,24.5-22.48,52.73-20.87,83.88-10.22,18.33,6.23,41.56,10.22,59.43,5.26,42.46-11.82,70.08,3.58,99.79,29.39,19.27,16.73,46.37,31,71.92,34.78,46.56,7,79,25.93,90.24,68.4,7,26.34,21.35,35.49,49,41.19C1181.15,2602.11,1211,2634.08,1210.09,2674.79Z"/><path class="cls-9" d="M451.47,2511.08v163.71h-.19V2511.08Z"/><path class="cls-15" d="M1563.27,1712.34v543.05c-363.47-43.11-671.27-126-877.36-233.06,93-127.49,333.86-284.17,698.29-382,.81.67,1.63,1.31,2.47,2C1420.38,1668.44,1481.8,1692.4,1563.27,1712.34Z"/><path class="cls-14" d="M1563.27,1599.22v113.12c-81.47-19.94-142.89-43.9-176.6-70.06-.84-.66-1.66-1.3-2.47-2,.19,0,.39-.12.57-.15.44-.14.88-.25,1.33-.37Q1470.34,1617.25,1563.27,1599.22Z"/><path class="cls-3" d="M1384.2,1640.31c.19,0,.39-.12.57-.15.44-.14.88-.25,1.33-.37q84.24-22.55,177.17-40.57v-45.28H451.47v957.14c15.34-.33,33.53,2.93,62.88,8.21,5.17-11.57,7.3-26.94,16.63-35.08,17.69-15.41,40.69-38.7,59.33-37.08,34.15,3,57.67-4,80.84-25.29,24.5-22.48,52.73-20.87,83.88-10.22,18.33,6.23,41.56,10.22,59.43,5.26,42.46-11.82,70.08,3.58,99.79,29.39,19.27,16.73,46.37,31,71.92,34.78,46.56,7,79,25.93,90.24,68.4,7,26.34,21.35,35.49,49,41.19,55.73,11.47,85.59,43.44,84.67,84.15h353.18V2478.31c-494.66-83.46-826.72-267.1-877.88-442.75-1.21-4.17.17-8.82.52-13.23C778.87,1894.84,1019.77,1738.16,1384.2,1640.31Zm-544.85-57.65a59.8,59.8,0,1,1-59.81,59.8A59.78,59.78,0,0,1,839.35,1582.66Z"/><path class="cls-21" d="M899.13,1642.46a59.8,59.8,0,1,1-59.78-59.8A59.78,59.78,0,0,1,899.13,1642.46Z"/><path class="cls-22" d="M849.16,960.42a59.8,59.8,0,1,1-59.79-59.8A59.79,59.79,0,0,1,849.16,960.42Z"/><path class="cls-23" d="M1449.16,792a59.8,59.8,0,1,1-59.79-59.78A59.81,59.81,0,0,1,1449.16,792Z"/><path class="cls-2" d="M849.16,960.42a59.8,59.8,0,1,1-59.79-59.8A59.79,59.79,0,0,1,849.16,960.42Z"/><path class="cls-2" d="M1449.16,792a59.8,59.8,0,1,1-59.79-59.78A59.81,59.81,0,0,1,1449.16,792Z"/><path class="cls-2" d="M849.16,960.42a59.8,59.8,0,1,1-59.79-59.8A59.79,59.79,0,0,1,849.16,960.42Z"/><path class="cls-2" d="M1449.16,792a59.8,59.8,0,1,1-59.79-59.78A59.81,59.81,0,0,1,1449.16,792Z"/><path class="cls-3" d="M1563.28,1104V452H451.48V1553.93h1111.8V1104Zm-773.91-83.81a59.8,59.8,0,1,1,59.79-59.79A59.79,59.79,0,0,1,789.37,1020.21Zm600-168.41A59.8,59.8,0,1,1,1449.16,792,59.8,59.8,0,0,1,1389.37,851.8Z"/></g></g></svg>