<svg xmlns="http://www.w3.org/2000/svg" xmlns:xlink="http://www.w3.org/1999/xlink" viewBox="0 0 275.48 352.17"><defs><style>.cls-1{fill:#585348;}.cls-2{fill:#373241;}.cls-3{fill:url(#linear-gradient);}.cls-4{fill:url(#radial-gradient);}.cls-5{fill:url(#radial-gradient-2);}.cls-6{fill:url(#radial-gradient-3);}.cls-7{fill:url(#radial-gradient-4);}.cls-8{fill:url(#radial-gradient-5);}.cls-9{fill:url(#radial-gradient-6);}.cls-10{fill:url(#radial-gradient-7);}</style><linearGradient id="linear-gradient" x1="168.77" y1="209.32" x2="116.85" y2="119.39" gradientUnits="userSpaceOnUse"><stop offset="0" stop-color="#c38253"/><stop offset="0.4" stop-color="#d49f71"/><stop offset="0.76" stop-color="#e0b185"/><stop offset="1" stop-color="#e4b88c"/></linearGradient><radialGradient id="radial-gradient" cx="72.65" cy="270.39" r="5.46" gradientUnits="userSpaceOnUse"><stop offset="0" stop-color="#fff"/><stop offset="0.25" stop-color="#fffefd"/><stop offset="0.37" stop-color="#fdfcf5"/><stop offset="0.47" stop-color="#fbf8e8"/><stop offset="0.56" stop-color="#f9f3d5"/><stop offset="0.59" stop-color="#f7f0ca"/><stop offset="0.64" stop-color="#f6edc7" stop-opacity="0.98"/><stop offset="0.72" stop-color="#f3e6bf" stop-opacity="0.91"/><stop offset="0.81" stop-color="#eedab1" stop-opacity="0.8"/><stop offset="0.92" stop-color="#e7c99e" stop-opacity="0.64"/><stop offset="1" stop-color="#e1b98c" stop-opacity="0.5"/></radialGradient><radialGradient id="radial-gradient-2" cx="136.17" cy="234.8" r="5.46" xlink:href="#radial-gradient"/><radialGradient id="radial-gradient-3" cx="193.3" cy="275.11" r="5.46" xlink:href="#radial-gradient"/><radialGradient id="radial-gradient-4" cx="219.39" cy="211.7" r="5.46" xlink:href="#radial-gradient"/><radialGradient id="radial-gradient-5" cx="204.91" cy="70.83" r="5.46" xlink:href="#radial-gradient"/><radialGradient id="radial-gradient-6" cx="61.83" cy="110.76" r="5.46" xlink:href="#radial-gradient"/><radialGradient id="radial-gradient-7" cx="126.39" cy="61.04" r="5.46" xlink:href="#radial-gradient"/></defs><title>gp1</title><g id="Layer_2" data-name="Layer 2"><g id="Layer_1-2" data-name="Layer 1"><rect class="cls-1" width="275.48" height="352.17"/><rect class="cls-2" x="28.17" y="34.02" width="219.13" height="280.14"/><path class="cls-3" d="M99.52,134.92a44.48,44.48,0,0,1,70.77-9.27,1.88,1.88,0,0,0,1.75.56c7.34-.78,14.67-1.7,22-2.19a64.65,64.65,0,0,1,21,1.62,16.18,16.18,0,0,1,6.28,3,6.13,6.13,0,0,1,2.31,6.34,13,13,0,0,1-2.86,5.48,47.65,47.65,0,0,1-10.49,9.24,163.63,163.63,0,0,1-27.17,14.59,1.75,1.75,0,0,0-1.22,1.38,42.74,42.74,0,0,1-6.75,16,44.51,44.51,0,0,1-68.84,5.88,1.59,1.59,0,0,0-1.54-.51c-5.52.68-11,1.47-16.59,1.92-8.3.67-16.61.85-24.83-.92A19.77,19.77,0,0,1,56,185.12,6.34,6.34,0,0,1,53.12,178a13.76,13.76,0,0,1,3.21-5.67c3.81-4.46,8.52-7.83,13.42-10.94a170.64,170.64,0,0,1,23.62-12.28,2.19,2.19,0,0,0,1.49-1.81c.35-1.82.92-3.59,1.54-5.89C97.29,139.53,98.27,137.15,99.52,134.92Zm-13.6,32.4c-2,3.6-.51,7.23,3.52,9a27.92,27.92,0,0,0,10.46,1.89A116.07,116.07,0,0,0,127,175.24,191.75,191.75,0,0,0,172.27,160a69.86,69.86,0,0,0,13.44-8.29,19.81,19.81,0,0,0,4.89-5.43c2.09-3.64,1-7.28-2.85-9.1-3.22-1.54-6.69-1.9-10.33-2.1.16.37.27.66.42.93a45.55,45.55,0,0,1,4.41,13,1.35,1.35,0,0,1-.62,1.57A91.19,91.19,0,0,1,164.3,160c-17.73,7.49-36.07,12.68-55.29,14.47-3.46.32-7,.17-10.45.25a1.2,1.2,0,0,1-1.29-.91,45.65,45.65,0,0,1-3.35-14.48C90.72,161.64,87.76,163.92,85.92,167.32Z"/><circle class="cls-4" cx="72.65" cy="270.39" r="5.46"/><circle class="cls-5" cx="136.17" cy="234.8" r="5.46"/><circle class="cls-6" cx="193.3" cy="275.11" r="5.46"/><circle class="cls-7" cx="219.39" cy="211.7" r="5.46"/><circle class="cls-8" cx="204.91" cy="70.83" r="5.46"/><circle class="cls-9" cx="61.83" cy="110.76" r="5.46"/><circle class="cls-10" cx="126.39" cy="61.04" r="5.46"/></g></g></svg>