<svg xmlns="http://www.w3.org/2000/svg" xmlns:xlink="http://www.w3.org/1999/xlink" viewBox="0 0 474.42 585.91"><defs><style>.cls-1{fill:#2f4443;}.cls-2{fill:url(#linear-gradient);}.cls-3{fill:#5a8b6c;}.cls-4{fill:#f6efc7;}.cls-5{fill:#e1b98c;}.cls-6{fill:#8bb38d;}</style><linearGradient id="linear-gradient" x1="224.29" y1="581.98" x2="224.29" y2="345.95" gradientUnits="userSpaceOnUse"><stop offset="0" stop-color="#b9b194"/><stop offset="0.26" stop-color="#c4bc9d"/><stop offset="0.72" stop-color="#e2dab5"/><stop offset="1" stop-color="#f8efc7"/></linearGradient></defs><title>gp2</title><g id="Layer_2" data-name="Layer 2"><g id="Layer_1-2" data-name="Layer 1"><path class="cls-1" d="M78.78,266.5c-2.8-25.49-8.84-50.94-.93-75.87,3.63-11.42,11.44-22.13,19.45-31.36,6.86-7.9,18.13-13,28-7.72,5.48,2.89,7.4,12.54,10.63,18.57L159.12,160,134.25,106.7l-3.45.52c-5.27,21-19.93,30.14-39.64,33.51-11.76,2-21.23,8.89-24.62,20.08-5.28,17.49-17,29.16-30.7,39.55-10.46,7.95-21.38,15.28-34.66,24.71-1.47-36.51-5.35-70.95,18-98.36,14-16.39,31-30.65,46.83-45.62,20.87-19.78,46.29-11.19,62.28,12.54,14.82,22,27.85,44.23,36.08,69.35,1.55,4.74,3.18,9.47,7.19,13.72-1.14-25.94-2.29-51.89-3.46-78.6-8.82-1-16.86-1.84-24.87-2.91-10-1.34-12.31-5.41-8.07-14.08,6.5-13.29,46.57-25.6,59-17.83,3.67,2.29,6.26,6.28,9.84,8.81,3,2.13,6.63,4.36,10.13,4.62,7.63.56,18.87,3,22.32-.93,6.95-7.89,11.33-19.1,13.85-29.64,8.33-34.76,21.62-40.88,44.47-42.23,5.85-.34,11.58-2.35,17.41-3.31,10.26-1.67,19.19,0,27.85,7.09a98,98,0,0,0,26.82,15.25c10.62,4.06,16.44,11,18.5,21.48a166.94,166.94,0,0,1,2.56,22c.42,6.94.09,13.93.09,19.23,15.3,7.92,30.06,14.65,43.88,22.94,15.23,9.13,23.38,23.36,24.14,41.34,1.15,27.57,5.3,54.46,16.82,79.83.7,1.55.79,3.37,1.57,6.89-24.52-7.42-44.64-17.69-52-42.87-2.58-8.77-6.57-11.33-15.61-10.86-22.55,1.17-35.63-8.34-44.6-29.17-1.39-3.23-6.47-5-10.08-7.06-1-.58-2.87.22-4.33.45-32.58,5.09-32.58,5.09-59.19-13.08-31.31,35-45,77.74-55.61,122.52a56,56,0,0,0,5.52,1.23c17.37,1.7,16.91,1.52,22.84-15,5.25-14.58,10.76-29.2,17.8-43,9.4-18.4,24-31.56,48-12a32.31,32.31,0,0,0,3.67,2.28c9.14-17.15,25.53-18.17,36.05-1.78,15,23.45,13.91,49.59,12,78.4-5.69-4.28-9.18-7.42-13.13-9.76-9.42-5.59-18.67-11.73-28.7-16-13.92-5.88-24.52-19.39-23.13-34.32.52-5.51,4.55-10.69,7.26-16.65-11.56-10.92-22-10.46-32.29,3.84C275,213.12,269.05,235.57,263,258.06c16.76,3.12,32.49,5.31,47.81,9.11,15.58,3.87,17.36,7.48,16.21,23.63q-8.68,122.37-17.36,244.73c-1.86,26.27-23.07,48.46-49.53,49.61-24,1.05-48.13,1-72.14,0-25-1.07-46-20.47-48.58-45.37-3.66-36.06-5.86-72.27-8.38-108.44-3.36-48.36-6.16-96.76-9.85-145.1-.74-9.71,2.79-15.13,11.28-17.39A330.13,330.13,0,0,1,166,261.69c6.71-1.06,10.08-3.36,9.05-10.57-3.14-21.87-6.11-43.77-9.2-65.66a8.57,8.57,0,0,0-1.41-4.17c-3.85-4.65-7.31-11.77-12.08-12.87-4.26-1-10.06,4.78-14.6,8.53,20.14-2.65,28.31,5.57,24.61,26.09-3.84,21.3-15.14,35.79-36.91,42.7C109.8,250.69,95.23,259,78.78,266.5ZM246.32,94.93c-3.2-2.35-6.51-4.57-9.58-7.07-9-7.29-18.74-9-29.54-5.5.23,18.61,5.44,23,22.34,21.89,4.61-.29,10.43,2.91,14,6.29,4,3.77,6,9.58,9.61,15.61v-12l4.2,18c7.1-14.38,18.79-26,12.06-39.67-5.51-11.16-19.79-9.43-31.84-10.22ZM348.23,210.22c-3.69-2.91-7-6.52-11.16-8.52-4.58-2.22-10.4-4.81-14.66-3.61-2.46.69-4.34,8.64-4,13.14.94,12.39,7.92,20.71,19.51,25.8,9.64,4.24,18.65,9.86,28.05,14.64,2.29,1.16,5,1.46,7.53,2.16,4.6-23.11,2.2-45.11-11.55-64.79a21.42,21.42,0,0,0-11.6-7.6c-3.48-.86-10.48.63-11.15,2.66-1.46,4.4-.85,10.15.77,14.7C341.48,203.05,345.38,206.44,348.23,210.22ZM112.8,201.93c4.09-6,8-12.08,12.35-17.8,3.81-4.95,6.1-23.46,2.07-27-7.1-6.32-14.64-2.8-21.5,1-13.86,7.64-22.87,20-24.44,35.16-1.93,18.54-.52,37.43-.33,56.17,0,.66,2.39,1.3,3.67,1.94-.34,2.73-.69,5.47-.89,7.07,16.31-6.58,32.59-13,48.76-19.73,17.23-7.14,30.2-30.94,25.41-48-1.12-4-6.47-10.07-9.19-9.73-10.08,1.27-21.34,1.41-27.61,12.35C119.18,196.68,115.61,199.09,112.8,201.93ZM375.59,84.78c5.24,3.39,8.54,2.55,8.23-4.25-.52-11.39-.86-22.84-2.28-34.13-1.23-9.85-6.85-16.17-16.85-19.78-8.89-3.21-18.08-7.66-24.91-14-9.11-8.45-18.71-9.26-29.66-7.45-9.45,1.55-18.95,2.91-28.34,4.8-14,2.83-25.69,18.8-24.45,32.19C269,38,280.47,32.59,292.58,29.94c20.72-4.52,41.08-4.1,57.27,13a56.62,56.62,0,0,1-6.89-3c-25.77-15.55-50.4-8.69-73.11,1.55,8.35,4.4,17.65,8.16,25.62,13.81,9.2,6.51,18.19,11.95,29.89,12.59A71.7,71.7,0,0,1,367,83.6C369,85.14,372.69,84.45,375.59,84.78ZM24,188.22C36.65,165,47.65,140.57,62.65,119c6.54-9.43,20.77-14.52,32.49-19,8.5-3.26,18.62-2.32,28.05-3.26C114.58,73.07,87.5,65.91,68.41,84.1c-14.72,14-29.35,28.26-43.76,42.52C1,150.06,4.52,182.23,4.69,214.07l6.79-5.32c.6.79,1.64,2.31,1.71,2.26C31.4,199.64,51,188.48,59,167.75c7.43-19.11,18.85-29.44,38.81-32.88,17.45-3,27.6-15.77,27.34-30.86-25-7.3-52.31,3-67,26.47-9.76,15.63-18,32.18-27.18,48.22C29.08,182.1,26.38,185.06,24,188.22ZM129.91,347.43c0,4.22-.18,7.12,0,10,4.17,59,8.22,118,12.67,177,2.06,27.29,23.29,46.93,50.7,47.33,20.7.31,41.42.35,62.12,0,28.16-.53,49-21.69,50.76-49.92,2.45-39.48,5.51-78.93,8.21-118.39,1.51-22,2.84-44,4.34-67.44C255.78,362.35,193.71,363.12,129.91,347.43ZM294.32,128.68c.33,1.56.66,3.12,1,4.69,13,10.6,26.76,17.9,44.5,11.41a54.73,54.73,0,0,1,13-2.5c6.58-.69,10.87,1.55,13.35,8.6,7.53,21.41,20.63,30.06,43.1,28.16,9-.77,13.62,1.77,15.92,10.75,5.22,20.41,19.56,32,39.75,39.06-.31-3.78-.32-6.69-.8-9.52-3.87-22.49-8.39-44.89-11.56-67.48-2.22-15.78-7-29.63-20.94-38.55-8.68-5.56-17.55-11.13-27-15.21C370.05,83.15,323.52,94,303.13,121.17c6.83-2.92,13.44-6,20.26-8.6,29.9-11.15,37.3-9,57.5,16.65-3.45-2.24-7-4.68-9.2-8-6.29-9.65-15.65-13.68-25.84-10.75C328.37,115.46,311.46,122.5,294.32,128.68ZM221.54,256.4l4,.78c1-3,1.88-6.05,3-9,8.95-24.63,15.95-50.21,27.35-73.65C273.68,137.77,300,108,339.41,92.65c6.95-2.7,14.36-4.21,21.56-6.27.21-1,.41-2.07.62-3.1-8.77-3.29-17.34-8.53-26.35-9.48-19.11-2-35.11-8.67-49.84-21.24-11.9-10.16-31-3.68-37.15,10.72-1.85,4.34-3.45,8.79-5.37,13.72,7.83,2.11,15.08,3.52,21.92,6,7.67,2.82,12.7,8.65,10.55,17.19-5.55,22-15.26,42.27-35,54.63-9.33,5.84-14.48,11.46-13.62,22.33.21,2.54-.62,5.14-.78,7.72Q223.72,220.66,221.54,256.4Zm100,32.38c-65.56,15.72-130.43,15.79-196.2-.31.41,5.43,1.38,10.92,1.12,16.35-.47,9.85,3.44,14.73,13.54,15.76,25,2.53,49.78,6.94,74.77,8.23a289.21,289.21,0,0,0,96.49-11.45c3.86-1.13,9-4.66,9.82-8C322.63,302.78,321.55,295.55,321.55,288.78Zm-193,33.41c-.8,19.64-.36,20.81,11.33,23.44,54.6,12.29,109.23,12.49,163.77-.31,17.66-4.14,18.32-5.56,15-25.26C255.82,337.29,192.59,337.56,128.57,322.19ZM181.78,258l3.49,3.32c3.95-2.93,11-5.52,11.35-8.85,3.18-28.54,5.15-57.21,7.44-85.29-35.9-16.59-19.83-45.24-17.94-70.94l-13.83,1.92C175.49,152.08,178.63,205,181.78,258ZM201.56,86.4c-14.67,12.27-22.16,49.15-12.42,64.49,3.09,4.87,9.31,7.76,14.39,11.79,7.15-19,13.33-35.39,19.62-52.11C208,110,205.65,97.4,201.56,86.4ZM326.54,279c-4-2.35-5.71-4-7.73-4.47-17.57-3.83-35.17-7.57-52.84-10.89-1.54-.29-4.7,2.23-5.35,4.07-3,8.61-5.4,17.43-8.52,27.88C277.63,293.23,301.78,293.23,326.54,279ZM208.32,159.23l3.25,2.47c15.24-3.6,31.2-7.1,38.87-22.84,3.78-7.76-9.19-27.28-21-32Q218.91,133,208.32,159.23ZM222,165.29c-10.78-2-14.8,2.05-14.66,12.18.13,9.58-1.14,19.18-1.72,28.77-1,16.85-2,33.7-2.95,50.9H215C217.33,226.3,219.64,196.16,222,165.29ZM176.61,293.9c-.58-10.68-1.06-19.63-1.53-28.46-21.36-.48-41.48,5.17-50.52,14.39C139.73,291,157.4,291.21,176.61,293.9ZM202.25,78.25C193.43,64.09,181.37,60.19,171,67.68c-4.94,3.58-5.1,16.85-.28,23.09S187.84,92.34,202.25,78.25Zm52.91,185c-6.32-.39-11.12-1.33-15.74-.76-3,.37-7.59,2.44-8.16,4.61-2.35,9-3.45,18.34-5,27.51,18.38,3,18.39,3,23-11.75C251.06,276.9,252.82,271,255.16,263.21ZM168,93.72c-3.87-9.17,2-20.44-10.46-22.2-10-1.41-18.41,7.47-19,18.79Zm33.31,201.94,13.11-.6V263.51c-9-3.22-13.16-.28-13.12,8.62C201.34,279.39,201.31,286.64,201.31,295.66Zm-17.78-32.15c0,9.32-.34,17.39.23,25.4.15,2.14,3.11,4.07,4.78,6.1,1.8-1.77,4.92-3.37,5.19-5.35,1.17-8.59,1.52-17.3,2.18-26.15Z"/><path class="cls-2" d="M129.91,347.43c63.8,15.69,125.87,14.92,188.83-1.48-1.5,23.4-2.83,45.42-4.34,67.44-2.7,39.46-5.76,78.91-8.21,118.39-1.75,28.23-22.6,49.39-50.76,49.92-20.7.39-41.42.35-62.12,0-27.41-.4-48.64-20-50.7-47.33-4.45-59-8.5-118-12.67-177C129.73,354.55,129.91,351.65,129.91,347.43Z"/><path class="cls-3" d="M294.32,128.68c17.14-6.18,34.05-13.22,51.53-18.23,10.19-2.93,19.55,1.1,25.84,10.75,2.18,3.34,5.75,5.78,9.2,8-20.2-25.69-27.6-27.8-57.5-16.65-6.82,2.55-13.43,5.68-20.26,8.6,20.39-27.22,66.92-38,101.54-23.08,9.43,4.08,18.3,9.65,27,15.21,13.91,8.92,18.72,22.77,20.94,38.55,3.17,22.59,7.69,45,11.56,67.48.48,2.83.49,5.74.8,9.52-20.19-7-34.53-18.65-39.75-39.06-2.3-9-6.88-11.52-15.92-10.75-22.47,1.9-35.57-6.75-43.1-28.16-2.48-7-6.77-9.29-13.35-8.6a54.73,54.73,0,0,0-13,2.5c-17.74,6.49-31.52-.81-44.5-11.41C295,131.8,294.65,130.24,294.32,128.68Z"/><path class="cls-4" d="M321.55,288.78c0,6.77,1.08,14-.46,20.61-.78,3.31-6,6.84-9.82,8a289.21,289.21,0,0,1-96.49,11.45c-25-1.29-49.82-5.7-74.77-8.23-10.1-1-14-5.91-13.54-15.76.26-5.43-.71-10.92-1.12-16.35C191.12,304.57,256,304.5,321.55,288.78Z"/><path class="cls-5" d="M128.57,322.19c64,15.37,127.25,15.1,190.13-2.13,3.29,19.7,2.63,21.12-15,25.26-54.54,12.8-109.17,12.6-163.77.31C128.21,343,127.77,341.83,128.57,322.19Z"/><path class="cls-3" d="M11.48,208.75l-6.79,5.32c-.17-31.84-3.72-64,20-87.45,14.41-14.26,29-28.5,43.76-42.52,19.09-18.19,46.17-11,54.78,12.56-9.43.94-19.55,0-28,3.26-11.72,4.51-25.95,9.6-32.49,19-15,21.62-26,46-38.62,69.27Q17.76,198.48,11.48,208.75Z"/><path class="cls-6" d="M349.85,42.91c-16.19-17.07-36.55-17.49-57.27-13C280.47,32.59,269,38,257.33,42.18,256.09,28.79,267.78,12.82,281.78,10c9.39-1.89,18.89-3.25,28.34-4.8,10.95-1.81,20.55-1,29.66,7.45,6.83,6.32,16,10.77,24.91,14,10,3.61,15.62,9.93,16.85,19.78,1.42,11.29,1.76,22.74,2.28,34.13.31,6.8-3,7.64-8.23,4.25C371.13,68.29,361.42,55,349.85,42.91Z"/><path class="cls-3" d="M11.48,208.75Q17.77,198.49,24,188.22c2.35-3.16,5-6.12,7-9.52,9.13-16,17.42-32.59,27.18-48.22,14.67-23.48,41.94-33.77,67-26.47.26,15.09-9.89,27.85-27.34,30.86-20,3.44-31.38,13.77-38.81,32.88C51,188.48,31.4,199.64,13.19,211,13.12,211.06,12.08,209.54,11.48,208.75Z"/><path class="cls-3" d="M112.8,201.93c2.81-2.84,6.38-5.25,8.3-8.6,6.27-10.94,17.53-11.08,27.61-12.35,2.72-.34,8.07,5.75,9.19,9.73,4.79,17-8.18,40.82-25.41,48-16.17,6.71-32.45,13.15-48.76,19.73.2-1.6.55-4.34.89-7.07Z"/><path class="cls-3" d="M112.8,201.93l-28.18,49.4c-1.28-.64-3.67-1.28-3.67-1.94-.19-18.74-1.6-37.63.33-56.17,1.57-15.12,10.58-27.52,24.44-35.16,6.86-3.78,14.4-7.3,21.5-1,4,3.59,1.74,22.1-2.07,27C120.76,189.85,116.89,196,112.8,201.93Z"/><path class="cls-3" d="M349.85,42.91C361.42,55,371.13,68.29,375.59,84.78c-2.9-.33-6.62.36-8.56-1.18a71.7,71.7,0,0,0-41.67-15.77c-11.7-.64-20.69-6.08-29.89-12.59-8-5.65-17.27-9.41-25.62-13.81,22.71-10.24,47.34-17.1,73.11-1.55A56.62,56.62,0,0,0,349.85,42.91Z"/><path class="cls-3" d="M201.56,86.4c4.09,11,6.4,23.62,21.59,24.17-6.29,16.72-12.47,33.13-19.62,52.11-5.08-4-11.3-6.92-14.39-11.79C179.4,135.55,186.89,98.67,201.56,86.4Z"/><path class="cls-5" d="M326.54,279c-24.76,14.24-48.91,14.24-74.44,16.59,3.12-10.45,5.51-19.27,8.52-27.88.65-1.84,3.81-4.36,5.35-4.07,17.67,3.32,35.27,7.06,52.84,10.89C320.83,275,322.58,276.64,326.54,279Z"/><path class="cls-3" d="M373.5,253.83c-2.52-.7-5.24-1-7.53-2.16-9.4-4.78-18.41-10.4-28.05-14.64-11.59-5.09-18.57-13.41-19.51-25.8-.34-4.5,1.54-12.45,4-13.14,4.26-1.2,10.08,1.39,14.66,3.61,4.13,2,7.47,5.61,11.16,8.51Z"/><path class="cls-6" d="M373.5,253.83l-25.27-43.62c-2.85-3.77-6.75-7.16-8.26-11.41-1.62-4.55-2.23-10.3-.77-14.7.67-2,7.67-3.52,11.15-2.66A21.42,21.42,0,0,1,362,189C375.7,208.72,378.1,230.72,373.5,253.83Z"/><path class="cls-3" d="M208.32,159.23Q218.9,133,229.47,106.9c11.78,4.68,24.75,24.2,21,32-7.67,15.74-23.63,19.24-38.87,22.84Z"/><path class="cls-5" d="M176.61,293.9c-19.21-2.69-36.88-2.93-52.05-14.07,9-9.22,29.16-14.87,50.52-14.39C175.55,274.27,176,283.22,176.61,293.9Z"/><path class="cls-3" d="M253.16,114.14v12c-3.56-6-5.62-11.84-9.61-15.61-3.58-3.38-9.4-6.58-14-6.29-16.9,1.06-22.11-3.28-22.34-21.89,10.8-3.51,20.59-1.79,29.54,5.5,3.07,2.5,6.38,4.72,9.58,7.07Z"/><path class="cls-3" d="M202.25,78.25c-14.41,14.09-26.64,18.83-31.52,12.52s-4.66-19.51.28-23.09C181.37,60.19,193.43,64.09,202.25,78.25Z"/><path class="cls-6" d="M253.16,114.14l-6.84-19.21-8.74-12.72c12,.79,26.33-.94,31.84,10.22,6.73,13.63-5,25.29-12.06,39.67Z"/><path class="cls-5" d="M255.16,263.21c-2.34,7.74-4.1,13.69-5.94,19.61-4.57,14.72-4.58,14.72-23,11.75,1.55-9.17,2.65-18.51,5-27.51.57-2.17,5.19-4.24,8.16-4.61C244,261.88,248.84,262.82,255.16,263.21Z"/><path class="cls-3" d="M168,93.72l-29.48-3.41c.61-11.32,9-20.2,19-18.79C170,73.28,164.13,84.55,168,93.72Z"/><path class="cls-5" d="M201.31,295.66c0-9,0-16.27,0-23.53,0-8.9,4.1-11.84,13.12-8.62v31.55Z"/><path class="cls-5" d="M183.53,263.51h12.38c-.66,8.85-1,17.56-2.18,26.15-.27,2-3.39,3.58-5.19,5.35-1.67-2-4.63-4-4.78-6.1C183.19,280.9,183.53,272.83,183.53,263.51Z"/></g></g></svg>