<svg xmlns="http://www.w3.org/2000/svg" viewBox="0 0 138.02 245.64"><defs><style>.cls-1{fill:#6f9495;}.cls-2{fill:#f6efc7;}.cls-3{fill:#bab095;}.cls-4{fill:#2f4443;}</style></defs><title>gp3</title><g id="Layer_2" data-name="Layer 2"><g id="Layer_1-2" data-name="Layer 1"><path class="cls-1" d="M101.15,19.26C101.1,57.8,97.51,96.13,93,134.42l2,.23L110,19l2.62.23-2.73,51,.82.17q3.93-18.33,7.87-36.68l1.87.35c-1.37,30.47-7.32,60.21-15.61,89.59l1.7.4q11.25-46.82,22.52-93.62c-.73,35.72-7.53,70.33-19.17,104.32,1.33.35,2.18.87,2.87.71,14-3.25,18,8.72,24.57,16.42,1,1.18.68,4,.19,5.91-7.11,27.72-14.4,55.39-21.53,83.11-.87,3.38-2.35,4.75-6,4.73q-41.08-.21-82.18,0c-3.64,0-5.06-1.35-6-4.83C14.69,212.88,7.27,185,.12,157.09c-.48-1.9.57-4.24,1.1-6.32.2-.74,1.07-1.29,1.49-2,5.75-9.78,13.32-16,25.56-13.25a4.45,4.45,0,0,0,1.87-.16c.38-.09.71-.4.59-.33Q18.92,87.56,7.21,40.42l3.27-1q2.6,8.46,5.19,16.92a146.92,146.92,0,0,0,6.4,17.89Q18.61,57.1,15.15,40l2.33-.66,8.83,28.56c.68-19.29.19-38.47,5.5-57.32,1.49,37.14,4,74.07,13.74,110.05C41.28,86.3,39.82,19.94,43.63,7.21,47,43.59,50.18,79,53.42,114.4l1.75-.1C51.78,76.08,51.77,38,57.16,0L59,0l2,71.61.81,0,5.61-44.13,1.87.17V67.23c2.77-21.32,5.38-41.44,8-61.56l2.13.18q-2.49,64.21-5,128.42l2,.16Q82.8,72,89.16,9.62l3.16.27q-4,61.59-8,123.18l.51.07L98.49,19Zm-40,160.3c-5.57-4.08-11.4-4.59-17.79-1.82-6.58,2.85-13.17,3.39-20.07.11-2.81-1.33-6.53-1-9.83-1-4.05,0-5.56,2.09-4.39,6.18,1.95,6.86,4,13.71,5.43,20.69,1.06,5.28,2.79,8.8,9,7.6L17,212.46c1.18,4.63,2.25,8.82,3.4,13.3,2.43-.82,4.34-1.68,6.35-2.13,11.17-2.49,22.35-4.81,32.14,4-8.73-3.17-17.49-5.45-26.95-3.12-11.47,2.83-11.43,2.62-8.27,14.07.8,2.88,1.42,4.86,5.17,4.83,26.73-.14,53.47-.05,80.21-.16,1.39,0,3.78-.93,4-1.85,1.7-6.81,3-13.73,4.37-20.61l6.69-19c-11.37-8.09-21.59-7.21-32-1.16a20.06,20.06,0,0,1-8.31,2.77c-3.74.27-7.55-.5-11.34-.83l.1-2.59c7.26,4.25,13.79,1.62,19.91-1.71,9.34-5.08,18.55-6.39,28.22-1.16,1,.53,2.33.39,4,.63l11-42H2.09c1.81,7,3.48,13.39,5.09,19.6,5.9,0,11.67-1.47,16.11.34,7.33,3,13.74,2.44,20.71-.17,6.48-2.44,12.79-2.38,18,3.21Zm-10.9-26.13L51.67,152C48.05,138.69,43.93,125.45,41,112S35.69,84.74,34,71c-1.7-13.48-2.31-27.1-3.4-40.66-.19,15.12-.95,30.27,0,45.32a251.77,251.77,0,0,0,16,73C47.19,150.47,49,151.85,50.26,153.43Zm13.44-2.36C61.34,109.12,59,67.18,56.64,25.5,53.63,67.45,55.18,109.44,63.7,151.07ZM2.8,152.61H38.6c-3.63-14.87-3.75-15.06-18-14.84-2.53,0-5.77.39-7.39,1.95C9.61,143.14,6.87,147.42,2.8,152.61Zm52.63,0,2-.44C52.83,117.08,48.18,81.94,43.68,48,44.33,82.47,44.61,118.22,55.43,152.65Zm79.76,0c-4.12-5.15-7.1-9.15-10.38-12.88-2.62-3-15-3.22-16.56-.26-2,4-3.49,8.32-5.46,13.14ZM70,152.45l2,.08L75.16,41.45A621.68,621.68,0,0,0,70,152.45Zm15.23-.68,2.59.27A739.55,739.55,0,0,0,97.24,46.7Q91.23,99.23,85.2,151.77Zm-42.95,1.07,2.83-.94Q31,110.44,17,69C23.45,97.56,29.2,126.38,42.25,152.84ZM107.5,55.42q-5.93,46.72-11.86,93.46l2,.25C104.79,118.43,105.57,86.93,107.5,55.42Zm-7.82,96.71c13.51-28.35,20.48-58.54,25.11-88.7ZM66.9,56.46c-5.3,31.19-3.83,62.31,0,93.15ZM77.34,152l2.74.23q3.51-45.84,7-91.66l-1-.09Q81.7,106.27,77.34,152ZM115,67.81l-1.4-.28L106.27,102l2,.41Q111.66,85.12,115,67.81ZM28.81,91.88l1.56-.17L25.15,71,24,71.33Q26.38,81.61,28.81,91.88Zm61.76,59.93,2.27.18q.8-6.74,1.6-13.46l-2.07-.19Z"/><path class="cls-2" d="M58.9,227.59c-9.79-8.77-21-6.45-32.14-4-2,.45-3.92,1.31-6.35,2.13-1.15-4.48-2.22-8.67-3.4-13.3l6.48-1.13c-6.19,1.2-7.92-2.32-9-7.6-1.39-7-3.48-13.83-5.43-20.69-1.17-4.09.34-6.17,4.39-6.18,3.3,0,7-.34,9.83,1,6.9,3.28,13.49,2.74,20.07-.11,6.39-2.77,12.22-2.26,17.79,1.82,9.9,6.36,17.49-2.2,26.1-3.87-4.3.48-8.35,2.35-12.58,3s-8.46,0-12.7,0c-5.19-5.59-11.5-5.65-18-3.21-7,2.61-13.38,3.16-20.71.17-4.44-1.81-10.21-.34-16.11-.34-1.61-6.21-3.28-12.61-5.09-19.6H135.77l-11,42c-1.65-.24-3-.1-4-.63-9.67-5.23-18.88-3.92-28.22,1.16-6.12,3.33-12.65,6-19.91,1.71l-.1,2.59c3.79.33,7.6,1.1,11.34.83a20.06,20.06,0,0,0,8.31-2.77c10.37-6,20.59-6.93,32,1.16l-6.69,19-10.34,5.16c-6.2-.37-12.4-.94-18.61-1-4.94-.1-10.45-2.28-14.3,3Z"/><path class="cls-2" d="M58.9,227.59l15.29.27c5.69-.35,11.38-.72,17.07-1.06q7.92-.47,15.84-.89l10.34-5.16c-1.4,6.88-2.67,13.8-4.37,20.61-.23.92-2.62,1.85-4,1.85-26.74.11-53.48,0-80.21.16-3.75,0-4.37-2-5.17-4.83-3.16-11.45-3.2-11.24,8.27-14.07C41.41,222.14,50.17,224.42,58.9,227.59Z"/><path class="cls-3" d="M2.8,152.61c4.07-5.19,6.81-9.47,10.38-12.89,1.62-1.56,4.86-1.91,7.39-1.95,14.28-.22,14.4,0,18,14.84Z"/><path class="cls-3" d="M135.19,152.65h-32.4c2-4.82,3.41-9.13,5.46-13.14,1.52-3,13.94-2.73,16.56.26C128.09,143.5,131.07,147.5,135.19,152.65Z"/><path class="cls-4" d="M50.26,153.43c-1.27-1.58-3.07-3-3.74-4.76a251.77,251.77,0,0,1-16-73c-.93-15.05-.17-30.2,0-45.32C31.65,43.91,32.26,57.53,34,71c1.73,13.73,4,27.43,7,40.94S48.05,138.69,51.67,152Z"/><path class="cls-4" d="M63.7,151.07C55.18,109.44,53.63,67.45,56.64,25.5,59,67.18,61.34,109.12,63.7,151.07Z"/><path class="cls-4" d="M55.43,152.65C44.61,118.22,44.33,82.47,43.68,48c4.5,34,9.15,69.13,13.79,104.26Z"/><path class="cls-4" d="M70,152.45a621.68,621.68,0,0,1,5.19-111L72,152.53Z"/><path class="cls-4" d="M85.2,151.77q6-52.55,12-105.07A739.55,739.55,0,0,1,87.79,152Z"/><path class="cls-4" d="M42.25,152.84C29.2,126.38,23.45,97.56,17,69q14,41.46,28.07,82.93Z"/><path class="cls-4" d="M107.5,55.42c-1.93,31.51-2.71,63-9.86,93.71l-2-.25Q101.57,102.14,107.5,55.42Z"/><path class="cls-4" d="M99.68,152.13l25.11-88.7C120.16,93.59,113.19,123.78,99.68,152.13Z"/><path class="cls-4" d="M66.9,56.46v93.15C63.07,118.77,61.6,87.65,66.9,56.46Z"/><path class="cls-4" d="M77.34,152q4.36-45.77,8.71-91.52l1,.09q-3.49,45.82-7,91.66Z"/><path class="cls-4" d="M115,67.81q-3.35,17.31-6.7,34.62l-2-.41,7.34-34.49Z"/><path class="cls-4" d="M28.81,91.88Q26.38,81.61,24,71.33L25.15,71l5.22,20.67Z"/><path class="cls-4" d="M90.57,151.81l1.8-13.47,2.07.19q-.81,6.74-1.6,13.46Z"/><path class="cls-1" d="M107.1,225.91q-7.92.43-15.84.89c-5.69.34-11.38.71-17.07,1.06,3.85-5.28,9.36-3.1,14.3-3C94.7,225,100.9,225.54,107.1,225.91Z"/><path class="cls-1" d="M62,178.69c4.24.05,8.57.65,12.7,0s8.28-2.53,12.58-3c-8.61,1.67-16.2,10.23-26.1,3.87Z"/></g></g></svg>