<svg xmlns="http://www.w3.org/2000/svg" viewBox="0 0 598.52 601.59"><defs><style>.cls-1{fill:#c38253;}.cls-2{fill:#bbb094;}</style></defs><title>gp4</title><g id="Layer_2" data-name="Layer 2"><g id="Layer_1-2" data-name="Layer 1"><path d="M0,601.59C2.9,590.85,5.63,581,8.24,571.05q10.88-41.26,21.7-82.53a180.34,180.34,0,0,1,5.55-18.66c1.12-2.93,3.64-5.49,5.95-7.8q60-60.15,120.09-120.17,58-57.93,116-115.83,61.83-61.84,123.59-123.74c26.61-26.63,53-53.48,80.05-79.65,6.44-6.23,15-10.28,22.79-15.07a62.59,62.59,0,0,1,11.15-5.46c3.18-1.18,6.83-2.51,10-2.05,16.35,2.35,32.5,5.34,45.59,16.87,14.81,13,26.09,27.81,27.65,48.47,1.63,21.63-7.18,39.18-21.7,53.85q-79.28,80.07-159.2,159.5-87.8,87.81-175.65,175.55c-37,37-73.82,74.1-111.14,110.74-3.76,3.69-10.27,5-15.75,6.47C91.63,577.9,68.28,584,45,590.06,30.32,593.88,15.65,597.58,0,601.59ZM68.55,479.41c.33,8.73,4.72,14.63,9.45,20.24.91,1.07,3.39,1.24,5.11,1.13,6.75-.43,12.51-3.46,17.44-7.87,5.46-4.88,10.64-10.07,15.85-15.22q64.68-64,129.31-128,56.37-55.68,112.86-111.21Q416,181.81,473.29,125q29.11-28.83,58.28-57.63c1.86-1.84,3.6-3.23.87-6.08-8.2-8.57-15.5-17.87-20.11-29-1.07-2.57-2.59-2.92-4.61-1.43-4.55,3.33-9.48,6.33-13.44,10.28Q412.5,122.6,331,204.3,271.4,263.85,211.88,323.41C167.26,368.08,122.8,412.9,77.94,457.33,71.2,464,70.92,472.31,68.55,479.41ZM119.94,535c5.42-.09,10.43-.75,14.64-5,24.27-24.48,48.71-48.8,73.06-73.19Q275.43,388.91,343.19,321q51.74-51.76,103.59-103.42,53.72-53.69,107.29-107.5c6.14-6.21,11.22-13.49,16.67-20.37,2.23-2.82.81-4.15-2.2-5.37-6.28-2.53-12.67-5-18.42-8.54-3.67-2.24-5.52-1.94-8.4.91q-55,54.54-110.19,108.89-67,66.21-134,132.44T163.47,450.38c-18.37,18.14-36.19,36.87-55.28,54.21-6.82,6.2-6.11,11.92-4.32,18.73C106.19,532.11,110.67,535.12,119.94,535ZM55.4,482.48a32.22,32.22,0,0,0-1.49,3.69c-4.22,15.57-8,31.29-12.76,46.69-2.54,8.2-1.87,14.68,4.54,20.6,2.28,2.11,3.89,5,5.72,7.54s3.67,3.12,6.83,2.26C73.8,559,89.46,555.11,105.07,551c3.23-.85,6.39-1.94,9.58-2.92-3.3-2.4-6.52-3.18-9.38-4.65-10.09-5.18-12.91-14.61-14-24.9-.72-6.64-.69-6.8-7.07-6.29-7.92.62-14.19-2.11-18.11-9C62.33,496.71,59.15,489.84,55.4,482.48Z"/><path class="cls-1" d="M68.55,479.41c2.37-7.1,2.65-15.4,9.39-22.08,44.86-44.43,89.32-89.25,133.94-133.92Q271.39,263.83,331,204.3q81.62-81.63,163.33-163.17c4-4,8.89-7,13.44-10.28,2-1.49,3.54-1.14,4.61,1.43,4.61,11.09,11.91,20.39,20.11,29,2.73,2.85,1,4.24-.87,6.08Q502.41,96.12,473.29,125q-57.36,56.78-114.72,113.57Q302.2,294.19,245.71,349.73,181,413.65,116.4,477.69c-5.21,5.15-10.39,10.34-15.85,15.22-4.93,4.41-10.69,7.44-17.44,7.87-1.72.11-4.2-.06-5.11-1.13C73.27,494,68.88,488.14,68.55,479.41Z"/><path class="cls-1" d="M119.94,535c-9.27.16-13.75-2.85-16.07-11.64-1.79-6.81-2.5-12.53,4.32-18.73,19.09-17.34,36.91-36.07,55.28-54.21q67-66.19,134.08-132.34t134-132.44q55.11-54.43,110.19-108.89c2.88-2.85,4.73-3.15,8.4-.91,5.75,3.5,12.14,6,18.42,8.54,3,1.22,4.43,2.55,2.2,5.37-5.45,6.88-10.53,14.16-16.67,20.37q-53.43,54-107.29,107.5Q395,269.32,343.19,321q-67.81,67.85-135.55,135.78c-24.35,24.39-48.79,48.71-73.06,73.19C130.37,534.21,125.36,534.87,119.94,535Z"/><path class="cls-2" d="M55.4,482.48c3.75,7.36,6.93,14.23,10.66,20.78,3.92,6.9,10.19,9.63,18.11,9,6.38-.51,6.35-.35,7.07,6.29,1.12,10.29,3.94,19.72,14,24.9,2.86,1.47,6.08,2.25,9.38,4.65-3.19,1-6.35,2.07-9.58,2.92-15.61,4.08-31.27,8-46.83,12.23-3.16.86-5.07.19-6.83-2.26s-3.44-5.43-5.72-7.54c-6.41-5.92-7.08-12.4-4.54-20.6,4.78-15.4,8.54-31.12,12.76-46.69A32.22,32.22,0,0,1,55.4,482.48Z"/></g></g></svg>