<svg xmlns="http://www.w3.org/2000/svg" xmlns:xlink="http://www.w3.org/1999/xlink" viewBox="0 0 15326.61 8604.37"><defs><style>.cls-1,.cls-15,.cls-2,.cls-7,.cls-9{fill:none;stroke-miterlimit:10;}.cls-1,.cls-2{stroke:#000;}.cls-1,.cls-9{stroke-width:24.38px;}.cls-2{stroke-width:25.04px;}.cls-3{fill:url(#linear-gradient);}.cls-4{fill:url(#linear-gradient-2);}.cls-5{fill:url(#radial-gradient);}.cls-6{fill:#6f9495;}.cls-7{stroke:#4b787a;stroke-width:6.91px;}.cls-8{fill:#4b787a;}.cls-9{stroke:#3b5f59;}.cls-10{fill:url(#linear-gradient-3);}.cls-11{fill:url(#radial-gradient-2);}.cls-12{fill:#585347;}.cls-13{fill:url(#linear-gradient-4);}.cls-14{fill:url(#linear-gradient-5);}.cls-15{stroke:#333;stroke-width:3.43px;}.cls-16{fill:#333;}.cls-17{fill:url(#linear-gradient-6);}.cls-18{fill:url(#linear-gradient-7);}.cls-19{fill:url(#linear-gradient-8);}.cls-20{fill:url(#linear-gradient-9);}.cls-21{fill:#373241;}.cls-22{fill:url(#linear-gradient-10);}.cls-23{fill:url(#linear-gradient-11);}.cls-24{fill:#e1b98c;}.cls-25{fill:url(#linear-gradient-12);}.cls-26{fill:url(#linear-gradient-13);}.cls-27{fill:#724d5b;}.cls-28{fill:url(#linear-gradient-14);}</style><linearGradient id="linear-gradient" x1="9273.03" x2="9273.03" y2="652.29" gradientUnits="userSpaceOnUse"><stop offset="0" stop-color="#7f7765"/><stop offset="0.04" stop-color="#837a68"/><stop offset="0.43" stop-color="#a19880"/><stop offset="0.77" stop-color="#b4aa8f"/><stop offset="1" stop-color="#bbb094"/></linearGradient><linearGradient id="linear-gradient-2" x1="7662.18" x2="7662.18" y2="8073.79" gradientUnits="userSpaceOnUse"><stop offset="0" stop-color="#4b787a"/><stop offset="0.24" stop-color="#477273"/><stop offset="0.59" stop-color="#3e6060"/><stop offset="1" stop-color="#2e4442"/></linearGradient><radialGradient id="radial-gradient" cx="1185.75" cy="7972.01" fx="384.181124825491" fy="8332.615432760904" r="9268.6" gradientTransform="matrix(1, -0.02, 0, 0.22, -26.24, 6251.21)" gradientUnits="userSpaceOnUse"><stop offset="0" stop-color="#585347"/><stop offset="0.33" stop-color="#605b4d"/><stop offset="0.84" stop-color="#776f5e"/><stop offset="1" stop-color="#7f7764"/></radialGradient><linearGradient id="linear-gradient-3" x1="16156.58" y1="1164.02" x2="13567.21" y2="5648.93" gradientUnits="userSpaceOnUse"><stop offset="0" stop-color="#585347"/><stop offset="0.48" stop-color="#565146"/><stop offset="0.71" stop-color="#4e4b42"/><stop offset="0.88" stop-color="#42403b"/><stop offset="1" stop-color="#333"/></linearGradient><radialGradient id="radial-gradient-2" cx="14141.39" cy="3842.65" r="121.92" gradientUnits="userSpaceOnUse"><stop offset="0" stop-color="#585347"/><stop offset="1" stop-color="#7f7764"/></radialGradient><linearGradient id="linear-gradient-4" x1="1767.82" y1="5771.51" x2="1767.82" y2="7193.25" gradientUnits="userSpaceOnUse"><stop offset="0" stop-color="#333"/><stop offset="0.05" stop-color="#353534"/><stop offset="0.64" stop-color="#4f4b42"/><stop offset="1" stop-color="#585347"/></linearGradient><linearGradient id="linear-gradient-5" x1="2954.74" y1="5100.13" x2="2954.74" y2="7261.36" xlink:href="#linear-gradient-4"/><linearGradient id="linear-gradient-6" x1="1608.45" y1="5867.36" x2="2855.05" y2="5867.36" gradientTransform="matrix(1, -0.09, 0.09, 1, -997.56, 891.78)" gradientUnits="userSpaceOnUse"><stop offset="0" stop-color="#2e4442"/><stop offset="1" stop-color="#4b787a"/></linearGradient><linearGradient id="linear-gradient-7" x1="2264.69" y1="4936.03" x2="2264.69" y2="6473.19" gradientTransform="matrix(1, -0.09, 0.09, 1, -997.56, 891.78)" gradientUnits="userSpaceOnUse"><stop offset="0" stop-color="#4b787a"/><stop offset="0.11" stop-color="#466e70"/><stop offset="0.45" stop-color="#395757"/><stop offset="0.75" stop-color="#314947"/><stop offset="1" stop-color="#2e4442"/></linearGradient><linearGradient id="linear-gradient-8" x1="1147.31" y1="5959.31" x2="1147.31" y2="6501.9" gradientTransform="matrix(1, -0.09, 0.09, 1, -997.56, 891.78)" gradientUnits="userSpaceOnUse"><stop offset="0" stop-color="#4b787a"/><stop offset="0.25" stop-color="#477173"/><stop offset="0.62" stop-color="#3d5e5e"/><stop offset="1" stop-color="#2e4442"/></linearGradient><linearGradient id="linear-gradient-9" x1="1343.26" y1="6447.84" x2="1553.9" y2="6447.84" gradientUnits="userSpaceOnUse"><stop offset="0" stop-color="#2e4442"/><stop offset="0.3" stop-color="#2f4745"/><stop offset="0.51" stop-color="#344f4e"/><stop offset="0.69" stop-color="#3c5d5d"/><stop offset="0.85" stop-color="#477273"/><stop offset="0.9" stop-color="#4b787a"/></linearGradient><linearGradient id="linear-gradient-10" x1="7482.77" y1="6791.12" x2="7482.77" y2="4689.53" gradientUnits="userSpaceOnUse"><stop offset="0" stop-color="#c38253"/><stop offset="0.33" stop-color="#d0996b"/><stop offset="0.74" stop-color="#dcb083"/><stop offset="1" stop-color="#e1b98c"/></linearGradient><linearGradient id="linear-gradient-11" x1="4604.84" y1="6718.53" x2="4604.84" y2="4640.17" gradientUnits="userSpaceOnUse"><stop offset="0" stop-color="#333"/><stop offset="0.08" stop-color="#373635"/><stop offset="0.65" stop-color="#4f4b42"/><stop offset="1" stop-color="#585347"/></linearGradient><linearGradient id="linear-gradient-12" x1="4252.73" y1="6386.96" x2="5196.47" y2="6386.96" gradientTransform="translate(3888.63 -2792.05) rotate(18.75)" gradientUnits="userSpaceOnUse"><stop offset="0" stop-color="#724d5b"/><stop offset="0.14" stop-color="#835861"/><stop offset="0.52" stop-color="#aa7170"/><stop offset="0.82" stop-color="#c2807a"/><stop offset="1" stop-color="#cb867d"/></linearGradient><linearGradient id="linear-gradient-13" x1="8150.91" y1="3914.64" x2="9167.42" y2="3914.64" gradientTransform="translate(-3663.03 5693.1) rotate(-26.67)" xlink:href="#linear-gradient-12"/><linearGradient id="linear-gradient-14" x1="9035.69" y1="4252.62" x2="10642.44" y2="7035.59" gradientTransform="translate(-931.42 1068.69) rotate(-5.23)" gradientUnits="userSpaceOnUse"><stop offset="0.11" stop-color="#cb867d"/><stop offset="0.31" stop-color="#bd7d78"/><stop offset="0.66" stop-color="#9a666a"/><stop offset="1" stop-color="#724d5b"/></linearGradient></defs><title>kambarys</title><g id="Layer_2" data-name="Layer 2"><g id="Layer_1-2" data-name="Layer 1"><polygon class="cls-1" points="497.32 3331.15 496.59 3335.05 496.59 3330.91 497.32 3331.15"/><polygon class="cls-1" points="497.32 3331.15 496.59 3335.05 496.59 3330.91 497.32 3331.15"/><polygon class="cls-2" points="497.32 3331.15 496.59 3335.05 496.59 3330.91 497.32 3331.15"/><polygon class="cls-3" points="15324.35 0 14605.49 283.35 13692.77 643.03 13674.48 652.29 13626.68 652.05 6028.15 625.96 6014.25 622.79 5989.87 617.42 5530.46 515.01 4525.56 291.16 3377.04 35.36 3221.71 0.73 3393.62 0.73 15320.69 0 15324.35 0"/><path class="cls-4" d="M13628.9,639.87l-2.2,1-.1,0L13622,643l-.48.24L6014.24,622.8h-34.86L5530.46,515,3386.55.72H3299l-2-.48L0,0V8073.79l.24-.24,1698.9-897.36.14-.07,77.4-40.9,1,2h1585.5l5.62-2.68L4524,6590.55h0l.07-.06,1945.42-916.15,13.91-6.58L9760,5681.16h4l388.34,1.48,482.07,1.95,126.4.45,15.74.07,51.25.2,2728.65,11.21,3,1.3.41.18h1l24.61,7.78L15324.37,6598V0ZM11202.37,3686.72V1683h1227.76V3686.72ZM10811.21,1683V3686.72H9599.53V1683Z"/><polygon class="cls-5" points="15324.49 6595.8 15324.49 8604.37 0.13 8604.37 0.13 8071.56 1776.8 7132.99 1777.78 7134.94 3363.28 7134.94 6469.65 5672.1 6483.55 5665.52 13628.12 5698.14 13628.12 5698.14 15324.49 6595.8"/><rect class="cls-6" x="10811.26" y="1413.83" width="391.13" height="0.49"/><path class="cls-6" d="M9343.75,1414.33V3928.89h3342.4V1414.33Zm3086.38,2272.39H11202.37V1683h1227.76Zm-1618.92,0H9599.53V1683h1211.68Z"/><line class="cls-7" x1="11005.7" y1="1412.62" x2="11005.7" y2="3934.82"/><path class="cls-8" d="M9492.22,1796.44l36.7.08,99,.23,147.34.34,178.52.42,196.87.46,197.37.46,185.3.43,155.53.36,112.61.27c17.67,0,35.34.16,53,.12h2.31a125.09,125.09,0,0,0,118.44-79.67,97.61,97.61,0,0,0,11.17-49.94l-4.63-34.45a129.5,129.5,0,0,0-33.33-57.19c-25.39-23.31-56.5-37.88-91.65-38l-36.7-.09-99-.23-147.34-.34-178.53-.42-196.86-.46-197.38-.46-185.29-.43-155.53-.36-112.62-.26c-17.66,0-35.33-.16-53-.13h-2.32a125.13,125.13,0,0,0-118.44,79.67,97.67,97.67,0,0,0-11.16,49.93l4.63,34.45a129.5,129.5,0,0,0,33.33,57.19c25.39,23.31,56.5,37.88,91.64,38Z"/><path class="cls-8" d="M11160.46,1796.44l36.7.08,99,.23,147.33.34,178.53.42,196.86.46,197.38.46,185.29.43,155.54.36,112.61.27c17.67,0,35.33.16,53,.12h2.32a125.13,125.13,0,0,0,118.44-79.67,97.6,97.6,0,0,0,11.16-49.94l-4.63-34.45a129.4,129.4,0,0,0-33.33-57.19c-25.39-23.31-56.5-37.88-91.64-38l-36.7-.09-99-.23-147.33-.34-178.53-.42-196.87-.46-197.37-.46-185.29-.43-155.54-.36-112.61-.26c-17.67,0-35.34-.16-53-.13h-2.32A125.13,125.13,0,0,0,11042,1616.9a97.46,97.46,0,0,0-11.16,49.93l4.63,34.45a129.31,129.31,0,0,0,33.33,57.19c25.39,23.31,56.5,37.88,91.64,38Z"/><line class="cls-9" x1="13626.58" y1="637.82" x2="13626.5" y2="5698.34"/><line class="cls-9" x1="5982.6" y1="619.03" x2="5968.46" y2="3983.75"/><polyline class="cls-9" points="3377.01 2.07 3377.01 2.07 3377.01 1.47 3377.04 19.27 3377.04 35.36 3371.43 4850.13 3371.43 4850.37 3371.43 4855.01 3371.43 4914.02 3371.43 4914.26 3371.43 4920.36 3371.43 4922.31 3368.75 7132.54 3368.75 7134.49"/><line class="cls-9" x1="1771.56" y1="0.56" x2="1768.76" y2="7115.51"/><polygon class="cls-10" points="15326.61 684.84 15326.36 1196.67 15324.66 5850.26 15324.42 6595.95 13959.84 5875.62 13956.67 983.79 15326.61 684.84"/><circle class="cls-11" cx="14141.39" cy="3842.65" r="121.92"/><polygon class="cls-12" points="3378.17 4850.84 0.02 6855.18 0.24 5451.07 1759.87 4721.2 3378.17 4850.84"/><rect class="cls-13" x="1691.48" y="5771.51" width="152.67" height="1421.74"/><rect class="cls-14" x="2878.41" y="5100.13" width="152.67" height="2161.23"/><rect class="cls-12" x="2740.63" y="4850.13" width="634.68" height="70.35"/><rect class="cls-12" x="401.54" y="5613.01" width="3153.95" height="83.13" transform="translate(-2510.26 1687.26) rotate(-29.24)"/><line class="cls-15" x1="6354.32" y1="3998.95" x2="4924.77" y2="4721.55"/><line class="cls-15" x1="4258.07" y1="4638.38" x2="4924.77" y2="4721.55"/><line class="cls-15" x1="4919.41" y1="5665.94" x2="4924.77" y2="4721.55"/><line class="cls-15" x1="3376.73" y1="4851.22" x2="1.62" y2="6768.61"/><path class="cls-16" d="M2439.93,5620.71c-11.56-26.95-20.6-56.1-46.51-72.31-4-2.51-7.19-6.51-7.91-7.16-24.3-10.69-46.08-6-67.77-4.15-16.17,1.38-32.47,1-47.79,9.6-6.11,3.45-14.7,1.73-22.16,2.34-8.4.71-17.33,3.7-25,1.5s-9.82,10-18.84,4.67c-4.81-2.86-14.07,3.9-21.49,5.29s-14.91,1.41-22.36,2.05c-48.47,4.07-97,7.18-145.36,12.56-38.18,4.24-76.16,4.32-113.62-3.51-17.46-3.67-34.21-2.61-51.34-1.26-15.87,1.26-33.22,7.75-47.19,2.85-22.47-7.9-44.23,1.75-66.77-4.31-26.75-7.24-53.51,9.67-80.84,11.95-2.15.19-3.76,4.31-6.12,5.4-49.63,23.26-89.4,53.35-119.45,92.46-13.45,17.49-27.42,35.13-37.49,54.88-12.37,24.19-27.74,46.5-37.29,72.54-18.94,51.59-39.83,102.35-58,154.27-6.7,19.21-14.31,39-17.65,58.71-3.07,18.16-13.47,32.48-15.33,51.26-1.78,18.08-11.59,35.13-17.48,52.82-3.49,10.6-6.45,21.42-9.24,32.26-6.43,25.37-12.08,51-19,76.22-6.46,23.37-13.75,46.47-21.37,69.43-7.7,23.11-9.37,47.72-16.84,71.06a584.49,584.49,0,0,0-20.5,87.43c-4.83,30.86-15.3,59.88-20.54,90.66-5.79,34-16.85,67-25.33,99.35-5.46-1.1-10.38-3.17-15.12-2.8-17.11,1.28-33.79,3.47-50.61,9.41-20.77,7.35-41.75,13.87-62,23-52.08,23.41-104.28,46.42-156.41,69.56-8.48,13.46-23.22,7.1-34.76,12.58-26.38,12.55-52.66,28-82.91,27.94-1.88,0-4.76-.49-5.44.59-6.58,10-16.79,6-25.35,8.19-7.77,2-15.63-.37-23.72,5.36-6.94,4.93-17.73,3.05-26.66,5-12.22,2.67-24.69-.48-37,8.07-7.36,5.12-20.48.38-34.42,0-.3.19-5.4,5.36-7.7,4.15-10.65-5.5-19.57,1.83-29.11,3.15-24.32,3.39-48.84,1.82-73.09,11-17.93,6.77-38.93,3.5-58.37,6.16-18.79,2.59-37.25,7.91-56,10.37-22.28,2.89-44.82,3.23-67.07,6.12-22.49,2.91-44.83,7.4-67.14,11.74-4.09.76-7.69,4.24-11.63,6.06-13.55,6.29-27.18,12.37-43.27,19.68-6.69,11.15-13.68,25.12-22.83,37.2-9.56,12.64-8.37,28.94-14.9,42.23-8,16.44-3.08,33.26-1.57,49.62,1.45,15.36-3.61,32.59,8.48,45.7-4.31,18.12,16.71,25.22,14.78,41.31,25.3,25.41,53.6,42.88,84.59,57,39.75,18.12,82.31,22.47,124.49,34.68-.44,22.15-.91,44.65-1.38,67.15-10.37,9.61-1.5,23.93-7.85,35.95-5.24,9.83-.1,25.72-4.41,36.62-8.24,20.85-7.51,43.2-10.14,64.35-2.74,21.7-6.38,43.55-8.28,65.51-1.82,20.94-2.83,42.24-7.18,62.63a333.27,333.27,0,0,0-6.9,53.78c-.81,17.54,1.75,36.09-2.69,52.4-7.72,28.52-2.08,58.09-9.43,86.51-2.77,10.64.26,22.52-2.89,34.49-3,11.49-.87,24.52-3,37.36-4.42,26.52-3.5,54-6.63,80.82-1.7,14.59-4.71,28.84-2.15,43.59-10.8,12-.63,26.66-4.27,39.94a208,208,0,0,0-6.54,42.06c-1.27,21.54-.92,43.21-1.23,64.81-.06,2.93.89,6.63-.37,8.67-10.6,16.95,5.81,37.53-6.72,52.29,3.53,6.29,6.23,11.13,9.35,16.71,8.8,1.86,18.21,3.85,22.66,4.77l19.2-16.1c-.58-7.92-2.78-14-1-17.89,11.39-25.07,15.54-52.13,18.93-79.23,2.82-22.65,11.12-43.5,15.73-65.58,10.3-49.58,21.93-98.85,32.85-148.3,11.76-53.08,21.62-106.79,35.46-159.24,17.15-65.19,24.71-133,46.57-196.77-1.36-27.28,19.77-49.67,12.07-77.8,25.48-4.29,49.55-1.61,72-12.49,14.91-7.25,30.18,3.55,45.54,2.1,33.53-3.14,67.18-4.9,100.64-8.82,33.67-3.93,67.39-4.57,101-12.9,26.76-6.64,55.84-11.43,84.65-3.11,10.22,3,22.35-.45,33.36-2.43,10.44-1.83,20.53-7.76,30.87-8.11,52.75-1.75,104.38-13.34,156.62-19.65,2.77-.35,6.29.61,8.27-.88,19.91-15,42.78-5.47,66.41-12.8-2.49,30.15,5.42,55.59,9.66,81.72,6,37.22,1.71,75.75,13.44,112.6,6.18,19.5,0,41.83,8.19,61.9,8.08,19.8,4.84,42,11.33,63.05,7.3,23.78,4.32,50.62,11.46,75.85,5.72,20.32,5.17,42.49,9.86,63.89,6.48,29.61,5.56,60.85,12.5,91.13,6.77,29.64,4,60.91,11.8,91.36,7.2,28.21,4.52,58.88,12.29,88.07,6.26,23.44,3.11,48.7,10.44,73.16,6.62,21.93,5.69,46.42,10.76,69.8,7.3,33.66,1.55,69.9,13.84,103.17-1.84,34.33,13.87,65.74,12.55,99,19.54,11.46,37.94,5,55.16,3.78,1.93-12,5.1-21.47,4.67-30.75-1.47-31.44-4.17-62.82-6.42-94.24s-5.2-62.77-6.5-94.23c-1.19-29,.32-58.12-1-87.09-1.74-37.54-5.4-75-7.6-112.48-.55-9.37,1.36-18.92,1.88-25.51-1.42-7.39-4.52-15.74-3-16.86,7.59-5.71-4.73-8.15-1-13.81,2.7-4.11,2.55-11.13,2.23-16.78-3-54.83-11.26-109.5-4.32-161.52,5.53-7.1,10.16-12.41,14-18.28,2.25-3.37,7.85-39.18,8.26-44.43,1.38-18.07,4.93-36,6.53-53.74,2.38-25.81,11.89-49.68,12.93-75.82.8-19.45,9.74-38.52,10.73-58,1.25-24.12,10.53-47,7.86-71.59-.77-7.17,3.14-14.76,3.53-22.25.4-8-3.36-17.3-.79-24,6-15.65,4.17-32.08,6.74-48,2.74-17.05,2.47-34.73,3.65-54.39,16.95.93,33.07-6.76,49.54-9.08,65.08-9.05,131.07-8.14,195.82-22.71,36.72-8.27,75-8.41,111.59-17.16a552,552,0,0,1,56.17-9.92c3.25-.46,6.23-3.09,9.39-4.64,1.52-.76,65.88-9.17,67.53-9.21,11-.41,24.06,2.9,32.68-2.29,12.26-7.42,24.59-5.89,36.86-8.28,12.93-2.5,25.83-5,39-7.6,11.56,26.89,24.76,53.45,38.16,79.54,8.55,16.62,7.36,38.12,22.56,50.78.54,19.39,14.9,31.69,21.23,48.35,15.43,40.8,34,80.19,50.26,120.65,8.07,20,20.81,37.24,28.81,56.73,18.37,44.75,42.89,85.81,62.66,129.68,13.64,30.32,33.47,56.95,46.11,88.3,8.14,20.11,19.42,39.52,44,40.1,5.3-3.09,10.67-6.19,17.19-10-.23-13.91-3.72-25.14-7.49-36.53-7.65-23.17-15.66-46.44-21.75-70-9.94-38.51-28.35-73-40-110.82-7.34-23.92-15.22-48.39-25.07-71.27-9.45-21.92-12.6-45.47-20.95-67.4-2.32-6.08-6.19-12.05-6.59-18.29-.83-12.51-4.58-22.71-13.26-30.57-1.51-32.51-18.36-59.85-25.49-90.61-6.87-29.76-19.24-58.75-33.22-85.58-14.33-27.48-18.08-58.65-32.35-86.51-13.61-26.58-20.08-58.38-30.74-87.27-10.48-28.47-26.42-54.59-33.9-83.69,13.07-9.85,24.48-18.47,37.77-28.5,3.46-9.62,5.05-25.2,13.08-32.94,7-6.74,7.71-16.27,14.79-22.27s12.22-14.89,17.07-23.3A156.85,156.85,0,0,0,2246.4,6810c9.06-25.4,21.42-49.31,26.71-76.45,4.69-23.88,13.08-47,16.77-71,3.89-25.27,13.54-49.47,12.3-75.69,17.37-51.34,15.06-106.74,27.7-159-2.55-28.34,9.38-55.6,5.25-84,8.95-13.41,1.35-28.71,4.18-42.94a637,637,0,0,0,12.08-123.08c0-5.09-2.76-11.81-.66-14.91,7-10.37,2.52-21.11,3.14-31.66s2.6-20.9,3.16-31.42c1-17.74-5.73-35.24-.18-53.42,5.4-17.7-5.78-37.22,3.83-54.91-4.06-28.69-1-57.39-.88-86.11.08-23.27-2.53-46.65-4.78-69.87-1.21-12.19-4.21-24.16-5.88-33.38,9.33-10.94,16.71-22.72,26.65-30.68,27-21.62,45.54-49.09,55.14-83.86,4-14.42,8.89-28.58,11.54-43.27A43.88,43.88,0,0,0,2439.93,5620.71Zm-2196,1464.15c-9.61-26.46-16.59-53.5-17.12-82.18-.06-4-.56-8.1-.83-12.19,3.86-9.38,7.56-16.07,9.38-23.29,2.3-9.12,3.06-18.72,5-31.06,24.72-28.3,56-49.88,95.09-51.39,60.24-2.3,119-17.11,179-21.61,26.87-12.62,56.75-5.9,83.73-14,45.28-13.54,91.61-10.65,137.31-16.44,10.17-1.3,18.82-5.17,28-8.76,8.33-3.24,17.19.34,26.23-6.37,10.61-7.87,27-.45,38.12-11.42,39.74-8.58,77.23-24.87,114.82-40.51,24.29-10.1,48.9-19.79,72.64-31.12,35.67-17,71.37-34.19,107.78-48.95a199.1,199.1,0,0,1,85.54-14.48h0c-1.26,6.35-2.44,12.69-3.6,19.06s-2.26,12.76-3.47,19.1c-2.4,12.68-5,25.33-8.55,37.62-7.27,25.3-10.37,51.81-18.25,76.46s-10.43,50.09-14.15,74.71c-4,26.19-16.66,52.52-4.51,83.24-18.68-10.48-33-22.29-49-26.49-16.76-4.37-33.54-14.23-52-8.75-18.74-15.44-32.31,9.22-49.84,3.4l.6,6.87c11.82-1,23.68-1.46,35.41-3.1,24.56-3.38,46.18,10.7,69.73,13.05,12.15,12.44,27.86,20.34,38.85,38.08,1.46,20.42.43,44.36,5.54,66.6,5,21.75,7.07,45,20.37,64.41,11.88,17.34,9.92,42.85,30.69,55.85l-56.57,28.2c-14.48,1.21-36.16,1.46-57.23,5.39-13.36,2.5-24.66-4.5-37.37-3.88-11.4.51-22.86,6.27-34.86-2.2-5-3.5-14.53.4-22,1.26-20.66,2.31-40.84-.23-60.84-6.18-3.38-1-7.28.25-10.87-.14-9.68-1-19.07,4.66-29.4-2.5-7.66-5.31-18.2,1-28.82-3.48-13.47-5.71-30.24-1.22-45.15-3.89-34.31-6.18-69.66,2.36-103.51-9.2-2.48-.85-5.54.41-8.33.57-13.46.69-26.45,2.22-40.28-2-11.54-3.52-25.14,4.91-37-3.73-18.18,5.95-36-1.66-54.05-2.2-14.63-.44-29.81-5.19-44.16-5.78-34.65-1.47-66.83-16-101.12-18.53-15.35-1.15-30.45-7-45.58-11.2s-30.06-8.78-45-13.49c-24.89-7.83-50-15.18-74.51-24.21C252.58,7107.74,250.94,7104.2,243.94,7084.86Zm952.86,130.61c.12,2,.26,4.05.41,6.08-.6,0-1.23.09-1.86.16-.15-2-.3-4.05-.42-6.08C1195.54,7215.57,1196.17,7215.5,1196.8,7215.47Zm-25.38,13.82-1.94.57c-2.16,5.09-4.77,6-7.42,6.45l-.65.13c-.26-1.32-.52-2.62-.77-3.91,2.95-.87,5.88-1.77,8.84-2.67a30.5,30.5,0,0,0,1.62-4.9c.19,1.83.38,3.69.57,5.53,1-.23,1.9-.42,2.86-.64,3.32-5,7-6.19,10.79-6.83.69-.1,1.4-.17,2.09-.28.17,1.34.37,2.7.58,4l-13.46,3.08a26.85,26.85,0,0,0-2.51,4.68C1171.81,7232.8,1171.63,7231,1171.42,7229.29Zm-16.67,12.23c-4.84,1.16-9.68,2.35-14.52,3.53-.3-1.79-.57-3.58-.87-5.34,5-.41,9.89-.86,14.86-1.27C1154.39,7239.45,1154.57,7240.5,1154.75,7241.52Zm-61.39-3.58c.05,1,.11,2,.2,3q-16.77,1.44-33.56,2.82c-.08-1-.14-2-.23-3C1071,7239.81,1082.17,7238.87,1093.36,7237.94Zm-45.52-2.79c-14.07,8.29-23.19,6.15-32.38,2.73Zm-45.91-2.28c-9.64,8.4-20.69,5.58-31.6,2.68Zm-44-2.69c-17.35,9.13-26.62,9.55-38.24,3.21-9.8-.41-18.84,1.21-28,.42a8.67,8.67,0,0,1-.87-.06,42.74,42.74,0,0,1-7.19-1.27,37.41,37.41,0,0,1-5.15-1.77c-11.07-4.67-24.57,5.83-37.06-3.22-3.64-2.64-10.85,1.15-16.37.77-12.52-.78-24.9,6.33-37.66-.83-11.24-6.32-23.71,1.84-36.89-3.56-11-4.48-26-1.34-39.37-3.83-14.77-2.75-30-2.47-45-3.82-.9-.09-1.57-3.13-2.32-4.82-6.68,0-13.31.46-20.6,1-2.44.19-5,.42-7.66.63,16-8.39,16-8.39,27.1-2.28,10.28,1.27,19.84-1.51,29.6-1.19a.33.33,0,0,0,.17,0,33.91,33.91,0,0,1,5.63.62c.47.07,1,.18,1.45.29s.94.21,1.41.35,1,.28,1.46.45.95.31,1.46.51a12.66,12.66,0,0,1,1.44.61c.51.2,1,.43,1.47.66,11.41,5.64,26.7-6.95,39.54,3.5,1.12.89,3.62-.31,5.46-.31,23.47,0,47.17-2.21,70.31.81s47,3.62,69.88,10.43c5.87,1.75,12.72-.59,19,.05,2.65.27,5.06,3.38,7.62,5.22,11-.32,22-1.17,34.11-2.16Zm-335.26-27.76.46,5.29-20.42,1.72c-.17-1.27-.33-2.51-.5-3.75Q612.44,7204.06,622.64,7202.42Zm-39,2.47-9.29.77c-.2-1-.43-1.91-.63-2.86,3-1,6-2.09,9-3.12C583,7201.41,583.32,7203.13,583.65,7204.89Zm-28.41-3.74-14.83,1.24c-.17-1-.35-2-.52-3.05,4.83-1.19,9.64-2.34,14.48-3.53C554.67,7197.6,555,7199.36,555.24,7201.15Zm-33.34-6.33c.06.68.11,1.33.14,2l-5.59.48c0-.69-.09-1.37-.15-2Zm-22.79-4.19c0,.65.09,1.34.15,2-1.87.16-3.73.32-5.6.45-.05-.65-.11-1.34-.14-2C495.38,7191,497.25,7190.79,499.11,7190.63Zm-17.5-5.93c-8.89,6.41-8.89,6.41-15.75,1.31-6.07-1-11.2-.55-17.54,0,8.89-6.44,8.89-6.44,15.75-1.34C470.13,7185.66,475.27,7185.23,481.61,7184.7Zm-185.08-46.34c-.6.06-1.23.09-1.86.16-.12-2-.27-4.06-.41-6.08l1.86-.16Q296.34,7135.31,296.53,7138.36Zm72.09,25.27c-7.71-.37-19.74-3.4-31.43-7.6a.15.15,0,0,0-.12-.05c-1.19-.41-2.35-.82-3.52-1.27-.36-.15-.72-.3-1.07-.42-1.17-.45-2.34-.89-3.48-1.37-2.66-1.11-5.25-2.23-7.69-3.39-1.23-.56-2.41-1.16-3.56-1.74-2.48-1.28-4.76-2.55-6.74-3.79-.47,0-1,0-1.44,0,.18-.21.33-.44.52-.65,0,0,0,0-.06,0a12.24,12.24,0,0,1-4-2.14c-.44-.33-.9-.69-1.34-1.05.55-.69,1.1-1.37,1.64-2.06,1.41,1.56,2.82,3.11,4.25,4.65-.15.21-.31.38-.47.59l0,0c.3.22.61.41.92.63,17-.5,32.62,3.36,46.81,12a92.32,92.32,0,0,1,9.88,7,89.74,89.74,0,0,0,12.05-.26h.09l4.5-.37C375.48,7168.74,375.48,7168.74,368.62,7163.63Zm33.39,7.12-11.19,1c-.06-1-.12-2-.2-3.05,3.73-.29,7.45-.61,11.18-.93C401.89,7168.72,402,7169.75,402,7170.75Zm23.84,6.4c-5.33-.89-9.91-.64-15.24-.22-.75.08-1.52.13-2.33.21,8.89-6.44,8.89-6.44,15.75-1.34a59.89,59.89,0,0,0,15.25.22c.74-.07,1.52-.12,2.32-.2C432.71,7182.26,432.71,7182.26,425.85,7177.15Zm99.08,280.12c-4.11,46.36-20.18,89.81-27.75,135.24C493.59,7614,484,7634,482.33,7655.24c-1.68,22.25-8.7,42.53-13.36,63.58-7.13,32-15.73,63.57-22.29,95.81-11.36,56-24.72,111.59-37.55,167.3-5.24,22.8-14.76,45.17-15.92,68.11-1.24,24.5-13.09,45.44-14.21,69.39-.15,3.22-4.55,6.18-9.13,12,.16-20.74,1.72-38.74,3-56.7.35-4.66,2.35-9.23,2.47-13.89.6-21.57-.69-43.35,1.52-64.75,2.28-21.93,3.65-44.36,7.56-65.52,3.14-17,2-34.21,5-51.17,3.31-18.43,5.73-37.8,7.27-56.55,1.33-16.24,1.09-33.3,3.7-49.4,4.94-30.27-1.28-61.85,9.95-91.17-5.29-27.56,7.79-53.24,6.49-81.06-1-21.41,7.44-43.31,5.55-65.72,11.72-14.08,1-31.66,6.5-48.12,4.76-14,4.62-32.19,4.51-49.07-.15-22.69.95-46.54,6-68.63,6.23-27.59,4.46-56.58,15.15-83.52,3.9-9.88-.95-23.86-1.77-35.24,12.91-18.28,26.48-18.39,42.12-13.28,15.17,4.94,23.08,17.5,31,30.63C519,7307.41,512,7347,504.54,7389.72c.11.27,3.08,4.14,3.47,8.28a34.58,34.58,0,0,0,8.63,20.84C525.15,7429,535.49,7441.17,524.93,7457.27Zm634.64-145.72c-45.51,10.87-91.91,8.23-137,17.42-20.53,4.18-41,10.27-61.66,9.66-16.1-.47-32.48-5.7-48.35-1.15-60.51,17.41-123,14.38-184.46,21.08-62.22,6.77-124.71,10.85-187.09,16.1-5.42.43-10.84.89-17.07,1.41,2.48-19.35,1.07-38.89,7.93-54,7.71-16.9-6.24-36.41,10.11-51.72,19.18.88,39.36-2.29,60.58-.42s43.22,6,65,2.48c11.54-1.88,22.08,6.71,34.49,3.52,11.16-2.85,22.67-.42,34.48,1.79,20.23,3.79,41.45.95,62.21,2a398.46,398.46,0,0,1,67.79,9.76c2.53.59,5.07,2.12,7.54,2,14-.94,27.93-3,41.9-3.18,12.38-.14,25.2,4.35,37.15,2.24,32.07-5.65,64.07,2.48,95.93-1.61,8.54-1.1,15.28,10.9,25.19,2,6.81-6.07,15.65,2.82,24.26.45,8.91-2.45,18.6-1.41,27.8-2.86,12.32-1.89,25.29,1.14,36.73-8.55,4.31-3.61,13.36-3.82,19.06-1.74,21.46,7.85,44.69-2.8,67.92,10.51C1219,7298.82,1189.15,7304.46,1159.57,7311.55Zm52.14-97.33q-.21-3-.44-6.08c.63-.07,1.23-.13,1.86-.16l.45,6.08C1212.94,7214.09,1212.31,7214.15,1211.71,7214.22Zm178.77,159.69c.66,37.52,8,75.05,7,112.39-2.39,89,13.46,176.88,12.58,265.24-.62,62.65,10.61,124.29,8,186.23-2.49,59.7,9.06,118.27,6.9,177.15-1.54,42.33,2.21,83.77,4.52,125.55,2.32,42.59,5.9,85.05,8.88,127.58a15.82,15.82,0,0,1-.49,4.26l-13.91-5.13c3.82-6.46,5.69-9.57,7.5-12.65-1.85-2-5.13-3.86-5.51-6.24-4.08-26.27-7.42-52.72-11.58-79-2.26-14.31-6.37-28.27-8.34-42.6-1.94-14,.91-29.8-4-42.14-6.47-16.23-4-33.47-8.87-48.79-8-25-4.52-51.92-11.52-75.85-7.41-25.45-7.4-50.89-9.71-76.37-1.43-15.77-10.38-29-9.6-45.58.76-16.09,1.44-33.84-3.83-48.25-8.46-23.15-6.36-46.92-10-70.22-1.91-12.3-6.1-24.21-7.87-36.56-1.88-13,1.1-27.9-3.72-39.09-9-21-5.28-43.13-9.74-64.12-6.55-31.11-11-62.4-12.08-94.28-11.56-17.59-6.64-38.48-9.77-57.75-3.26-20.26-7.42-40.44-9.74-60.83-2.51-22.13-3.39-44.52-5-66.78-1.5-21.26.17-43.57-5.35-63.51-6.48-23.29-7.49-46.55-9.73-68.93l20.11-17.61,58.71-5c7.36,3.95,13.63,7.3,19.21,10.27,1.28,2.79,2.67,4.44,2.76,6.15C1378.29,7299.36,1389.77,7335.64,1390.48,7373.91Zm48.8,339.92c-4.87-13.16-4.09-27.46-5.38-41.3-1.5-16.18-2.39-32.41-3.54-48.62-1.09-15.18-1.73-30.44-3.36-45.57-1.72-15.77.36-31,1.86-46.63,1.45-14.91-2.35-30.34-2.49-45.53-.14-15.53,1-31.06,2.18-46.57,1.11-14.21,3-28.35,4.57-43.46,7,2.39,13.43,3.21,18.34,6.59,7,4.87,13,11.64,21.44,19.53C1462.5,7518.26,1448.67,7615.55,1439.28,7713.83Zm33.06-445.68c-9.37,15.53-20.15,30.05-29.77,45.42-8.39,13.42-16,27.42-25.17,43.34-2.1-16.45-2.6-32.17-3.81-47.74-1.28-16-2.33-32-3.42-47.6,14.56-13.9,36.62-19.66,72.86-18.92C1479.34,7251.66,1476.85,7260.65,1472.34,7268.15Zm640.17-105.06-11.74-5.77c-3.65,2.45-7.35,7.14-11,7.07-35.19-.68-68.36,13.56-103.3,15.71-30,1.86-60.47,5.34-89.14,14.23-18.85,5.86-38.18,4.17-56,10.34-21.26,7.36-43.87,4.82-64.19,11.72-36.88,12.46-74.76,9.38-112,14.47-22.21,3-45.9-.27-66.69,6.86-29.71,10.21-59.94,7.76-89.68,12.58-2.6.42-5.3-.05-7.38-.09-2.84-5.42-5.3-10.13-8.46-16.15,21.4-8.17,42.71-16.23,64-24.48,13.08-5.11,26.33-9.86,39.4-14.75,19-7.14,39-12.52,58.25-18.81,40.21-13.05,82.89-17.66,120.73-39.36,3-1.75,7.25-1.31,10.94-1.37,24.59-.33,45.72-14.16,68.68-20.85,18.46-5.35,36.29-13.34,54.39-20.13,9.07-3.38,18.53-5.83,27.1-10.29,12.82-6.69,25.85-11,39.88-14.47,21.86-5.42,42.69-15.82,63.94-24.22,6.57-2.59,13-5.46,24-10.07,1.4-1.9,4.26-5.84,7.36-10,17.6,16.91,30.22,36.15,29.91,56.81,10.72,26.5,19.38,48,28,69.28Zm61.87-84.52c5.59,25.33,18.2,48.78,26.93,73.38,12.24,34.35,22.83,69.43,35.88,103.42,16.36,42.59,31,86,46.94,128.72,11.38,30.48,23.57,61,33.4,92.21,9.58,30.45,21.62,59.8,31.61,90q18.59,56.18,37.34,112.25c7.51,22.56,11.55,47.71,25.84,67.78,1.42,2,1.49,5.19,1.4,8.49,1.42,2,2.86,3.95,4.3,5.93l-4.82.69c.17.61.3,1.19.47,1.8,4.72,2.41,5.5,5.34,6,8.34a5.54,5.54,0,0,1,.12.71l-3.57.84-2.51-9.89a21.23,21.23,0,0,0-3.35-1.38c1.11-.18,2.25-.39,3.36-.56-.15-2,0-4.28,0-6.48-24.36-33.86-43.72-68.1-60.78-103.46-1.2-2.52-2.4-5-3.57-7.52-20.1-42.62-42.55-83.83-62.35-126.7-13.86-30.07-29.2-59.67-43.27-89.81-9.77-20.95-17.66-42.87-26.65-64.24-10.46-24.8-23.43-48.37-32.42-73.69-9.15-25.79-20.18-49.87-34.53-72.7-7.21-11.44-10.59-25.72-15.56-38.34,6.53-5.63,11.93-10.3,18.81-16.22-18.32-51.18-36.57-102.16-56.11-156.7,1.19-17.14,19.36-22.15,31.56-37.38C2143.6,7007.44,2165.71,7039.08,2174.38,7078.57Zm167.26-1195.69c-.73,13.51-2.5,27-2.49,40.51,0,13.16,5.27,27.62,1.77,39.19-5.25,17.31-.71,33.36-1.37,49.92-.48,11.51-2.31,22.94-3,34.43-.61,10.55,4.4,21.6-3.29,31.55-1.27,1.67-.12,6,.52,8.93,6.28,30.66-2.77,61.43.54,92.2,1,9.17-2.14,18.84-3.25,28.32-1.23,10.45-2.43,20.91-3.37,31.37-.88,9.51.84,18.31-2.58,28.74-4.89,14.92-1.89,32.73-3.32,49.2-1.94,22.85-3.21,46.09-8.28,68.18-1.86,8.11-1.06,15.37-2,22.92s-4.43,15.12-3.61,22.25c2.81,24.65-5,48-8.21,71.53-2.61,19.14-7.18,39.05-10.05,58.22-5.87,39.35-14.8,77.89-22.46,116.67-7.8,39.49-18.78,78.24-35.12,114.9-11.61,26-22.85,52.18-40.22,74.69-6.68,8.6-11,19.35-19.51,34.79-17.4,13.13-39.74,31.32-63.27,47.43-30.81,21.1-64.65,36.29-98.35,50.52-25.85,10.95-51.44,23.07-78,32.43-26.24,9.23-50.19,27.55-76.76,33.95-33.81,8.19-63.2,28.11-97,36.35-16.29,4-34,7.77-49.5,17.81-14.14,9.21-31.07,13.18-46.5,18.06-18.56,5.87-37.09,12.14-55.55,18.46-9.2,3.18-18.49,6-27.57,9.47-2.35.9-4.18,5.48-6.07,5.36-24.24-1.68-44,16.14-67.22,18.06-27.33,2.25-53.18,15.36-81.12,13-18.32,11.62-39.83,5.42-58.62,11.62-48.59,16-99,9.68-149.14,14.68,3.77-1.2,8.2-1.47,11.2-3.85,4.35-3.46,7.44-8.77,11.58-12.66,4-3.7,8.63-6.44,12.81-9.85s8.61-6.89,12.21-11.06c3.23-3.72,4.94-9,8.2-12.68,19.74-22.16,48.36-78.42,55.41-108.28,3-12.72,6.93-25.21,10.91-37.61,15.63-48.75,33-96.94,46.78-146.31,15.4-55,29-110.56,36.33-168,3.55-27.62,8.78-55.79,14.29-83.43,3.8-19.1,4.32-39.72,8.06-59.48,2.11-11.24.27-23.74,3.9-34.16,4.11-11.85-1.06-26.14,3.67-33.88,6.8-11.16-.67-23,7-33.85,4.78-6.75-3.89-21.12,4.23-30.68-4.2-31.38,13.28-59.87,10.39-91.1,10.9-8.21.62-22.1,8.1-33.05,5.43-8,2.15-22.45,4.26-33.69,1.9-10,6.28-19.48,8.82-29.42,2.78-10.9,5.92-21.93,6.77-33.07,2.47-32.44,16.56-61.68,20.83-93.27,2.33-17.1,8.62-32.73,10.79-49.65,2.06-15.85,4.09-32,12.83-45.79,1.44-42.19,20.63-79.9,26-121.15,1.2-9.07,6.3-17.54,10.62-29,28.28,16.87,58.66,20.38,87.36,29.42,25.08,8.32,51.09,3.1,76.94,7.29,21.65,3.48,44.63-2.43,67-4.63,30.11-3,60.13,3.68,90.44-1,29.56-4.58,59.59-5.47,89.42-8,30.77-2.6,61.57-4.58,92.24-8.08,14.16-1.58,28.05-6,42-9.4s28.11-.35,42.54-8.46c12.65-7.08,30.27-2.14,44.43-10.69,2-1.18,6.33,2.27,10.76,4,9.15-15.7,27.64-8.71,37.66-20.7,22.69-2.59,41.27-14.86,59-29.3,1.27-1,3.66-.44,5.78-.63C2335,5842.86,2342.81,5861.78,2341.64,5882.88ZM1225.8,7200.77a3.21,3.21,0,0,1,.53-.15c-.26-5,1.78-6.15,4.33-6.41a8.67,8.67,0,0,1,1.55-.06c1,0,1.94,0,2.85-.11a7.17,7.17,0,0,0,1.45-.27c.16,8.71-5.94,6-10.18,6.85a5.09,5.09,0,0,0,0,.66l-.56-.51h-.06a18.26,18.26,0,0,1-2.9,5.82c-.63-.59-1.29-1.18-1.92-1.78,1.43-1.53,2.85-3.09,4.28-4.61a5.1,5.1,0,0,1,.53.5Zm15.86-13.56c-.16-9.12,6.58-5.73,10.75-7C1252.59,7189.32,1245.83,7186,1241.66,7187.21Zm26.2-26.62,0,0a15.31,15.31,0,0,1,2.06-4.48c.28-.44.59-.88.87-1.32.63.6,1.26,1.19,1.89,1.76-1.4,1.55-2.83,3.08-4.25,4.64-.22-.2-.41-.36-.6-.56-1.27,1.63-2.57,3.27-3.85,4.88a23.74,23.74,0,0,0,3.26-5.42C1267.45,7160.22,1267.65,7160.42,1267.86,7160.59Zm10-19.27s0,0-.06,0a14.91,14.91,0,0,1-2,4.48c-.28.44-.59.88-.87,1.32-.63-.57-1.26-1.16-1.92-1.75,1.43-1.53,2.86-3.09,4.28-4.62.22.17.41.37.6.54l3.85-4.86a24.65,24.65,0,0,0-3.26,5.39A4.87,4.87,0,0,1,1277.83,7141.32Zm14.41-25.6a4,4,0,0,1,0-.6c.19.17.35.34.53.51h.09a18.52,18.52,0,0,1,2.9-5.79c.66.59,1.29,1.19,1.92,1.78-1.42,1.53-2.85,3.09-4.28,4.62-.18-.17-.34-.34-.53-.51l-.1-.09c-.17,0-.37.07-.51.09.31,4.17,2.7,9.11-.82,11.42a3.91,3.91,0,0,1-1.08.55,4.13,4.13,0,0,1-.65.22,10.46,10.46,0,0,1-1.59.35C1288.6,7123.72,1284.71,7117.18,1292.24,7115.72Zm7.2-12.86c-.15-2-.29-4.06-.44-6.08.6-.06,1.23-.13,1.86-.16l.45,6.08C1300.67,7102.73,1300,7102.79,1299.44,7102.86Zm9.89-19.2c-.15-2-.3-4.05-.44-6.08.63,0,1.23-.1,1.86-.16.15,2,.29,4.05.44,6.08C1310.56,7083.56,1309.93,7083.63,1309.33,7083.66Zm2.69-14.5c0-.66-.08-1.35-.14-2,1.86-.16,3.73-.29,5.59-.45.06.65.12,1.34.15,2Zm18.06-62.69c0-.65-.11-1.33-.14-2,1.86-.13,3.73-.29,5.59-.45,0,.66.09,1.34.15,2C1333.82,7006.19,1332,7006.35,1330.08,7006.47Zm3.92-21.09c1.58-.38,3.2-.74,4.79-1.09.23,3.37.47,6.73.73,10.1-.88.21-1.75.46-2.63.68C1335.92,6991.84,1335,6988.61,1334,6985.38Zm5.09-10.23c0-.69-.09-1.34-.15-2l5.59-.48c.06.68.12,1.37.15,2Zm212.6-1045.48c.68-.86,1.4-1.84,2.23-3-1.07.29-3.09-2.29-2.36-4.57a1,1,0,0,0,.11-.29,3.44,3.44,0,0,1,.83-1.09,3.17,3.17,0,0,1,.46-.36l.06,0a4.69,4.69,0,0,1,1-.55c.14,0,.25-.09.36-.13a5.61,5.61,0,0,1,.62-.19,2.29,2.29,0,0,1,.65-.16,7.49,7.49,0,0,1,.74-.14c1.72-6.17-6.27-15,4.3-18.71.51-4.67-3.6-11.41,4.73-12.61.62-1.17,1.09-2.09,1.55-2.77a30.19,30.19,0,0,1-2-5.79c-.19-.83,1.82-2.23,5.83-6.73a105.05,105.05,0,0,0-2.59,10.82c.56-.28.25,1.58-.12,3.62,0,.2-.08.42-.12.61-.11-.27-.22-.57-.33-.84-.74,4.75-1,8-1.89,10.18,0,0,0,0,0,0a4.8,4.8,0,0,1-3.43,3.12l-.56.15-1.08.21c-1.72,6.17,6.27,15-4.3,18.71-.49,4.32,3,10.37-3,12.27a13.32,13.32,0,0,1-1.73.37c0,11.08,1,23-1.41,33.24a40.38,40.38,0,0,1-2.21,6.83c-13.73,31.14-17.42,65.09-25.27,97.68-9.64,40-19.91,80-26.51,120.95-3.44,21.27-8.18,42.48-13.39,63.33-5.31,21.24-7.26,42.95-11.46,64.11-4.43,22.09-8.16,44.36-12.59,66.48-2.39,12-6.51,23.81-7.07,35.9-1.4,29.72-7.76,58.61-11,88-1.9,17-4.56,33.85-7.64,50.59-3.95,21.35-8.64,42.74-10.29,64.3-1.7,22-5,43.56-8.51,65.21-4.44,27.06-7.9,54.32-13.54,81.06-11.6,55-25.27,109.3-43.76,162.1-3.68,10.49-6.31,21.44-11,37.47-1.32-10.14-3.79-16-2.34-20.21,9.47-27.91,11-57.39,15.6-86.29,3.31-20.44,9.29-40.58,10.86-61.13a519.49,519.49,0,0,1,8.24-62.33c3.79-19.45,4.08-40.08,10.16-58.54,4.09-12.38-2.42-24.37,4.92-37.05,7-12.09,6.06-29.2,10.76-43.28,4.5-13.34.49-29.23,10.71-40.64,1.43-25.67,9-50.16,12.91-75.34s7.5-50.6,11.63-75.84c1.51-9.23,4.75-18.1,6.29-27.33,3.61-21.51,9.16-42.43,10.26-64.71.88-18.4,8-36.43,12.26-54.64,7.8-32.83,11.62-66.64,20.92-99.15,7.68-26.92,16-54,20-81.6,3.74-25.42,12.14-49.14,17.5-73.87,5.15-23.7,13-46.71,19.8-69.93C1547.12,5935.26,1548.64,5933.72,1551.69,5929.67Zm866.78-280.28c0-.13,0-.28-.06-.4a7.24,7.24,0,0,0-2.44,4.8c-1,45.82-30.55,87.89-65.18,109.54-24.8,15.49-49.42,31.08-76,42.64-17,7.4-34.25,13.88-51.57,20.28-15.74,5.8-31.55,11.63-47.63,16.11-15.63,4.34-32.67,4.36-47.26,11-16.71,7.58-34.4,4.79-50.51,10.21-39.47,13.23-80.26,11-120.44,15.47-40.92,4.52-82,7.58-123,10.29-11.37.76-23-1.75-34.44-3s-23.35,7.24-34.87-2.34c-2.8-2.32-9-.33-13.57.42-28,4.51-54.51-4.44-81.57-9.64a370.71,370.71,0,0,1-53-14.33c-16.69-5.88-30.09-16.78-43.59-26.39-17.27-12.29-17.64-35.11-12.72-55.9,7.22-30.6,20.65-57.77,43.24-80.47-3.69-.88-7.16-2.87-8.42-1.8-25.82,22-45.92,73.24-48.22,112.25-14.29-.22-9.16-15.92-15-23.25s-7.72-18.62-11.3-28.17c-1.61,1-3.22,2.12-4.83,3.16,7.1,23.17,7.89,48.59,23,69.3-15.61,31.09-43.5,48.59-67.17,71,29.28-14.1,58.07-28.58,74.31-58.32l20.74,14.82c-15.91,12.78-14.7,31.66-20.88,47.27-6,15.19-12,31-16.32,47.49-6.11,23.34-13.58,46.46-20.07,69.83-9.57,34.37-16.23,69.37-23.77,104.22-5.94,27.36-10.89,55.19-18.32,82.27-9.38,34.31-10.89,70.77-23.79,104.12,2.55,20.59-2.69,40.1-7,59.75-4,18.34-8.54,36.65-11.2,55.23-6.37,44.9-15.57,89-25,133.23-6.49,30.31-12.19,60.7-20.45,90.62-5.23,18.94-6.29,39.21-9.35,58.9q-6.35,40.64-12.88,81.33c-2.39,15-7,29.42-6.5,45.17.51,17.15-10.76,32.66-7.38,50.59-11.91,43.37-14.43,89.19-29.38,131.8-1.5,4.3.86,10.87-1.37,14.18-16.3,24.16-20.46,54.7-35.86,79.2-7.13,11.32-13.38,23.49-21.69,33.67-11.22,13.81-24,26.08-35.57,38.42-26.08-12.49-33.4-37.23-38.76-61.24-4.64-20.81-11.63-41.29-11.21-63.69s-4.23-44.59-3.91-66.86a341,341,0,0,1,6.74-62.65c4.71-23.21,7.78-46.61,11.8-69.88,3-17.49,7.72-34.74,13.1-51.59,10.28-32.3,13.29-66.34,21.07-99.17,8.59-36.4,18.51-72.4,28-108.54,2.13-8.1,7.24-16.13,7-24-.9-27.67,11.81-51.27,17.55-76.89,6.77-30.15,14.3-60.09,21.63-90.08,15.11-61.75,27.85-124.14,45.29-185.31,7.62-26.66,21-52.28,20.44-81.8-.11-5.95,5-11.88,7.16-18,6.72-19.34,16.45-38.3,18.87-58.27,2.45-20.32,14.15-36.31,15.75-57.11,1.24-15.95,11.19-31.39,18.34-46.51,6.78-14.35,7.2-30.82,15.31-45.12,7-12.44,8.26-28.58,13.62-42.38q17.7-45.63,37.17-90.46a198.41,198.41,0,0,1,17.68-32.22c18.14-26.95,34.85-54.61,59-77,18.94-17.49,36.94-36.33,57.68-51.31,31.59-22.84,67.45-30.08,104.72-30.8,16.83,9.48,34.15,1.38,51.23,1.79,11.09.24,24.39,4.72,32.76-.38,12.13-7.37,19.47,7.26,30.94,2,10.62-4.9,24.72-6.16,35.83-3,11.94,3.42,23.1,3.47,34.66,2.22,11.77-1.25,23.31,2.59,34.33,4.41,29.76,4.91,58.58-.81,87.74-2.49,28.91-1.69,57.8-4.72,86.68-7.16,18.65-1.57,37.35-2.52,55.89-4.84,29-3.61,57.12-14.29,86.77-13.28,18.21-12.15,39.11-7.7,58.71-11.22,5-.9,9.66-3.89,15.88-6.5,12.15,7.51,30.16.69,42.88,14,11.06,11.55,22.68,22.54,31.31,31.1,3.12,17.86,5.38,31,8.56,49.21C2418.71,5648.74,2418.83,5648.85,2418.47,5649.39Z"/><path class="cls-17" d="M2226.86,5874.16c9.15-15.73,27.65-8.75,37.66-20.73,22.7-2.56,41.27-14.84,59-29.31,1.26-1,3.65-.43,5.77-.6,5.75,19.35,13.53,38.26,12.38,59.35-.74,13.51-2.51,27-2.51,40.5,0,13.17,5.28,27.63,1.77,39.21-5.26,17.31-.69,33.37-1.36,49.91-.47,11.5-2.31,22.93-3,34.43-.6,10.56,4.4,21.61-3.27,31.57-1.28,1.67-.11,6,.49,8.91,6.31,30.67-2.75,61.43.56,92.22,1,9.17-2.15,18.84-3.25,28.3-1.22,10.45-2.42,20.9-3.37,31.38-.87,9.51.83,18.33-2.58,28.75-4.89,14.92-1.89,32.73-3.3,49.19-2,22.86-3.22,46.08-8.31,68.19-1.86,8.11-1.06,15.36-2,22.92s-4.43,15.1-3.62,22.23c2.82,24.66-5,48-8.22,71.54-2.6,19.13-7.18,39.05-10,58.23-5.87,39.35-14.79,77.87-22.46,116.67-7.8,39.48-18.79,78.24-35.11,114.88-11.61,26.06-22.85,52.2-40.24,74.7-6.66,8.61-11,19.34-19.51,34.79-17.4,13.13-39.74,31.31-63.27,47.42-30.81,21.09-64.64,36.29-98.33,50.53-25.88,10.94-51.44,23.07-78,32.43-26.23,9.23-50.18,27.53-76.74,33.95-33.83,8.18-63.21,28.1-97,36.35-16.31,4-34,7.76-49.52,17.81-14.14,9.2-31,13.17-46.49,18.05-18.56,5.87-37.08,12.13-55.56,18.48-9.19,3.16-18.49,6-27.57,9.45-2.34.9-4.17,5.49-6,5.36-24.24-1.68-44,16.14-67.23,18.06-27.35,2.25-53.18,15.39-81.12,13-18.33,11.62-39.83,5.4-58.62,11.61-48.58,16.06-99,9.67-149.14,14.67,3.78-1.21,8.18-1.47,11.19-3.84,4.37-3.46,7.46-8.76,11.6-12.65,3.94-3.7,8.61-6.44,12.78-9.87s8.63-6.87,12.23-11c3.22-3.74,4.93-9,8.2-12.7,19.73-22.16,48.36-78.4,55.4-108.29,3-12.71,6.94-25.18,10.91-37.59,15.64-48.76,33-96.95,46.8-146.31,15.4-55,29-110.55,36.33-168,3.54-27.6,8.78-55.77,14.28-83.43,3.8-19.08,4.32-39.7,8-59.48,2.11-11.23.27-23.74,3.9-34.15,4.12-11.85-1-26.13,3.68-33.89,6.79-11.16-.68-23,7-33.84,4.79-6.73-3.9-21.1,4.24-30.67-4.2-31.4,13.26-59.88,10.39-91.1,10.89-8.21.61-22.11,8.09-33.07,5.43-7.94,2.15-22.44,4.27-33.67,1.9-10,6.28-19.49,8.81-29.42,2.78-10.89,5.93-21.93,6.78-33.09,2.46-32.42,16.55-61.68,20.83-93.27,2.32-17.09,8.6-32.71,10.79-49.65,2-15.85,4.09-32,12.82-45.77,1.44-42.2,20.63-79.9,26-121.16,1.19-9.07,6.28-17.53,10.61-29,28.29,16.87,58.68,20.39,87.37,29.44,25.07,8.32,51.07,3.09,76.94,7.26,21.64,3.49,44.61-2.41,67-4.61,30.11-3,60.15,3.69,90.45-1,29.56-4.56,59.6-5.47,89.42-8,30.76-2.59,61.58-4.56,92.25-8,14.15-1.61,28-6,42-9.42s28.11-.36,42.55-8.46c12.63-7.09,30.26-2.14,44.41-10.69C2218.09,5868.91,2222.44,5872.38,2226.86,5874.16Z"/><path class="cls-18" d="M1516.05,5759.93c7.09,23.18,7.91,48.58,23,69.29-15.61,31.09-43.49,48.61-67.16,71,29.29-14.08,58.07-28.58,74.31-58.32l20.73,14.84c-15.89,12.76-14.67,31.65-20.87,47.26-6,15.19-12,31-16.31,47.48-6.12,23.34-13.57,46.46-20.09,69.85-9.57,34.36-16.22,69.36-23.77,104.21-5.94,27.38-10.88,55.19-18.3,82.28-9.4,34.29-10.91,70.75-23.79,104.12,2.53,20.58-2.71,40.07-7,59.74-4,18.35-8.54,36.64-11.2,55.23-6.4,44.88-15.56,89-25,133.24-6.46,30.31-12.17,60.68-20.44,90.6-5.23,18.94-6.3,39.23-9.36,58.9q-6.33,40.68-12.87,81.33c-2.39,15-7,29.45-6.51,45.19.53,17.15-10.76,32.67-7.37,50.59-11.91,43.36-14.42,89.19-29.37,131.78-1.52,4.32.85,10.89-1.38,14.19-16.29,24.17-20.45,54.71-35.87,79.22-7.12,11.31-13.38,23.46-21.67,33.65-11.24,13.8-24,26.09-35.59,38.41-26.06-12.46-33.38-37.23-38.74-61.22-4.65-20.83-11.62-41.3-11.23-63.71.39-22.24-4.21-44.58-3.91-66.84a339.44,339.44,0,0,1,6.76-62.67c4.71-23.19,7.78-46.6,11.78-69.87a386.72,386.72,0,0,1,13.1-51.59c10.3-32.3,13.3-66.33,21.07-99.17,8.61-36.39,18.51-72.41,28-108.54,2.13-8.12,7.23-16.12,7-24-.9-27.68,11.81-51.27,17.56-76.89,6.76-30.14,14.29-60.08,21.62-90.07,15.1-61.76,27.84-124.14,45.29-185.34,7.61-26.65,21-52.26,20.45-81.77-.11-5.95,5-11.88,7.15-18.06,6.73-19.32,16.45-38.29,18.87-58.27,2.45-20.3,14.14-36.32,15.75-57.08,1.24-16,11.2-31.42,18.33-46.52,6.79-14.37,7.2-30.81,15.32-45.13,7-12.43,8.26-28.58,13.61-42.37,11.81-30.43,24.28-60.57,37.17-90.48a199.33,199.33,0,0,1,17.68-32.2c18.15-27,34.86-54.63,59.06-77,19-17.49,37-36.33,57.68-51.32,31.59-22.83,67.44-30.07,104.72-30.81,16.82,9.51,34.16,1.41,51.24,1.8,11.09.25,24.39,4.72,32.75-.36,12.12-7.38,19.47,7.26,31,2,10.61-4.89,24.7-6.16,35.81-3,12,3.4,23.09,3.44,34.67,2.2,11.76-1.26,23.31,2.59,34.32,4.42,29.75,4.92,58.58-.82,87.74-2.51,28.93-1.68,57.79-4.7,86.68-7.14,18.64-1.57,37.35-2.52,55.91-4.85,29-3.62,57.11-14.3,86.73-13.27,18.24-12.14,39.12-7.71,58.74-11.24,5-.89,9.66-3.88,15.88-6.5,12.15,7.52,30.16.72,42.87,14,11.07,11.57,22.67,22.55,31.31,31.1,3.12,18,5.42,31.18,8.62,49.63,1.13-1.8-2.44,1.26-2.5,4.4-1,45.82-30.53,87.88-65.18,109.53-24.8,15.49-49.42,31.09-76,42.64-17,7.38-34.25,13.89-51.55,20.27-15.75,5.81-31.55,11.65-47.65,16.12-15.63,4.34-32.66,4.37-47.27,11-16.69,7.58-34.39,4.81-50.48,10.21-39.48,13.26-80.27,11-120.45,15.47-40.91,4.53-82,7.57-123,10.32-11.38.76-23-1.76-34.45-3s-23.34,7.24-34.87-2.35c-2.8-2.33-9-.32-13.56.41-28,4.53-54.51-4.43-81.57-9.63a367,367,0,0,1-53-14.35c-16.7-5.86-30.1-16.77-43.58-26.37-17.28-12.29-17.66-35.1-12.75-55.9,7.22-30.62,20.66-57.76,43.24-80.48-3.67-.86-7.16-2.87-8.42-1.8-25.82,22-45.92,73.25-48.21,112.27-14.28-.24-9.14-15.91-15-23.25s-7.7-18.62-11.3-28.18Z"/><path class="cls-19" d="M226,6990.48c3.88-9.38,7.57-16,9.39-23.27,2.3-9.13,3.07-18.72,4.95-31.07,24.74-28.3,56-49.89,95.08-51.39,60.26-2.31,119.07-17.12,179-21.6,26.88-12.65,56.77-5.9,83.74-14,45.26-13.56,91.61-10.65,137.31-16.45,10.15-1.29,18.82-5.19,28-8.76,8.33-3.24,17.19.34,26.23-6.37,10.6-7.88,27-.46,38.14-11.41,39.72-8.6,77.2-24.87,114.79-40.51,24.31-10.11,48.9-19.8,72.64-31.14,35.68-17,71.37-34.17,107.8-48.94a198.55,198.55,0,0,1,85.54-14.48c-5.06,25.31-8.55,51.14-15.62,75.76-7.27,25.3-10.36,51.82-18.22,76.46s-10.44,50.11-14.16,74.72c-4,26.17-16.66,52.52-4.54,83.23-18.66-10.47-33-22.27-49-26.46-16.77-4.39-33.54-14.24-52-8.76-18.74-15.46-32.33,9.21-49.84,3.37l.6,6.89c11.8-1,23.67-1.47,35.41-3.09,24.54-3.4,46.18,10.67,69.72,13.05,12.15,12.43,27.86,20.33,38.86,38.05,1.45,20.43.42,44.36,5.53,66.63,5,21.74,7.07,45,20.38,64.41,11.88,17.32,9.9,42.82,30.69,55.82l-56.58,28.22c-14.48,1.22-36.15,1.46-57.23,5.4-13.35,2.49-24.67-4.52-37.37-3.91-11.41.55-22.86,6.29-34.86-2.17-5-3.51-14.52.4-22,1.23-20.67,2.33-40.87-.2-60.85-6.15-3.38-1-7.27.24-10.88-.14-9.68-1-19.06,4.65-29.39-2.51-7.65-5.3-18.21,1-28.83-3.49-13.45-5.7-30.22-1.21-45.14-3.89-34.31-6.16-69.64,2.38-103.5-9.18-2.48-.85-5.55.4-8.35.55-13.44.69-26.45,2.23-40.25-2-11.55-3.51-25.17,4.92-37.07-3.74-18.18,6-36-1.65-54-2.2-14.63-.44-29.8-5.19-44.17-5.79-34.65-1.44-66.82-15.94-101.11-18.5-15.36-1.14-30.47-7-45.59-11.21s-30.07-8.76-45-13.48c-24.89-7.85-50-15.18-74.5-24.2-17.18-6.32-18.82-9.87-25.84-29.2-9.6-26.45-16.57-53.5-17.11-82.17C226.74,6998.63,226.27,6994.58,226,6990.48Z"/><path class="cls-12" d="M1437.85,8372.32l-13.91-5.14c3.84-6.45,5.7-9.58,7.51-12.64-1.85-2-5.15-3.86-5.52-6.26-4.08-26.28-7.43-52.69-11.58-79-2.26-14.31-6.37-28.28-8.35-42.62-1.93-14,.91-29.79-4-42.13-6.48-16.24-4-33.46-8.87-48.8-8-25-4.53-51.9-11.51-75.84-7.42-25.46-7.4-50.88-9.71-76.36-1.43-15.77-10.39-29-9.61-45.6.75-16.09,1.45-33.83-3.82-48.24-8.47-23.15-6.39-46.93-10-70.21-1.91-12.32-6.1-24.23-7.87-36.56-1.87-13,1.09-27.9-3.71-39.11-9-21-5.3-43.11-9.74-64.11-6.57-31.12-11-62.41-12.1-94.27-11.54-17.6-6.63-38.48-9.75-57.76-3.29-20.27-7.42-40.42-9.74-60.82-2.52-22.15-3.39-44.52-5-66.79-1.51-21.26.16-43.57-5.38-63.51-6.46-23.29-7.48-46.54-9.72-68.92l20.12-17.63,58.72-4.95,19.19,10.26c1.3,2.8,2.68,4.44,2.77,6.16,2,37.85,13.46,74.14,14.16,112.41.69,37.5,8,75,7,112.37-2.4,89,13.46,176.89,12.58,265.24-.63,62.66,10.61,124.31,8,186.24-2.48,59.69,9.07,118.26,6.91,177.16-1.56,42.31,2.21,83.77,4.5,125.55,2.33,42.57,5.92,85.06,8.89,127.58A16.78,16.78,0,0,1,1437.85,8372.32Z"/><path class="cls-12" d="M452.75,7250.9c12.92-18.29,26.48-18.38,42.12-13.28,15.18,4.95,23.09,17.51,31,30.63l-21.31,121.46c.12.27,3.08,4.14,3.47,8.29.78,8.24,3,14.16,8.62,20.83,8.51,10.18,18.85,22.35,8.3,38.45-4.12,46.34-20.17,89.8-27.74,135.23-3.59,21.54-13.25,41.51-14.86,62.71-1.68,22.28-8.7,42.54-13.38,63.61-7.1,32-15.72,63.55-22.26,95.78-11.36,56.06-24.74,111.63-37.56,167.32-5.24,22.79-14.75,45.17-15.92,68.11-1.24,24.51-13.09,45.44-14.21,69.39-.15,3.21-4.55,6.19-9.12,12,.16-20.75,1.7-38.73,3-56.7.33-4.67,2.33-9.23,2.46-13.88.59-21.59-.69-43.38,1.53-64.75,2.27-21.93,3.65-44.39,7.54-65.54,3.14-17,2-34.19,5-51.16,3.3-18.43,5.73-37.78,7.26-56.54,1.33-16.24,1.1-33.33,3.71-49.41,4.93-30.26-1.28-61.86,10-91.18-5.3-27.56,7.76-53.24,6.49-81-1-21.43,7.45-43.33,5.55-65.74,11.71-14.08.95-31.64,6.5-48.11,4.74-14,4.62-32.19,4.5-49.07-.16-22.7,1-46.54,6-68.65,6.25-27.57,4.47-56.55,15.15-83.51C458.43,7276.28,453.57,7262.3,452.75,7250.9Z"/><path class="cls-12" d="M2064.17,7035.26l7.36-10c17.6,16.9,30.23,36.16,29.92,56.8,10.7,26.51,19.37,48,28,69.3l-16.9,11.76-11.75-5.78c-3.65,2.46-7.35,7.14-11,7.07-35.22-.69-68.38,13.55-103.33,15.72-29.94,1.86-60.47,5.32-89.12,14.23-18.86,5.86-38.19,4.17-56,10.33-21.28,7.36-43.88,4.84-64.21,11.71-36.88,12.46-74.74,9.38-112,14.48-22.21,3-45.89-.28-66.69,6.87-29.71,10.21-59.93,7.76-89.7,12.56-2.58.42-5.27,0-7.36-.07l-8.45-16.15c21.38-8.18,42.69-16.23,63.92-24.5,13.09-5.09,26.34-9.86,39.42-14.76,19-7.13,39-12.51,58.25-18.78,40.22-13.07,82.88-17.66,120.73-39.37,3-1.74,7.26-1.31,10.94-1.36,24.59-.33,45.73-14.15,68.7-20.85,18.45-5.38,36.26-13.34,54.37-20.13,9-3.4,18.52-5.85,27.11-10.31,12.82-6.67,25.86-11,39.86-14.47,21.87-5.41,42.7-15.82,63.94-24.2C2046.76,7042.75,2053.24,7039.87,2064.17,7035.26Z"/><path class="cls-12" d="M1250.11,7288.75c-31.14,10.06-61,15.72-90.55,22.79-45.5,10.88-91.89,8.25-137,17.44-20.53,4.18-41,10.26-61.64,9.66-16.1-.47-32.48-5.71-48.35-1.15-60.53,17.41-123,14.38-184.46,21.07-62.24,6.76-124.72,10.83-187.1,16.09L524,7376.08c2.46-19.35,1-38.91,7.93-54,7.69-16.9-6.23-36.41,10.1-51.72,19.18.89,39.36-2.3,60.58-.41s43.22,6,65,2.46c11.54-1.86,22.1,6.71,34.51,3.53,11.14-2.85,22.67-.41,34.47,1.8,20.23,3.78,41.45.93,62.2,2a400.78,400.78,0,0,1,67.8,9.79c2.54.57,5.07,2.1,7.54,1.93,14-.92,27.93-3,41.9-3.17,12.4-.13,25.2,4.35,37.14,2.25,32.07-5.65,64.07,2.48,95.93-1.6,8.55-1.1,15.29,10.9,25.21,2,6.79-6.08,15.63,2.81,24.23.45,8.93-2.44,18.6-1.42,27.83-2.84,12.32-1.91,25.28,1.11,36.72-8.55,4.31-3.64,13.37-3.84,19.07-1.75C1203.65,7286.09,1226.87,7275.43,1250.11,7288.75Z"/><path class="cls-12" d="M2410.31,7761.88c-20.42-39.28-42-77.9-60.94-118-20.09-42.63-42.57-83.82-62.34-126.7-13.86-30.07-29.21-59.68-43.27-89.83-9.77-20.92-17.68-42.87-26.67-64.22-10.45-24.8-23.41-48.37-32.4-73.7-9.15-25.77-20.2-49.86-34.54-72.67-7.21-11.46-10.6-25.76-15.56-38.37l18.81-16.21c-18.33-51.19-36.59-102.17-56.11-156.71,1.19-17.13,19.36-22.15,31.56-37.37,14.75,39.36,36.85,71,45.53,110.49,5.57,25.34,18.2,48.78,26.94,73.37,12.22,34.37,22.81,69.46,35.86,103.44,16.36,42.6,31,86,47,128.72,11.39,30.48,23.58,61,33.41,92.22,9.57,30.43,21.61,59.78,31.61,90q18.6,56.16,37.33,112.25c7.53,22.56,11.54,47.71,25.83,67.78,2.39,3.36,1,9.89,1.37,15Z"/><path class="cls-20" d="M1553.9,5926.69c-2.16,18.74-.75,33.64-5.82,45.17-13.71,31.15-17.4,65.09-25.26,97.68-9.65,40-19.92,80-26.52,121-3.43,21.25-8.17,42.47-13.38,63.31-5.31,21.24-7.25,43-11.47,64.11-4.41,22.1-8.16,44.38-12.58,66.49-2.39,12-6.51,23.83-7.08,35.89-1.4,29.72-7.75,58.6-11,88-1.89,16.95-4.55,33.83-7.63,50.57-3.94,21.36-8.63,42.75-10.3,64.3-1.69,22-5,43.58-8.51,65.21-4.41,27.05-7.87,54.34-13.52,81.08-11.61,54.95-25.28,109.31-43.78,162.1-3.68,10.5-6.31,21.43-11,37.45-1.31-10.14-3.78-15.95-2.34-20.2,9.47-27.93,11-57.41,15.6-86.28,3.29-20.46,9.28-40.58,10.84-61.15a532.33,532.33,0,0,1,8.24-62.32c3.82-19.46,4.11-40.09,10.19-58.55,4.08-12.39-2.42-24.37,4.89-37.05,7-12.08,6.08-29.2,10.79-43.26,4.48-13.36.47-29.24,10.69-40.64,1.45-25.69,9-50.16,12.93-75.34s7.48-50.62,11.61-75.85c1.51-9.22,4.75-18.11,6.3-27.34,3.62-21.49,9.16-42.41,10.24-64.68.9-18.4,8-36.44,12.29-54.65,7.78-32.85,11.61-66.64,20.9-99.17,7.68-26.9,16-53.94,20-81.6,3.76-25.42,12.14-49.13,17.52-73.87,5.14-23.68,13-46.69,19.79-69.93C1547.24,5934.85,1549.34,5933.07,1553.9,5926.69Z"/><path class="cls-12" d="M1433.13,7396.16c7,2.37,13.41,3.18,18.34,6.59,7,4.86,13,11.62,21.43,19.51-10.4,96-24.22,193.3-33.62,291.56-4.88-13.15-4.09-27.47-5.38-41.31-1.49-16.17-2.39-32.4-3.54-48.61-1.08-15.19-1.73-30.44-3.37-45.56-1.71-15.77.37-31,1.88-46.65,1.45-14.9-2.35-30.31-2.5-45.52-.15-15.51,1-31.07,2.2-46.55C1429.65,7425.41,1431.51,7411.27,1433.13,7396.16Z"/><path class="cls-12" d="M1483,7242.65c-3.7,9-6.17,18-10.69,25.48-9.37,15.54-20.15,30.07-29.77,45.45-8.38,13.4-16,27.39-25.17,43.33-2.1-16.45-2.6-32.16-3.82-47.73-1.26-16-2.31-32-3.42-47.61C1424.74,7247.68,1446.79,7241.9,1483,7242.65Z"/><path class="cls-12" d="M663.78,7211.41c14.17,1.25,27.79-5.83,42.94,1.67,11.42,5.65,26.69-6.95,39.54,3.49,1.12.91,3.61-.31,5.46-.31,23.46,0,47.17-2.21,70.3.82s47,3.62,69.88,10.42c5.88,1.75,12.71-.58,19,.06,2.67.27,5.09,3.39,7.62,5.22-13.32,0-26.2,3.8-40.06-2.05-11.07-4.68-24.59,5.8-37.06-3.24-3.65-2.64-10.86,1.14-16.38.79-12.52-.81-24.89,6.3-37.67-.87-11.24-6.3-23.69,1.85-36.89-3.53-11-4.49-26-1.35-39.36-3.84-14.76-2.76-30-2.47-45-3.83C665.22,7216.12,664.55,7213.08,663.78,7211.41Z"/><path class="cls-12" d="M310,7143.34c21.17-.22,40.55,5.78,57.67,19.61C354.11,7162.93,324.31,7152.8,310,7143.34Z"/><path class="cls-12" d="M919.66,7233.39l38.24-3.22C940.55,7239.3,931.29,7239.73,919.66,7233.39Z"/><path class="cls-12" d="M970.32,7235.54l31.61-2.66C992.3,7241.26,981.25,7238.45,970.32,7235.54Z"/><ellipse class="cls-12" cx="1076.67" cy="7240.87" rx="23.82" ry="2.15" transform="translate(-604.49 116.05) rotate(-4.82)"/><path class="cls-12" d="M662.64,7210.78l-27.11,2.29C651.55,7204.65,651.55,7204.65,662.64,7210.78Z"/><path class="cls-12" d="M1015.46,7237.88l32.37-2.73C1033.76,7243.43,1024.66,7241.3,1015.46,7237.88Z"/><path class="cls-12" d="M623.11,7207.7l-20.44,1.72-.48-3.74,20.45-3.25C622.8,7204.19,623,7205.94,623.11,7207.7Z"/><path class="cls-12" d="M465.87,7186l15.74-1.33C472.73,7191.13,472.73,7191.13,465.87,7186Z"/><path class="cls-12" d="M555.25,7201.15l-14.85,1.25c-.17-1-.35-2-.52-3.06l14.5-3.53Z"/><path class="cls-12" d="M1171.11,7225l16.28-2.22.61,4-16.32,3.73Z"/><path class="cls-8" d="M1556.44,5919.17c1.71-6.17-6.28-14.95,4.3-18.71C1559,5906.62,1567,5915.41,1556.44,5919.17Z"/><path class="cls-12" d="M1139.36,7239.7l14.85-1.25c.18,1,.35,2,.52,3.06l-14.49,3.53Q1139.79,7242.37,1139.36,7239.7Z"/><path class="cls-12" d="M368.61,7163.63l15.74-1.33C375.47,7168.74,375.47,7168.74,368.61,7163.63Z"/><path class="cls-12" d="M424,7175.8l-15.74,1.33C417.17,7170.7,417.17,7170.7,424,7175.8Z"/><path class="cls-12" d="M425.85,7177.16l15.74-1.33C432.71,7182.26,432.71,7182.26,425.85,7177.16Z"/><path class="cls-12" d="M464.05,7184.66,448.32,7186C457.19,7179.56,457.19,7179.56,464.05,7184.66Z"/><path class="cls-12" d="M1172,7234.53l-10.62,1.89-.77-3.88,10.77-3.24C1171.62,7231,1171.82,7232.78,1172,7234.53Z"/><path class="cls-8" d="M1570.87,5872.55c-1.41,7.57-2.1,11.31-2.8,15.06-1.07-2.76-2.44-5.44-3-8.32C1564.87,5878.43,1566.89,5877.05,1570.87,5872.55Z"/><path class="cls-8" d="M1560.74,5900.46c.51-4.68-3.61-11.41,4.72-12.63C1565,5892.51,1569.07,5899.23,1560.74,5900.46Z"/><path class="cls-8" d="M1551.72,5931.8c.51-4.68-3.61-11.41,4.72-12.63C1555.93,5923.85,1560.05,5930.57,1551.72,5931.8Z"/><path class="cls-12" d="M1292.84,7115.63c-.52,4.68,3.6,11.41-4.73,12.63C1288.62,7123.59,1284.5,7116.86,1292.84,7115.63Z"/><path class="cls-12" d="M1241.67,7187.22c-.18-9.14,6.57-5.75,10.75-7C1252.59,7189.33,1245.84,7186,1241.67,7187.22Z"/><path class="cls-12" d="M1236.5,7193.77c.18,9.13-6.57,5.75-10.75,7C1225.58,7191.66,1232.33,7195,1236.5,7193.77Z"/><ellipse class="cls-12" cx="396.32" cy="7169.72" rx="7.94" ry="2.15" transform="matrix(1, -0.08, 0.08, 1, -607.43, 59.55)"/><path class="cls-12" d="M2418,7760.77l1.74,11.54-3.57.84q-1.48-5.85-3-11.7Z"/><path class="cls-12" d="M583.64,7204.89l-9.27.78c-.22-1-.43-1.91-.65-2.86l9-3.14C583,7201.41,583.33,7203.15,583.64,7204.89Z"/><path class="cls-12" d="M1338.79,6984.3l.72,10.08-2.63.69-2.88-9.71Z"/><ellipse class="cls-12" cx="496.38" cy="7191.87" rx="3.97" ry="1.44" transform="translate(-615.46 69.15) rotate(-4.92)"/><path class="cls-12" d="M1262.74,7167.1l5.16-6.55Z"/><path class="cls-12" d="M1257.58,7173.65l5.16-6.55Z"/><path class="cls-12" d="M1252.42,7180.2l5.16-6.55Z"/><path class="cls-12" d="M1236.5,7193.77c1.73-2.18,3.45-4.37,5.17-6.55C1240,7189.4,1238.23,7191.59,1236.5,7193.77Z"/><path class="cls-12" d="M1292.21,7115.13c1.18-1.76,2.36-3.53,3.55-5.29l1.9,1.77-4.27,4.62Z"/><ellipse class="cls-12" cx="1212.42" cy="7211.09" rx="1.32" ry="4.31" transform="translate(-500.16 102.16) rotate(-4)"/><ellipse class="cls-12" cx="1300.14" cy="7099.73" rx="1.32" ry="4.31" transform="translate(-492.18 108.01) rotate(-4)"/><ellipse class="cls-12" cx="1196.07" cy="7218.58" rx="1.32" ry="4.31" transform="translate(-500.72 101.04) rotate(-4)"/><path class="cls-12" d="M1278.41,7141.87l-3.54,5.29-1.9-1.77,4.27-4.62Z"/><path class="cls-12" d="M1283,7134.82l-5.16,6.55Z"/><ellipse class="cls-12" cx="1310.03" cy="7080.55" rx="1.32" ry="4.31" transform="translate(-490.81 108.65) rotate(-4)"/><path class="cls-12" d="M1288.11,7128.26l-5.16,6.56Z"/><ellipse class="cls-12" cx="519.19" cy="7196.07" rx="3.97" ry="1.44" transform="translate(-615.73 71.12) rotate(-4.92)"/><ellipse class="cls-12" cx="1314.76" cy="7067.92" rx="3.97" ry="1.44" transform="translate(-601.8 138.93) rotate(-4.92)"/><path class="cls-12" d="M309.57,7144l-4.87-3.85,1.62-2.07,4.26,4.64Z"/><ellipse class="cls-12" cx="295.4" cy="7135.4" rx="1.32" ry="4.31" transform="translate(-497.11 38) rotate(-4)"/><ellipse class="cls-12" cx="1332.8" cy="7005.24" rx="3.97" ry="1.44" transform="matrix(1, -0.09, 0.09, 1, -596.35, 140.25)"/><path class="cls-12" d="M1267.28,7160.05l3.54-5.3,1.9,1.77-4.27,4.62Z"/><ellipse class="cls-12" cx="1341.82" cy="6973.9" rx="3.97" ry="1.44" transform="translate(-593.62 140.91) rotate(-4.92)"/><path class="cls-12" d="M1226.38,7201.29l-3.55,5.3-1.9-1.77,4.27-4.62Z"/><polygon class="cls-21" points="9960.61 7222.03 3371.36 7133.94 6266.23 5699.92 10446.21 5686.5 9960.61 7222.03"/><polygon class="cls-12" points="9513.76 5675.11 9513.76 6723.44 4254.95 6717.35 4254.65 4633.51 4961.56 4627.73 4959.19 5675.11 9513.76 5675.11"/><polygon class="cls-12" points="9940.17 4721.32 9948.23 5701.03 9513.42 6723.19 9509.17 5673.37 9940.17 4721.32 9940.17 4721.32 9940.17 4721.32 9940.17 4721.32"/><polygon class="cls-12" points="6356.11 3995.82 4940.45 4630.34 4940.49 4629.91 4255.17 4625.59 4940.49 4325.18 5721.31 3976.02 6356.11 3995.82"/><polygon class="cls-12" points="4959.47 4610.06 6356.11 3995.82 6356.11 3995.82 6409.92 4725.76 6409.92 4725.76 5057.89 5675.11 4959.19 5675.11 4959.47 4610.06 4959.47 4610.06"/><polygon class="cls-12" points="9513.76 5675.11 9513.76 5675.11 5057.26 5675.44 6409.38 4724.96 9940.17 4721.32 9513.76 5675.11"/><path class="cls-22" d="M10016.94,4711.71v988.21a40.44,40.44,0,0,1-5.42,20.32,25.79,25.79,0,0,1-1.13,3.23l-7.37,17.58L9569.29,6773.72a28.55,28.55,0,0,1-37.26,15.19l-4.94-2.09a45.33,45.33,0,0,1-7.13.58l-4518-64.39a46.41,46.41,0,0,1-46.28-46.28V5702l-.42-.55a33.84,33.84,0,0,1-6.3-24.78l4566.75,64.38,494.72-1051.52A40.66,40.66,0,0,1,10016.94,4711.71Z"/><polygon class="cls-23" points="4954.73 6718.53 4254.95 6717.35 4254.94 4640.17 4905.55 4730.49 4954.73 6718.53"/><path class="cls-24" d="M10010.39,4689.53,9515.67,5741.05l-4566.75-64.38a33.87,33.87,0,0,1,13.33-22.56L6406.32,4676.5a33.83,33.83,0,0,1,30-5.17,43,43,0,0,1,7.92-.76H9975.8A41.18,41.18,0,0,1,10010.39,4689.53Z"/><path class="cls-25" d="M6841.69,4674.3c-11.52,10.33-20.79,18.22-29.57,26.6-20.51,19.57-43.87,37.09-60.6,59.52-59.72,80.05-135.41,141.75-217.62,196.38C6478,4993.93,6418,5023,6354.58,5045.08c-34,11.86-60.5,33.37-81.82,62.25-27.27,36.95-44.42,35.08-63.89-6.68-12.5-26.81-30.42-48.45-57.24-61.37-52.64-25.36-89.26-66.45-116.45-116.9-20.32-37.7-39.11-76.25-60.57-113.26-9.22-15.89-22.32-30.07-35.71-42.88-26.39-25.24-54.68-48.49-81.08-73.71-6.23-5.95-12.81-18.05-10.66-24.44s14.51-11.1,23.22-13.36c11.48-3,23.77-4,35.69-3.85,39.49.43,71.57-16.1,100.66-41.08,63.26-54.3,131.51-101.07,210.53-129.24,35.33-12.59,72.58-19.71,108.81-29.85,21.73-6.07,43.72-11.82,64.56-20.27,14.56-5.91,26.46-6.66,37.29,5.07,18.5,20,41.68,26.92,68.31,30.64,90.39,12.6,163.82,57.92,224.92,124.07,27.41,29.69,54.78,58.5,96.34,67.72,2.63.59,4.95,2.78,7.3,4.38C6829,4665.2,6833.12,4668.21,6841.69,4674.3Z"/><path class="cls-26" d="M5249.07,5276.48c13.83,9.32,24.89,16.35,35.51,24,24.78,17.84,52.3,33.06,73.48,54.51,75.58,76.53,165.48,131.13,261.3,177.21,65.14,31.32,133.5,53.4,204.4,67.57,38.05,7.61,69.5,26.63,96.53,54.28,34.58,35.36,52.59,30.82,67.16-16.61,9.36-30.46,25.27-56.21,52-74,52.4-34.87,85.37-84.14,106.89-142,16.08-43.22,30.41-87.14,47.81-129.81,7.48-18.32,19.35-35.39,31.74-51,24.4-30.84,51.13-59.84,75.56-90.67,5.76-7.27,11-21.15,7.75-27.64s-17.13-9.7-26.76-10.82c-12.69-1.47-25.95-.71-38.65,1.19-42.06,6.32-78.74-6.55-113.48-28.88-75.55-48.55-155.3-88.32-243.78-106.64-39.55-8.19-80.35-10.26-120.51-15.7-24.08-3.25-48.4-6.12-71.88-12-16.42-4.14-29.22-3.17-39,10.95-16.77,24.12-40.47,34.9-68.33,42.82-94.57,26.85-166.17,86.1-221.54,165.74-24.84,35.74-49.76,70.54-92.73,86.54-2.72,1-4.87,3.7-7.14,5.76C5261.27,5264.9,5257.32,5268.72,5249.07,5276.48Z"/><path class="cls-27" d="M11707.41,5547.2c-55.18-1.8-110.64,6.29-166,7.86-57.08,1.66-114.27,1.93-171.33.2-1.14-.06-2.28-.12-3.48-.22a47.67,47.67,0,0,1-5.39-.64c-.5-.12-1-.18-1.48-.25-2.31-.43-4.62-.92-6.94-1.52s-4.36-1.16-6.58-1.82c-2.56-.79-5.16-1.58-7.78-2.47q-3.68-1.2-7.51-2.55c-2.56-.85-5.18-1.74-7.79-2.58-.95-.34-1.89-.63-2.84-.92h-.1c-43-3.51-83.8-32.3-102.71-77.44-1.17-2.75-2.18-5.52-3.08-8.29-.06,0-.06,0-.07-.1a6.07,6.07,0,0,1-.61-.86l-.19-.31a18.26,18.26,0,0,1-1.17-2.16c-17.28-36.17-39.74-71.17-49.55-109.37q-75.66-294.6-264.15-532c-111.35-140-248.56-238.35-429.74-265.67-9.35-1.41-20.23-3.06-32.54-4.9-4.1-.59-8.31-1.23-12.69-1.91-1.47-.19-3-.43-4.48-.67-86.29-12.86-224.62-33.43-356.12-53h-.05c-130.35-19.35-253.93-37.76-313.27-46.73-2.73-.4-17.38.46-32.28,1.39l-.17,0c0-.05,0-.05-.1,0-5.62-.08-11.18-.11-16.79-.14q-18.37-.11-36.7.28c-2.37,0-4.74.06-7.11.17-5.7.14-11.35.28-17,.53-6.08.18-12.15.46-18.21.8-1.88.07-3.7.18-5.53.29-6.44.38-12.82.75-19.25,1.23-31.51,2.23-63,5.82-94.39,11.12-3,.49-6.05,1-9.08,1.58-6.05,1.1-12.09,2.24-18.18,3.45q-22.64,4.58-45.26,10.5c-122,32-230.39,92.71-335,160.27-138.83,89.56-287.81,148.29-454.14,154.82-72.28,2.84-144.88.43-217.23-1.69-94.26-2.75-176.71,24.54-251.51,83-62.57,48.82-126.95,96.67-195.76,135.76-104,59.19-210.63,114.68-319.72,163.77-111.63,50.24-228,89.8-341.59,135.84-123.35,50-241.44,109.8-335.73,206.88-68.07,70.14-125.22,147.53-143.59,246.78-9.59,51.9,4.77,77.44,53.06,100.58,93.64,44.94,192.29,72.74,294.85,87.14,227.83,32.06,451.73,3.37,673.11-48.66,204.59-48.12,407.23-104.63,611.94-152,189.39-43.81,381.52-71.91,576.87-67.25,78.48,1.83,157,15.83,215.2,70.21a992.43,992.43,0,0,1,148.07,175.81c106.79,161.47,156.85,346.09,201.2,531.87,42.53,178.3,81.42,357.47,125.16,535.49,20.91,85.19,49.92,168.29,104.9,239.2,34.25,44.22,79.65,64.06,135.67,62.17,55-1.85,105.49-19.52,154.13-42.64,134.28-63.74,254-150.15,368.68-243.43,141-114.57,281.58-229.32,436-325.92a3167.76,3167.76,0,0,0,484.32-372.46c142.89-133.62,269.56-279.34,347.33-462.07,24.82-58.2,43-117.52,45-181.19C11813.45,5585,11784.7,5549.67,11707.41,5547.2Zm81.13,88.63c-5.38,49.57-10.44,100.41-25.65,147.48-31.33,96.77-91.72,177.69-157.46,253.77-163.47,189.17-355.75,347.05-551.24,501-80.75,63.58-167.29,119.78-248.82,182.41-79.52,61.11-168,107.87-239.3,183.38-71.49,75.74-163.45,132.86-249.12,194.42-82.19,59-168.68,111.71-265.39,144.61-104.61,35.57-171.64,8.59-222.72-88.66-5.36-10.3-11.53-20.52-15.06-31.47-25.23-78.22-53.47-155.72-74-235.18-50.39-194.72-94.37-391.17-146.29-585.49-43.28-161.72-111-312.85-214.07-447.26-89.78-117.07-198.61-191.89-352.11-193.7-141.08-1.65-281.09,7.88-418.78,35.53-170.91,34.3-341.18,72.59-509.89,116.13-209.07,54-417.81,106.25-634.51,119.29-190.52,11.5-375-11.1-551.47-86.58-63.87-27.27-70.14-39.8-53.84-106.23a224,224,0,0,1,8.76-28.09c38.14-96.58,101.83-173.82,182.37-237.87,86.27-68.57,184.22-116.26,285.45-158.16,154.49-63.92,310.86-123.86,462.59-193.84,140.45-64.79,275.24-141.31,395.87-240.47,56.93-46.8,124.73-69.72,198.64-70.71,47.35-.67,94.76,1.73,142.15,2.79,161.09,3.43,315.82-24.38,458.6-101.41,75.49-40.78,147.62-87.72,221.56-131.44,134-79.19,277.2-127.46,434.24-130.56,16.31-.31,32.58-1.74,48.87-3.45,4.33-.45,8.71-.91,13.09-1.42h.1c15.09.45,31,.23,33,.64,42,8.34,113.85,21.19,197.38,35.76h0c.44.06.88.13,1.26.21,18.47,3.21,37.54,6.48,56.94,9.83h0c170.33,29.5,369,62.82,463.29,79.54,1.48.24,3,.54,4.39.78s2.91.55,4.33.79c2.31.44,4.55.83,6.69,1.23,149.72,27.07,274.39,98.07,373,211.69,133.8,154.3,227.12,331.24,277.92,529.81,18.39,71.83,43.72,140.06,97.08,194.45,12.91,13.16,24.38,27.75,37.4,42.63,8.5,2.19,19.53,4.8,30.48,7.79,32.57,8.83,65.07,25,97.72,25.25,77.55.56,155.13-6.92,232.78-10,36.53-1.51,73.29-2.34,109.75,0C11770.09,5577.43,11792.33,5601.23,11788.54,5635.83Z"/><path class="cls-28" d="M11734.59,5575.09c-36.46-2.38-73.22-1.55-109.76,0-77.65,3.12-155.22,10.59-232.78,10-32.65-.24-65.14-16.42-97.72-25.25-11-3-22-5.59-30.48-7.78-13-14.88-24.49-29.47-37.39-42.63-53.36-54.39-78.7-122.62-97.08-194.45-50.81-198.57-144.13-375.51-277.93-529.81-98.58-113.62-223.25-184.62-373-211.7-2.14-.39-4.39-.78-6.69-1.22-1.43-.24-2.85-.49-4.34-.79s-2.91-.54-4.38-.78c-94.3-16.72-293-50.05-463.29-79.54h-.06c-.37.09-.78.23-1.26.33-155.59,40.18-258.22,146.33-336.45,278-78,131.4-148.56,267.24-224,400.24-39.24,69.23-81.59,136.8-145.47,187.2-97,76.51-184.93,82-288.81,13.7-73.91-48.57-141.52-107.85-218.5-150.48-117.88-65.21-240.92-121.31-362.81-179.08-56.32-26.67-115.13-48.14-172.75-71.94,1.33-3.09,2.67-6.18,4-9.32,109.56,43.26,219.74,85,328.6,130.06,139.64,57.81,266.38,137.9,386.88,228.81a440.57,440.57,0,0,0,107.47,59.25c78.12,29.8,145.06,2.74,204.12-50.83,60-54.57,99.55-123.88,137.6-193.8,67.13-123.29,130.52-248.67,199.31-371,48.38-86,107.35-164.73,187.09-225.69,3.53-2.69,7.07-5.28,10.57-7.76s7-4.8,10.47-7c37.43-24.08,73.09-34.57,115.67-40.79-83.53-14.58-155.36-27.42-197.38-35.76-2-.41-17.92-.19-33-.65H9711c-4.37.51-8.75,1-13.08,1.42-16.3,1.7-32.56,3.14-48.87,3.44-157.05,3.11-300.3,51.38-434.25,130.57-73.93,43.71-146.06,90.66-221.56,131.44-142.77,77-297.5,104.84-458.59,101.4-47.4-1.05-94.81-3.45-142.16-2.79-73.9,1-141.7,23.92-198.63,70.71-120.64,99.17-255.43,175.69-395.87,240.48-151.73,70-308.1,129.92-462.6,193.84-101.23,41.89-199.17,89.58-285.45,158.16-80.54,64.05-144.23,141.29-182.37,237.87a224,224,0,0,0-8.75,28.09c-16.3,66.43-10,79,53.84,106.23,176.47,75.48,360.95,98.08,551.47,86.57,216.7-13,425.44-65.31,634.5-119.28,168.72-43.54,339-81.83,509.89-116.14,137.7-27.65,277.7-37.17,418.78-35.52,153.5,1.81,262.34,76.63,352.12,193.7,103.07,134.41,170.78,285.54,214.06,447.26,51.93,194.32,95.9,390.77,146.3,585.49,20.54,79.45,48.77,157,74,235.18,3.54,10.94,9.7,21.17,15.07,31.46,51.08,97.26,118.11,124.24,222.72,88.67,96.71-32.9,183.2-85.58,265.38-144.61,85.68-61.56,177.64-118.68,249.13-194.42,71.34-75.51,159.78-122.28,239.29-183.38,81.53-62.64,168.08-118.83,248.82-182.42,195.5-154,387.78-311.84,551.25-501,65.74-76.08,126.13-157,157.45-253.77,15.22-47.07,20.27-97.91,25.66-147.48C11792.32,5601.25,11770.08,5577.45,11734.59,5575.09ZM10967,6160.84c-149.13,2.92-298.52,5.32-442.12-45.67-141.54-50.31-222.14-156.67-262.45-297.15-33-115.15-35.9-233.11-25.5-351,8.71-98.69,24.06-196.8,36.64-295.08a33.88,33.88,0,0,1,8.53-18.69c-6.14,58.43-12.66,116.79-18.31,175.29-11.9,123.9-17,247.87-1,371.91,11.73,91,39.85,176.12,91.74,252.16,58.24,85.39,143.94,132.45,241.65,151.71,99.63,19.63,201.53,27.56,302.44,40.44,22.92,2.92,45.89,5.29,68.84,7.89C10967.31,6155.37,10967.13,6158.08,10967,6160.84Z"/><path class="cls-27" d="M10015.86,4482.32c-11.64,6.57-9.19,6.77-13.28,8.06-.58.17-1.37.4-2.37.65a1.26,1.26,0,0,0-.42.1h-.06c-.37.09-.78.23-1.26.33-155.59,40.18-258.22,146.33-336.45,278-78,131.4-148.56,267.24-224,400.24-39.24,69.23-81.59,136.8-145.47,187.2-97,76.51-184.93,82-288.81,13.7-73.91-48.57-141.52-107.85-218.5-150.48-117.88-65.21-240.92-121.31-362.81-179.08-56.32-26.67-115.13-48.14-172.75-71.94,1.33-3.09,2.67-6.18,4-9.32,109.56,43.26,219.74,85,328.6,130.06,139.64,57.81,266.38,137.9,386.88,228.81a440.57,440.57,0,0,0,107.47,59.25c78.12,29.8,145.06,2.74,204.12-50.83,60-54.57,99.55-123.88,137.6-193.8,67.13-123.29,130.52-248.67,199.31-371,48.38-86,107.35-164.73,187.09-225.69,3.53-2.69,7.07-5.28,10.57-7.76s7-4.8,10.47-7c37.43-24.08,73.09-34.57,115.67-40.79h.06c12.34-1.83,25.31-3.28,39-4.59a71.92,71.92,0,0,1,16,.36,3.89,3.89,0,0,1,.72.16c.05-.06.05,0,.1,0C10001.41,4477.6,10005.67,4479.37,10015.86,4482.32Z"/><path class="cls-27" d="M10967.44,6152.61c-.13,2.76-.31,5.47-.44,8.23-149.13,2.92-298.52,5.32-442.12-45.67-141.54-50.31-222.14-156.67-262.45-297.15-33-115.15-35.9-233.11-25.5-351,8.71-98.69,24.06-196.8,36.64-295.08a33.88,33.88,0,0,1,8.53-18.69c-6.14,58.43-12.66,116.79-18.31,175.29-11.9,123.9-17,247.87-1,371.91,11.73,91,39.85,176.12,91.74,252.16,58.24,85.39,143.94,132.45,241.65,151.71,99.63,19.63,201.53,27.56,302.44,40.44C10921.52,6147.64,10944.49,6150,10967.44,6152.61Z"/></g></g></svg>