<svg xmlns="http://www.w3.org/2000/svg" viewBox="0 0 1171.31 1171.31"><defs><style>.cls-1{fill:#373241;}.cls-2{fill:#c28353;}</style></defs><title>labi</title><g id="Layer_2" data-name="Layer 2"><g id="Layer_1-2" data-name="Layer 1"><circle class="cls-1" cx="585.66" cy="585.66" r="585.66"/><path class="cls-2" d="M542.89,1060c-8.32-1-16-1.79-23.72-2.88A476.09,476.09,0,0,1,244.82,253.26a476.08,476.08,0,0,1,805.8,230.27A476.34,476.34,0,0,1,710,1045.27a414.45,414.45,0,0,1-76.3,13.92c-17.29,1.39-34.66,1.82-52,2.55-5.22.22-5.25,0-5.25-5.16q0-171,0-341.93c0-1.35,0-2.7,0-4-.16-7.63-3-10.81-10.5-12-41-6.73-71.54-28.48-89.48-65.89-16.92-35.29-16-71.27,2.51-105.85,19-35.38,49.16-56.12,88.85-61.14,54.78-6.91,102,23.71,121.89,68.69,20.6,46.48,9.62,99.52-27.61,134.21-2.73,2.54-5.68,4.84-8.59,7.18a13.21,13.21,0,0,0-5.39,10.38q-.14,6.08-.13,12.13,0,127.2,0,254.41c0,6.43.09,12.87.2,19.31a10.51,10.51,0,0,0,13,10.42c25.75-5.72,51-12.87,75.47-23a408.28,408.28,0,0,0,109.47-66.88A406.26,406.26,0,0,0,947.81,406.16c-3.63-7.52-10-9.14-16.85-4.34-8.94,6.25-18,12.38-26.78,18.8s-17.65,13.3-26.44,20c-3.83,2.93-4.83,6.57-2.87,11.07a333.91,333.91,0,0,1,19,56.05,321,321,0,0,1-92.29,309.19c-16.19,15.28-34,28.37-52.68,40.31-3.62,2.32-7.24,5.39-12.39,3.78-3-.95-4.54-2.68-4.91-5.62a35.25,35.25,0,0,1-.17-4.48c0-39.84.12-79.68-.12-119.52a24.47,24.47,0,0,1,6.1-16.77,202.33,202.33,0,0,0,28.35-43.48Q793.36,613.31,783.21,550A196,196,0,0,0,745.14,461c-31.54-41.32-72.88-67.52-124-77.14-57.21-10.76-109.65,1.49-157.2,35-10.85,7.64-13.6,7.32-24.19-.48-9.39-6.92-19.3-13.11-29-19.62q-22-14.74-44-29.52c-2.59-1.75-4.95-3.84-7.45-5.72-4.54-3.41-5.07-7.34-.81-11.26,7.82-7.19,15.64-14.43,24-21q70.38-55.57,159.43-66.89a316.15,316.15,0,0,1,135,11.94,319.87,319.87,0,0,1,119.66,68c5.72,5.13,10.25,5.3,16.42.77,16.41-12,32.87-24,49.26-36,7.61-5.59,7.94-12.16,1.11-18.69A406.36,406.36,0,0,0,561.35,178q-98.1,5.22-183.2,54.64-94.81,55.29-149.09,150.8A406.16,406.16,0,0,0,405.92,949.47a409.31,409.31,0,0,0,52.48,20.95c2.37.76,5,1.49,7.4,1.18,4.78-.62,8-4.77,8.17-9.76.21-6.44.42-12.88.43-19.32q0-78.4,0-156.81c0-1.2,0-2.4,0-3.59,0-4.93-2.27-8.25-6.38-11-8.53-5.79-17.11-11.6-25-18.2-34.92-29.14-58.45-65.82-70.66-109.57-11.88-42.51-10.83-84.91,2.58-127,2.3-7.19,1.47-9.41-4.76-13.58Q343.47,484.88,316.82,467c-3.88-2.61-8-3.79-12.2-1.42a11.16,11.16,0,0,0-4.67,5c-16.24,41.09-23.61,83.65-21.39,127.87a302.2,302.2,0,0,0,38.25,133.44,296.13,296.13,0,0,0,67,82c4.61,3.93,7.57,8.41,7.14,14.68-.24,3.55-2.76,6.07-6.2,5.33a18.26,18.26,0,0,1-7.53-3.49A320.58,320.58,0,0,1,261.38,603.77c-3.42-52.22,5.6-102.25,26.45-150.2a57.37,57.37,0,0,1,3.17-6.44c2.9-4.88,7.24-6.18,12.25-3.58a91.91,91.91,0,0,1,8.85,5.29q35.82,24,71.56,48.05c1.11.75,2,1.77,3.19,2.46,8.06,4.85,7.3,9.29,4.82,16.75C371.4,577,377.82,635.1,410.92,690a190.23,190.23,0,0,0,71.32,68.66c7.42,4.14,9.77,9.17,9.74,17.2-.21,68.29-.13,136.59-.14,204.89,0,2.39,0,4.79-.11,7.18-.25,4.87-2.05,6.68-6.79,6.08a93.85,93.85,0,0,1-13.16-2.67A423.26,423.26,0,0,1,164.91,647.84,423.23,423.23,0,0,1,377.8,213a417,417,0,0,1,154-50q107.87-13,208.79,27.27A415.53,415.53,0,0,1,840.11,247a433.1,433.1,0,0,1,52.78,48c4.81,5.14,4.62,7.31-1,11.43q-35.54,25.92-71.09,51.78c-4.23,3.08-8.44,6.19-12.78,9.1-6,4-7.67,3.53-13-1.07-10.93-9.54-21.59-19.48-33.22-28.09a295.48,295.48,0,0,0-98.39-47.69,304,304,0,0,0-228.22,26.87,318.18,318.18,0,0,0-43.61,29.19,59.28,59.28,0,0,0-6.57,6.11,9.68,9.68,0,0,0,.13,13.75,44.58,44.58,0,0,0,6.92,5.69q21.27,14.6,42.64,29c2.23,1.51,4.51,2.94,6.77,4.4,5.17,3.38,9.29,3.16,14.52-.14,9.23-5.82,18.36-11.88,28-17a209.89,209.89,0,0,1,82.73-23.67c37.59-3,74,2.7,108.1,18.83,71.33,33.71,114.6,89.71,127,167.58,10.25,64.08-6.49,121.92-47,172.77a14.22,14.22,0,0,0-3,8.11c-.22,28.15-.12,56.31-.17,84.47a9.79,9.79,0,0,0,6,9.63c3.83,1.84,7.1,1,10.37-1.55A318.72,318.72,0,0,0,818.56,775,304.71,304.71,0,0,0,858.4,455.79a50.34,50.34,0,0,1-3.52-10.6c-1-4.66.82-8.22,4.92-11.05q22.5-15.57,44.7-31.56c11.92-8.53,23.67-17.31,35.6-25.85,6.23-4.45,11.54-2.92,15,3.91,15.45,30.51,28.69,61.87,37.21,95.1a432.32,432.32,0,0,1,12.5,73.82,424.06,424.06,0,0,1-1,78.06A418.26,418.26,0,0,1,974.72,743q-39.51,96-118.67,163.26a422.48,422.48,0,0,1-207.65,94.8c-3.84.6-7.72,1-11.6,1.3-4.88.34-7-1.46-7.3-6.31-.24-3.43-.14-6.89-.14-10.33q0-37.51,0-75,.18-106.7.44-213.4c0-4.94.53-9.9.24-14.81-.39-6.65,2.55-11,8-14.41a101.49,101.49,0,0,0,30.57-29.94c33.3-49.54,13.85-119.6-39.77-145.63-44.41-21.55-100.36-8.51-129,35.7-33.56,51.89-13,119.9,41.36,145.67a100.64,100.64,0,0,0,41.17,9.76,29.56,29.56,0,0,1,3.13.25c7.64,1,10.53,4.07,10.79,11.7.13,3.74,0,7.49,0,11.23q0,159.51,0,319c0,1.8-.1,3.59-.15,5.39-.21,7.17,4.73,11.94,11.8,11.41,30.8-2.27,61.32-6.32,91.27-14.09A461,461,0,0,0,834,969.7a458.52,458.52,0,0,0,167.37-579,448.17,448.17,0,0,0-34.55-61.36c-4.36-6.51-9.1-7.58-15.51-3-18.1,13-36.1,26.17-54.12,39.3q-39,28.45-77.94,56.95c-1.33,1-2.68,1.93-4,2.94-5.71,4.46-6.5,9.59-2.62,15.69,18.52,29.18,30.42,60.92,36.69,94.84a265.63,265.63,0,0,1,3.48,69.8A270.49,270.49,0,0,1,795.3,752.08c-1.2,1.53-2.4,3.06-3.71,4.5-1.71,1.89-3.72,3-6.39,2s-3.21-3.13-3.38-5.71c-.38-5.58,2.65-9.67,5.74-13.73,18.46-24.31,32.6-50.89,41.25-80.2q31.58-107-24-203.93c-22.32-38.7-53.39-68.89-92-91.26A250.63,250.63,0,0,0,598,330.06c-45.43-2.27-88.31,7.28-128.84,27.79a62.6,62.6,0,0,1-9,3.9,8,8,0,0,1-8.89-2.58c-1.52-2.16-1.58-7.58.49-9.78a27.83,27.83,0,0,1,7.32-5.74,265.72,265.72,0,0,1,63.05-23.1Q607.6,301.26,688.46,335a264.56,264.56,0,0,1,91.44,63.6c3.89,4.13,7.59,8.44,11.26,12.77,4.38,5.16,9.85,6,15.41,1.92q35.58-25.87,71.12-51.82,30.66-22.33,61.3-44.69a46,46,0,0,0,3.92-3c4.82-4.37,5.39-10.13,1.35-15.22a451.61,451.61,0,0,0-83.07-80.89,459.16,459.16,0,0,0-304.07-91.18,462.61,462.61,0,0,0-88.5,14.32,458.81,458.81,0,0,0-322.8,313.6A450.89,450.89,0,0,0,127.28,599q4.2,119.82,66.05,222.65A458.46,458.46,0,0,0,471.66,1028.4c12.59,3.22,25.44,5.47,38.17,8.14a28.48,28.48,0,0,0,3.57.41c7.62.66,12.35-3.55,12.45-11.15.12-8.54.22-17.07.22-25.61q0-120.65,0-241.28c0-2.1-.13-4.2,0-6.29.27-6.06-2.66-9.58-8.17-11.92-33.87-14.37-60.4-37.38-79.24-69-20-33.54-27.47-69.86-22.58-108.66a167.36,167.36,0,0,1,22.88-65.62,8.53,8.53,0,0,0-2.45-11.83Q400.24,459.53,364,433.45c-9.34-6.75-18.57-13.64-27.89-20.41q-15.8-11.44-31.68-22.78a42.19,42.19,0,0,0-4.91-3.15c-5.69-3-10.34-1.78-13.91,3.6a336.59,336.59,0,0,0-32,61.15,355.73,355.73,0,0,0,67.13,372.86A358.35,358.35,0,0,0,405.31,893c6.8,4,10.35,4.08,14.84.49a8.41,8.41,0,0,0,3.48-6.93c0-25.15,0-50.3.12-75.45,0-5.76-2.44-9.83-6.87-13.34Q336.41,734.2,317,633.46c-6.66-34.52-6-69.08.9-103.53.15-.74.33-1.46.54-2.18,1.18-4.12,4.5-7.06,7.8-6.94,4.33.17,8.37,3.18,9,7.47a35.47,35.47,0,0,1-.05,10.69q-14.21,82,21.9,157a248.57,248.57,0,0,0,76.65,92.33c4.87,3.61,6.84,7.79,6.83,13.65-.11,36.4,0,72.79-.1,109.19,0,3.58-.57,7.16-.7,10.75-.1,2.95-1.86,4.23-4.34,3.88-3.35-.48-6.93-1-9.85-2.57-15-8-30.28-15.76-44.68-24.83a353.75,353.75,0,0,1-71-59.57A373.48,373.48,0,0,1,249,419.32a356.17,356.17,0,0,1,30.5-51.24A375.32,375.32,0,0,1,451.65,235.51a365.64,365.64,0,0,1,91-21.81,373.45,373.45,0,0,1,127.6,7.9c35.61,8.51,69.42,21.66,100.86,40.42,13.73,8.18,26.74,17.58,39.94,26.62,4.85,3.33,5.7,7.87,2.42,11.35a8.76,8.76,0,0,1-4.94,2.51c-5.49.66-10.24-1.55-14.57-4.74A350,350,0,0,0,684.73,243.6c-39.1-11.56-79.06-16.57-119.81-14q-146.83,9.18-246.14,117.84c-4.13,4.51-8,9.26-11.77,14.11-3.59,4.66-3.19,10.32,1.46,14,5.95,4.72,12.4,8.81,18.62,13.18,4,2.84,8.08,5.68,12.08,8.57,10.52,7.61,21.05,15.2,31.52,22.88,8.32,6.1,16.48,12.4,24.82,18.46,6.41,4.64,13.08,8.93,19.49,13.57,8.22,6,16.3,12.11,24.45,18.17,1,.72,1.95,1.4,2.95,2.05,6.63,4.31,11.29,3.79,16.66-1.93,13.43-14.29,28.58-26.34,46.07-35.36,67.27-34.69,146.66-22.21,199.74,31.78,26,26.46,41.74,58.39,46.37,95.15,6.81,54.05-8.84,101.17-46.31,140.81-5.47,5.79-8.09,11.92-8,20,.25,53.46.15,106.93.14,160.4,0,7.32.2,14.67-.36,22-.66,8.41,6.6,15.2,16.06,11.46a356.52,356.52,0,0,0,63.11-32.13q83.42-53.9,127.44-142.94a350,350,0,0,0,35.37-130.49A355.36,355.36,0,0,0,919,465.34a25.37,25.37,0,0,1-1.48-7c-.24-4.61,2.07-7.67,6.38-9.2,3.35-1.18,6-.62,7.64,2.58a123.63,123.63,0,0,1,6.79,16.06A368.46,368.46,0,0,1,957,597.35q-3.76,103.1-59.45,190C864.93,838,822.34,878.3,770.29,908.51a362.66,362.66,0,0,1-74.23,32.62,51.17,51.17,0,0,1-6.09,1.53c-5.54,1-7.61-.39-8.3-5.87a101.18,101.18,0,0,1-1-12.53q-.09-106,0-212.08a40.07,40.07,0,0,1,.66-9.38,14.41,14.41,0,0,1,3.69-6.86c21.22-19.59,36.27-43.14,43.52-71,13.43-51.69,3.12-98.46-31.44-139.45C678.49,463.38,655,448.38,627.42,440a147.65,147.65,0,0,0-92.71,1.37c-35.3,12-62.82,34-81.5,66.17C429.08,549,425.41,592.84,442,638c10.43,28.29,28.38,51.09,52.67,68.87,11.91,8.71,25.06,15.12,38.86,20.32,11.25,4.24,9.53,2.57,9.53,13.49q.06,157.26,0,314.52C543.13,1056.51,543,1057.83,542.89,1060Z"/></g></g></svg>