<svg xmlns="http://www.w3.org/2000/svg" xmlns:xlink="http://www.w3.org/1999/xlink" viewBox="0 0 4473.12 2509.9"><defs><style>.cls-1{fill:#a1cdb1;}.cls-11,.cls-2,.cls-24,.cls-3,.cls-4,.cls-9{fill:none;}.cls-2{stroke:#6f9595;stroke-width:10.08px;}.cls-11,.cls-17,.cls-2,.cls-24,.cls-3,.cls-4,.cls-9{stroke-miterlimit:10;}.cls-17,.cls-3,.cls-4{stroke:#000;}.cls-11,.cls-3{stroke-width:7.11px;}.cls-4{stroke-width:7.3px;}.cls-5{fill:url(#linear-gradient);}.cls-6{fill:url(#linear-gradient-2);}.cls-7{fill:url(#radial-gradient);}.cls-8{fill:#6f9495;}.cls-9{stroke:#4b787a;}.cls-17,.cls-9{stroke-width:2.02px;}.cls-10{fill:#4b787a;}.cls-11{stroke:#3b5f59;}.cls-12{fill:url(#linear-gradient-3);}.cls-13{fill:url(#radial-gradient-2);}.cls-14{fill:#585347;}.cls-15{fill:url(#linear-gradient-4);}.cls-16{fill:url(#linear-gradient-5);}.cls-17{fill:#f8efca;}.cls-18{fill:url(#radial-gradient-3);}.cls-19{fill:url(#radial-gradient-4);}.cls-20{fill:url(#radial-gradient-5);}.cls-21{fill:#fff;}.cls-22{fill:#f6efc7;}.cls-23{fill:#a66770;}.cls-24{stroke:#333;}.cls-25{fill:#333;}.cls-26{fill:url(#linear-gradient-6);}.cls-27{fill:url(#linear-gradient-7);}.cls-28{fill:url(#linear-gradient-8);}.cls-29{fill:url(#linear-gradient-9);}.cls-30{fill:#585348;}.cls-31{fill:#373241;}.cls-32{fill:url(#linear-gradient-10);}.cls-33{fill:url(#radial-gradient-6);}.cls-34{fill:url(#radial-gradient-7);}.cls-35{fill:url(#radial-gradient-8);}.cls-36{fill:url(#radial-gradient-9);}.cls-37{fill:url(#radial-gradient-10);}.cls-38{fill:url(#radial-gradient-11);}.cls-39{fill:url(#radial-gradient-12);}.cls-40{fill:url(#linear-gradient-11);}.cls-41{fill:url(#linear-gradient-12);}.cls-42{fill:#e1b98c;}.cls-43{fill:url(#linear-gradient-13);}.cls-44{fill:url(#linear-gradient-14);}.cls-45{fill:#724d5b;}.cls-46{fill:url(#linear-gradient-15);}.cls-47{fill:#2f4443;}.cls-48{fill:url(#linear-gradient-16);}.cls-49{fill:#5a8b6c;}.cls-50{fill:#8bb38d;}.cls-51{fill:#bab095;}.cls-52{fill:#c38253;}.cls-53{fill:#bbb094;}</style><linearGradient id="linear-gradient" x1="2704.95" x2="2704.95" y2="190.27" gradientUnits="userSpaceOnUse"><stop offset="0" stop-color="#7f7765"/><stop offset="0.04" stop-color="#837a68"/><stop offset="0.43" stop-color="#a19880"/><stop offset="0.77" stop-color="#b4aa8f"/><stop offset="1" stop-color="#bbb094"/></linearGradient><linearGradient id="linear-gradient-2" x1="2235.07" x2="2235.07" y2="2355.13" gradientUnits="userSpaceOnUse"><stop offset="0" stop-color="#4b787a"/><stop offset="0.24" stop-color="#477273"/><stop offset="0.59" stop-color="#3e6060"/><stop offset="1" stop-color="#2e4442"/></linearGradient><radialGradient id="radial-gradient" cx="345.88" cy="2325.44" fx="112.06594335571549" fy="2430.6306290214775" r="2703.66" gradientTransform="matrix(1, -0.02, 0, 0.22, -7.65, 1823.48)" gradientUnits="userSpaceOnUse"><stop offset="0" stop-color="#585347"/><stop offset="0.33" stop-color="#605b4d"/><stop offset="0.84" stop-color="#776f5e"/><stop offset="1" stop-color="#7f7764"/></radialGradient><linearGradient id="linear-gradient-3" x1="4712.89" y1="339.55" x2="3957.57" y2="1647.8" gradientUnits="userSpaceOnUse"><stop offset="0" stop-color="#585347"/><stop offset="0.48" stop-color="#565146"/><stop offset="0.71" stop-color="#4e4b42"/><stop offset="0.88" stop-color="#42403b"/><stop offset="1" stop-color="#333"/></linearGradient><radialGradient id="radial-gradient-2" cx="4125.06" cy="1120.9" r="35.57" gradientUnits="userSpaceOnUse"><stop offset="0" stop-color="#585347"/><stop offset="1" stop-color="#7f7764"/></radialGradient><linearGradient id="linear-gradient-4" x1="515.67" y1="1683.55" x2="515.67" y2="2098.28" gradientUnits="userSpaceOnUse"><stop offset="0" stop-color="#333"/><stop offset="0.05" stop-color="#353534"/><stop offset="0.64" stop-color="#4f4b42"/><stop offset="1" stop-color="#585347"/></linearGradient><linearGradient id="linear-gradient-5" x1="861.9" y1="1487.71" x2="861.9" y2="2118.14" xlink:href="#linear-gradient-4"/><radialGradient id="radial-gradient-3" cx="3464.3" cy="994.58" r="35.57" gradientUnits="userSpaceOnUse"><stop offset="0" stop-color="#fff"/><stop offset="0.25" stop-color="#fffefd"/><stop offset="0.37" stop-color="#fdfcf5"/><stop offset="0.47" stop-color="#fbf8e8"/><stop offset="0.56" stop-color="#f9f3d5"/><stop offset="0.59" stop-color="#f7f0ca"/><stop offset="0.64" stop-color="#f6edc7" stop-opacity="0.98"/><stop offset="0.72" stop-color="#f3e6bf" stop-opacity="0.91"/><stop offset="0.81" stop-color="#eedab1" stop-opacity="0.8"/><stop offset="0.92" stop-color="#e7c99e" stop-opacity="0.64"/><stop offset="1" stop-color="#e1b98c" stop-opacity="0.5"/></radialGradient><radialGradient id="radial-gradient-4" cx="2888.3" cy="994.58" r="35.57" xlink:href="#radial-gradient-3"/><radialGradient id="radial-gradient-5" cx="3051.08" cy="985.19" r="35.57" xlink:href="#radial-gradient-3"/><linearGradient id="linear-gradient-6" x1="347.08" y1="1910.95" x2="710.71" y2="1910.95" gradientTransform="matrix(1, -0.09, 0.09, 1, -188.21, 50.08)" gradientUnits="userSpaceOnUse"><stop offset="0" stop-color="#2e4442"/><stop offset="1" stop-color="#4b787a"/></linearGradient><linearGradient id="linear-gradient-7" x1="538.5" y1="1639.29" x2="538.5" y2="2087.68" gradientTransform="matrix(1, -0.09, 0.09, 1, -188.21, 50.08)" gradientUnits="userSpaceOnUse"><stop offset="0" stop-color="#4b787a"/><stop offset="0.11" stop-color="#466e70"/><stop offset="0.45" stop-color="#395757"/><stop offset="0.75" stop-color="#314947"/><stop offset="1" stop-color="#2e4442"/></linearGradient><linearGradient id="linear-gradient-8" x1="212.56" y1="1937.78" x2="212.56" y2="2096.05" gradientTransform="matrix(1, -0.09, 0.09, 1, -188.21, 50.08)" gradientUnits="userSpaceOnUse"><stop offset="0" stop-color="#4b787a"/><stop offset="0.25" stop-color="#477173"/><stop offset="0.62" stop-color="#3d5e5e"/><stop offset="1" stop-color="#2e4442"/></linearGradient><linearGradient id="linear-gradient-9" x1="391.83" y1="1880.84" x2="453.28" y2="1880.84" gradientUnits="userSpaceOnUse"><stop offset="0" stop-color="#2e4442"/><stop offset="0.3" stop-color="#2f4745"/><stop offset="0.51" stop-color="#344f4e"/><stop offset="0.69" stop-color="#3c5d5d"/><stop offset="0.85" stop-color="#477273"/><stop offset="0.9" stop-color="#4b787a"/></linearGradient><linearGradient id="linear-gradient-10" x1="771.84" y1="822.29" x2="719.92" y2="732.36" gradientUnits="userSpaceOnUse"><stop offset="0" stop-color="#c38253"/><stop offset="0.4" stop-color="#d49f71"/><stop offset="0.76" stop-color="#e0b185"/><stop offset="1" stop-color="#e4b88c"/></linearGradient><radialGradient id="radial-gradient-6" cx="675.73" cy="883.36" r="5.46" xlink:href="#radial-gradient-3"/><radialGradient id="radial-gradient-7" cx="739.25" cy="847.77" r="5.46" xlink:href="#radial-gradient-3"/><radialGradient id="radial-gradient-8" cx="796.38" cy="888.08" r="5.46" xlink:href="#radial-gradient-3"/><radialGradient id="radial-gradient-9" cx="822.46" cy="824.67" r="5.46" xlink:href="#radial-gradient-3"/><radialGradient id="radial-gradient-10" cx="807.99" cy="683.8" r="5.46" xlink:href="#radial-gradient-3"/><radialGradient id="radial-gradient-11" cx="664.9" cy="723.73" r="5.46" xlink:href="#radial-gradient-3"/><radialGradient id="radial-gradient-12" cx="729.46" cy="674.01" r="5.46" xlink:href="#radial-gradient-3"/><linearGradient id="linear-gradient-11" x1="2182.73" y1="1980.98" x2="2182.73" y2="1367.94" gradientUnits="userSpaceOnUse"><stop offset="0" stop-color="#c38253"/><stop offset="0.33" stop-color="#d0996b"/><stop offset="0.74" stop-color="#dcb083"/><stop offset="1" stop-color="#e1b98c"/></linearGradient><linearGradient id="linear-gradient-12" x1="1343.23" y1="1959.8" x2="1343.23" y2="1353.54" gradientUnits="userSpaceOnUse"><stop offset="0" stop-color="#333"/><stop offset="0.08" stop-color="#373635"/><stop offset="0.65" stop-color="#4f4b42"/><stop offset="1" stop-color="#585347"/></linearGradient><linearGradient id="linear-gradient-13" x1="1707.41" y1="1408" x2="1982.7" y2="1408" gradientTransform="translate(545.92 -533.6) rotate(18.75)" gradientUnits="userSpaceOnUse"><stop offset="0" stop-color="#724d5b"/><stop offset="0.14" stop-color="#835861"/><stop offset="0.52" stop-color="#aa7170"/><stop offset="0.82" stop-color="#c2807a"/><stop offset="1" stop-color="#cb867d"/></linearGradient><linearGradient id="linear-gradient-14" x1="1563.98" y1="1566.17" x2="1860.5" y2="1566.17" gradientTransform="translate(-531.86 916.35) rotate(-26.67)" xlink:href="#linear-gradient-13"/><linearGradient id="linear-gradient-15" x1="2506.6" y1="1285.05" x2="2975.29" y2="2096.85" gradientTransform="translate(-147.18 255.6) rotate(-5.23)" gradientUnits="userSpaceOnUse"><stop offset="0.11" stop-color="#cb867d"/><stop offset="0.31" stop-color="#bd7d78"/><stop offset="0.66" stop-color="#9a666a"/><stop offset="1" stop-color="#724d5b"/></linearGradient><linearGradient id="linear-gradient-16" x1="1218.45" y1="2041.44" x2="1218.45" y2="1805.41" gradientUnits="userSpaceOnUse"><stop offset="0" stop-color="#b9b194"/><stop offset="0.26" stop-color="#c4bc9d"/><stop offset="0.72" stop-color="#e2dab5"/><stop offset="1" stop-color="#f8efc7"/></linearGradient></defs><title>pvz</title><g id="Layer_2" data-name="Layer 2"><g id="Layer_1-2" data-name="Layer 1"><rect class="cls-1" x="3265.99" y="351.86" width="360.91" height="575.23"/><line class="cls-2" x1="3265.96" y1="925.96" x2="3626.88" y2="925.73"/><rect class="cls-1" x="2796.53" y="350.93" width="360.91" height="575.23"/><line class="cls-2" x1="2796.52" y1="926.16" x2="3157.41" y2="926.38"/><polygon class="cls-3" points="145.07 971.7 144.86 972.84 144.86 971.63 145.07 971.7"/><polygon class="cls-3" points="145.07 971.7 144.86 972.84 144.86 971.63 145.07 971.7"/><polygon class="cls-4" points="145.07 971.7 144.86 972.84 144.86 971.63 145.07 971.7"/><polygon class="cls-5" points="4470.13 0 4260.43 82.65 3994.19 187.57 3988.86 190.27 3974.91 190.2 1758.42 182.59 1754.36 181.67 1747.25 180.1 1613.24 150.23 1320.11 84.93 985.09 10.31 939.77 0.21 989.92 0.21 4469.06 0 4470.13 0"/><path class="cls-6" d="M3975.56,186.65l-.64.28h0l-1.33.63-.14.07-2219.06-6h-10.17l-131-31.44L987.86.21H962.32l-.57-.14L0,0V2355.13l.07-.07L495.64,2093.3l0,0,22.58-11.93.28.57H981l1.64-.78,337-158.67h0l0,0,567.48-267.24,4.06-1.92L2847,1657.2h1.18l113.28.43,140.62.57,36.87.13,4.59,0,14.95.06,795.95,3.27.88.38.12,0h.28l7.18,2.27,507.24,260.27V0Zm-707.82,888.77V490.94h358.14v584.48Zm-114.1-584.48v584.48H2800.19V490.94Z"/><polygon class="cls-7" points="4470.17 1924 4470.17 2509.9 0.04 2509.9 0.04 2354.48 518.29 2080.7 518.58 2081.27 981.07 2081.27 1887.2 1654.56 1891.26 1652.64 3975.33 1662.15 3975.33 1662.15 4470.17 1924"/><rect class="cls-8" x="3153.65" y="412.42" width="114.09" height="0.14"/><path class="cls-8" d="M2725.58,412.56v733.5h975V412.56Zm900.3,662.86H3267.74V490.94h358.14Zm-472.24,0H2800.19V490.94h353.45Z"/><line class="cls-9" x1="3210.37" y1="412.06" x2="3210.37" y2="1147.79"/><path class="cls-10" d="M2768.89,524l39.75.09,94.92.23,114.78.26,99.65.24c16.08,0,32.18.36,48.25.11h.69c19.78,0,38.72-17.42,37.8-37.81s-16.61-37.75-37.8-37.8l-39.75-.09-94.92-.23-114.78-.26-99.66-.24c-16.07,0-32.17-.36-48.24-.11h-.69c-19.78-.05-38.72,17.42-37.81,37.81s16.61,37.75,37.81,37.8Z"/><path class="cls-10" d="M3255.52,524l39.74.09,94.92.23,114.78.26,99.66.24c16.07,0,32.17.36,48.24.11h.7c19.77,0,38.71-17.42,37.8-37.81s-16.61-37.75-37.8-37.8l-39.75-.09-94.92-.23-114.78-.26-99.66-.24c-16.07,0-32.17-.36-48.24-.11h-.69c-19.78-.05-38.72,17.42-37.81,37.81s16.61,37.75,37.81,37.8Z"/><line class="cls-11" x1="3974.89" y1="186.05" x2="3974.86" y2="1662.21"/><line class="cls-11" x1="1745.13" y1="180.57" x2="1741" y2="1162.06"/><polyline class="cls-11" points="985.08 0.6 985.08 0.6 985.08 0.43 985.09 5.62 985.09 10.31 983.45 1414.79 983.45 1414.86 983.45 1416.21 983.45 1433.42 983.45 1433.49 983.45 1435.27 983.45 1435.84 982.67 2080.57 982.67 2081.14"/><line class="cls-11" x1="516.77" y1="0.16" x2="515.95" y2="2075.6"/><polygon class="cls-12" points="4470.78 199.77 4470.71 349.07 4470.22 1706.53 4470.14 1924.04 4072.1 1713.92 4071.17 286.97 4470.78 199.77"/><circle class="cls-13" cx="4125.06" cy="1120.9" r="35.57"/><polygon class="cls-14" points="985.42 1414.99 0.01 1999.66 0.07 1590.08 513.36 1377.18 985.42 1414.99"/><rect class="cls-15" x="493.41" y="1683.55" width="44.53" height="414.72"/><rect class="cls-16" x="839.63" y="1487.71" width="44.53" height="630.43"/><rect class="cls-14" x="799.44" y="1414.79" width="185.14" height="20.52"/><rect class="cls-14" x="117.13" y="1637.32" width="920.01" height="24.25" transform="translate(-732.25 492.17) rotate(-29.24)"/><circle class="cls-17" cx="2222.47" cy="636.7" r="157.55"/><circle class="cls-4" cx="2080.81" cy="636.19" r="3.56"/><circle class="cls-4" cx="2221.83" cy="778.44" r="3.56"/><circle class="cls-4" cx="2362.38" cy="635.96" r="3.56"/><circle class="cls-4" cx="2221.91" cy="496.09" r="3.56"/><circle class="cls-4" cx="2221.83" cy="635.96" r="3.56"/><rect x="2251.62" y="602.34" width="6.96" height="66.56" transform="translate(2890.72 -1619.48) rotate(90)"/><polygon points="2287.93 620.87 2302.51 635.45 2287.87 650.08 2287.93 620.87"/><rect x="2218.54" y="517.97" width="7.42" height="118.05"/><polygon points="2236.78 518.21 2236.73 518.27 2207.52 518.21 2222.15 503.58 2236.78 518.21"/><circle class="cls-18" cx="3464.3" cy="994.58" r="35.57"/><circle class="cls-19" cx="2888.3" cy="994.58" r="35.57"/><circle class="cls-20" cx="3051.08" cy="985.19" r="35.57"/><rect class="cls-8" x="3813.84" y="820.01" width="64.71" height="70.98"/><polygon class="cls-1" points="3869.16 858.32 3846.18 881.29 3823.21 858.32 3869.11 858.27 3869.16 858.32"/><polygon class="cls-1" points="3869.11 851.91 3823.21 851.96 3846.18 828.99 3869.11 851.91"/><polygon class="cls-21" points="4473.12 106.57 4473.12 112.26 4263.42 189.22 3977.91 293.93 3976.63 294.35 1748.11 292.08 1748.11 292.15 1323.1 191.5 992.64 113.27 520.13 120.41 520.13 120.41 520.13 120.41 3.41 73.21 3.41 65.43 519.91 112.73 519.91 112.7 992.67 106.66 992.67 106.78 992.91 106.78 1750.17 286.1 3976.48 288.45 4472.05 106.57 4473.12 106.57"/><rect class="cls-8" x="3813.12" y="942.4" width="64.71" height="70.98"/><circle class="cls-1" cx="3845.45" cy="977.37" r="21.11"/><polygon class="cls-22" points="757.22 1419.93 757.42 1464.58 641.48 1544.04 640.91 1544.39 402.05 1544.39 402.08 1499.77 403.12 1499.72 403.12 1499.72 640.91 1498.94 641.48 1498.94 691.41 1464.58 757.22 1419.93"/><polygon class="cls-23" points="757.22 1419.93 688.47 1467.43 641.21 1499.87 402.13 1499.73 515.94 1419.93 757.22 1419.93"/><line class="cls-24" x1="1853.56" y1="1166.5" x2="1436.56" y2="1377.28"/><line class="cls-24" x1="1242.08" y1="1353.02" x2="1436.56" y2="1377.28"/><line class="cls-24" x1="1435" y1="1652.76" x2="1436.56" y2="1377.28"/><line class="cls-24" x1="985" y1="1415.11" x2="0.47" y2="1974.41"/><path class="cls-25" d="M711.73,1639.57c-3.37-7.86-6-16.37-13.57-21.1a12.26,12.26,0,0,1-2.3-2.09c-7.09-3.11-13.45-1.74-19.77-1.21-4.72.41-9.48.29-13.94,2.8-1.79,1-4.29.51-6.47.69-2.45.2-5,1.07-7.29.43s-2.86,2.93-5.49,1.37c-1.41-.84-4.11,1.13-6.28,1.54s-4.34.41-6.52.6c-14.14,1.19-28.3,2.09-42.4,3.66-11.13,1.24-22.22,1.26-33.14-1-5.09-1.07-10-.76-15-.37-4.63.37-9.69,2.26-13.76.83-6.56-2.3-12.9.51-19.48-1.26-7.8-2.11-15.61,2.83-23.58,3.49-.63.06-1.1,1.26-1.79,1.58-14.47,6.78-26.07,15.56-34.84,27-3.92,5.11-8,10.25-10.94,16-3.6,7.06-8.09,13.57-10.87,21.16-5.53,15-11.62,29.86-16.91,45-2,5.61-4.18,11.38-5.15,17.13-.9,5.3-3.93,9.47-4.47,15-.52,5.28-3.38,10.25-5.1,15.41-1,3.09-1.88,6.25-2.69,9.41-1.88,7.4-3.53,14.88-5.55,22.23-1.89,6.82-4,13.56-6.24,20.26s-2.73,13.92-4.91,20.73a170.85,170.85,0,0,0-6,25.5c-1.41,9-4.46,17.47-6,26.45-1.69,9.91-4.91,19.53-7.39,29-1.59-.33-3-.93-4.41-.82a55.75,55.75,0,0,0-14.76,2.74c-6.06,2.15-12.18,4.05-18.1,6.7-15.19,6.83-30.41,13.54-45.62,20.29-2.47,3.93-6.77,2.07-10.14,3.67-7.69,3.66-15.36,8.17-24.18,8.15-.55,0-1.39-.14-1.59.17-1.92,2.93-4.9,1.74-7.39,2.39-2.27.58-4.57-.1-6.92,1.57-2,1.43-5.18.89-7.78,1.46-3.57.78-7.2-.14-10.79,2.35-2.15,1.5-6,.11-10,0-.09.05-1.58,1.56-2.25,1.21-3.11-1.6-5.71.53-8.49.92-7.09,1-14.25.53-21.32,3.22-5.23,2-11.36,1-17,1.8-5.48.75-10.86,2.3-16.34,3-6.5.84-13.07.94-19.56,1.79s-13.08,2.16-19.59,3.42c-1.19.22-2.24,1.24-3.39,1.77-4,1.83-7.93,3.61-12.62,5.74-1.95,3.25-4,7.33-6.66,10.85-2.79,3.69-2.44,8.44-4.35,12.32-2.34,4.79-.9,9.7-.46,14.47.43,4.48-1,9.51,2.48,13.33-1.26,5.29,4.87,7.36,4.31,12.05,7.38,7.42,15.63,12.51,24.67,16.64,11.6,5.28,24,6.55,36.32,10.11-.13,6.46-.27,13-.41,19.59-3,2.8-.43,7-2.29,10.49-1.52,2.86,0,7.5-1.28,10.68-2.4,6.08-2.19,12.6-3,18.77-.8,6.33-1.86,12.7-2.42,19.11-.53,6.11-.82,12.32-2.09,18.27a97.91,97.91,0,0,0-2,15.69c-.24,5.11.51,10.52-.79,15.28-2.25,8.32-.6,17-2.75,25.24-.81,3.1.08,6.57-.84,10.06s-.25,7.15-.87,10.9c-1.29,7.73-1,15.75-1.94,23.57-.49,4.26-1.37,8.41-.62,12.71-3.16,3.51-.19,7.78-1.25,11.66a60.69,60.69,0,0,0-1.91,12.26c-.37,6.29-.26,12.61-.36,18.91,0,.85.27,1.93-.1,2.53-3.1,4.94,1.69,10.95-2,15.25,1,1.84,1.81,3.25,2.72,4.88l6.61,1.39c2.64-2.21,4.34-3.63,5.6-4.7-.16-2.31-.81-4.07-.29-5.22,3.32-7.31,4.53-15.2,5.52-23.11.82-6.6,3.24-12.69,4.59-19.13,3-14.46,6.4-28.83,9.58-43.26,3.43-15.48,6.31-31.15,10.34-46.45,5-19,7.21-38.79,13.59-57.4-.4-7.95,5.77-14.49,3.52-22.69,7.43-1.25,14.46-.47,21-3.64,4.35-2.12,8.8,1,13.28.61,9.78-.92,19.6-1.43,29.36-2.57s19.65-1.34,29.47-3.77c7.81-1.93,16.29-3.33,24.69-.9,3,.86,6.52-.13,9.73-.71,3-.54,6-2.27,9-2.37,15.39-.51,30.45-3.89,45.69-5.73.8-.1,1.83.18,2.41-.26,5.8-4.37,12.48-1.59,19.37-3.73-.73,8.79,1.58,16.22,2.82,23.84,1.76,10.85.5,22.09,3.92,32.84,1.8,5.69,0,12.21,2.39,18.06s1.41,12.25,3.3,18.39c2.13,6.94,1.26,14.77,3.34,22.13,1.67,5.93,1.51,12.39,2.88,18.63,1.89,8.64,1.62,17.75,3.65,26.59,2,8.64,1.17,17.76,3.44,26.65,2.1,8.23,1.32,17.17,3.58,25.69,1.83,6.83.91,14.2,3.05,21.34,1.93,6.39,1.66,13.54,3.14,20.36,2.13,9.82.45,20.39,4,30.09-.53,10,4.05,19.18,3.67,28.88,5.7,3.35,11.06,1.48,16.09,1.11.56-3.51,1.48-6.27,1.36-9-.43-9.18-1.22-18.33-1.87-27.49s-1.52-18.31-1.9-27.49c-.35-8.45.09-16.95-.3-25.41-.5-10.94-1.57-21.86-2.21-32.81a47.59,47.59,0,0,1,.55-7.44c-.42-2.15-1.32-4.59-.89-4.92,2.22-1.66-1.38-2.37-.29-4,.79-1.2.75-3.25.65-4.9-.88-16-3.28-31.94-1.26-47.11,1.62-2.08,3-3.62,4.1-5.33.65-1,2.29-11.43,2.41-13,.4-5.27,1.44-10.49,1.9-15.67.7-7.53,3.47-14.49,3.77-22.12.24-5.67,2.84-11.24,3.13-16.93.37-7,3.07-13.69,2.3-20.88-.23-2.09.91-4.31,1-6.49.12-2.34-1-5-.22-7,1.74-4.57,1.21-9.36,2-14,.8-5,.72-10.13,1.07-15.86,4.94.27,9.64-2,14.45-2.65,19-2.64,38.23-2.38,57.12-6.63,10.71-2.41,21.87-2.45,32.55-5a162.43,162.43,0,0,1,16.38-2.9,10.4,10.4,0,0,0,2.74-1.35c.45-.22,19.22-2.67,19.7-2.68,3.23-.13,7,.84,9.53-.67,3.58-2.17,7.18-1.72,10.76-2.42l11.38-2.21c3.37,7.84,7.22,15.58,11.13,23.2,2.49,4.84,2.14,11.12,6.58,14.81.15,5.65,4.34,9.24,6.19,14.1,4.5,11.9,9.91,23.39,14.66,35.2,2.35,5.83,6.07,10.86,8.4,16.55,5.36,13.05,12.52,25,18.28,37.82,4,8.85,9.77,16.61,13.45,25.76,2.38,5.87,5.67,11.53,12.85,11.7,1.54-.91,3.11-1.81,5-2.91a34.56,34.56,0,0,0-2.18-10.66c-2.24-6.76-4.57-13.54-6.35-20.41-2.9-11.24-8.27-21.31-11.65-32.33a204.74,204.74,0,0,0-7.32-20.79c-2.75-6.39-3.67-13.26-6.11-19.66-.68-1.77-1.8-3.52-1.92-5.34-.24-3.64-1.34-6.62-3.87-8.91-.44-9.48-5.36-17.46-7.43-26.43a107.33,107.33,0,0,0-9.7-25c-4.17-8-5.27-17.11-9.43-25.23-4-7.76-5.86-17-9-25.46s-7.71-15.92-9.89-24.41l11-8.31c1-2.81,1.48-7.36,3.82-9.61,2-2,2.25-4.75,4.31-6.5s3.57-4.34,5-6.8a45.85,45.85,0,0,0,3.34-7.45c2.64-7.4,6.24-14.38,7.79-22.3,1.36-7,3.81-13.7,4.89-20.7,1.14-7.37,3.95-14.43,3.59-22.08,5.07-15,4.39-31.13,8.08-46.39-.75-8.26,2.73-16.22,1.53-24.51,2.61-3.91.39-8.38,1.22-12.53a185.38,185.38,0,0,0,3.52-35.9c0-1.48-.8-3.44-.19-4.35,2-3,.74-6.16.91-9.24s.76-6.09.93-9.16c.28-5.17-1.67-10.28,0-15.58s-1.69-10.86,1.11-16c-1.18-8.37-.28-16.74-.25-25.12,0-6.79-.74-13.61-1.4-20.38-.35-3.55-1.23-7-1.71-9.73,2.72-3.2,4.87-6.63,7.77-9a46.15,46.15,0,0,0,16.08-24.46c1.16-4.2,2.6-8.33,3.37-12.62A12.85,12.85,0,0,0,711.73,1639.57ZM71.16,2066.66c-2.81-7.72-4.84-15.61-5-24,0-1.18-.16-2.37-.24-3.56a55.41,55.41,0,0,0,2.74-6.79c.67-2.66.89-5.46,1.44-9.06,7.22-8.26,16.33-14.55,27.74-15,17.57-.67,34.73-5,52.21-6.31,7.84-3.68,16.56-1.72,24.42-4.07,13.21-4,26.73-3.11,40.06-4.8a34.36,34.36,0,0,0,8.17-2.55c2.43-1,5,.09,7.65-1.86,3.1-2.3,7.88-.14,11.12-3.34,11.59-2.5,22.53-7.25,33.49-11.81,7.09-3,14.27-5.77,21.19-9.08,10.41-5,20.82-10,31.44-14.28a58.12,58.12,0,0,1,25-4.22h0c-.37,1.85-.71,3.7-1.05,5.55s-.66,3.73-1,5.58c-.7,3.7-1.47,7.38-2.5,11-2.12,7.38-3,15.11-5.32,22.3s-3,14.61-4.13,21.8c-1.15,7.64-4.86,15.32-1.31,24.28-5.45-3.06-9.63-6.51-14.3-7.73-4.89-1.27-9.79-4.15-15.16-2.55-5.47-4.51-9.42,2.69-14.54,1l.18,2c3.44-.3,6.91-.43,10.33-.91,7.16-1,13.47,3.12,20.34,3.81,3.54,3.62,8.12,5.93,11.33,11.1.43,6,.12,12.94,1.62,19.43s2.06,13.13,5.94,18.79c3.46,5.06,2.89,12.5,8.95,16.29l-16.5,8.23c-4.23.35-10.55.42-16.69,1.57-3.9.73-7.2-1.31-10.91-1.13-3.32.15-6.67,1.83-10.17-.64-1.45-1-4.23.11-6.4.36a44.16,44.16,0,0,1-17.75-1.8c-1-.29-2.13.07-3.17,0-2.83-.29-5.56,1.36-8.58-.73-2.23-1.55-5.31.3-8.4-1-3.93-1.67-8.83-.36-13.18-1.14-10-1.8-20.31.69-30.19-2.68-.72-.25-1.62.12-2.43.16-3.93.21-7.71.65-11.75-.57-3.37-1-7.33,1.43-10.8-1.09-5.31,1.74-10.51-.49-15.77-.64-4.27-.13-8.69-1.52-12.88-1.69-10.11-.43-19.5-4.66-29.5-5.4-4.48-.34-8.88-2.05-13.29-3.27s-8.77-2.56-13.13-3.94c-7.26-2.28-14.58-4.42-21.74-7.06C73.68,2073.33,73.2,2072.3,71.16,2066.66Zm278,38.1q0,.88.12,1.77l-.55,0-.12-1.78Zm-7.41,4-.56.17a2.62,2.62,0,0,1-2.17,1.88l-.19,0c-.07-.39-.15-.77-.22-1.14l2.58-.78a8.87,8.87,0,0,0,.47-1.43c.06.53.11,1.07.17,1.61l.83-.19a4.24,4.24,0,0,1,3.15-2l.61-.08c.05.39.11.79.17,1.17l-3.93.9a8.21,8.21,0,0,0-.73,1.37C341.82,2109.81,341.77,2109.3,341.7,2108.79Zm-4.86,3.57-4.23,1c-.09-.52-.17-1-.26-1.56l4.34-.37C336.74,2111.75,336.79,2112.06,336.84,2112.36Zm-17.91-1.05.06.89-9.79.82-.06-.88Zm-13.27-.81c-4.11,2.42-6.77,1.79-9.45.8Zm-13.4-.67c-2.81,2.45-6,1.63-9.21.79Zm-12.84-.78c-5.06,2.66-7.76,2.78-11.15.93-2.86-.11-5.5.36-8.17.13l-.25,0a13,13,0,0,1-2.1-.37,11.55,11.55,0,0,1-1.5-.51c-3.23-1.37-7.17,1.69-10.81-.94-1.06-.78-3.17.33-4.78.22-3.65-.23-7.26,1.85-11-.24-3.28-1.85-6.92.53-10.76-1-3.22-1.31-7.59-.39-11.49-1.12-4.31-.8-8.75-.72-13.12-1.11-.27,0-.46-.92-.68-1.41-1.95,0-3.89.14-6,.3l-2.24.18c4.68-2.45,4.68-2.45,7.91-.66,3,.37,5.79-.44,8.63-.35a.06.06,0,0,0,.06,0,10.28,10.28,0,0,1,1.64.18l.42.09.41.1.43.13.42.15a3.79,3.79,0,0,1,.42.18l.43.19c3.33,1.65,7.79-2,11.54,1,.32.26,1.05-.09,1.59-.09,6.84,0,13.76-.64,20.51.24s13.69,1.05,20.38,3c1.71.51,3.71-.17,5.55,0,.77.07,1.47,1,2.22,1.52,3.21-.09,6.43-.34,9.95-.63Zm-97.8-8.1.14,1.54-6,.51c-.05-.37-.1-.74-.14-1.1Zm-11.37.72-2.71.23-.18-.84,2.62-.91C170.06,2100.66,170.16,2101.16,170.25,2101.67Zm-8.29-1.09-4.32.36-.15-.89,4.22-1C161.8,2099.55,161.88,2100.06,162,2100.58Zm-9.72-1.85c0,.2,0,.39,0,.59l-1.63.14c0-.2,0-.4,0-.59Zm-6.65-1.22c0,.19,0,.39,0,.59-.54.05-1.08.1-1.63.13,0-.19,0-.39,0-.59C144.5,2097.61,145.05,2097.56,145.59,2097.51Zm-5.1-1.73c-2.6,1.87-2.6,1.87-4.6.38a20.32,20.32,0,0,0-5.11,0c2.59-1.88,2.59-1.88,4.59-.39A19.49,19.49,0,0,0,140.49,2095.78Zm-54-13.52-.54,0c0-.59-.08-1.18-.13-1.77l.55-.05Zm21,7.38a36.09,36.09,0,0,1-9.17-2.22s0,0,0,0l-1-.38-.32-.12-1-.4c-.78-.32-1.53-.65-2.24-1-.36-.16-.71-.34-1-.5-.73-.38-1.39-.75-2-1.11H90.3l.15-.19a0,0,0,0,1,0,0,3.64,3.64,0,0,1-1.17-.62l-.39-.31.48-.6c.41.45.82.91,1.24,1.36l-.14.17h0l.27.18a24.34,24.34,0,0,1,13.66,3.5,25.57,25.57,0,0,1,2.88,2,28,28,0,0,0,3.51-.08h0l1.31-.11C109.53,2091.13,109.53,2091.13,107.53,2089.64Zm9.74,2.07L114,2092c0-.3,0-.59-.06-.89q1.64-.12,3.27-.27Zm7,1.87a17,17,0,0,0-4.45-.06l-.67.06c2.59-1.88,2.59-1.88,4.59-.39a17.45,17.45,0,0,0,4.45.06l.67-.06C126.22,2095.07,126.22,2095.07,124.22,2093.58Zm28.9,81.71c-1.2,13.53-5.88,26.2-8.09,39.45-1.05,6.28-3.86,12.11-4.33,18.3-.49,6.49-2.54,12.41-3.9,18.55-2.08,9.33-4.59,18.54-6.5,27.94-3.32,16.35-7.21,32.56-11,48.81-1.53,6.65-4.3,13.17-4.64,19.86-.36,7.15-3.82,13.26-4.15,20.24,0,.94-1.32,1.81-2.66,3.5,0-6.05.5-11.3.87-16.54.1-1.36.69-2.69.72-4.05.18-6.29-.2-12.65.45-18.89.66-6.39,1.06-12.94,2.2-19.11.92-5,.58-10,1.46-14.93,1-5.37,1.67-11,2.13-16.49.38-4.74.31-9.71,1.08-14.41,1.43-8.83-.38-18,2.9-26.6-1.55-8,2.27-15.53,1.89-23.64-.28-6.25,2.17-12.63,1.62-19.17,3.42-4.11.28-9.24,1.89-14,1.39-4.09,1.35-9.39,1.32-14.31a88.85,88.85,0,0,1,1.75-20c1.82-8,1.3-16.5,4.42-24.36,1.14-2.89-.28-7-.52-10.28,3.77-5.34,7.72-5.37,12.29-3.88,4.42,1.44,6.73,5.11,9,8.94-2,11.42-4,23-6.21,35.43a6,6,0,0,1,1,2.41,10.09,10.09,0,0,0,2.51,6.08C153.19,2167.05,156.2,2170.6,153.12,2175.29Zm185.13-42.5c-13.28,3.17-26.81,2.4-39.95,5.08-6,1.22-12,3-18,2.82-4.7-.14-9.47-1.67-14.1-.34-17.66,5.08-35.87,4.19-53.81,6.15-18.15,2-36.38,3.16-54.58,4.69l-5,.42c.72-5.65.31-11.35,2.31-15.76,2.25-4.93-1.82-10.62,3-15.09,5.59.26,11.48-.66,17.67-.12s12.61,1.75,19,.72c3.37-.54,6.45,2,10.06,1,3.26-.83,6.62-.12,10.06.52,5.91,1.11,12.09.28,18.15.59a116.17,116.17,0,0,1,19.77,2.85,8.31,8.31,0,0,0,2.2.57c4.08-.27,8.15-.88,12.23-.93,3.61,0,7.35,1.27,10.83.66,9.36-1.65,18.69.72,28-.47,2.5-.32,4.46,3.18,7.35.59,2-1.77,4.57.82,7.08.13s5.42-.41,8.11-.83c3.59-.55,7.38.33,10.71-2.5,1.26-1.05,3.9-1.11,5.56-.5,6.26,2.28,13-.82,19.81,3.06C355.57,2129.07,346.87,2130.72,338.25,2132.79Zm15.21-28.4c0-.59-.09-1.18-.13-1.77l.54,0,.13,1.78ZM405.6,2151c.2,11,2.32,21.9,2,32.79-.7,26,3.93,51.6,3.67,77.37-.18,18.27,3.1,36.26,2.34,54.32-.72,17.42,2.65,34.5,2,51.68-.45,12.35.64,24.43,1.31,36.62.68,12.43,1.73,24.81,2.6,37.22a5.05,5.05,0,0,1-.15,1.24l-4.06-1.5,2.19-3.69c-.54-.58-1.49-1.12-1.6-1.82-1.19-7.66-2.17-15.37-3.38-23-.66-4.17-1.86-8.24-2.43-12.42s.26-8.69-1.18-12.29c-1.88-4.74-1.16-9.77-2.58-14.24-2.33-7.3-1.32-15.14-3.36-22.12-2.17-7.43-2.16-14.85-2.84-22.28-.41-4.6-3-8.45-2.8-13.3.23-4.69.43-9.87-1.11-14.07-2.47-6.75-1.86-13.69-2.91-20.48-.56-3.59-1.78-7.07-2.3-10.67-.55-3.79.32-8.14-1.08-11.4-2.63-6.12-1.55-12.58-2.85-18.7a161,161,0,0,1-3.52-27.51c-3.37-5.13-1.94-11.22-2.85-16.84-.95-5.91-2.16-11.8-2.84-17.74-.73-6.46-1-13-1.45-19.48-.44-6.21,0-12.71-1.57-18.53-1.88-6.79-2.18-13.58-2.83-20.11l5.86-5.13,17.13-1.45,5.6,3a6.76,6.76,0,0,1,.81,1.8C402.05,2129.23,405.4,2139.81,405.6,2151Zm14.24,99.16c-1.42-3.84-1.19-8-1.57-12.05-.44-4.72-.7-9.45-1-14.18-.32-4.43-.51-8.88-1-13.29-.51-4.6.1-9.05.54-13.6.42-4.35-.69-8.86-.73-13.28s.3-9.07.64-13.59c.32-4.15.87-8.27,1.33-12.68,2,.7,3.92.94,5.35,1.93,2.06,1.42,3.78,3.39,6.26,5.69C426.61,2193.08,422.58,2221.46,419.84,2250.13Zm9.64-130c-2.73,4.54-5.88,8.77-8.68,13.25-2.45,3.92-4.66,8-7.34,12.65-.62-4.8-.76-9.39-1.12-13.93s-.67-9.34-1-13.88c4.24-4.06,10.68-5.74,21.25-5.52C431.52,2115.32,430.8,2117.94,429.48,2120.12Zm186.74-30.64-3.42-1.68c-1.07.71-2.15,2.08-3.21,2.06-10.27-.2-19.94,3.95-30.14,4.58-8.73.54-17.64,1.56-26,4.15-5.5,1.71-11.13,1.22-16.33,3-6.2,2.15-12.8,1.4-18.72,3.42-10.76,3.63-21.81,2.73-32.67,4.22-6.48.88-13.39-.08-19.46,2-8.66,3-17.48,2.26-26.16,3.67a11.66,11.66,0,0,1-2.15,0l-2.47-4.71c6.24-2.38,12.46-4.73,18.66-7.14,3.81-1.49,7.68-2.88,11.49-4.3,5.55-2.09,11.36-3.65,17-5.49,11.73-3.81,24.18-5.15,35.22-11.48a6.83,6.83,0,0,1,3.19-.4c7.17-.1,13.34-4.13,20-6.08,5.39-1.56,10.59-3.89,15.87-5.87a70.23,70.23,0,0,0,7.9-3,51,51,0,0,1,11.64-4.22c6.37-1.58,12.45-4.61,18.65-7.06,1.91-.76,3.8-1.59,7-2.94.41-.55,1.24-1.7,2.15-2.92,5.13,4.93,8.81,10.54,8.72,16.57,3.13,7.73,5.65,14,8.16,20.21Zm18-24.66c1.63,7.39,5.31,14.23,7.85,21.41,3.57,10,6.66,20.25,10.47,30.17,4.77,12.42,9,25.08,13.69,37.54,3.32,8.9,6.88,17.79,9.75,26.9,2.79,8.89,6.3,17.45,9.22,26.26q5.41,16.38,10.89,32.74c2.19,6.58,3.37,13.92,7.53,19.77a4.24,4.24,0,0,1,.41,2.48l1.26,1.73-1.41.2.14.53a2.84,2.84,0,0,1,1.74,2.43,1.33,1.33,0,0,1,0,.21l-1,.24c-.24-.95-.49-1.92-.73-2.88a6.16,6.16,0,0,0-1-.41l1-.16c0-.59,0-1.25,0-1.89a200,200,0,0,1-17.73-30.18c-.35-.73-.7-1.46-1-2.19-5.86-12.43-12.41-24.46-18.18-37-4-8.77-8.52-17.41-12.63-26.2-2.85-6.11-5.15-12.5-7.77-18.74-3.05-7.23-6.83-14.11-9.46-21.49a105.81,105.81,0,0,0-10.07-21.21c-2.1-3.34-3.09-7.5-4.54-11.18l5.49-4.74-16.37-45.7c.35-5,5.65-6.47,9.21-10.91C625.29,2044.08,631.74,2053.3,634.27,2064.82ZM683.06,1716c-.22,3.94-.73,7.88-.73,11.82s1.54,8.06.52,11.43c-1.53,5-.21,9.73-.4,14.56-.14,3.36-.68,6.69-.86,10.05-.18,3.07,1.28,6.29-1,9.2-.38.49,0,1.74.15,2.6,1.83,9-.81,17.92.16,26.9.28,2.67-.63,5.49-1,8.26-.36,3.05-.71,6.1-1,9.15-.25,2.77.25,5.34-.75,8.38-1.42,4.35-.55,9.55-1,14.36-.56,6.66-.93,13.44-2.41,19.88-.55,2.37-.31,4.49-.6,6.69s-1.29,4.41-1,6.49c.82,7.19-1.46,14-2.4,20.86-.76,5.59-2.09,11.39-2.93,17-1.71,11.47-4.32,22.72-6.55,34a156.75,156.75,0,0,1-10.25,33.52c-3.38,7.59-6.66,15.22-11.73,21.78-2,2.51-3.21,5.65-5.69,10.15-5.08,3.83-11.59,9.14-18.46,13.84-9,6.15-18.86,10.58-28.68,14.73-7.55,3.2-15,6.73-22.76,9.46s-14.64,8-22.39,9.91c-9.86,2.39-18.44,8.19-28.28,10.6-4.75,1.16-9.93,2.27-14.44,5.19-4.12,2.69-9.06,3.85-13.57,5.27-5.41,1.71-10.81,3.54-16.2,5.39-2.68.93-5.39,1.74-8,2.76-.69.26-1.22,1.6-1.77,1.56-7.07-.49-12.83,4.71-19.61,5.27-8,.66-15.51,4.48-23.66,3.8-5.34,3.39-11.62,1.58-17.1,3.39-14.17,4.68-28.87,2.82-43.5,4.28,1.09-.35,2.39-.43,3.26-1.12,1.27-1,2.17-2.56,3.38-3.69s2.52-1.88,3.73-2.88a28.68,28.68,0,0,0,3.57-3.22c.94-1.09,1.44-2.63,2.39-3.7,5.76-6.47,14.1-22.88,16.16-31.59.87-3.71,2-7.35,3.18-11,4.56-14.22,9.63-28.28,13.65-42.68,4.49-16,8.46-32.25,10.6-49,1-8.06,2.56-16.28,4.17-24.34,1.11-5.57,1.26-11.59,2.35-17.35.61-3.28.08-6.92,1.14-10,1.19-3.46-.31-7.63,1.06-9.89,2-3.25-.19-6.7,2.06-9.87,1.4-2-1.13-6.16,1.24-9-1.23-9.15,3.87-17.46,3-26.57,3.18-2.4.18-6.45,2.36-9.64,1.58-2.33.63-6.55,1.24-9.83.56-2.93,1.83-5.69,2.58-8.58a57.57,57.57,0,0,0,2-9.65c.72-9.46,4.83-18,6.08-27.21.68-5,2.51-9.54,3.14-14.48.6-4.62,1.2-9.34,3.75-13.36.42-12.3,6-23.3,7.59-35.34.35-2.64,1.84-5.11,3.1-8.46,8.25,4.92,17.11,5.94,25.48,8.58,7.32,2.43,14.9.91,22.44,2.13,6.32,1,13-.71,19.54-1.35,8.78-.87,17.54,1.07,26.38-.29,8.62-1.33,17.38-1.59,26.08-2.32,9-.76,18-1.34,26.91-2.36,4.13-.46,8.18-1.76,12.25-2.74s8.2-.1,12.41-2.47c3.69-2.06,8.83-.62,13-3.12.58-.34,1.85.66,3.14,1.18,2.67-4.58,8.06-2.54,11-6,6.61-.75,12-4.33,17.19-8.54.37-.31,1.07-.13,1.69-.19C681.12,1704.37,683.4,1709.89,683.06,1716ZM357.57,2100.47l.15,0c-.07-1.47.52-1.8,1.26-1.87a2.33,2.33,0,0,1,.46,0c.27,0,.56,0,.83,0a2.61,2.61,0,0,0,.42-.08c.05,2.54-1.73,1.76-3,2,0,.05,0,.13,0,.19l-.16-.15h0a5.12,5.12,0,0,1-.85,1.7l-.56-.52c.42-.44.84-.9,1.25-1.34a1.07,1.07,0,0,1,.16.14Zm4.62-4c0-2.66,1.92-1.67,3.14-2C365.38,2097.13,363.41,2096.15,362.19,2096.51Zm7.65-7.76h0a4.38,4.38,0,0,1,.61-1.31l.25-.38.55.51-1.24,1.35a1.29,1.29,0,0,1-.17-.16c-.38.48-.75,1-1.13,1.42a6.45,6.45,0,0,0,1-1.58C369.72,2088.64,369.77,2088.7,369.84,2088.75Zm2.9-5.62h0a4.36,4.36,0,0,1-.6,1.31l-.25.38-.56-.51,1.25-1.35.17.16,1.13-1.42a7.14,7.14,0,0,0-.95,1.57A.84.84,0,0,1,372.74,2083.13Zm4.21-7.47a1,1,0,0,1,0-.17l.16.15h0a5.48,5.48,0,0,1,.85-1.69l.56.52-1.25,1.35-.16-.15,0,0-.15,0c.09,1.22.79,2.66-.24,3.33a1,1,0,0,1-.32.16.84.84,0,0,1-.19.07l-.46.1C375.89,2078,374.75,2076.09,377,2075.66Zm2.1-3.75-.13-1.77.54,0c.05.59.09,1.18.13,1.77Zm2.88-5.6-.13-1.77.55-.05c0,.59.08,1.18.13,1.77Zm.79-4.23c0-.19,0-.39,0-.59l1.63-.13c0,.19,0,.39,0,.59Zm5.27-18.29c0-.19,0-.39-.05-.59.55,0,1.09-.08,1.64-.13,0,.19,0,.39,0,.59C389.07,2043.71,388.53,2043.76,388,2043.79Zm1.14-6.15,1.39-.32c.07,1,.14,2,.22,3l-.77.2Zm1.48-3c0-.2,0-.39,0-.59l1.63-.14c0,.2,0,.4,0,.59Zm62-305c.2-.25.41-.54.65-.87-.31.08-.9-.67-.69-1.33a.32.32,0,0,0,0-.09,1.07,1.07,0,0,1,.25-.32l.13-.1h0a.86.86,0,0,1,.3-.16l.11,0,.18-.06.19,0,.22,0c.5-1.8-1.83-4.36,1.25-5.46.15-1.36-1-3.32,1.38-3.67.18-.34.32-.61.45-.81a8.62,8.62,0,0,1-.57-1.69c-.06-.24.53-.65,1.7-2a31.73,31.73,0,0,0-.76,3.15c.16-.08.08.46,0,1.06,0,.06,0,.12,0,.18l-.09-.25a16.37,16.37,0,0,1-.56,3h0a1.55,1.55,0,0,1-.57.73,1.69,1.69,0,0,1-.43.18l-.17,0-.31.06c-.5,1.81,1.83,4.37-1.25,5.46-.15,1.26.87,3-.88,3.58a3,3,0,0,1-.51.11c0,3.23.28,6.7-.41,9.7a11.86,11.86,0,0,1-.64,2c-4,9.08-5.08,19-7.37,28.49-2.81,11.67-5.81,23.34-7.74,35.28-1,6.21-2.38,12.39-3.9,18.48s-2.12,12.53-3.34,18.7c-1.3,6.44-2.38,12.94-3.68,19.39-.69,3.49-1.89,7-2.06,10.47-.41,8.67-2.26,17.1-3.22,25.66-.55,5-1.33,9.87-2.23,14.76-1.15,6.22-2.52,12.47-3,18.75s-1.46,12.71-2.48,19c-1.3,7.89-2.31,15.84-3.95,23.64a380.87,380.87,0,0,1-12.77,47.29c-1.07,3.06-1.84,6.25-3.2,10.92-.38-2.95-1.11-4.65-.68-5.89,2.76-8.14,3.19-16.74,4.55-25.17,1-6,2.71-11.84,3.17-17.83a151.2,151.2,0,0,1,2.4-18.18c1.11-5.68,1.19-11.69,3-17.08,1.2-3.61-.7-7.11,1.44-10.81,2-3.52,1.77-8.52,3.14-12.62,1.31-3.89.14-8.53,3.12-11.86.42-7.49,2.61-14.63,3.77-22s2.19-14.76,3.39-22.12c.44-2.7,1.39-5.29,1.83-8,1.06-6.27,2.68-12.37,3-18.87.25-5.37,2.32-10.63,3.57-15.94,2.28-9.58,3.39-19.44,6.11-28.93,2.24-7.85,4.65-15.73,5.85-23.8,1.09-7.41,3.54-14.33,5.1-21.55,1.5-6.91,3.78-13.62,5.77-20.39A9.26,9.26,0,0,1,452.63,1729.69Zm252.84-81.76a.5.5,0,0,0,0-.12,2.15,2.15,0,0,0-.71,1.41c-.29,13.36-8.91,25.63-19,32-7.24,4.52-14.42,9.07-22.16,12.44-5,2.15-10,4.05-15.05,5.91-4.59,1.69-9.2,3.39-13.89,4.7s-9.53,1.27-13.79,3.21c-4.87,2.22-10,1.4-14.73,3-11.51,3.86-23.41,3.22-35.13,4.52-11.94,1.31-23.91,2.21-35.89,3-3.31.22-6.7-.51-10-.86s-6.81,2.11-10.18-.69c-.81-.68-2.62-.09-3.95.12-8.17,1.32-15.9-1.29-23.8-2.81a107.6,107.6,0,0,1-15.45-4.18c-4.87-1.71-8.78-4.89-12.72-7.69-5-3.59-5.15-10.25-3.71-16.31A47.81,47.81,0,0,1,467.85,1662c-1.07-.26-2.09-.84-2.45-.53-7.54,6.43-13.4,21.36-14.07,32.74-4.17-.06-2.67-4.64-4.39-6.78s-2.25-5.43-3.29-8.22l-1.42.93c2.08,6.76,2.31,14.17,6.7,20.21-4.55,9.07-12.69,14.18-19.59,20.72,8.54-4.11,16.94-8.34,21.68-17l6.05,4.32c-4.64,3.73-4.29,9.24-6.09,13.79a116.3,116.3,0,0,0-4.76,13.85c-1.79,6.81-4,13.56-5.86,20.37-2.79,10-4.73,20.24-6.93,30.4-1.74,8-3.18,16.1-5.35,24-2.73,10-3.17,20.64-6.94,30.37.75,6-.78,11.7-2,17.43-1.15,5.35-2.49,10.69-3.26,16.11-1.86,13.1-4.54,26-7.29,38.87-1.89,8.84-3.56,17.7-6,26.43-1.52,5.53-1.83,11.44-2.72,17.18q-1.86,11.87-3.76,23.73c-.7,4.37-2,8.58-1.9,13.17.15,5-3.14,9.53-2.15,14.76-3.47,12.65-4.21,26-8.57,38.45-.44,1.25.25,3.17-.4,4.13-4.75,7.05-6,16-10.46,23.11-2.08,3.3-3.9,6.85-6.33,9.82-3.27,4-7,7.61-10.37,11.2-7.61-3.64-9.75-10.86-11.31-17.86-1.35-6.07-3.39-12-3.27-18.58s-1.23-13-1.14-19.5a99.19,99.19,0,0,1,2-18.28c1.37-6.77,2.27-13.59,3.44-20.38a111,111,0,0,1,3.82-15c3-9.42,3.88-19.35,6.15-28.93,2.5-10.61,5.4-21.12,8.16-31.66.62-2.36,2.11-4.71,2-7-.27-8.07,3.44-14.95,5.12-22.42,2-8.8,4.17-17.53,6.31-26.28,4.4-18,8.12-36.21,13.21-54.06,2.22-7.77,6.12-15.25,6-23.86,0-1.73,1.46-3.46,2.09-5.26,2-5.64,4.8-11.17,5.5-17s4.13-10.59,4.6-16.66c.36-4.65,3.26-9.15,5.35-13.56,2-4.19,2.1-9,4.46-13.17,2.06-3.62,2.41-8.33,4-12.36q5.16-13.31,10.84-26.38a57.79,57.79,0,0,1,5.15-9.4c5.3-7.86,10.17-15.93,17.23-22.46,5.52-5.1,10.78-10.59,16.83-15,9.21-6.67,19.67-8.78,30.54-9,4.91,2.77,10,.41,14.95.53,3.23.07,7.11,1.37,9.55-.12,3.54-2.15,5.68,2.12,9,.58a16,16,0,0,1,10.45-.88,25.4,25.4,0,0,0,10.11.65c3.43-.36,6.8.76,10,1.29,8.68,1.43,17.09-.24,25.6-.73s16.86-1.38,25.28-2.09c5.44-.46,10.9-.73,16.31-1.41,8.46-1,16.66-4.17,25.31-3.87,5.31-3.55,11.4-2.25,17.12-3.28,1.46-.26,2.82-1.13,4.63-1.89,3.55,2.19,8.8.2,12.51,4.09,3.23,3.37,6.62,6.57,9.14,9.07.9,5.21,1.57,9,2.49,14.35C705.54,1647.74,705.58,1647.77,705.47,1647.93Z"/><path class="cls-26" d="M649.58,1713.5c2.67-4.59,8.06-2.55,11-6,6.62-.75,12-4.33,17.21-8.55.36-.3,1.06-.12,1.68-.18,1.68,5.65,3.95,11.17,3.61,17.32-.21,3.94-.73,7.88-.73,11.81s1.54,8.06.52,11.44c-1.54,5-.21,9.73-.4,14.56-.14,3.35-.68,6.69-.87,10-.17,3.08,1.29,6.3-1,9.21-.38.49,0,1.74.14,2.6,1.84,9-.8,17.92.16,26.9.29,2.67-.62,5.5-.94,8.26-.36,3-.71,6.09-1,9.15-.25,2.77.25,5.35-.75,8.39-1.43,4.35-.55,9.54-1,14.34-.58,6.67-.94,13.45-2.42,19.89-.55,2.37-.31,4.49-.6,6.69s-1.29,4.41-1,6.49c.82,7.19-1.47,14-2.4,20.86-.76,5.58-2.1,11.39-2.93,17-1.71,11.48-4.32,22.72-6.55,34a157,157,0,0,1-10.24,33.51c-3.39,7.6-6.67,15.23-11.74,21.79-1.94,2.51-3.21,5.65-5.69,10.15-5.08,3.83-11.59,9.13-18.46,13.83-9,6.16-18.86,10.59-28.68,14.74-7.55,3.19-15,6.73-22.76,9.46s-14.64,8-22.39,9.91c-9.86,2.38-18.44,8.19-28.28,10.6-4.76,1.16-9.93,2.26-14.44,5.2-4.13,2.68-9.06,3.84-13.56,5.26-5.42,1.71-10.82,3.54-16.21,5.39-2.68.92-5.39,1.74-8,2.76-.69.26-1.22,1.6-1.77,1.56-7.07-.49-12.83,4.71-19.61,5.27-8,.66-15.51,4.49-23.66,3.8-5.35,3.39-11.62,1.58-17.1,3.39-14.17,4.68-28.87,2.82-43.51,4.28,1.11-.35,2.39-.43,3.27-1.12,1.27-1,2.17-2.56,3.38-3.69s2.51-1.88,3.73-2.88a27.92,27.92,0,0,0,3.57-3.22c.94-1.09,1.44-2.63,2.39-3.71,5.75-6.46,14.11-22.86,16.16-31.58.87-3.71,2-7.35,3.18-11,4.56-14.22,9.62-28.28,13.65-42.68,4.49-16,8.46-32.25,10.6-49,1-8,2.56-16.27,4.17-24.34,1.1-5.57,1.26-11.58,2.34-17.35.62-3.28.08-6.93,1.14-10,1.2-3.46-.3-7.63,1.08-9.89,2-3.25-.2-6.7,2.05-9.87,1.4-2-1.13-6.16,1.24-9-1.23-9.16,3.87-17.46,3-26.57,3.18-2.4.18-6.45,2.36-9.65,1.58-2.31.63-6.54,1.25-9.82.55-2.93,1.83-5.68,2.57-8.58a57.57,57.57,0,0,0,2-9.65c.72-9.46,4.83-18,6.08-27.21.68-5,2.51-9.54,3.15-14.48.59-4.63,1.19-9.34,3.73-13.36.43-12.3,6-23.3,7.6-35.34.35-2.64,1.83-5.11,3.1-8.46,8.25,4.92,17.11,6,25.48,8.59,7.32,2.42,14.9.9,22.45,2.11,6.31,1,13-.7,19.53-1.34,8.78-.87,17.54,1.07,26.38-.29,8.62-1.33,17.38-1.59,26.08-2.33,9-.75,18-1.33,26.91-2.34,4.13-.47,8.18-1.76,12.26-2.75s8.19-.11,12.41-2.47c3.68-2.07,8.82-.62,13-3.12C647,1712,648.29,1713,649.58,1713.5Z"/><path class="cls-27" d="M442.23,1680.18c2.07,6.76,2.31,14.17,6.7,20.21-4.55,9.07-12.69,14.18-19.59,20.72,8.54-4.11,16.94-8.34,21.68-17l6,4.32c-4.63,3.73-4.28,9.24-6.09,13.79a120.61,120.61,0,0,0-4.75,13.85c-1.79,6.81-4,13.55-5.86,20.38-2.79,10-4.73,20.23-6.94,30.39-1.73,8-3.17,16.1-5.34,24-2.74,10-3.18,20.64-6.93,30.38.73,6-.79,11.69-2,17.42-1.16,5.36-2.5,10.69-3.27,16.11-1.87,13.1-4.54,26-7.29,38.87-1.89,8.84-3.56,17.7-6,26.43-1.52,5.52-1.83,11.44-2.73,17.18q-1.85,11.87-3.75,23.72c-.7,4.38-2,8.59-1.9,13.19.15,5-3.14,9.52-2.15,14.75-3.47,12.65-4.21,26-8.57,38.44-.44,1.26.25,3.18-.4,4.14-4.75,7.05-6,16-10.46,23.11-2.08,3.3-3.91,6.84-6.32,9.82-3.28,4-7,7.61-10.39,11.2-7.6-3.64-9.73-10.86-11.3-17.86-1.35-6.07-3.39-12-3.27-18.58s-1.23-13-1.14-19.5a99.19,99.19,0,0,1,2-18.28c1.37-6.77,2.27-13.59,3.44-20.38a111,111,0,0,1,3.82-15c3-9.42,3.88-19.35,6.14-28.93,2.51-10.61,5.4-21.12,8.17-31.66.63-2.37,2.11-4.7,2-7-.27-8.07,3.44-14.95,5.12-22.42,2-8.8,4.17-17.53,6.31-26.28,4.4-18,8.12-36.21,13.21-54.06,2.22-7.78,6.12-15.25,6-23.85,0-1.74,1.46-3.47,2.09-5.27,2-5.64,4.8-11.17,5.5-17s4.13-10.59,4.6-16.65c.36-4.66,3.26-9.17,5.34-13.57,2-4.19,2.11-9,4.47-13.17,2.06-3.62,2.41-8.33,4-12.35q5.17-13.32,10.85-26.4a57.69,57.69,0,0,1,5.15-9.39c5.3-7.87,10.17-15.94,17.23-22.45,5.53-5.11,10.78-10.6,16.83-15,9.21-6.67,19.67-8.78,30.54-9,4.91,2.77,10,.41,14.95.52,3.23.07,7.11,1.38,9.55-.1,3.54-2.16,5.68,2.12,9,.57a16.08,16.08,0,0,1,10.45-.87,25.76,25.76,0,0,0,10.11.64c3.43-.36,6.8.76,10,1.29,8.68,1.44,17.09-.24,25.6-.73s16.85-1.37,25.28-2.08c5.44-.46,10.9-.74,16.31-1.42,8.46-1.06,16.66-4.17,25.3-3.87,5.32-3.54,11.41-2.25,17.13-3.28,1.46-.26,2.82-1.13,4.64-1.89,3.54,2.19,8.79.21,12.5,4.08,3.23,3.38,6.61,6.58,9.13,9.08.92,5.25,1.59,9.09,2.52,14.47.33-.52-.71.37-.73,1.29-.28,13.36-8.91,25.63-19,32-7.24,4.52-14.42,9.07-22.17,12.44-4.94,2.15-10,4.05-15,5.91-4.6,1.69-9.21,3.4-13.9,4.7s-9.53,1.28-13.79,3.21c-4.87,2.21-10,1.41-14.73,3-11.51,3.87-23.41,3.21-35.13,4.51-11.93,1.33-23.91,2.21-35.89,3-3.32.23-6.7-.51-10-.86s-6.81,2.11-10.18-.69c-.81-.68-2.63-.09-3.95.12-8.17,1.32-15.9-1.29-23.8-2.81a106.31,106.31,0,0,1-15.45-4.18c-4.87-1.71-8.78-4.9-12.71-7.69-5-3.59-5.15-10.24-3.72-16.31A47.89,47.89,0,0,1,467.85,1662c-1.07-.25-2.09-.84-2.46-.52-7.53,6.42-13.39,21.36-14.06,32.75-4.16-.07-2.67-4.65-4.39-6.79s-2.25-5.43-3.3-8.21Z"/><path class="cls-28" d="M65.92,2039.13a55.41,55.41,0,0,0,2.74-6.79c.67-2.66.89-5.46,1.44-9.06,7.22-8.26,16.33-14.55,27.74-15,17.57-.68,34.73-5,52.21-6.3,7.84-3.69,16.56-1.72,24.43-4.08,13.2-4,26.72-3.11,40.05-4.8a33.93,33.93,0,0,0,8.17-2.56c2.43-.94,5,.1,7.65-1.85,3.09-2.3,7.88-.14,11.12-3.33,11.59-2.51,22.53-7.26,33.49-11.82,7.09-3,14.26-5.78,21.19-9.08,10.41-5,20.82-10,31.45-14.28a57.87,57.87,0,0,1,24.95-4.22c-1.48,7.38-2.5,14.92-4.56,22.1-2.12,7.38-3,15.11-5.31,22.3s-3.05,14.62-4.14,21.8c-1.15,7.63-4.85,15.32-1.32,24.27-5.44-3-9.62-6.49-14.29-7.71-4.89-1.28-9.79-4.16-15.16-2.56-5.46-4.51-9.43,2.69-14.53,1,.05.67.11,1.34.17,2,3.44-.29,6.91-.42,10.33-.9,7.16-1,13.47,3.12,20.34,3.81,3.54,3.62,8.12,5.93,11.33,11.1.43,6,.12,12.94,1.61,19.43s2.07,13.13,6,18.79c3.47,5.05,2.89,12.49,8.95,16.29l-16.5,8.23c-4.22.35-10.55.42-16.7,1.57-3.89.73-7.19-1.31-10.9-1.14-3.33.16-6.66,1.84-10.17-.63-1.45-1-4.23.11-6.4.36a44.16,44.16,0,0,1-17.75-1.8c-1-.29-2.12.07-3.18,0-2.82-.29-5.55,1.36-8.57-.73-2.23-1.54-5.31.3-8.41-1-3.92-1.66-8.81-.35-13.17-1.13-10-1.8-20.31.69-30.19-2.68-.72-.25-1.61.12-2.43.16-3.92.2-7.72.65-11.74-.57-3.37-1-7.34,1.43-10.82-1.09-5.3,1.74-10.5-.49-15.76-.65-4.26-.13-8.69-1.51-12.88-1.68-10.11-.43-19.49-4.65-29.49-5.4-4.49-.34-8.89-2.05-13.3-3.27s-8.78-2.56-13.14-3.93c-7.26-2.29-14.57-4.43-21.73-7.06-5-1.85-5.49-2.88-7.53-8.52-2.8-7.72-4.84-15.61-5-24C66.14,2041.51,66,2040.33,65.92,2039.13Z"/><path class="cls-14" d="M419.42,2442.21l-4.06-1.5,2.2-3.68c-.54-.59-1.51-1.13-1.61-1.83-1.2-7.67-2.17-15.37-3.38-23-.66-4.18-1.86-8.25-2.44-12.44s.27-8.69-1.17-12.28c-1.89-4.74-1.16-9.76-2.58-14.24-2.33-7.29-1.32-15.14-3.36-22.12-2.17-7.43-2.16-14.84-2.83-22.28-.42-4.6-3-8.46-2.81-13.3s.43-9.86-1.11-14.07c-2.47-6.75-1.86-13.69-2.92-20.48-.55-3.59-1.77-7.07-2.29-10.67-.55-3.79.32-8.13-1.08-11.4-2.63-6.12-1.55-12.58-2.84-18.7a160.07,160.07,0,0,1-3.53-27.5c-3.37-5.14-1.94-11.23-2.85-16.85-1-5.91-2.16-11.79-2.84-17.74-.73-6.46-1-13-1.45-19.49-.44-6.2,0-12.7-1.57-18.52-1.88-6.79-2.18-13.58-2.84-20.1l5.87-5.15,17.13-1.44,5.6,3a6.76,6.76,0,0,1,.81,1.8c.58,11,3.93,21.63,4.13,32.79.2,10.94,2.32,21.88,2,32.78-.7,26,3.93,51.59,3.67,77.37-.18,18.27,3.1,36.26,2.34,54.32-.72,17.42,2.65,34.5,2,51.68-.45,12.34.64,24.44,1.31,36.63.68,12.41,1.73,24.81,2.59,37.21A4.72,4.72,0,0,1,419.42,2442.21Z"/><path class="cls-14" d="M132.07,2115.09c3.77-5.33,7.72-5.36,12.28-3.87s6.74,5.11,9,8.94c-2,11.41-4,23-6.22,35.43a5.65,5.65,0,0,1,1,2.41,10,10,0,0,0,2.51,6.08c2.48,3,5.5,6.52,2.42,11.21-1.2,13.52-5.88,26.2-8.09,39.45-1.05,6.28-3.86,12.11-4.33,18.29-.5,6.5-2.54,12.41-3.91,18.56-2.07,9.33-4.58,18.54-6.49,27.94-3.31,16.35-7.22,32.56-11,48.81-1.53,6.64-4.3,13.17-4.64,19.86-.36,7.15-3.82,13.26-4.14,20.24,0,.94-1.33,1.81-2.66,3.5,0-6.05.49-11.3.86-16.54.1-1.36.68-2.69.72-4.05.17-6.29-.2-12.65.45-18.88.66-6.4,1.06-12.95,2.2-19.12.91-5,.58-10,1.47-14.93,1-5.37,1.67-11,2.12-16.49.38-4.73.31-9.72,1.08-14.41,1.43-8.83-.38-18.05,2.9-26.6-1.55-8,2.26-15.53,1.89-23.64-.28-6.25,2.17-12.64,1.62-19.17,3.42-4.11.28-9.23,1.9-14,1.38-4.09,1.34-9.39,1.31-14.31a89,89,0,0,1,1.74-20c1.83-8,1.31-16.49,4.42-24.36C133.72,2122.5,132.31,2118.42,132.07,2115.09Z"/><path class="cls-14" d="M602.12,2052.19l2.15-2.92c5.13,4.93,8.82,10.55,8.73,16.57,3.12,7.73,5.64,14,8.15,20.21l-4.93,3.43-3.43-1.69c-1.06.72-2.14,2.09-3.2,2.07-10.27-.2-19.94,3.95-30.14,4.58-8.73.55-17.64,1.56-26,4.15-5.5,1.71-11.14,1.22-16.34,3-6.2,2.14-12.8,1.41-18.73,3.41-10.76,3.64-21.8,2.74-32.67,4.23-6.47.88-13.38-.08-19.45,2-8.67,3-17.48,2.27-26.16,3.67a10.86,10.86,0,0,1-2.15,0l-2.47-4.71c6.24-2.38,12.46-4.73,18.65-7.14,3.82-1.49,7.68-2.88,11.5-4.31,5.55-2.08,11.36-3.65,17-5.48,11.73-3.81,24.18-5.15,35.22-11.48a6.85,6.85,0,0,1,3.19-.4c7.17-.09,13.34-4.13,20-6.08,5.38-1.57,10.58-3.89,15.86-5.87a71.13,71.13,0,0,0,7.91-3,51.15,51.15,0,0,1,11.62-4.22c6.38-1.58,12.46-4.61,18.66-7.06C597,2054.38,598.93,2053.54,602.12,2052.19Z"/><path class="cls-14" d="M364.66,2126.13c-9.08,2.94-17.78,4.59-26.41,6.65-13.28,3.18-26.81,2.41-40,5.09-6,1.22-11.94,3-18,2.82-4.69-.14-9.47-1.67-14.1-.34-17.66,5.08-35.87,4.2-53.81,6.15-18.15,2-36.38,3.16-54.57,4.69l-5,.42c.72-5.64.31-11.35,2.31-15.76,2.25-4.93-1.82-10.62,3-15.09,5.59.26,11.48-.67,17.67-.12s12.61,1.75,19,.72c3.37-.54,6.45,2,10.07,1,3.25-.83,6.61-.12,10.05.53,5.9,1.1,12.09.27,18.15.58a117.18,117.18,0,0,1,19.77,2.85,8.72,8.72,0,0,0,2.2.57c4.08-.27,8.15-.88,12.23-.93,3.61,0,7.35,1.27,10.83.66,9.35-1.65,18.69.72,28-.47,2.5-.32,4.46,3.18,7.36.59,2-1.77,4.56.82,7.06.13s5.43-.41,8.12-.83c3.6-.55,7.38.33,10.71-2.49,1.26-1.06,3.9-1.12,5.57-.51C351.1,2125.36,357.88,2122.25,364.66,2126.13Z"/><path class="cls-14" d="M703.09,2264.15c-6-11.46-12.26-22.73-17.78-34.43-5.86-12.44-12.41-24.45-18.18-37-4-8.77-8.52-17.41-12.62-26.2-2.85-6.11-5.16-12.51-7.78-18.74-3.05-7.23-6.83-14.11-9.46-21.5a105.65,105.65,0,0,0-10.07-21.19c-2.1-3.35-3.09-7.52-4.54-11.2l5.49-4.73-16.37-45.71c.35-5,5.65-6.46,9.21-10.9,4.3,11.48,10.75,20.72,13.28,32.23,1.62,7.39,5.31,14.23,7.86,21.4,3.56,10,6.65,20.27,10.46,30.18,4.77,12.42,9,25.08,13.69,37.55,3.33,8.89,6.88,17.78,9.75,26.89,2.79,8.88,6.3,17.44,9.22,26.26q5.41,16.38,10.89,32.74c2.19,6.58,3.36,13.92,7.53,19.77.7,1,.3,2.89.4,4.37Z"/><path class="cls-29" d="M453.28,1728.82c-.64,5.47-.23,9.81-1.71,13.18-4,9.08-5.07,19-7.36,28.49-2.82,11.67-5.81,23.34-7.74,35.29-1,6.19-2.38,12.39-3.9,18.47s-2.12,12.53-3.35,18.7c-1.28,6.44-2.38,12.94-3.67,19.39-.69,3.49-1.89,7-2.06,10.47-.41,8.67-2.26,17.09-3.22,25.66-.55,5-1.33,9.87-2.23,14.76-1.15,6.23-2.52,12.47-3,18.75s-1.46,12.71-2.48,19c-1.29,7.89-2.3,15.85-3.95,23.66a380.72,380.72,0,0,1-12.77,47.28c-1.07,3.06-1.84,6.25-3.2,10.92-.38-2.95-1.1-4.65-.68-5.89,2.76-8.15,3.2-16.75,4.55-25.17,1-6,2.71-11.84,3.16-17.83a155.36,155.36,0,0,1,2.41-18.18c1.11-5.68,1.19-11.7,3-17.08,1.19-3.62-.71-7.11,1.42-10.81,2-3.53,1.78-8.52,3.15-12.62,1.31-3.9.14-8.53,3.12-11.85.42-7.5,2.61-14.64,3.77-22s2.18-14.77,3.39-22.13c.44-2.69,1.38-5.28,1.84-8,1.05-6.27,2.67-12.37,3-18.87.27-5.37,2.33-10.63,3.59-15.94,2.27-9.58,3.38-19.44,6.09-28.93,2.24-7.84,4.66-15.73,5.85-23.8,1.1-7.41,3.54-14.33,5.11-21.55,1.5-6.91,3.78-13.62,5.78-20.4C451.33,1731.2,451.94,1730.68,453.28,1728.82Z"/><path class="cls-14" d="M418.05,2157.46c2,.7,3.91.93,5.35,1.93,2.05,1.41,3.77,3.39,6.25,5.69-3,28-7.07,56.38-9.81,85.05-1.43-3.84-1.19-8-1.57-12.05-.44-4.72-.7-9.45-1-14.18-.32-4.43-.51-8.88-1-13.29-.49-4.6.11-9.05.55-13.61.42-4.35-.68-8.84-.73-13.28s.3-9.06.64-13.58C417,2166,417.57,2161.87,418.05,2157.46Z"/><path class="cls-14" d="M432.6,2112.69c-1.08,2.63-1.8,5.24-3.12,7.43-2.73,4.53-5.88,8.77-8.68,13.26-2.45,3.91-4.66,8-7.34,12.64-.62-4.8-.76-9.38-1.12-13.93s-.67-9.34-1-13.89C415.6,2114.15,422,2112.47,432.6,2112.69Z"/><path class="cls-14" d="M193.62,2103.58c4.14.36,8.11-1.71,12.53.48,3.33,1.65,7.79-2,11.53,1,.33.26,1.06-.09,1.6-.09,6.84,0,13.76-.65,20.5.24s13.7,1.05,20.39,3c1.71.51,3.71-.17,5.54,0,.78.08,1.49,1,2.23,1.53-3.89,0-7.65,1.11-11.69-.6-3.23-1.37-7.17,1.69-10.81-.95-1.07-.77-3.17.34-4.78.23-3.65-.23-7.26,1.84-11-.25-3.28-1.84-6.91.54-10.76-1-3.21-1.31-7.58-.39-11.48-1.12-4.3-.8-8.75-.72-13.12-1.12C194,2105,193.85,2104.06,193.62,2103.58Z"/><path class="cls-14" d="M90.44,2083.72a25.45,25.45,0,0,1,16.82,5.72C103.29,2089.43,94.6,2086.48,90.44,2083.72Z"/><path class="cls-14" d="M268.27,2110l11.15-.94C274.36,2111.71,271.66,2111.83,268.27,2110Z"/><path class="cls-14" d="M283,2110.61l9.23-.77C289.45,2112.28,286.23,2111.46,283,2110.61Z"/><ellipse class="cls-14" cx="314.07" cy="2112.17" rx="6.95" ry="0.63" transform="translate(-176.33 33.85) rotate(-4.82)"/><path class="cls-14" d="M193.29,2103.39l-7.9.67C190.06,2101.6,190.06,2101.6,193.29,2103.39Z"/><path class="cls-14" d="M296.21,2111.29l9.44-.79C301.55,2112.92,298.89,2112.29,296.21,2111.29Z"/><path class="cls-14" d="M181.76,2102.49l-6,.5-.14-1.09,6-1Z"/><path class="cls-14" d="M135.9,2096.17l4.59-.39C137.9,2097.66,137.9,2097.66,135.9,2096.17Z"/><path class="cls-14" d="M162,2100.58l-4.33.37-.16-.9,4.23-1Z"/><path class="cls-14" d="M341.61,2107.52l4.75-.64.18,1.17-4.76,1.09C341.73,2108.6,341.67,2108.06,341.61,2107.52Z"/><path class="cls-10" d="M454,1726.63c.49-1.8-1.84-4.37,1.25-5.46C454.77,1723,457.1,1725.53,454,1726.63Z"/><path class="cls-14" d="M332.35,2111.83l4.33-.37.16.89-4.23,1Z"/><path class="cls-14" d="M107.52,2089.64l4.59-.39C109.52,2091.13,109.52,2091.13,107.52,2089.64Z"/><path class="cls-14" d="M123.69,2093.19l-4.59.38C121.69,2091.7,121.69,2091.7,123.69,2093.19Z"/><path class="cls-14" d="M124.22,2093.58l4.59-.38C126.22,2095.07,126.22,2095.07,124.22,2093.58Z"/><path class="cls-14" d="M135.36,2095.77l-4.59.39C133.36,2094.28,133.36,2094.28,135.36,2095.77Z"/><path class="cls-14" d="M341.88,2110.32l-3.09.55-.23-1.13,3.14-.95Z"/><path class="cls-10" d="M458.22,1713c-.41,2.21-.61,3.3-.81,4.39a14.47,14.47,0,0,1-.89-2.43C456.47,1714.74,457.06,1714.34,458.22,1713Z"/><path class="cls-10" d="M455.27,1721.17c.15-1.37-1-3.33,1.38-3.69C456.5,1718.85,457.7,1720.81,455.27,1721.17Z"/><path class="cls-10" d="M452.64,1730.31c.15-1.36-1.05-3.33,1.38-3.68C453.87,1728,455.07,1730,452.64,1730.31Z"/><path class="cls-14" d="M377.12,2075.64c-.15,1.36,1.05,3.32-1.38,3.68C375.89,2078,374.69,2076,377.12,2075.64Z"/><path class="cls-14" d="M362.19,2096.52c-.05-2.67,1.92-1.68,3.14-2.05C365.38,2097.13,363.41,2096.15,362.19,2096.52Z"/><path class="cls-14" d="M360.69,2098.43c.05,2.66-1.92,1.68-3.14,2.05C357.5,2097.81,359.47,2098.8,360.69,2098.43Z"/><ellipse class="cls-14" cx="115.61" cy="2091.41" rx="2.32" ry="0.63" transform="translate(-177.19 17.37) rotate(-4.87)"/><path class="cls-14" d="M705.34,2263.82l.5,3.37-1,.24-.87-3.41Z"/><path class="cls-14" d="M170.25,2101.67l-2.71.23-.18-.83,2.61-.92Z"/><path class="cls-14" d="M390.53,2037.33l.2,2.94-.76.2-.84-2.83Z"/><ellipse class="cls-14" cx="144.79" cy="2097.87" rx="1.16" ry="0.42" transform="translate(-179.53 20.17) rotate(-4.92)"/><path class="cls-14" d="M368.34,2090.65l1.51-1.91Z"/><path class="cls-14" d="M366.84,2092.56l1.5-1.91Z"/><path class="cls-14" d="M365.33,2094.47l1.51-1.91Z"/><path class="cls-14" d="M360.69,2098.43l1.5-1.91Z"/><path class="cls-14" d="M376.94,2075.49l1-1.54.56.51-1.25,1.35Z"/><ellipse class="cls-14" cx="353.66" cy="2103.48" rx="0.39" ry="1.26" transform="translate(-145.9 29.8) rotate(-4)"/><ellipse class="cls-14" cx="379.25" cy="2071" rx="0.39" ry="1.26" transform="matrix(1, -0.07, 0.07, 1, -143.57, 31.51)"/><ellipse class="cls-14" cx="348.89" cy="2105.67" rx="0.39" ry="1.26" transform="translate(-146.06 29.47) rotate(-4)"/><path class="cls-14" d="M372.91,2083.29l-1,1.54-.55-.51,1.24-1.35Z"/><path class="cls-14" d="M374.24,2081.23l-1.51,1.91Z"/><ellipse class="cls-14" cx="382.14" cy="2065.4" rx="0.39" ry="1.26" transform="translate(-143.17 31.69) rotate(-4)"/><path class="cls-14" d="M375.74,2079.32l-1.5,1.91Z"/><ellipse class="cls-14" cx="151.45" cy="2099.1" rx="1.16" ry="0.42" transform="translate(-179.61 20.75) rotate(-4.92)"/><ellipse class="cls-14" cx="383.52" cy="2061.72" rx="1.16" ry="0.42" transform="translate(-175.55 40.53) rotate(-4.92)"/><path class="cls-14" d="M90.3,2083.92l-1.42-1.13.47-.6,1.25,1.35Z"/><ellipse class="cls-14" cx="86.17" cy="2081.4" rx="0.39" ry="1.26" transform="matrix(1, -0.07, 0.07, 1, -145.01, 11.08)"/><ellipse class="cls-14" cx="388.78" cy="2043.43" rx="1.16" ry="0.42" transform="translate(-173.96 40.91) rotate(-4.92)"/><path class="cls-14" d="M369.67,2088.59c.34-.51.68-1,1-1.54l.55.51-1.24,1.35Z"/><ellipse class="cls-14" cx="391.41" cy="2034.29" rx="1.16" ry="0.42" transform="translate(-173.16 41.1) rotate(-4.92)"/><path class="cls-14" d="M357.73,2100.62l-1,1.55-.55-.52,1.24-1.35Z"/><rect class="cls-30" x="603.07" y="612.97" width="275.48" height="352.17"/><rect class="cls-31" x="631.25" y="646.99" width="219.13" height="280.14"/><path class="cls-32" d="M702.59,747.89a44.49,44.49,0,0,1,70.78-9.27,1.83,1.83,0,0,0,1.74.56c7.34-.78,14.67-1.7,22-2.19a64.93,64.93,0,0,1,21,1.62,16.18,16.18,0,0,1,6.28,3,6.13,6.13,0,0,1,2.31,6.34,12.94,12.94,0,0,1-2.85,5.48,47.93,47.93,0,0,1-10.5,9.24,162.89,162.89,0,0,1-27.17,14.59,1.76,1.76,0,0,0-1.22,1.38,42.74,42.74,0,0,1-6.75,16,44.5,44.5,0,0,1-68.83,5.88,1.6,1.6,0,0,0-1.55-.51c-5.52.68-11,1.47-16.58,1.92-8.3.67-16.62.85-24.84-.92a19.84,19.84,0,0,1-7.41-2.94,6.34,6.34,0,0,1-2.85-7.15,14,14,0,0,1,3.21-5.67c3.81-4.46,8.52-7.83,13.42-10.94a171.2,171.2,0,0,1,23.62-12.28,2.19,2.19,0,0,0,1.49-1.81c.35-1.81.93-3.59,1.55-5.89C700.37,752.5,701.35,750.12,702.59,747.89ZM689,780.29c-2,3.6-.51,7.23,3.52,9A27.92,27.92,0,0,0,703,791.15,116.21,116.21,0,0,0,730,788.21,191.83,191.83,0,0,0,775.34,773a69.56,69.56,0,0,0,13.44-8.29,19.85,19.85,0,0,0,4.9-5.43c2.08-3.64,1-7.28-2.86-9.1-3.22-1.54-6.68-1.9-10.33-2.1.16.37.28.66.42.93a45.55,45.55,0,0,1,4.41,13,1.35,1.35,0,0,1-.62,1.57A90.88,90.88,0,0,1,767.37,773c-17.72,7.49-36.07,12.69-55.28,14.47-3.46.32-7,.17-10.45.25a1.21,1.21,0,0,1-1.3-.91A45.91,45.91,0,0,1,697,772.32C693.79,774.61,690.83,776.89,689,780.29Z"/><circle class="cls-33" cx="675.73" cy="883.36" r="5.46"/><circle class="cls-34" cx="739.25" cy="847.77" r="5.46"/><circle class="cls-35" cx="796.38" cy="888.08" r="5.46"/><circle class="cls-36" cx="822.46" cy="824.67" r="5.46"/><circle class="cls-37" cx="807.99" cy="683.8" r="5.46"/><circle class="cls-38" cx="664.9" cy="723.73" r="5.46"/><circle class="cls-39" cx="729.46" cy="674.01" r="5.46"/><polygon class="cls-31" points="2905.52 2106.67 983.43 2080.97 1827.87 1662.67 3047.17 1658.76 2905.52 2106.67"/><polygon class="cls-14" points="2775.17 1655.43 2775.17 1961.23 1241.17 1959.46 1241.09 1351.6 1447.29 1349.91 1446.6 1655.43 2775.17 1655.43"/><polygon class="cls-14" points="2899.56 1377.21 2901.91 1663 2775.07 1961.16 2773.83 1654.93 2899.56 1377.21 2899.56 1377.21 2899.56 1377.21 2899.56 1377.21"/><polygon class="cls-14" points="1854.08 1165.58 1441.13 1350.67 1441.15 1350.55 1241.23 1349.29 1441.15 1261.66 1668.91 1159.81 1854.08 1165.58"/><polygon class="cls-14" points="1446.68 1344.76 1854.08 1165.58 1854.08 1165.58 1869.78 1378.51 1869.78 1378.51 1475.39 1655.43 1446.6 1655.43 1446.68 1344.76 1446.68 1344.76"/><polygon class="cls-14" points="2775.17 1655.43 2775.17 1655.43 1475.21 1655.53 1869.62 1378.27 2899.56 1377.21 2775.17 1655.43"/><path class="cls-40" d="M2922,1374.41v288.26a11.83,11.83,0,0,1-1.58,5.93,8.07,8.07,0,0,1-.33.94l-2.15,5.13L2791.37,1975.9a8.33,8.33,0,0,1-10.87,4.43l-1.44-.61a13,13,0,0,1-2.08.17l-1317.92-18.78a13.54,13.54,0,0,1-13.5-13.5V1663.28l-.12-.16a9.88,9.88,0,0,1-1.84-7.23l1332.13,18.78L2920,1367.94A11.87,11.87,0,0,1,2922,1374.41Z"/><polygon class="cls-41" points="1445.3 1959.8 1241.17 1959.46 1241.17 1353.54 1430.95 1379.89 1445.3 1959.8"/><path class="cls-42" d="M2920,1367.94l-144.31,306.73L1443.6,1655.89a9.88,9.88,0,0,1,3.89-6.58l421.24-285.17a9.86,9.86,0,0,1,8.74-1.51,12.56,12.56,0,0,1,2.31-.22H2910A12,12,0,0,1,2920,1367.94Z"/><path class="cls-43" d="M1995.73,1363.5c-3.36,3-6.07,5.31-8.63,7.76-6,5.71-12.8,10.82-17.68,17.36-17.42,23.35-39.49,41.35-63.48,57.28a231.82,231.82,0,0,1-52.3,25.75c-9.93,3.46-17.65,9.74-23.87,18.16-8,10.78-13,10.23-18.64-2-3.64-7.82-8.87-14.13-16.69-17.9-15.36-7.4-26-19.38-34-34.1-5.93-11-11.41-22.24-17.67-33a58.61,58.61,0,0,0-10.42-12.5c-7.7-7.37-16-14.15-23.65-21.51-1.82-1.73-3.74-5.26-3.11-7.12s4.23-3.24,6.77-3.9a40,40,0,0,1,10.42-1.12c11.51.12,20.87-4.7,29.36-12,18.45-15.84,38.36-29.48,61.41-37.7,10.3-3.67,21.17-5.75,31.74-8.7a176.54,176.54,0,0,0,18.83-5.92c4.25-1.72,7.72-1.94,10.88,1.48,5.4,5.85,12.16,7.86,19.93,8.94,26.36,3.67,47.78,16.9,65.6,36.19,8,8.66,16,17.07,28.11,19.76a7,7,0,0,1,2.13,1.27C1992,1360.84,1993.23,1361.72,1995.73,1363.5Z"/><path class="cls-44" d="M1531.16,1539.15c4,2.72,7.26,4.77,10.36,7,7.22,5.21,15.25,9.65,21.43,15.9,22,22.33,48.27,38.25,76.22,51.69a249.72,249.72,0,0,0,59.62,19.71c11.11,2.22,20.28,7.77,28.16,15.84,10.09,10.31,15.34,9,19.6-4.85,2.73-8.88,7.37-16.39,15.15-21.57,15.29-10.17,24.9-24.55,31.18-41.43,4.69-12.6,8.87-25.42,13.95-37.86a63.08,63.08,0,0,1,9.25-14.89c7.12-9,14.92-17.46,22.05-26.45,1.68-2.12,3.2-6.17,2.26-8.06s-5-2.83-7.81-3.16a43,43,0,0,0-11.27.35c-12.27,1.84-23-1.91-33.11-8.43-22-14.16-45.3-25.76-71.11-31.1-11.53-2.39-23.44-3-35.15-4.58-7-1-14.12-1.79-21-3.52-4.78-1.21-8.52-.92-11.38,3.19-4.89,7-11.81,10.19-19.93,12.5-27.59,7.83-48.48,25.11-64.63,48.34-7.24,10.43-14.51,20.58-27,25.25a7.26,7.26,0,0,0-2.08,1.68C1534.72,1535.77,1533.56,1536.89,1531.16,1539.15Z"/><path class="cls-45" d="M3415.06,1618.12c-16.1-.52-32.27,1.84-48.42,2.29-16.65.49-33.33.57-50,.06l-1-.06a12,12,0,0,1-1.57-.19l-.44-.07c-.67-.13-1.34-.27-2-.44s-1.27-.34-1.92-.54-1.5-.45-2.27-.72l-2.19-.74c-.75-.25-1.51-.51-2.27-.75-.28-.1-.55-.19-.83-.27h0c-12.55-1-24.44-9.42-30-22.59-.34-.8-.64-1.61-.9-2.41l0,0a3.1,3.1,0,0,1-.18-.26l-.05-.08a4.86,4.86,0,0,1-.34-.63c-5-10.56-11.59-20.76-14.46-31.91a410.18,410.18,0,0,0-77-155.2c-32.48-40.82-72.5-69.52-125.35-77.49l-9.5-1.43c-1.19-.17-2.42-.36-3.7-.56-.43,0-.86-.12-1.31-.19l-103.88-15.46h0c-38-5.65-74.07-11-91.38-13.63-.8-.12-5.07.13-9.42.4h0s0,0,0,0l-4.89,0q-5.37,0-10.71.09c-.69,0-1.38,0-2.07,0-1.67,0-3.31.09-5,.16s-3.54.13-5.31.23c-.55,0-1.08,0-1.61.09-1.88.11-3.74.21-5.62.35-9.19.66-18.38,1.7-27.53,3.25-.89.14-1.77.3-2.65.46-1.77.32-3.53.65-5.31,1-4.4.9-8.8,1.91-13.2,3.07-35.58,9.34-67.2,27-97.73,46.75-40.49,26.12-83.95,43.25-132.47,45.16-21.09.83-42.26.13-63.37-.49-27.49-.8-51.54,7.16-73.36,24.21-18.25,14.24-37,28.2-57.11,39.6-30.34,17.27-61.44,33.45-93.26,47.77-32.56,14.66-66.51,26.2-99.64,39.63-36,14.59-70.43,32-97.94,60.34-19.85,20.46-36.52,43-41.88,72-2.8,15.14,1.39,22.59,15.48,29.34,27.31,13.11,56.09,21.22,86,25.42,66.46,9.35,131.77,1,196.34-14.2,59.68-14,118.79-30.52,178.51-44.34,55.24-12.78,111.29-21,168.27-19.61,22.89.53,45.81,4.61,62.77,20.48a289.61,289.61,0,0,1,43.2,51.28c31.15,47.1,45.75,101,58.69,155.15,12.4,52,23.75,104.27,36.51,156.2,6.09,24.85,14.56,49.09,30.59,69.77,10,12.9,23.24,18.69,39.58,18.14,16.05-.54,30.77-5.7,45-12.44,39.17-18.59,74.09-43.8,107.54-71,41.12-33.42,82.14-66.89,127.18-95.07a923.63,923.63,0,0,0,141.28-108.65c41.68-39,78.63-81.48,101.32-134.78,7.24-17,12.53-34.28,13.13-52.85C3446,1629.15,3437.61,1618.84,3415.06,1618.12Zm23.67,25.86c-1.57,14.46-3.05,29.29-7.49,43-9.13,28.22-26.75,51.83-45.93,74-47.68,55.18-103.77,101.24-160.79,146.15-23.56,18.55-48.8,34.94-72.59,53.21-23.19,17.82-49,31.46-69.8,53.49s-47.68,38.76-72.67,56.71c-24,17.22-49.2,32.59-77.41,42.19-30.52,10.37-50.07,2.5-65-25.87a61.26,61.26,0,0,1-4.39-9.18c-7.36-22.81-15.6-45.42-21.59-68.6-14.7-56.8-27.53-114.1-42.68-170.79-12.62-47.17-32.37-91.25-62.44-130.46-26.19-34.15-57.93-56-102.71-56.5-41.15-.49-82,2.29-122.16,10.36-49.85,10-99.52,21.17-148.73,33.87-61,15.75-121.88,31-185.09,34.8-55.57,3.36-109.39-3.24-160.86-25.25-18.64-8-20.46-11.61-15.71-31a64.26,64.26,0,0,1,2.56-8.19c11.12-28.18,29.7-50.71,53.19-69.39,25.17-20,53.74-33.92,83.27-46.14,45.06-18.64,90.68-36.13,134.94-56.54,41-18.9,80.28-41.22,115.47-70.15,16.61-13.65,36.39-20.33,57.95-20.62,13.81-.2,27.64.5,41.46.81,47,1,92.13-7.11,133.77-29.58,22-11.9,43.07-25.59,64.63-38.34,39.08-23.1,80.86-37.18,126.67-38.09,4.76-.09,9.51-.5,14.26-1l3.82-.41h0c4.4.13,9.05.07,9.63.19,12.25,2.43,33.21,6.18,57.57,10.43h0l.37.06,16.6,2.87h0c49.68,8.6,107.64,18.33,135.14,23.2l1.28.23c.43.09.85.16,1.27.23l2,.36c43.67,7.89,80,28.61,108.79,61.75a375.13,375.13,0,0,1,81.07,154.55c5.37,20.95,12.76,40.85,28.32,56.72,3.77,3.84,7.11,8.09,10.91,12.43,2.48.64,5.7,1.4,8.89,2.27,9.5,2.58,19,7.3,28.51,7.37,22.62.16,45.25-2,67.9-2.93a302.46,302.46,0,0,1,32,0C3433.35,1626.94,3439.83,1633.88,3438.73,1644Z"/><path class="cls-46" d="M3423,1626.26a300,300,0,0,0-32,0c-22.65.91-45.28,3.09-67.9,2.92-9.52-.07-19-4.79-28.5-7.36-3.2-.87-6.41-1.63-8.9-2.27-3.79-4.34-7.14-8.6-10.9-12.44-15.57-15.86-23-35.77-28.32-56.72a375.19,375.19,0,0,0-81.07-154.55c-28.76-33.14-65.12-53.85-108.8-61.75l-1.95-.35-1.26-.23-1.28-.23c-27.51-4.88-85.46-14.6-135.14-23.21h0l-.37.09c-45.38,11.72-75.32,42.69-98.14,81.1s-43.34,78-65.34,116.76c-11.44,20.19-23.8,39.9-42.43,54.6-28.31,22.32-54,23.93-84.24,4-21.57-14.17-41.29-31.46-63.74-43.9-34.39-19-70.28-35.38-105.83-52.24-16.43-7.77-33.59-14-50.4-21,.39-.9.78-1.8,1.17-2.72,32,12.62,64.1,24.8,95.85,37.94,40.74,16.86,77.71,40.23,112.86,66.74a128.57,128.57,0,0,0,31.35,17.29c22.79,8.69,42.31.8,59.54-14.83,17.52-15.92,29-36.14,40.13-56.53,19.59-36,38.08-72.54,58.14-108.22,14.12-25.07,31.32-48.05,54.58-65.83,1-.78,2.06-1.54,3.08-2.26s2-1.4,3.06-2c10.92-7,21.32-10.09,33.74-11.9-24.37-4.25-45.32-8-57.58-10.43-.58-.12-5.23-.06-9.63-.19h0c-1.28.15-2.55.28-3.82.41-4.75.5-9.49.92-14.25,1-45.81.9-87.6,15-126.67,38.09-21.57,12.75-42.61,26.44-64.63,38.34-41.65,22.47-86.78,30.58-133.77,29.58-13.83-.31-27.66-1-41.47-.82-21.56.29-41.33,7-57.94,20.63-35.19,28.93-74.51,51.25-115.48,70.15-44.26,20.41-89.87,37.89-134.94,56.54-29.52,12.22-58.1,26.13-83.26,46.13-23.5,18.69-42.07,41.22-53.2,69.39a64.72,64.72,0,0,0-2.55,8.19c-4.76,19.38-2.93,23,15.7,31,51.48,22,105.29,28.61,160.87,25.26,63.21-3.81,124.1-19.06,185.08-34.8,49.22-12.7,98.88-23.87,148.74-33.88,40.16-8.06,81-10.84,122.16-10.36,44.77.53,76.52,22.35,102.71,56.5,30.06,39.21,49.82,83.29,62.44,130.47,15.15,56.68,28,114,42.68,170.79,6,23.17,14.22,45.78,21.58,68.6a61.27,61.27,0,0,0,4.4,9.18c14.9,28.37,34.45,36.24,65,25.86,28.22-9.6,53.44-25,77.42-42.18,25-18,51.81-34.62,72.67-56.71s46.61-35.67,69.8-53.5c23.78-18.27,49-34.66,72.58-53.21,57-44.91,113.11-91,160.8-146.14,19.18-22.19,36.79-45.8,45.93-74,4.44-13.73,5.91-28.56,7.48-43C3439.83,1633.89,3433.34,1627,3423,1626.26Zm-223.91,170.86c-43.5.85-87.08,1.55-129-13.32-41.29-14.67-64.8-45.7-76.56-86.68-9.64-33.59-10.47-68-7.44-102.4,2.54-28.78,7-57.4,10.69-86.07a9.83,9.83,0,0,1,2.49-5.45c-1.79,17-3.7,34.06-5.34,51.13-3.48,36.14-5,72.3-.3,108.49,3.42,26.54,11.62,51.37,26.76,73.55,17,24.91,42,38.63,70.49,44.25,29.06,5.73,58.79,8,88.22,11.8,6.68.85,13.39,1.54,20.08,2.3C3199.17,1795.53,3199.12,1796.32,3199.08,1797.12Z"/><path class="cls-45" d="M2921.63,1307.5c-3.39,1.91-2.68,2-3.87,2.35l-.69.19a.27.27,0,0,0-.12,0h0l-.37.09c-45.38,11.72-75.32,42.69-98.14,81.1s-43.34,78-65.34,116.76c-11.44,20.19-23.8,39.9-42.43,54.6-28.31,22.32-54,23.93-84.24,4-21.57-14.17-41.29-31.46-63.74-43.9-34.39-19-70.28-35.38-105.83-52.24-16.43-7.77-33.59-14-50.4-21,.39-.9.78-1.8,1.17-2.72,32,12.62,64.1,24.8,95.85,37.94,40.74,16.86,77.71,40.23,112.86,66.74a128.57,128.57,0,0,0,31.35,17.29c22.79,8.69,42.31.8,59.54-14.83,17.52-15.92,29-36.14,40.13-56.53,19.59-36,38.08-72.54,58.14-108.22,14.12-25.07,31.32-48.05,54.58-65.83,1-.78,2.06-1.54,3.08-2.26s2-1.4,3.06-2c10.92-7,21.32-10.09,33.74-11.9h0c3.61-.54,7.39-1,11.4-1.35a21.34,21.34,0,0,1,4.66.11.72.72,0,0,1,.21,0s0,0,0,0C2917.42,1306.12,2918.66,1306.64,2921.63,1307.5Z"/><path class="cls-45" d="M3199.21,1794.72c0,.81-.09,1.6-.13,2.4-43.5.85-87.08,1.55-129-13.32-41.29-14.67-64.8-45.7-76.56-86.68-9.64-33.59-10.47-68-7.44-102.4,2.54-28.78,7-57.4,10.69-86.07a9.83,9.83,0,0,1,2.49-5.45c-1.79,17-3.7,34.06-5.34,51.13-3.48,36.14-5,72.3-.3,108.49,3.42,26.54,11.62,51.37,26.76,73.55,17,24.91,42,38.63,70.49,44.25,29.06,5.73,58.79,8,88.22,11.8C3185.81,1793.27,3192.52,1794,3199.21,1794.72Z"/><path class="cls-47" d="M1072.94,1726c-2.79-25.49-8.83-50.94-.92-75.86,3.62-11.43,11.44-22.14,19.44-31.36,6.86-7.91,18.14-13,28-7.73,5.48,2.89,7.4,12.54,10.62,18.58l23.16-10.13c-7.73-16.55-16.3-34.92-24.87-53.29l-3.45.51c-5.28,21-19.94,30.14-39.65,33.51-11.76,2-21.23,8.9-24.61,20.09-5.28,17.49-17,29.15-30.7,39.55-10.46,7.94-21.39,15.28-34.66,24.7-1.47-36.5-5.35-70.94,18-98.35,13.95-16.39,31-30.65,46.83-45.63,20.86-19.77,46.29-11.19,62.28,12.54,14.82,22,27.85,44.23,36.07,69.35,1.56,4.75,3.18,9.47,7.2,13.73-1.14-26-2.29-51.9-3.47-78.61-8.82-1-16.86-1.84-24.86-2.9-10-1.34-12.32-5.41-8.08-14.08,6.5-13.3,46.58-25.61,59-17.84,3.68,2.29,6.27,6.29,9.84,8.82,3,2.13,6.64,4.36,10.13,4.61,7.64.56,18.88,3,22.32-.92,7-7.89,11.34-19.1,13.86-29.64,8.33-34.77,21.62-40.88,44.46-42.23,5.85-.35,11.59-2.36,17.42-3.31,10.26-1.68,19.18,0,27.84,7.08A97.78,97.78,0,0,0,1361,1482.4c10.61,4.06,16.44,11,18.5,21.48a168.5,168.5,0,0,1,2.56,22c.42,6.94.09,13.93.09,19.24,15.3,7.91,30,14.64,43.87,22.93,15.24,9.13,23.39,23.37,24.14,41.34,1.15,27.57,5.31,54.46,16.83,79.84.7,1.54.79,3.37,1.56,6.88-24.52-7.41-44.64-17.69-52-42.87-2.58-8.77-6.57-11.33-15.62-10.86-22.55,1.17-35.63-8.33-44.6-29.17-1.39-3.23-6.47-5-10.07-7.06-1-.58-2.88.23-4.34.46-32.57,5.08-32.57,5.08-59.18-13.09-31.32,35-45.06,77.74-55.61,122.53,2.68.6,4.08,1.08,5.52,1.22,17.36,1.71,16.9,1.53,22.84-15,5.24-14.58,10.76-29.19,17.79-43,9.41-18.39,24-31.56,48-12a33.29,33.29,0,0,0,3.68,2.27c9.13-17.15,25.52-18.17,36-1.77,15,23.44,13.91,49.58,12,78.39-5.7-4.28-9.18-7.41-13.13-9.76-9.42-5.59-18.67-11.73-28.7-16-13.92-5.87-24.53-19.38-23.13-34.31.51-5.52,4.55-10.7,7.26-16.65-11.56-10.93-22-10.47-32.29,3.84-13.87,19.23-19.81,41.68-25.87,64.17,16.76,3.12,32.48,5.31,47.81,9.11,15.57,3.86,17.36,7.48,16.21,23.63q-8.7,122.35-17.36,244.72c-1.86,26.27-23.07,48.46-49.54,49.61-24,1.05-48.12,1-72.13,0-25-1.07-46.05-20.47-48.58-45.36-3.67-36.06-5.86-72.28-8.38-108.45-3.36-48.36-6.16-96.76-9.85-145.1-.74-9.71,2.78-15.13,11.27-17.38a331.33,331.33,0,0,1,33.52-7.14c6.71-1.05,10.09-3.36,9-10.56-3.13-21.88-6.1-43.78-9.19-65.66a8.58,8.58,0,0,0-1.42-4.17c-3.84-4.66-7.3-11.78-12.07-12.87-4.27-1-10.07,4.78-14.61,8.52,20.15-2.65,28.32,5.58,24.62,26.09-3.84,21.3-15.14,35.8-36.91,42.7C1104,1710.15,1089.4,1718.48,1072.94,1726Zm167.54-171.57c-3.2-2.35-6.5-4.57-9.58-7.07-9-7.29-18.74-9-29.53-5.5.23,18.61,5.44,23,22.34,21.89,4.6-.29,10.43,2.91,14,6.3,4,3.77,6.06,9.57,9.61,15.61v-12c1.19,5.09,2.38,10.17,4.2,18,7.1-14.39,18.8-26,12.07-39.68-5.51-11.15-19.79-9.43-31.84-10.21Zm101.92,115.29c-3.69-2.9-7-6.52-11.16-8.52-4.58-2.21-10.4-4.81-14.66-3.61-2.46.69-4.35,8.65-4,13.14.94,12.4,7.91,20.71,19.51,25.81,9.63,4.23,18.65,9.85,28.05,14.63,2.28,1.17,5,1.47,7.53,2.16,4.59-23.1,2.19-45.1-11.56-64.78-2.5-3.59-7.31-6.54-11.59-7.6-3.48-.87-10.48.62-11.15,2.65-1.46,4.4-.85,10.16.77,14.7C1335.65,1662.5,1339.55,1665.9,1342.4,1669.67ZM1107,1661.38c4.1-6,8-12.08,12.36-17.79,3.81-4.95,6.1-23.46,2.07-27-7.11-6.33-14.65-2.8-21.5,1-13.86,7.64-22.87,20-24.44,35.15-1.93,18.54-.53,37.43-.34,56.17,0,.66,2.4,1.3,3.68,2-.35,2.73-.69,5.46-.89,7.07,16.31-6.59,32.59-13,48.76-19.74,17.22-7.14,30.19-30.94,25.41-47.95-1.12-4-6.47-10.07-9.19-9.73-10.09,1.27-21.34,1.4-27.61,12.34C1113.35,1656.13,1109.78,1658.54,1107,1661.38Zm262.8-117.14c5.23,3.39,8.54,2.54,8.23-4.26-.53-11.39-.87-22.83-2.28-34.13-1.23-9.84-6.86-16.17-16.85-19.77-8.89-3.21-18.09-7.67-24.91-14-9.11-8.44-18.72-9.26-29.66-7.45-9.46,1.56-19,2.91-28.35,4.81-14,2.82-25.68,18.8-24.44,32.18,11.64-4.14,23.14-9.59,35.25-12.23,20.72-4.53,41.08-4.11,57.26,13a56.53,56.53,0,0,1-6.88-3c-25.77-15.55-50.4-8.68-73.11,1.56,8.34,4.4,17.65,8.16,25.62,13.8,9.2,6.52,18.19,12,29.88,12.59a71.79,71.79,0,0,1,41.68,15.77C1363.14,1544.6,1366.86,1543.9,1369.76,1544.24Zm-351.57,103.44c12.63-23.27,23.62-47.66,38.62-69.27,6.55-9.43,20.77-14.53,32.49-19,8.5-3.27,18.62-2.33,28.06-3.26-8.61-23.6-35.69-30.76-54.78-12.57-14.73,14-29.36,28.26-43.76,42.52-23.68,23.45-20.14,55.61-20,87.45l6.8-5.31a28.18,28.18,0,0,0,1.71,2.25c18.2-11.37,37.78-22.53,45.83-43.25,7.42-19.12,18.84-29.45,38.81-32.89,17.45-3,27.6-15.77,27.34-30.86-25-7.3-52.31,3-67,26.47-9.77,15.63-18.06,32.18-27.18,48.22C1023.24,1641.55,1020.54,1644.51,1018.19,1647.68Zm105.89,159.2c0,4.22-.18,7.12,0,10,4.18,59,8.23,118,12.68,177,2.06,27.3,23.28,46.94,50.69,47.34,20.71.3,41.42.34,62.12,0,28.16-.53,49-21.68,50.77-49.92,2.45-39.48,5.5-78.92,8.21-118.39,1.51-22,2.84-44,4.33-67.43C1250,1821.81,1187.88,1822.57,1124.08,1806.88Zm164.4-218.74,1,4.68c13,10.61,26.76,17.91,44.49,11.41a54.81,54.81,0,0,1,13-2.5c6.57-.69,10.86,1.55,13.34,8.6,7.53,21.41,20.64,30.06,43.1,28.16,9-.76,13.63,1.77,15.92,10.75,5.22,20.42,19.57,32,39.76,39.06-.31-3.77-.32-6.68-.81-9.51-3.86-22.5-8.38-44.9-11.56-67.49-2.21-15.78-7-29.62-20.93-38.54-8.69-5.57-17.55-11.14-27-15.21-34.62-15-81.15-4.14-101.54,23.07,6.82-2.91,13.43-6,20.26-8.59,29.89-11.15,37.3-9,57.5,16.64-3.46-2.24-7-4.67-9.21-8-6.28-9.65-15.64-13.67-25.84-10.75C1322.53,1574.92,1305.63,1582,1288.48,1588.14Zm-72.77,127.72,4,.77c1-3,1.88-6,3-9,8.94-24.64,15.95-50.21,27.35-73.65,17.86-36.75,44.13-66.52,83.6-81.86,7-2.71,14.36-4.21,21.56-6.27.2-1,.41-2.07.61-3.11-8.77-3.29-17.33-8.52-26.34-9.47-19.11-2-35.12-8.67-49.84-21.25-11.9-10.16-31-3.68-37.16,10.72-1.85,4.34-3.45,8.79-5.37,13.72,7.83,2.11,15.08,3.52,21.93,6,7.66,2.82,12.69,8.65,10.54,17.19-5.54,22-15.26,42.27-35,54.63-9.33,5.85-14.49,11.46-13.62,22.34.2,2.53-.62,5.13-.79,7.71Q1217.89,1680.11,1215.71,1715.86Zm100,32.38c-65.55,15.72-130.42,15.78-196.19-.32.41,5.44,1.37,10.93,1.11,16.36-.46,9.85,3.45,14.73,13.55,15.75,25,2.53,49.77,6.94,74.77,8.24a289.47,289.47,0,0,0,96.49-11.45c3.86-1.13,9-4.67,9.81-8C1316.8,1762.23,1315.71,1755,1315.71,1748.24Zm-193,33.41c-.81,19.63-.36,20.81,11.33,23.44,54.6,12.28,109.23,12.49,163.77-.31,17.65-4.14,18.32-5.57,15-25.26C1250,1796.74,1186.75,1797,1122.74,1781.65Zm53.2-64.22,3.5,3.32c3.94-2.93,11-5.51,11.35-8.84,3.18-28.54,5.15-57.22,7.44-85.3-35.9-16.59-19.83-45.24-18-70.93l-13.83,1.92C1169.66,1611.53,1172.8,1664.48,1175.94,1717.43Zm19.78-171.58c-14.67,12.28-22.15,49.15-12.41,64.49,3.09,4.88,9.31,7.76,14.39,11.79,7.15-19,13.32-35.39,19.62-52.11C1202.13,1569.47,1199.81,1556.85,1195.72,1545.85Zm125,192.59c-4-2.34-5.71-4-7.73-4.47-17.57-3.83-35.17-7.57-52.84-10.89-1.54-.29-4.71,2.24-5.35,4.07-3,8.61-5.41,17.43-8.53,27.88C1271.8,1752.68,1296,1752.68,1320.71,1738.44Zm-118.23-119.76,3.25,2.48c15.24-3.61,31.21-7.1,38.87-22.85,3.78-7.76-9.18-27.28-21-32Zm13.7,6.06c-10.78-2-14.8,2-14.67,12.19.14,9.57-1.14,19.17-1.71,28.76-1,16.85-2,33.7-3,50.9h12.28C1211.5,1685.75,1213.81,1655.61,1216.18,1624.74Zm-45.41,128.61c-.57-10.68-1-19.62-1.52-28.46-21.36-.47-41.49,5.18-50.53,14.39C1133.89,1750.42,1151.57,1750.66,1170.77,1753.35Zm25.65-215.65c-8.82-14.15-20.89-18-31.24-10.56-4.94,3.57-5.11,16.85-.29,23.08S1182,1551.79,1196.42,1537.7Zm52.91,185c-6.32-.39-11.13-1.32-15.75-.75-3,.36-7.58,2.43-8.15,4.6-2.36,9-3.45,18.34-5,27.51,18.38,3,18.4,3,23-11.74C1245.23,1736.35,1247,1730.4,1249.33,1722.66Zm-87.16-169.49c-3.87-9.17,2-20.44-10.47-22.2-10-1.41-18.4,7.48-19,18.79Zm33.31,201.94,13.11-.6V1723c-9-3.23-13.17-.29-13.12,8.62C1195.5,1738.84,1195.48,1746.09,1195.48,1755.11ZM1177.7,1723c0,9.31-.35,17.38.23,25.39.15,2.14,3.11,4.08,4.77,6.11,1.81-1.78,4.92-3.38,5.19-5.36,1.18-8.59,1.52-17.29,2.18-26.14Z"/><path class="cls-48" d="M1124.08,1806.88c63.8,15.69,125.87,14.93,188.82-1.47-1.49,23.39-2.82,45.42-4.33,67.43-2.71,39.47-5.76,78.91-8.21,118.39-1.75,28.24-22.61,49.39-50.77,49.92-20.7.39-41.41.35-62.12,0-27.41-.4-48.63-20-50.69-47.34-4.45-59-8.5-118-12.68-177C1123.9,1814,1124.08,1811.1,1124.08,1806.88Z"/><path class="cls-49" d="M1288.48,1588.14c17.15-6.19,34-13.22,51.53-18.24,10.2-2.92,19.56,1.1,25.84,10.75,2.18,3.35,5.75,5.78,9.21,8-20.2-25.69-27.61-27.79-57.5-16.64-6.83,2.54-13.44,5.68-20.26,8.59,20.39-27.21,66.92-38,101.54-23.07,9.43,4.07,18.29,9.64,27,15.21,13.9,8.92,18.72,22.76,20.93,38.54,3.18,22.59,7.7,45,11.56,67.49.49,2.83.5,5.74.81,9.51-20.19-7-34.54-18.64-39.76-39.06-2.29-9-6.87-11.51-15.92-10.75-22.46,1.9-35.57-6.75-43.1-28.16-2.48-7-6.77-9.29-13.34-8.6a54.81,54.81,0,0,0-13,2.5c-17.73,6.5-31.51-.8-44.49-11.41Z"/><path class="cls-22" d="M1315.71,1748.24c0,6.76,1.09,14-.46,20.6-.77,3.31-6,6.85-9.81,8a289.47,289.47,0,0,1-96.49,11.45c-25-1.3-49.82-5.71-74.77-8.24-10.1-1-14-5.9-13.55-15.75.26-5.43-.7-10.92-1.11-16.36C1185.29,1764,1250.16,1764,1315.71,1748.24Z"/><path class="cls-42" d="M1122.74,1781.65c64,15.36,127.25,15.09,190.13-2.13,3.29,19.69,2.62,21.12-15,25.26-54.54,12.8-109.17,12.59-163.77.31C1122.38,1802.46,1121.93,1801.28,1122.74,1781.65Z"/><path class="cls-49" d="M1005.65,1668.21l-6.8,5.31c-.17-31.84-3.71-64,20-87.45,14.4-14.26,29-28.49,43.76-42.52,19.09-18.19,46.17-11,54.78,12.57-9.44.93-19.56,0-28.06,3.26-11.72,4.5-25.94,9.6-32.49,19-15,21.61-26,46-38.62,69.27Z"/><path class="cls-50" d="M1344,1502.37c-16.18-17.08-36.54-17.5-57.26-13-12.11,2.64-23.61,8.09-35.25,12.23-1.24-13.38,10.45-29.36,24.44-32.18,9.39-1.9,18.89-3.25,28.35-4.81,10.94-1.81,20.55-1,29.66,7.45,6.82,6.32,16,10.78,24.91,14,10,3.6,15.62,9.93,16.85,19.77,1.41,11.3,1.75,22.74,2.28,34.13.31,6.8-3,7.65-8.23,4.26C1365.3,1527.74,1355.59,1514.48,1344,1502.37Z"/><path class="cls-49" d="M1005.65,1668.21l12.54-20.53c2.35-3.17,5-6.13,7-9.53,9.12-16,17.41-32.59,27.18-48.22,14.67-23.47,41.94-33.77,67-26.47.26,15.09-9.89,27.85-27.34,30.86-20,3.44-31.39,13.77-38.81,32.89-8,20.72-27.63,31.88-45.83,43.25A28.18,28.18,0,0,1,1005.65,1668.21Z"/><path class="cls-49" d="M1107,1661.38c2.82-2.84,6.39-5.25,8.31-8.6,6.27-10.94,17.52-11.07,27.61-12.34,2.72-.34,8.07,5.74,9.19,9.73,4.78,17-8.19,40.81-25.41,47.95-16.17,6.71-32.45,13.15-48.76,19.74.2-1.61.54-4.34.89-7.07Z"/><path class="cls-49" d="M1107,1661.38l-28.17,49.41c-1.28-.65-3.67-1.29-3.68-2-.19-18.74-1.59-37.63.34-56.17,1.57-15.12,10.58-27.51,24.44-35.15,6.85-3.78,14.39-7.31,21.5-1,4,3.59,1.74,22.1-2.07,27C1114.92,1649.3,1111.06,1655.43,1107,1661.38Z"/><path class="cls-49" d="M1344,1502.37c11.58,12.11,21.29,25.37,25.75,41.87-2.9-.34-6.62.36-8.56-1.19a71.79,71.79,0,0,0-41.68-15.77c-11.69-.63-20.68-6.07-29.88-12.59-8-5.64-17.28-9.4-25.62-13.8,22.71-10.24,47.34-17.11,73.11-1.56A56.53,56.53,0,0,0,1344,1502.37Z"/><path class="cls-49" d="M1195.72,1545.85c4.09,11,6.41,23.62,21.6,24.17-6.3,16.72-12.47,33.13-19.62,52.11-5.08-4-11.3-6.91-14.39-11.79C1173.57,1595,1181.05,1558.13,1195.72,1545.85Z"/><path class="cls-42" d="M1320.71,1738.44c-24.76,14.24-48.91,14.24-74.45,16.59,3.12-10.45,5.52-19.27,8.53-27.88.64-1.83,3.81-4.36,5.35-4.07,17.67,3.32,35.27,7.06,52.84,10.89C1315,1734.41,1316.75,1736.1,1320.71,1738.44Z"/><path class="cls-49" d="M1367.67,1713.28c-2.52-.69-5.25-1-7.53-2.16-9.4-4.78-18.42-10.4-28.05-14.63-11.6-5.1-18.57-13.41-19.51-25.81-.35-4.49,1.54-12.45,4-13.14,4.26-1.2,10.08,1.4,14.66,3.61,4.13,2,7.47,5.62,11.15,8.52Q1355,1691.47,1367.67,1713.28Z"/><path class="cls-50" d="M1367.67,1713.28q-12.64-21.81-25.28-43.61c-2.84-3.77-6.74-7.17-8.25-11.42-1.62-4.54-2.23-10.3-.77-14.7.67-2,7.67-3.52,11.15-2.65,4.28,1.06,9.09,4,11.59,7.6C1369.86,1668.18,1372.26,1690.18,1367.67,1713.28Z"/><path class="cls-49" d="M1202.48,1618.68l21.16-52.33c11.78,4.68,24.74,24.2,21,32-7.66,15.75-23.63,19.24-38.87,22.85Z"/><path class="cls-42" d="M1170.77,1753.35c-19.2-2.69-36.88-2.93-52-14.07,9-9.21,29.17-14.86,50.53-14.39C1169.72,1733.73,1170.2,1742.67,1170.77,1753.35Z"/><path class="cls-49" d="M1247.32,1573.59v12c-3.55-6-5.62-11.84-9.61-15.61-3.57-3.39-9.4-6.59-14-6.3-16.9,1.06-22.11-3.28-22.34-21.89,10.79-3.51,20.58-1.79,29.53,5.5,3.08,2.5,6.38,4.72,9.58,7.07Z"/><path class="cls-49" d="M1196.42,1537.7c-14.41,14.09-26.65,18.83-31.53,12.52s-4.65-19.51.29-23.08C1175.53,1519.65,1187.6,1523.55,1196.42,1537.7Z"/><path class="cls-50" d="M1247.32,1573.59l-6.84-19.21-8.73-12.71c12,.78,26.33-.94,31.84,10.21,6.73,13.63-5,25.29-12.07,39.68C1249.7,1583.76,1248.51,1578.68,1247.32,1573.59Z"/><path class="cls-42" d="M1249.33,1722.66c-2.34,7.74-4.1,13.69-5.94,19.62-4.57,14.71-4.59,14.71-23,11.74,1.56-9.17,2.65-18.5,5-27.51.57-2.17,5.18-4.24,8.15-4.6C1238.2,1721.34,1243,1722.27,1249.33,1722.66Z"/><path class="cls-49" d="M1162.17,1553.17l-29.48-3.41c.61-11.31,9-20.2,19-18.79C1164.15,1532.73,1158.3,1544,1162.17,1553.17Z"/><path class="cls-42" d="M1195.48,1755.11c0-9,0-16.27,0-23.52,0-8.91,4.09-11.85,13.12-8.62v31.54Z"/><path class="cls-42" d="M1177.7,1723h12.37c-.66,8.85-1,17.55-2.18,26.14-.27,2-3.38,3.58-5.19,5.36-1.66-2-4.62-4-4.77-6.11C1177.35,1740.35,1177.7,1732.28,1177.7,1723Z"/><path class="cls-8" d="M1748.06,976.39c.3,38.53-2.94,76.9-7.15,115.22l2,.22q7-57.87,14-115.76l2.61.21-2.26,51,.81.17q3.78-18.37,7.55-36.75l1.87.33c-1.1,30.48-6.78,60.28-14.81,89.73l1.71.38q10.83-46.91,21.67-93.82c-.4,35.73-6.9,70.4-18.22,104.49,1.33.34,2.18.85,2.87.68,14-3.37,18,8.57,24.72,16.2,1,1.17.71,4,.24,5.91-6.86,27.78-13.91,55.52-20.78,83.3-.84,3.39-2.3,4.78-6,4.79q-41.09.15-82.17.72c-3.65,0-5.08-1.3-6-4.77-7.41-27.86-15.08-55.65-22.48-83.51-.5-1.9.53-4.24,1-6.33.18-.75,1.05-1.3,1.47-2,5.65-9.83,13.17-16.1,25.43-13.48a4.34,4.34,0,0,0,1.88-.17c.38-.09.7-.41.58-.34l-24.37-94.38,3.27-1.06q2.65,8.43,5.34,16.88a147.94,147.94,0,0,0,6.55,17.82q-3.62-17.06-7.22-34.12l2.32-.67,9.09,28.48c.5-19.3-.16-38.47,5-57.37,1.83,37.13,4.68,74,14.73,109.92-4.58-34.31-6.63-100.66-2.94-113.42,3.65,36.35,7.2,71.72,10.75,107.1l1.75-.11c-3.73-38.19-4.08-76.31,1-114.3l1.84,0q1.32,35.81,2.63,71.6l.81,0q2.6-22.09,5.21-44.19l1.87.16.36,39.61c2.58-21.34,5-41.49,7.44-61.63l2.13.17q-1.92,64.22-3.82,128.45l2,.15L1736,966.86l3.16.23q-3.45,61.63-6.91,123.25l.51.06q6.33-57.12,12.65-114.26ZM1709.52,1137c-5.61-4-11.44-4.49-17.8-1.66-6.56,2.9-13.14,3.5-20.07.29-2.82-1.31-6.54-.93-9.85-.9-4,0-5.53,2.14-4.33,6.21,2,6.84,4.16,13.68,5.62,20.65,1.1,5.26,2.86,8.77,9,7.51l-6.46,1.2c1.22,4.61,2.33,8.79,3.51,13.27a64.6,64.6,0,0,1,6.34-2.19c11.14-2.59,22.3-5,32.17,3.67-8.76-3.09-17.54-5.3-27-2.88-11.44,2.93-11.4,2.72-8.14,14.14.82,2.87,1.47,4.84,5.21,4.79,26.74-.39,53.48-.53,80.21-.88,1.39,0,3.77-1,4-1.89,1.63-6.83,2.84-13.75,4.18-20.65l6.51-19c-11.44-8-21.65-7-32-.87a20,20,0,0,1-8.28,2.84c-3.74.31-7.56-.43-11.35-.72l.07-2.59c7.3,4.18,13.81,1.49,19.89-1.89,9.3-5.17,18.5-6.56,28.21-1.42,1,.52,2.34.37,4,.6l10.66-42.13-133.67,1.2c1.87,7,3.59,13.36,5.26,19.56,5.9,0,11.66-1.58,16.11.19,7.36,2.92,13.77,2.32,20.71-.36,6.46-2.49,12.77-2.49,18,3.05Zm-11.14-26,1.41-1.4c-3.74-13.32-8-26.53-11.08-40s-5.51-27.17-7.37-40.89c-1.82-13.46-2.55-27.07-3.77-40.62,0,15.12-.67,30.28.4,45.31a252,252,0,0,0,16.63,72.86C1695.29,1108.07,1697.1,1109.44,1698.38,1111Zm13.42-2.49c-2.74-41.92-5.47-83.84-8.19-125.5C1701,1025,1702.91,1067,1711.8,1108.52Zm-60.88,2.1,35.8-.33c-3.76-14.83-3.89-15-18.17-14.67-2.52.06-5.76.44-7.37,2C1657.64,1101.08,1654.94,1105.39,1650.92,1110.62Zm52.63-.44,2-.45c-5-35.1-9.93-70.19-14.73-104.14C1691.82,1040.11,1692.42,1075.85,1703.55,1110.18Zm79.76-.71c-4.17-5.11-7.18-9.09-10.5-12.8-2.65-3-15.07-3.07-16.56-.1-2,4-3.42,8.34-5.35,13.19Zm-65.23.38,2.05.06q1.08-55.56,2.15-111.11A622,622,0,0,0,1718.08,1109.85Zm15.23-.82,2.6.25a741.74,741.74,0,0,0,8.5-105.42Zm-42.94,1.46,2.82-1q-14.42-41.32-28.82-82.67C1671.08,1055.38,1677.08,1084.15,1690.37,1110.49Zm64.38-98q-5.52,46.79-11,93.57l2,.23C1752.6,1075.52,1753.1,1044,1754.75,1012.48Zm-7,96.78c13.26-28.47,20-58.72,24.31-88.92Zm-33.63-95.37c-5,31.23-3.28,62.34.83,93.14Zm11.3,95.46,2.74.21q3.08-45.87,6.17-91.72l-1-.08Q1729.4,1063.55,1725.46,1109.35Zm36.9-84.54-1.4-.27-7,34.55,2,.4Zm-86,24.84,1.56-.18-5.4-20.63-1.19.31Q1673.86,1039.4,1676.38,1049.65Zm62.3,59.37,2.27.16q.73-6.73,1.48-13.47l-2.08-.17Q1739.53,1102.28,1738.68,1109Z"/><path class="cls-22" d="M1707.69,1185.09c-9.87-8.69-21-6.26-32.17-3.67a64.6,64.6,0,0,0-6.34,2.19c-1.18-4.48-2.29-8.66-3.51-13.27l6.46-1.2c-6.18,1.26-7.94-2.25-9-7.51-1.46-7-3.6-13.81-5.62-20.65-1.2-4.07.28-6.17,4.33-6.21,3.31,0,7-.41,9.85.9,6.93,3.21,13.51,2.61,20.07-.29,6.36-2.83,12.19-2.37,17.8,1.66,10,6.27,17.47-2.36,26.06-4.11-4.3.53-8.32,2.43-12.55,3.13s-8.46.12-12.7.1c-5.24-5.54-11.55-5.54-18-3.05-6.94,2.68-13.35,3.28-20.71.36-4.45-1.77-10.21-.24-16.11-.19-1.67-6.2-3.39-12.59-5.26-19.56l133.67-1.2-10.66,42.13c-1.65-.23-3-.08-4-.6-9.71-5.14-18.91-3.75-28.21,1.42-6.08,3.38-12.59,6.07-19.89,1.89l-.07,2.59c3.79.29,7.61,1,11.35.72a20,20,0,0,0,8.28-2.84c10.31-6.15,20.52-7.12,32,.87l-6.51,19-10.29,5.25c-6.21-.31-12.41-.82-18.62-.88-4.94,0-10.47-2.18-14.28,3.13Z"/><path class="cls-22" d="M1707.69,1185.09l15.29.13c5.69-.4,11.38-.82,17.07-1.21,5.27-.36,10.55-.69,15.83-1l10.29-5.25c-1.34,6.9-2.55,13.82-4.18,20.65-.23.92-2.61,1.87-4,1.89-26.73.35-53.47.49-80.21.88-3.74,0-4.39-1.92-5.21-4.79-3.26-11.42-3.3-11.21,8.14-14.14C1690.15,1179.79,1698.93,1182,1707.69,1185.09Z"/><path class="cls-51" d="M1650.92,1110.62c4-5.23,6.72-9.54,10.26-13,1.61-1.57,4.85-2,7.37-2,14.28-.35,14.41-.16,18.17,14.67Z"/><path class="cls-51" d="M1783.31,1109.47l-32.41.29c1.93-4.85,3.34-9.17,5.35-13.19,1.49-3,13.91-2.86,16.56.1C1776.13,1100.38,1779.14,1104.36,1783.31,1109.47Z"/><path class="cls-47" d="M1698.38,1111c-1.28-1.57-3.09-2.94-3.78-4.73a252,252,0,0,1-16.63-72.86c-1.07-15-.44-30.19-.4-45.31,1.22,13.55,2,27.16,3.77,40.62,1.86,13.72,4.27,27.4,7.37,40.89s7.34,26.67,11.08,40Z"/><path class="cls-47" d="M1711.8,1108.52C1702.91,1067,1701,1025,1703.61,983,1706.33,1024.68,1709.06,1066.6,1711.8,1108.52Z"/><path class="cls-47" d="M1703.55,1110.18c-11.13-34.33-11.73-70.07-12.69-104.59,4.8,33.95,9.76,69,14.73,104.14Z"/><path class="cls-47" d="M1718.08,1109.85a622,622,0,0,1,4.2-111q-1.07,55.56-2.15,111.11Z"/><path class="cls-47" d="M1733.31,1109l11.1-105.17a741.74,741.74,0,0,1-8.5,105.42Z"/><path class="cls-47" d="M1690.37,1110.49c-13.29-26.34-19.29-55.11-26-83.64q14.42,41.34,28.82,82.67Z"/><path class="cls-47" d="M1754.75,1012.48c-1.65,31.54-2.15,63-9,93.8l-2-.23Q1749.23,1059.26,1754.75,1012.48Z"/><path class="cls-47" d="M1747.79,1109.26l24.31-88.92C1767.74,1050.54,1761.05,1080.79,1747.79,1109.26Z"/><path class="cls-47" d="M1714.16,1013.89,1715,1107C1710.88,1076.23,1709.14,1045.12,1714.16,1013.89Z"/><path class="cls-47" d="M1725.46,1109.35q3.93-45.8,7.88-91.59l1,.08q-3.09,45.86-6.17,91.72Z"/><path class="cls-47" d="M1762.36,1024.81l-6.39,34.68-2-.4,7-34.55Z"/><path class="cls-47" d="M1676.38,1049.65q-2.52-10.25-5-20.5l1.19-.31,5.4,20.63Z"/><path class="cls-47" d="M1738.68,1109q.84-6.74,1.67-13.48l2.08.17q-.75,6.74-1.48,13.47Z"/><path class="cls-8" d="M1755.88,1183c-5.28.35-10.56.68-15.83,1-5.69.39-11.38.81-17.07,1.21,3.81-5.31,9.34-3.18,14.28-3.13C1743.47,1182.15,1749.67,1182.66,1755.88,1183Z"/><path class="cls-8" d="M1710.33,1136.16c4.24,0,8.57.57,12.7-.1s8.25-2.6,12.55-3.13c-8.59,1.75-16.1,10.38-26.06,4.11Z"/><path d="M87.7,1617.55c2.58.55,5,1.07,7.35,1.56l19.87,4.09a40.37,40.37,0,0,1,4.5,1.08,5.85,5.85,0,0,1,1.93,1.31q15,13.46,30.07,27,14.49,13,29,26,15.47,13.88,31,27.74c6.66,6,13.37,11.89,19.93,18a30.16,30.16,0,0,1,3.88,5.21,14.46,14.46,0,0,1,1.43,2.58,5.22,5.22,0,0,1,.62,2.35c-.35,3.91-.85,7.78-3.42,11-2.9,3.68-6.26,6.55-11.15,7.19-5.11.66-9.39-1.2-13.06-4.46q-20-17.79-39.91-35.73-22-19.71-43.93-39.44c-9.25-8.3-18.54-16.57-27.71-25-.93-.85-1.32-2.38-1.74-3.66-1.81-5.44-3.55-10.9-5.3-16.36C89.92,1624.65,88.85,1621.21,87.7,1617.55Zm29.88,14.7a7.68,7.68,0,0,0-4.68,2.5c-.25.23-.25.82-.21,1.23a6.83,6.83,0,0,0,2.1,4c1.22,1.24,2.52,2.4,3.81,3.57q16,14.54,32,29.05,14,12.66,27.85,25.35,14.2,12.91,28.44,25.77l14.43,13.1c.45.41.81.81,1.45.12a22.66,22.66,0,0,1,6.61-5.14c.6-.29.66-.66.29-1.12a27.33,27.33,0,0,0-2.62-3q-20.39-18.37-40.83-36.67-14.91-13.37-29.81-26.73c-11.17-10-22.39-20-33.51-30.07C121.27,1632.68,119.3,1632.72,117.58,1632.25Zm-12.52,12.91a4.58,4.58,0,0,0,1.37,3.41q9.18,8.17,18.31,16.4,17,15.21,34,30.43,13,11.61,25.89,23.25c9,8,17.9,16.1,26.89,24.09a58,58,0,0,0,5.06,3.69c.69.49,1,.14,1.24-.59a29.47,29.47,0,0,1,1.79-4.48,1.34,1.34,0,0,0-.32-2Q205.6,1727,192,1714.62l-33.16-30.09-33.14-30.13c-4.54-4.12-9.21-8.11-13.58-12.42-1.56-1.54-2.91-1.3-4.5-.78C105.56,1641.86,104.9,1643,105.06,1645.16Zm11.62-16a7.14,7.14,0,0,0-.89-.31c-3.76-.8-7.53-1.49-11.25-2.43-2-.5-3.51-.25-4.83,1.34a11.05,11.05,0,0,1-1.72,1.46,1.31,1.31,0,0,0-.45,1.65c1.21,3.64,2.34,7.31,3.51,11,.24.75.54,1.49.82,2.23a13.72,13.72,0,0,0,1-2.28c1.1-2.46,3.3-3.26,5.73-3.65,1.57-.26,1.6-.25,1.4-1.76a4.19,4.19,0,0,1,1.91-4.42C113.39,1631,115,1630.15,116.68,1629.17Z"/><path class="cls-52" d="M117.58,1632.25c1.72.47,3.69.43,5.36,1.94,11.12,10.08,22.34,20,33.51,30.07q14.91,13.35,29.81,26.73,20.43,18.32,40.83,36.67a27.33,27.33,0,0,1,2.62,3c.37.46.31.83-.29,1.12a22.66,22.66,0,0,0-6.61,5.14c-.64.69-1,.29-1.45-.12l-14.43-13.1q-14.22-12.88-28.44-25.77-13.94-12.66-27.85-25.35-16-14.54-32-29.05c-1.29-1.17-2.59-2.33-3.81-3.57a6.83,6.83,0,0,1-2.1-4c0-.41,0-1,.21-1.23A7.68,7.68,0,0,1,117.58,1632.25Z"/><path class="cls-52" d="M105.06,1645.16c-.16-2.2.5-3.3,2.55-4,1.59-.52,2.94-.76,4.5.78,4.37,4.31,9,8.3,13.58,12.42l33.14,30.13L192,1714.62q13.63,12.38,27.27,24.75a1.34,1.34,0,0,1,.32,2,29.47,29.47,0,0,0-1.79,4.48c-.25.73-.55,1.08-1.24.59a58,58,0,0,1-5.06-3.69c-9-8-17.94-16-26.89-24.09q-12.94-11.61-25.89-23.25-17-15.23-34-30.43-9.15-8.21-18.31-16.4A4.58,4.58,0,0,1,105.06,1645.16Z"/><path class="cls-53" d="M116.68,1629.17c-1.7,1-3.29,1.82-4.79,2.79a4.19,4.19,0,0,0-1.91,4.42c.2,1.51.17,1.5-1.4,1.76-2.43.39-4.63,1.19-5.73,3.65a13.72,13.72,0,0,1-1,2.28c-.28-.74-.58-1.48-.82-2.23-1.17-3.65-2.3-7.32-3.51-11a1.31,1.31,0,0,1,.45-1.65,11.05,11.05,0,0,0,1.72-1.46c1.32-1.59,2.85-1.84,4.83-1.34,3.72.94,7.49,1.63,11.25,2.43A7.14,7.14,0,0,1,116.68,1629.17Z"/></g></g></svg>